<svg width="100" height="100" viewBox="0 0 100 100" fill="none" xmlns="http://www.w3.org/2000/svg">
<path d="M85.3555 14.6445C75.9117 5.20117 63.3553 0 50 0C36.6447 0 24.0883 5.20098 14.6445 14.6445C5.20117 24.0883 0 36.6447 0 50C0 63.3553 5.20098 75.9117 14.6445 85.3555C24.0883 94.7988 36.6447 100 50 100C63.3553 100 75.9117 94.799 85.3555 85.3555C94.7988 75.9117 100 63.3553 100 50C100 36.6447 94.799 24.0883 85.3555 14.6445ZM21.7002 83.8471C23.3514 69.641 35.5652 58.6732 50 58.6732C57.6094 58.6732 64.7652 61.6379 70.1477 67.0197C74.6947 71.5676 77.5627 77.5055 78.3004 83.8463C70.633 90.268 60.7605 94.1406 50 94.1406C39.2395 94.1406 29.3678 90.2687 21.7002 83.8471ZM50 52.6381C41.6268 52.6381 34.8137 45.8252 34.8137 37.452C34.8137 29.0779 41.627 22.2656 50 22.2656C58.373 22.2656 65.1863 29.0779 65.1863 37.452C65.1863 45.8252 58.3732 52.6383 50 52.6383V52.6381ZM83.3436 78.8934C81.8381 72.8308 78.7081 67.2934 74.2904 62.877C70.6895 59.2758 66.4291 56.5742 61.7828 54.8813C67.3684 51.0934 71.0457 44.6937 71.0457 37.452C71.0457 25.8477 61.6043 16.4062 50 16.4062C38.3957 16.4062 28.9543 25.8477 28.9543 37.452C28.9543 44.6977 32.6348 51.0994 38.2248 54.8867C33.95 56.4445 29.9943 58.8531 26.5908 62.0238C21.6621 66.6137 18.2396 72.4662 16.6527 78.8887C9.93203 71.141 5.85938 61.0375 5.85938 50C5.85938 25.6607 25.6607 5.85938 50 5.85938C74.3393 5.85938 94.1406 25.6607 94.1406 50C94.1406 61.0396 90.0664 71.1457 83.3436 78.8934Z" fill="#000000"/>
</svg>
