<svg width="20" height="20" viewBox="0 0 20 20" fill="none" xmlns="http://www.w3.org/2000/svg">
<path d="M10 20C4.48598 20 0 15.514 0 10C0 4.48598 4.48598 0 10 0C15.514 0 20 4.48598 20 10C20 15.514 15.514 20 10 20Z" fill="#FFF16B"/>
<path d="M20 10C20 4.48598 15.514 0 10 0V20C15.514 20 20 15.514 20 10Z" fill="#FFD400"/>
<path d="M10 17.6172C5.79988 17.6172 2.38281 14.2001 2.38281 10C2.38281 5.79988 5.79988 2.38281 10 2.38281C14.2001 2.38281 17.6172 5.79988 17.6172 10C17.6172 14.2001 14.2001 17.6172 10 17.6172Z" fill="#FFD400"/>
<path d="M17.6172 10C17.6172 5.79988 14.2001 2.38281 10 2.38281V17.6172C14.2001 17.6172 17.6172 14.2001 17.6172 10Z" fill="#FF9F00"/>
<path d="M11.7247 8.87349L10.4581 7.29025C10.2236 6.99704 9.77762 6.99704 9.54305 7.29025L8.27645 8.87349L6.35637 7.91345C5.92028 7.6954 5.42415 8.07431 5.51977 8.55243L6.30102 12.4587C6.35583 12.7325 6.59629 12.9297 6.87559 12.9297H13.1256C13.4049 12.9297 13.6454 12.7325 13.7002 12.4587L14.4814 8.55243C14.577 8.07431 14.0809 7.6954 13.6448 7.91345L11.7247 8.87349Z" fill="#FFF16B"/>
<path d="M13.125 12.9297C13.4043 12.9297 13.6448 12.7325 13.6996 12.4587L14.4808 8.55242C14.5764 8.0743 14.0804 7.69539 13.6442 7.91344L11.7241 8.87348L10.4575 7.29023C10.3403 7.14363 10.1701 7.07031 10 7.07031V12.9297H13.125Z" fill="#FFD400"/>
</svg>
