<svg width="219" height="44" viewBox="0 0 219 44" fill="none" xmlns="http://www.w3.org/2000/svg">
<path fill-rule="evenodd" clip-rule="evenodd" d="M0 18.0632C0 18.0632 14.8314 20.4683 27.2037 0H34.7086L46.4342 15.2842C46.4342 15.2842 42.1382 16.5992 39.3988 18.9895L30.9566 8.33684C30.9566 8.33684 19.7782 25.8545 0 25.9368V18.0632ZM61.9123 25.9368C61.9123 25.9368 47.0809 23.5313 34.7086 44H27.2037L15.476 28.7158C15.476 28.7158 19.772 27.4008 22.5114 25.0105L30.9536 35.6632C30.9536 35.6632 42.132 18.1443 61.9098 18.0632V25.9368H61.9123Z" fill="#3F53FE"/>
<path fill-rule="evenodd" clip-rule="evenodd" d="M30.9561 26.3074C30.0874 26.3053 29.2388 26.0483 28.5175 25.569C27.7962 25.0897 27.2345 24.4095 26.9035 23.6143C26.5725 22.8192 26.487 21.9448 26.6577 21.1015C26.8284 20.2583 27.2478 19.484 27.8628 18.8766C28.4778 18.2692 29.2608 17.8558 30.113 17.6887C30.9652 17.5216 31.8483 17.6083 32.6508 17.9377C33.4532 18.2672 34.139 18.8248 34.6216 19.5399C35.1041 20.255 35.3618 21.0957 35.3619 21.9557C35.3619 22.528 35.2478 23.0947 35.0262 23.6233C34.8047 24.1518 34.48 24.632 34.0708 25.0362C33.6615 25.4404 33.1758 25.7607 32.6413 25.9789C32.1069 26.197 31.5342 26.3086 30.9561 26.3074Z" fill="#3F53FE"/>
<path d="M78.522 9.99072V28.9747H74.4676V9.99072H78.522Z" fill="#121639"/>
<path d="M97.8977 9.99072V28.9747H94.3957L86.0527 17.0263H85.9123V28.9747H81.8578V9.99072H85.416L93.6934 21.9299H93.862V9.99072H97.8977Z" fill="#121639"/>
<path d="M113.093 9.99072H117.147V22.3192C117.147 23.7034 116.813 24.9147 116.145 25.9528C115.483 26.991 114.556 27.8006 113.364 28.3815C112.172 28.9562 110.783 29.2435 109.197 29.2435C107.605 29.2435 106.213 28.9562 105.021 28.3815C103.829 27.8006 102.902 26.991 102.24 25.9528C101.578 24.9147 101.248 23.7034 101.248 22.3192V9.99072H105.302V21.9762C105.302 22.6992 105.461 23.3419 105.78 23.9043C106.104 24.4666 106.56 24.9085 107.147 25.2298C107.733 25.5512 108.417 25.7118 109.197 25.7118C109.984 25.7118 110.667 25.5512 111.248 25.2298C111.835 24.9085 112.287 24.4666 112.606 23.9043C112.93 23.3419 113.093 22.6992 113.093 21.9762V9.99072Z" fill="#121639"/>
<path d="M137.403 16.637H133.302C133.227 16.1117 133.074 15.6451 132.843 15.2373C132.612 14.8232 132.315 14.471 131.953 14.1805C131.591 13.8901 131.173 13.6676 130.699 13.5131C130.23 13.3587 129.722 13.2814 129.172 13.2814C128.18 13.2814 127.315 13.5255 126.579 14.0137C125.842 14.4957 125.271 15.2002 124.865 16.1271C124.459 17.0479 124.256 18.1664 124.256 19.4827C124.256 20.8361 124.459 21.9731 124.865 22.8939C125.277 23.8147 125.851 24.5099 126.588 24.9795C127.325 25.4492 128.177 25.684 129.144 25.684C129.687 25.684 130.19 25.613 130.652 25.4708C131.12 25.3287 131.535 25.1217 131.897 24.8498C132.259 24.5717 132.559 24.2349 132.796 23.8394C133.039 23.4439 133.208 22.9928 133.302 22.486L137.403 22.5046C137.297 23.3759 137.031 24.2164 136.607 25.0259C136.189 25.8292 135.624 26.5492 134.912 27.1857C134.207 27.816 133.364 28.3166 132.384 28.6874C131.41 29.052 130.308 29.2343 129.079 29.2343C127.368 29.2343 125.839 28.8511 124.49 28.0848C123.148 27.3186 122.087 26.2093 121.307 24.7571C120.533 23.3048 120.146 21.5467 120.146 19.4827C120.146 17.4125 120.539 15.6513 121.326 14.1991C122.112 12.7469 123.18 11.6407 124.528 10.8806C125.876 10.1143 127.393 9.73118 129.079 9.73118C130.19 9.73118 131.22 9.88567 132.169 10.1947C133.124 10.5036 133.97 10.9548 134.706 11.548C135.443 12.1351 136.042 12.855 136.504 13.7078C136.972 14.5606 137.272 15.537 137.403 16.637Z" fill="#121639"/>
<path d="M143.255 28.9747H138.91L145.531 9.99072H150.755L157.366 28.9747H153.021L148.218 14.3289H148.068L143.255 28.9747ZM145.707 21.5127H150.574L151.602 24.6458H144.678L145.707 21.5127Z" fill="#121639"/>
<path d="M156.601 13.2999V9.99072H172.35V13.2999H166.479V28.9747H162.472V13.2999H156.601Z" fill="#121639"/>
<path d="M178.999 9.99072V28.9747H174.944V9.99072H178.999Z" fill="#121639"/>
<path d="M199.957 19.4827C199.957 21.5529 199.56 23.3141 198.768 24.7663C197.981 26.2186 196.907 27.3278 195.546 28.0941C194.192 28.8542 192.669 29.2343 190.977 29.2343C189.273 29.2343 187.743 28.8511 186.389 28.0848C185.034 27.3186 183.964 26.2093 183.177 24.7571C182.391 23.3048 181.997 21.5467 181.997 19.4827C181.997 17.4125 182.391 15.6513 183.177 14.1991C183.964 12.7469 185.034 11.6407 186.389 10.8806C187.743 10.1143 189.273 9.73118 190.977 9.73118C192.669 9.73118 194.192 10.1143 195.546 10.8806C196.907 11.6407 197.981 12.7469 198.768 14.1991C199.56 15.6513 199.957 17.4125 199.957 19.4827ZM195.846 19.4827C195.846 18.1417 195.643 17.0108 195.237 16.0901C194.838 15.1693 194.273 14.471 193.543 13.9952C192.812 13.5193 191.957 13.2814 190.977 13.2814C189.997 13.2814 189.142 13.5193 188.411 13.9952C187.681 14.471 187.113 15.1693 186.707 16.0901C186.308 17.0108 186.108 18.1417 186.108 19.4827C186.108 20.8237 186.308 21.9546 186.707 22.8754C187.113 23.7961 187.681 24.4944 188.411 24.9703C189.142 25.4461 189.997 25.684 190.977 25.684C191.957 25.684 192.812 25.4461 193.543 24.9703C194.273 24.4944 194.838 23.7961 195.237 22.8754C195.643 21.9546 195.846 20.8237 195.846 19.4827Z" fill="#121639"/>
<path d="M219 9.99072V28.9747H215.498L207.155 17.0263H207.015V28.9747H202.96V9.99072H206.518L214.796 21.9299H214.964V9.99072H219Z" fill="#121639"/>
</svg>
