<svg width="18" height="18" viewBox="0 0 18 18" fill="none" xmlns="http://www.w3.org/2000/svg">
<path d="M13.485 8.0925V11.0925C13.485 11.2875 13.4775 11.475 13.455 11.655C13.2825 13.68 12.09 14.685 9.8925 14.685H9.5925C9.405 14.685 9.225 14.775 9.1125 14.925L8.2125 16.125C7.815 16.6575 7.17 16.6575 6.7725 16.125L5.8725 14.925C5.81247 14.8551 5.73909 14.7979 5.65667 14.7566C5.57426 14.7154 5.48445 14.6911 5.3925 14.685H5.0925C2.7 14.685 1.5 14.0925 1.5 11.0925V8.0925C1.5 5.895 2.5125 4.7025 4.53 4.53C4.71 4.5075 4.8975 4.5 5.0925 4.5H9.8925C12.285 4.5 13.485 5.7 13.485 8.0925Z" stroke="#55597D" stroke-miterlimit="10" strokeLinecap="round" strokeLinejoin="round"/>
<path d="M16.4853 5.0925V8.0925C16.4853 10.2975 15.4728 11.4825 13.4553 11.655C13.4778 11.475 13.4853 11.2875 13.4853 11.0925V8.0925C13.4853 5.7 12.2853 4.5 9.89277 4.5H5.09277C4.89777 4.5 4.71027 4.5075 4.53027 4.53C4.70277 2.5125 5.89527 1.5 8.09277 1.5H12.8928C15.2853 1.5 16.4853 2.7 16.4853 5.0925V5.0925Z" stroke="#55597D" stroke-miterlimit="10" strokeLinecap="round" strokeLinejoin="round"/>
<path d="M10.1211 9.9375H10.1286M7.49609 9.9375H7.50359M4.87109 9.9375H4.87859" stroke="#55597D" strokeWidth="2" strokeLinecap="round" strokeLinejoin="round"/>
</svg>
