<svg width="16" height="18" viewBox="0 0 16 18" fill="none" xmlns="http://www.w3.org/2000/svg">
<path d="M13.6667 8.125H2.58333C1.70888 8.125 1 8.83388 1 9.70833V15.25C1 16.1245 1.70888 16.8333 2.58333 16.8333H13.6667C14.5411 16.8333 15.25 16.1245 15.25 15.25V9.70833C15.25 8.83388 14.5411 8.125 13.6667 8.125Z" stroke="#464B70" strokeLinecap="round" strokeLinejoin="round"/>
<path d="M4.16675 8.125V4.95833C4.16675 3.90852 4.58379 2.9017 5.32612 2.15937C6.06845 1.41704 7.07527 1 8.12508 1C9.1749 1 10.1817 1.41704 10.924 2.15937C11.6664 2.9017 12.0834 3.90852 12.0834 4.95833V8.125" stroke="#464B70" strokeLinecap="round" strokeLinejoin="round"/>
</svg>
