<svg width="22" height="22" viewBox="0 0 22 22" fill="none" xmlns="http://www.w3.org/2000/svg">
<path d="M11.0003 1.83331C8.46902 1.83331 6.41699 3.88534 6.41699 6.41665C6.41699 8.94795 8.46902 11 11.0003 11C13.5316 11 15.5837 8.94795 15.5837 6.41665C15.5837 3.88534 13.5316 1.83331 11.0003 1.83331Z" fill="url(#paint0_linear_653_9795)"/>
<path d="M8.25033 12.8333C7.03475 12.8333 5.86896 13.3162 5.00942 14.1758C4.14987 15.0352 3.66699 16.2011 3.66699 17.4166V19.25C3.66699 19.7563 4.0774 20.1666 4.58366 20.1666H17.417C17.9233 20.1666 18.3337 19.7563 18.3337 19.25V17.4166C18.3337 16.2011 17.8508 15.0352 16.9912 14.1758C16.1317 13.3162 14.9659 12.8333 13.7503 12.8333H8.25033Z" fill="url(#paint1_linear_653_9795)"/>
<defs>
<linearGradient id="paint0_linear_653_9795" x1="11.0003" y1="1.83331" x2="11.0003" y2="20.1666" gradientUnits="userSpaceOnUse">
<stop stop-color="#9F9FFF"/>
<stop offset="1" stop-color="#2222FF"/>
</linearGradient>
<linearGradient id="paint1_linear_653_9795" x1="11.0003" y1="1.83331" x2="11.0003" y2="20.1666" gradientUnits="userSpaceOnUse">
<stop stop-color="#9F9FFF"/>
<stop offset="1" stop-color="#2222FF"/>
</linearGradient>
</defs>
</svg>
