<svg width="18" height="18" viewBox="0 0 18 18" fill="none" xmlns="http://www.w3.org/2000/svg">
<path d="M15.4426 16.5C15.4426 13.5975 12.5551 11.25 9.00012 11.25C5.44512 11.25 2.55762 13.5975 2.55762 16.5M9.00012 9C9.99468 9 10.9485 8.60491 11.6518 7.90165C12.355 7.19839 12.7501 6.24456 12.7501 5.25C12.7501 4.25544 12.355 3.30161 11.6518 2.59835C10.9485 1.89509 9.99468 1.5 9.00012 1.5C8.00556 1.5 7.05173 1.89509 6.34847 2.59835C5.64521 3.30161 5.25012 4.25544 5.25012 5.25C5.25012 6.24456 5.64521 7.19839 6.34847 7.90165C7.05173 8.60491 8.00556 9 9.00012 9V9Z" stroke="#55597D" strokeLinecap="round" strokeLinejoin="round"/>
</svg>
