<svg width="32" height="32" viewBox="0 0 32 32" fill="none" xmlns="http://www.w3.org/2000/svg">
<rect width="32" height="32" rx="16" fill="white"/>
<path d="M19.342 13.5639L16.0114 15.3064L12.6809 13.5639L16.0114 11.5828L19.342 13.5639Z" fill="#3F53FE"/>
<path d="M15.5951 16.07V20.3904L12.2183 18.3854V14.3037L15.5951 16.07Z" fill="#3F53FE"/>
<path d="M19.8045 14.3037V18.3854L16.4277 20.3904V16.07L19.8045 14.3037Z" fill="#3F53FE"/>
<path d="M10.1598 19.555V14.6618C11.2237 14.4709 12.0332 13.5161 12.0332 12.3704C12.0332 12.1555 12.0101 11.9407 11.9407 11.7498C11.8945 11.5827 11.8251 11.4156 11.7557 11.2724C11.5475 10.8905 11.2469 10.5563 10.8768 10.3415C10.7149 10.246 10.5067 10.1505 10.3217 10.1028C10.1367 10.055 9.95165 10.0312 9.74349 10.0312C8.51766 10.0073 7.5 11.0575 7.5 12.3465C7.5 13.3251 8.10135 14.1844 8.93398 14.5186V20.2472L13.5366 23.0877C13.6291 22.658 13.8373 22.2761 14.0917 21.9658L10.1598 19.555ZM8.72582 12.3465C8.72582 11.7498 9.1884 11.2724 9.76662 11.2724C9.836 11.2724 9.90539 11.2724 9.9979 11.2962C10.4605 11.3917 10.8305 11.8452 10.8305 12.3465C10.8305 12.3942 10.8305 12.4181 10.8305 12.4658C10.7843 13.0148 10.3217 13.4206 9.78974 13.4206C9.1884 13.4445 8.72582 12.9432 8.72582 12.3465Z" fill="#3F53FE"/>
<path d="M22.2561 10.0075C21.8398 10.0075 21.4697 10.1269 21.1459 10.3178L16.0114 7L11.3394 10.0314C11.6863 10.2701 11.9638 10.6043 12.172 10.9862L16.0114 8.4799L20.2439 11.2249C20.0589 11.559 19.9664 11.941 19.9664 12.3467C19.9664 13.3254 20.5446 14.1608 21.3772 14.5188C21.5391 14.5905 21.701 14.6382 21.8629 14.6621C21.9786 14.6859 22.0942 14.6859 22.233 14.6859C22.5337 14.6859 22.8343 14.6143 23.0887 14.5188C23.2738 14.4472 23.4357 14.3518 23.5745 14.2324C24.1295 13.8028 24.4996 13.1106 24.4996 12.3467C24.5227 11.0578 23.5051 10.0075 22.2561 10.0075ZM22.2561 13.4447C21.9092 13.4447 21.5854 13.2538 21.4004 12.9912C21.2847 12.8241 21.2153 12.6093 21.2153 12.3706C21.2153 11.7739 21.6779 11.2965 22.2561 11.2965C22.8343 11.2965 23.2969 11.7739 23.2969 12.3706C23.2969 12.5854 23.2275 12.8003 23.1119 12.9673C22.9268 13.2538 22.603 13.4447 22.2561 13.4447Z" fill="#3F53FE"/>
<path d="M23.1119 15.0679C22.8343 15.1633 22.5568 15.2111 22.2561 15.2111C22.1405 15.2111 22.0017 15.2111 21.886 15.1872V19.5792L17.6535 22.1571C17.2603 21.7752 16.7283 21.5126 16.127 21.5126C15.6875 21.5126 15.2481 21.6558 14.9012 21.8945C14.7624 21.99 14.6236 22.1093 14.508 22.2287C14.2304 22.539 14.0454 22.9209 13.976 23.3744C13.9529 23.4938 13.9529 23.637 13.9529 23.7563C13.9529 23.8279 13.9529 23.8757 13.9529 23.9473C14.0454 25.093 14.9705 26 16.127 26C17.3297 26 18.3011 24.9975 18.3011 23.7563C18.3011 23.5654 18.278 23.3983 18.2317 23.2312L23.0887 20.2714V15.0679H23.1119ZM16.127 24.7588C15.6644 24.7588 15.2712 24.4008 15.1787 23.9473C15.1556 23.8995 15.1556 23.8279 15.1556 23.7802C15.1556 23.3505 15.4331 22.9686 15.8263 22.8493C15.9188 22.8254 16.0113 22.8015 16.127 22.8015C16.6589 22.8015 17.0753 23.2551 17.0753 23.7802C17.0984 24.3053 16.6589 24.7588 16.127 24.7588Z" fill="#3F53FE"/>
</svg>
