<svg width="176" height="36" viewBox="0 0 176 36" fill="none" xmlns="http://www.w3.org/2000/svg">
<g clip-path="url(#clip0_1714_17944)">
<path d="M47.8863 14.7888C49.0478 13.9748 49.7178 12.6632 49.7178 11.0803C49.7178 8.23104 47.6183 6.33154 44.5361 6.33154H38.863L35.7808 24.1054H43.9107C47.6183 24.1054 50.2092 21.8441 50.2092 18.7687C50.1645 17.0501 49.3605 15.6481 47.8863 14.7888ZM41.7665 9.45215H44.0001C45.3402 9.45215 46.1442 10.1758 46.1442 11.3516C46.1442 12.7084 45.2061 13.5677 43.6874 13.5677H41.0965L41.7665 9.45215ZM43.866 20.9848H39.7564L40.5158 16.5526H44.3127C45.7869 16.5526 46.6356 17.3667 46.6356 18.6783C46.6356 20.1707 45.5635 20.9848 43.866 20.9848Z" fill="#121639"/>
<path d="M62.7615 10.8089L61.3767 18.9044C61.1534 20.2612 60.126 21.1657 58.7859 21.1657C57.4458 21.1657 56.463 20.2612 56.463 18.9948C56.463 18.6782 56.5077 18.4973 56.5077 18.3617L57.8031 10.7637H54.2295L53.0234 17.8642C52.9341 18.3617 52.8894 18.8139 52.8894 19.1757C52.8894 22.2963 55.2122 24.422 58.5625 24.422C61.9574 24.422 64.3249 22.3416 64.9056 18.9496L66.3351 10.8089H62.7615Z" fill="#121639"/>
<path d="M78.1726 10.809L76.8325 18.2713C76.6091 19.7185 75.403 20.5778 74.1076 20.5778C72.7675 20.5778 71.8741 19.7637 71.8741 18.4974C71.8741 18.1808 71.9188 17.9547 71.9634 17.7286L73.1695 10.7637H69.5959L68.3898 17.7738C68.3005 18.4069 68.2111 18.8592 68.2111 19.221C68.2111 20.5326 68.6578 21.5728 69.4619 22.4321C70.3106 23.2914 71.4274 23.6532 72.7228 23.6532C73.9289 23.6532 75.0457 23.2914 76.0284 22.5678L75.8944 23.3366C75.5817 25.1004 74.5096 25.9597 72.8122 25.9597C71.338 25.9597 70.1766 25.3265 68.7025 23.8341L66.5583 26.2311C68.0325 28.1306 70.3553 29.2612 72.8122 29.2612C76.2964 29.2612 78.8426 27.0451 79.4233 23.427L81.6568 10.7185H78.1726V10.809Z" fill="#121639"/>
<path d="M92.3778 10.4924C90.9037 10.4924 89.6529 10.9447 88.6702 11.8492L90.0996 3.8894H86.526L83.0417 24.1055H86.6154L86.928 22.4773C87.7768 23.7437 89.2509 24.4221 91.127 24.4221C94.9687 24.5125 98.2742 21.0753 98.1849 16.8693C98.1402 13.206 95.6834 10.4924 92.3778 10.4924ZM90.8143 21.211C88.9829 21.211 87.6428 19.8542 87.6428 17.9095C87.6428 15.5577 89.2509 13.7487 91.3057 13.7487C93.1818 13.7487 94.4326 15.1055 94.4326 17.2311C94.4326 19.4472 92.8245 21.211 90.8143 21.211Z" fill="#121639"/>
<path d="M107.476 10.4925C103.456 10.402 99.927 13.794 100.016 17.7739C100.016 21.5729 102.875 24.4674 106.717 24.4674C110.782 24.5578 114.311 21.1659 114.221 17.186C114.266 13.387 111.318 10.4925 107.476 10.4925ZM106.896 21.1659C105.019 21.1659 103.724 19.8091 103.724 17.7287C103.724 15.5126 105.332 13.7488 107.342 13.7488C109.263 13.7488 110.603 15.196 110.603 17.2312C110.603 19.4473 108.995 21.1659 106.896 21.1659Z" fill="#121639"/>
<path d="M117.929 6.51245H114.534L123.736 24.1054H127.31L117.929 6.51245ZM113.73 24.1054H117.974L120.252 21.2562L118.688 18.3165L113.73 24.1054ZM125.21 10.8089L123.468 13.025L125.031 16.0099L129.454 10.8089H125.21Z" fill="#121639"/>
<path d="M145.356 14.7888C146.518 13.9748 147.188 12.6632 147.188 11.0803C147.188 8.23104 145.133 6.33154 142.006 6.33154H136.333L133.251 24.1054H141.381C145.088 24.1054 147.679 21.8441 147.679 18.7687C147.634 17.0501 146.83 15.6481 145.356 14.7888ZM139.237 9.45215H141.47C142.81 9.45215 143.614 10.1758 143.614 11.3516C143.614 12.7084 142.676 13.5677 141.157 13.5677H138.566L139.237 9.45215ZM141.291 20.9848H137.182L137.941 16.5526H141.738C143.212 16.5526 144.061 17.3667 144.061 18.6783C144.061 20.1707 143.033 20.9848 141.291 20.9848Z" fill="#121639"/>
<path d="M157.283 10.4925C153.263 10.402 149.734 13.794 149.823 17.7739C149.823 21.5729 152.682 24.4674 156.524 24.4674C160.589 24.5578 164.118 21.1659 164.029 17.186C164.029 13.387 161.08 10.4925 157.283 10.4925ZM156.658 21.1659C154.782 21.1659 153.486 19.8091 153.486 17.7287C153.486 15.5126 155.095 13.7488 157.105 13.7488C159.025 13.7488 160.366 15.196 160.366 17.2312C160.366 19.4473 158.757 21.1659 156.658 21.1659Z" fill="#121639"/>
<path d="M171.667 13.839H175.464L175.955 10.8089H172.158L172.784 7.46216H169.21L168.629 10.8089H166.575L166.083 13.839H168.138L167.245 18.9948C167.155 19.5375 167.111 19.9446 167.111 20.3064C167.111 23.0199 169.165 24.4672 172.471 24.4672C172.962 24.4672 173.498 24.422 174.079 24.3315L174.615 21.3014C174.392 21.3466 173.99 21.3466 173.498 21.3466C171.667 21.3466 170.774 20.8943 170.774 19.6732C170.774 19.4471 170.818 19.221 170.818 19.04L171.667 13.839Z" fill="#121639"/>
<path d="M22.8711 12.4371L16.4386 15.7386L10.0061 12.4371L16.4386 8.68335L22.8711 12.4371Z" fill="#3F53FE"/>
<path d="M15.6346 17.1858V25.3718L9.11279 21.5728V13.8391L15.6346 17.1858Z" fill="#3F53FE"/>
<path d="M23.7645 13.8391V21.5728L17.2427 25.3718V17.1858L23.7645 13.8391Z" fill="#3F53FE"/>
<path d="M5.13706 23.7889V14.5175C7.19188 14.1557 8.75533 12.3467 8.75533 10.1758C8.75533 9.7688 8.71066 9.36177 8.57665 8.99996C8.48731 8.68337 8.3533 8.36679 8.21929 8.09543C7.81726 7.37182 7.23655 6.73865 6.52183 6.33162C6.20914 6.15071 5.80711 5.96981 5.44975 5.87935C5.09239 5.7889 4.73503 5.74368 4.33299 5.74368C1.96548 5.69845 0 7.6884 0 10.1306C0 11.9849 1.16142 13.613 2.76954 14.2462V25.1005L11.6589 30.4824C11.8376 29.6683 12.2396 28.9447 12.731 28.3567L5.13706 23.7889ZM2.36751 10.1306C2.36751 8.99996 3.26091 8.09543 4.37767 8.09543C4.51168 8.09543 4.64569 8.09543 4.82437 8.14066C5.71777 8.32157 6.43249 9.18086 6.43249 10.1306C6.43249 10.2211 6.43249 10.2663 6.43249 10.3567C6.34315 11.3969 5.44975 12.1658 4.42233 12.1658C3.26091 12.211 2.36751 11.2613 2.36751 10.1306Z" fill="#3F53FE"/>
<path d="M28.4995 5.69849C27.6955 5.69849 26.9808 5.92462 26.3554 6.28643L16.4386 0L7.41528 5.74372C8.08533 6.19598 8.62137 6.82915 9.02341 7.55276L16.4386 2.80402L24.6133 8.00503C24.2559 8.63819 24.0772 9.36181 24.0772 10.1307C24.0772 11.9849 25.194 13.5678 26.8021 14.2462C27.1148 14.3819 27.4275 14.4724 27.7402 14.5176C27.9635 14.5628 28.1869 14.5628 28.4549 14.5628C29.0356 14.5628 29.6163 14.4271 30.1077 14.2462C30.465 14.1106 30.7777 13.9296 31.0457 13.7035C32.1178 12.8894 32.8325 11.5779 32.8325 10.1307C32.8772 7.68844 30.9117 5.69849 28.4995 5.69849ZM28.4995 12.2111C27.8295 12.2111 27.2041 11.8492 26.8468 11.3518C26.6234 11.0352 26.4894 10.6281 26.4894 10.1759C26.4894 9.04523 27.3828 8.1407 28.4995 8.1407C29.6163 8.1407 30.5097 9.04523 30.5097 10.1759C30.5097 10.5829 30.3757 10.99 30.1523 11.3065C29.795 11.8492 29.1696 12.2111 28.4995 12.2111Z" fill="#3F53FE"/>
<path d="M30.1522 15.2864C29.6162 15.4673 29.0801 15.5577 28.4994 15.5577C28.2761 15.5577 28.0081 15.5577 27.7847 15.5125V23.8341L19.6101 28.7185C18.8507 27.9949 17.8233 27.4974 16.6619 27.4974C15.8131 27.4974 14.9644 27.7688 14.2944 28.2211C14.0263 28.402 13.7583 28.6281 13.535 28.8542C12.9989 29.4422 12.6416 30.1658 12.5076 31.0251C12.4629 31.2512 12.4629 31.5226 12.4629 31.7487C12.4629 31.8844 12.4629 31.9748 12.4629 32.1105C12.6416 34.2814 14.4284 35.9999 16.6619 35.9999C18.9847 35.9999 20.8609 34.1004 20.8609 31.7487C20.8609 31.3869 20.8162 31.0703 20.7269 30.7537L30.1076 25.1457V15.2864H30.1522ZM16.6619 33.6482C15.7685 33.6482 15.0091 32.9698 14.8304 32.1105C14.7857 32.02 14.7857 31.8844 14.7857 31.7939C14.7857 30.9798 15.3218 30.2562 16.0812 30.0301C16.2598 29.9849 16.4385 29.9396 16.6619 29.9396C17.6893 29.9396 18.4933 30.7989 18.4933 31.7939C18.538 32.7889 17.6893 33.6482 16.6619 33.6482Z" fill="#3F53FE"/>
</g>
<defs>
<clipPath id="clip0_1714_17944">
<rect width="176" height="36" fill="white"/>
</clipPath>
</defs>
</svg>
