<svg width="18" height="18" viewBox="0 0 18 18" fill="none" xmlns="http://www.w3.org/2000/svg">
<path d="M9 4.11752V15.3675M16.5 3.50252V12.555C16.5 13.275 15.915 13.95 15.195 14.04L14.9475 14.07C13.3125 14.2875 10.7925 15.12 9.3525 15.915C9.1575 16.0275 8.835 16.0275 8.6325 15.915L8.6025 15.9C7.1625 15.1125 4.65 14.2875 3.0225 14.07L2.805 14.04C2.085 13.95 1.5 13.275 1.5 12.555V3.49502C1.5 2.60252 2.2275 1.92752 3.12 2.00252C4.695 2.13002 7.08 2.92502 8.415 3.75752L8.6025 3.87002C8.82 4.00502 9.18 4.00502 9.3975 3.87002L9.525 3.78752C9.9975 3.49502 10.5975 3.20252 11.25 2.94002V6.00002L12.75 5.00252L14.25 6.00002V2.08502C14.4525 2.04752 14.6475 2.02502 14.8275 2.01002H14.8725C15.765 1.93502 16.5 2.60252 16.5 3.50252Z" stroke="#55597D" stroke-linecap="round" stroke-linejoin="round"/>
<path d="M14.25 2.08496V5.99996L12.75 5.00246L11.25 5.99996V2.93996C12.2325 2.54996 13.3275 2.23496 14.25 2.08496V2.08496Z" stroke="#55597D" stroke-linecap="round" stroke-linejoin="round"/>
</svg>
