<svg width="34" height="34" viewBox="0 0 34 34" fill="none" xmlns="http://www.w3.org/2000/svg">
<path d="M22.3301 12.0552L16.6123 14.9899L10.8945 12.0552L16.6123 8.71851L22.3301 12.0552Z" fill="#3F53FE"/>
<path d="M15.9007 16.2761V23.5525L10.1035 20.1756V13.3013L15.9007 16.2761Z" fill="#3F53FE"/>
<path d="M23.1253 13.3013V20.1756L17.3281 23.5525V16.2761L23.1253 13.3013Z" fill="#3F53FE"/>
<path d="M6.56627 22.1456V13.9044C8.39278 13.5828 9.78252 11.9748 9.78252 10.0451C9.78252 9.6833 9.74281 9.32149 9.62369 8.99988C9.54428 8.71847 9.42516 8.43707 9.30604 8.19586C8.94867 7.55264 8.43249 6.98983 7.79718 6.62802C7.51923 6.46722 7.16187 6.30641 6.84422 6.22601C6.52657 6.14561 6.20891 6.10541 5.85155 6.10541C3.7471 6.06521 2 7.83405 2 10.0049C2 11.6531 3.03237 13.1004 4.46182 13.6632V23.3114L12.3635 28.0954C12.5223 27.3717 12.8796 26.7285 13.3164 26.2059L6.56627 22.1456ZM4.10446 10.0049C4.10446 8.99988 4.89859 8.19586 5.89126 8.19586C6.01038 8.19586 6.1295 8.19586 6.28833 8.23606C7.08246 8.39687 7.71777 9.16068 7.71777 10.0049C7.71777 10.0853 7.71777 10.1255 7.71777 10.2059C7.63835 11.1305 6.84422 11.814 5.93096 11.814C4.89859 11.8542 4.10446 11.0099 4.10446 10.0049Z" fill="#3F53FE"/>
<path d="M27.3334 6.06533C26.6186 6.06533 25.9833 6.26633 25.4274 6.58794L16.6126 1L8.5918 6.10553C9.1874 6.50754 9.66388 7.07035 10.0212 7.71357L16.6126 3.49246L23.8789 8.11558C23.5612 8.67839 23.4024 9.32161 23.4024 10.005C23.4024 11.6533 24.3951 13.0603 25.8245 13.6633C26.1025 13.7839 26.3804 13.8643 26.6583 13.9045C26.8569 13.9447 27.0554 13.9447 27.2937 13.9447C27.8098 13.9447 28.326 13.8241 28.7628 13.6633C29.0805 13.5427 29.3584 13.3819 29.5966 13.1809C30.5496 12.4573 31.1849 11.2915 31.1849 10.005C31.2246 7.83417 29.4775 6.06533 27.3334 6.06533ZM27.3334 11.8543C26.7378 11.8543 26.1819 11.5327 25.8642 11.0905C25.6657 10.809 25.5466 10.4472 25.5466 10.0452C25.5466 9.0402 26.3407 8.23618 27.3334 8.23618C28.326 8.23618 29.1202 9.0402 29.1202 10.0452C29.1202 10.407 29.001 10.7688 28.8025 11.0503C28.4849 11.5327 27.929 11.8543 27.3334 11.8543Z" fill="#3F53FE"/>
<path d="M28.802 14.5879C28.3255 14.7487 27.849 14.8291 27.3328 14.8291C27.1343 14.8291 26.8961 14.8291 26.6975 14.7889V22.1859L19.4312 26.5276C18.7562 25.8844 17.8429 25.4422 16.8106 25.4422C16.0561 25.4422 15.3017 25.6834 14.7061 26.0854C14.4679 26.2462 14.2296 26.4472 14.0311 26.6482C13.5546 27.1708 13.237 27.814 13.1178 28.5778C13.0781 28.7788 13.0781 29.0201 13.0781 29.2211C13.0781 29.3417 13.0781 29.4221 13.0781 29.5427C13.237 31.4723 14.8252 33 16.8106 33C18.8753 33 20.543 31.3115 20.543 29.2211C20.543 28.8994 20.5033 28.618 20.4239 28.3366L28.7623 23.3517V14.5879H28.802ZM16.8106 30.9095C16.0164 30.9095 15.3414 30.3065 15.1826 29.5427C15.1429 29.4623 15.1429 29.3417 15.1429 29.2613C15.1429 28.5376 15.6194 27.8944 16.2944 27.6934C16.4532 27.6532 16.612 27.613 16.8106 27.613C17.7238 27.613 18.4385 28.3768 18.4385 29.2613C18.4782 30.1457 17.7238 30.9095 16.8106 30.9095Z" fill="#3F53FE"/>
</svg>
