<svg width="49" height="34" viewBox="0 0 49 34" fill="none" xmlns="http://www.w3.org/2000/svg">
<path fill-rule="evenodd" clip-rule="evenodd" d="M0 13.9579C0 13.9579 11.5807 15.8164 21.2412 0H27.1012L36.2568 11.8105C36.2568 11.8105 32.9024 12.8266 30.7635 14.6737L24.1716 6.44211C24.1716 6.44211 15.4433 19.9785 0 20.0421V13.9579ZM48.3425 20.0421C48.3425 20.0421 36.7618 18.1833 27.1012 34H21.2412L12.084 22.1895C12.084 22.1895 15.4384 21.1734 17.5774 19.3263L24.1693 27.5579C24.1693 27.5579 32.8976 14.0206 48.3405 13.9579V20.0421H48.3425Z" fill="#3F53FE"/>
<path fill-rule="evenodd" clip-rule="evenodd" d="M24.1712 20.3284C23.4929 20.3268 22.8303 20.1282 22.2671 19.7579C21.7038 19.3875 21.2653 18.8619 21.0068 18.2474C20.7484 17.633 20.6816 16.9573 20.8149 16.3057C20.9482 15.6541 21.2757 15.0559 21.7559 14.5865C22.2361 14.1171 22.8475 13.7977 23.5129 13.6685C24.1783 13.5394 24.8678 13.6064 25.4944 13.861C26.121 14.1156 26.6565 14.5464 27.0333 15.099C27.4101 15.6516 27.6112 16.3012 27.6114 16.9658C27.6113 17.408 27.5223 17.8459 27.3493 18.2543C27.1763 18.6628 26.9228 19.0338 26.6032 19.3461C26.2837 19.6585 25.9044 19.906 25.4871 20.0746C25.0698 20.2431 24.6226 20.3294 24.1712 20.3284Z" fill="#3F53FE"/>
</svg>
