<svg width="17" height="18" viewBox="0 0 17 18" fill="none" xmlns="http://www.w3.org/2000/svg">
<g clip-path="url(#clip0_984_11251)">
<path d="M14.1667 8.125H3.08333C2.20888 8.125 1.5 8.83388 1.5 9.70833V15.25C1.5 16.1245 2.20888 16.8333 3.08333 16.8333H14.1667C15.0411 16.8333 15.75 16.1245 15.75 15.25V9.70833C15.75 8.83388 15.0411 8.125 14.1667 8.125Z" stroke="#55597D" stroke-linecap="round" stroke-linejoin="round"/>
<path d="M4.66602 8.125V4.95833C4.66602 3.90852 5.08306 2.9017 5.82539 2.15937C6.56772 1.41704 7.57454 1 8.62435 1C9.67417 1 10.681 1.41704 11.4233 2.15937C12.1657 2.9017 12.5827 3.90852 12.5827 4.95833V8.125" stroke="#55597D" stroke-linecap="round" stroke-linejoin="round"/>
</g>
<defs>
<clipPath id="clip0_984_11251">
<rect width="16" height="18" fill="white" transform="translate(0.5)"/>
</clipPath>
</defs>
</svg>
