<svg width="17" height="17" viewBox="0 0 17 17" fill="none" xmlns="http://www.w3.org/2000/svg">
<g clip-path="url(#clip0_984_11257)">
<path d="M10.1152 3.71464C10.8383 3.85571 11.5028 4.20935 12.0238 4.73029C12.5447 5.25122 12.8984 5.91576 13.0394 6.63884M10.1152 0.753418C11.6175 0.920309 13.0184 1.59305 14.0879 2.66119C15.1574 3.72932 15.8319 5.12937 16.0007 6.63144M15.2603 12.5391V14.76C15.2612 14.9662 15.2189 15.1702 15.1364 15.3591C15.0538 15.5481 14.9326 15.7176 14.7807 15.857C14.6288 15.9964 14.4494 16.1025 14.2541 16.1686C14.0588 16.2346 13.8518 16.2592 13.6465 16.2406C11.3684 15.9931 9.18025 15.2146 7.25768 13.9679C5.46898 12.8312 3.95247 11.3147 2.81585 9.52603C1.56472 7.59473 0.786118 5.39587 0.543118 3.10759C0.524618 2.90287 0.548948 2.69654 0.614558 2.50174C0.680167 2.30694 0.78562 2.12793 0.924202 1.97612C1.06278 1.82431 1.23145 1.70301 1.41948 1.61996C1.60751 1.53691 1.81077 1.49392 2.01632 1.49372H4.23724C4.59651 1.49019 4.94481 1.61741 5.21722 1.85168C5.48963 2.08596 5.66756 2.41129 5.71785 2.76705C5.81159 3.47779 5.98543 4.17564 6.23606 4.8473C6.33566 5.11228 6.35722 5.40025 6.29818 5.6771C6.23913 5.95394 6.10196 6.20807 5.90292 6.40935L4.96274 7.34953C6.0166 9.20292 7.55118 10.7375 9.40456 11.7914L10.3447 10.8512C10.546 10.6521 10.8001 10.515 11.077 10.4559C11.3538 10.3969 11.6418 10.4184 11.9068 10.518C12.5784 10.7687 13.2763 10.9425 13.987 11.0363C14.3466 11.087 14.6751 11.2681 14.9098 11.5452C15.1446 11.8223 15.2694 12.176 15.2603 12.5391Z" stroke="#55597D" stroke-linecap="round" stroke-linejoin="round"/>
</g>
<defs>
<clipPath id="clip0_984_11257">
<rect width="17" height="17" fill="white"/>
</clipPath>
</defs>
</svg>
