<svg width="17" height="18" viewBox="0 0 17 18" fill="none" xmlns="http://www.w3.org/2000/svg">
<g clip-path="url(#clip0_984_11259)">
<path d="M8 9C8.99456 9 9.94839 8.60491 10.6517 7.90165C11.3549 7.19839 11.75 6.24456 11.75 5.25C11.75 4.25544 11.3549 3.30161 10.6517 2.59835C9.94839 1.89509 8.99456 1.5 8 1.5C7.00544 1.5 6.05161 1.89509 5.34835 2.59835C4.64509 3.30161 4.25 4.25544 4.25 5.25C4.25 6.24456 4.64509 7.19839 5.34835 7.90165C6.05161 8.60491 7.00544 9 8 9Z" stroke="#55597D" stroke-width="1.3" stroke-linecap="round" stroke-linejoin="round"/>
<path d="M13.4083 11.8048L10.7533 14.4598C10.6483 14.5648 10.5508 14.7598 10.5283 14.9023L10.3858 15.9148C10.3333 16.2823 10.5883 16.5373 10.9558 16.4848L11.9683 16.3423C12.1108 16.3198 12.3133 16.2223 12.4108 16.1173L15.0658 13.4623C15.5233 13.0048 15.7408 12.4723 15.0658 11.7973C14.3983 11.1298 13.8658 11.3473 13.4083 11.8048Z" stroke="#55597D" stroke-width="1.3" stroke-miterlimit="10" stroke-linecap="round" stroke-linejoin="round"/>
<path d="M13.0254 12.1875C13.2504 12.9975 13.8804 13.6275 14.6904 13.8525" stroke="#55597D" stroke-width="1.3" stroke-miterlimit="10" stroke-linecap="round" stroke-linejoin="round"/>
<path d="M1.55859 16.5C1.55859 13.5975 4.44609 11.25 8.00109 11.25C8.78109 11.25 9.53109 11.3625 10.2286 11.5725" stroke="#55597D" stroke-width="1.3" stroke-linecap="round" stroke-linejoin="round"/>
</g>
<defs>
<clipPath id="clip0_984_11259">
<rect width="17" height="18" fill="white"/>
</clipPath>
</defs>
</svg>
