<svg width="22" height="22" viewBox="0 0 22 22" fill="none" xmlns="http://www.w3.org/2000/svg">
<path d="M17.4425 2.88241H15.4522V1.99201C15.4522 1.70394 15.1379 1.57301 14.8498 1.57301H13.3048C12.9381 0.525466 12.0215 0.00169566 10.974 0.00169566C9.93797 -0.0372525 8.99564 0.597999 8.6432 1.57301H7.12427C6.8362 1.57301 6.54812 1.70394 6.54812 1.99201V2.88241H4.55775C3.37828 2.89499 2.41335 3.82543 2.35791 5.00365V20.0096C2.35791 21.1619 3.40545 21.9999 4.55775 21.9999H17.4425C18.5948 21.9999 19.6423 21.1619 19.6423 20.0096V5.0037C19.5869 3.82543 18.622 2.89499 17.4425 2.88241ZM7.59561 2.62055H9.03599C9.28743 2.58987 9.48938 2.39859 9.5336 2.14916C9.68869 1.47376 10.2812 0.988934 10.974 0.970688C11.6603 0.99149 12.2439 1.47782 12.3881 2.14916C12.4351 2.40721 12.6504 2.60095 12.9119 2.62055H14.4047V4.71563H7.59561V2.62055ZM18.5948 20.0097C18.5948 20.5858 18.0186 20.9525 17.4425 20.9525H4.55775C3.9816 20.9525 3.40545 20.5858 3.40545 20.0097V5.0037C3.45889 4.40399 3.95574 3.94097 4.55775 3.93H6.54807V5.26561C6.57574 5.55905 6.82988 5.77856 7.12422 5.76322H14.8498C15.1496 5.77961 15.4117 5.56311 15.4521 5.26561V3.92995H17.4424C18.0444 3.94097 18.5413 4.40394 18.5947 5.00365V20.0097H18.5948Z" fill="#028001"/>
<path d="M8.98383 11.7077C8.78739 11.5007 8.46127 11.489 8.25053 11.6816L6.57446 13.279L5.86738 12.5457C5.67093 12.3387 5.34481 12.327 5.13408 12.5196C4.93122 12.7321 4.93122 13.0665 5.13408 13.279L6.20779 14.379C6.30072 14.483 6.43496 14.5406 6.57441 14.5361C6.71256 14.5341 6.84434 14.4777 6.94103 14.379L8.98373 12.441C9.18624 12.2553 9.19978 11.9405 9.01396 11.738C9.00443 11.7274 8.99436 11.7173 8.98383 11.7077Z" fill="#028001"/>
<path d="M16.4997 12.834H10.4764C10.1871 12.834 9.95264 13.0685 9.95264 13.3578C9.95264 13.647 10.1871 13.8815 10.4764 13.8815H16.4997C16.789 13.8815 17.0235 13.647 17.0235 13.3578C17.0235 13.0685 16.789 12.834 16.4997 12.834Z" fill="#028001"/>
<path d="M8.98383 7.51778C8.78739 7.31071 8.46127 7.29903 8.25053 7.49162L6.57446 9.08909L5.86738 8.35579C5.67093 8.14872 5.34481 8.13704 5.13408 8.32963C4.93122 8.54216 4.93122 8.87656 5.13408 9.08909L6.20779 10.189C6.30072 10.2931 6.43496 10.3506 6.57441 10.3462C6.71256 10.3442 6.84434 10.2877 6.94103 10.189L8.98373 8.25108C9.18624 8.06531 9.19978 7.75052 9.01396 7.54806C9.00443 7.53748 8.99436 7.52741 8.98383 7.51778Z" fill="#028001"/>
<path d="M16.4997 8.64404H10.4764C10.1871 8.64404 9.95264 8.87853 9.95264 9.16781C9.95264 9.45709 10.1871 9.69158 10.4764 9.69158H16.4997C16.789 9.69158 17.0235 9.45709 17.0235 9.16781C17.0235 8.87853 16.789 8.64404 16.4997 8.64404Z" fill="#028001"/>
<path d="M8.98383 15.8981C8.78739 15.6911 8.46127 15.6794 8.25053 15.872L6.57446 17.4694L5.86738 16.7361C5.67093 16.5291 5.34481 16.5174 5.13408 16.71C4.93122 16.9225 4.93122 17.2569 5.13408 17.4694L6.20779 18.5694C6.30072 18.6734 6.43496 18.731 6.57441 18.7265C6.71256 18.7246 6.84434 18.6681 6.94103 18.5694L8.98373 16.6314C9.18624 16.4457 9.19978 16.1309 9.01396 15.9284C9.00443 15.9179 8.99436 15.9078 8.98383 15.8981Z" fill="#028001"/>
<path d="M16.4997 17.0244H10.4764C10.1871 17.0244 9.95264 17.2589 9.95264 17.5482C9.95264 17.8375 10.1871 18.072 10.4764 18.072H16.4997C16.789 18.072 17.0235 17.8375 17.0235 17.5482C17.0235 17.2589 16.789 17.0244 16.4997 17.0244Z" fill="#028001"/>
</svg>
