<svg width="16" height="16" viewBox="0 0 16 16" fill="none" xmlns="http://www.w3.org/2000/svg">
<g clip-path="url(#clip0_2678_11675)">
<path d="M12.2481 7.51094L13.9901 14.0293C14.2641 15.0544 13.3637 14.8572 12.9474 14.6969C12.6 14.5631 11.2123 14.0252 11.2123 14.0252C11.2123 14.0252 10.2783 14.5332 10.0259 14.6676C9.47581 14.9607 8.91461 14.8884 8.67226 14.1897C8.6659 14.1714 8.0707 12.161 7.51082 10.2694L7.50781 7.51611L12.2481 7.51094Z" fill="#0060FF"/>
<path d="M2.77172 7.53345L1.04119 14.0658C0.769048 15.0931 1.67039 14.8937 2.08698 14.7322C2.43466 14.5975 3.82338 14.0557 3.82338 14.0557C3.82338 14.0557 4.75995 14.5624 5.01305 14.6965C5.56463 14.9888 6.12654 14.9153 6.36775 14.2149C6.37408 14.1965 6.96583 12.1817 7.52245 10.2859L7.51944 7.52827L2.77172 7.53345Z" fill="#0060FF"/>
<path d="M7.51953 7.52832L7.52254 10.2859C7.95169 11.7359 8.22243 12.6492 8.41282 13.2909C8.94614 13.1851 9.44865 12.2704 9.95862 12.1016C10.4992 11.9227 11.5334 12.4217 11.9923 12.0844C12.4511 11.7472 12.2836 10.6112 12.6158 10.1487C12.683 10.0551 12.7831 9.97224 12.9011 9.89488L12.2672 7.52314L7.51953 7.52832Z" fill="#0043E0"/>
<path d="M2.82681 7.53343C2.79006 7.61918 2.74734 7.70699 2.70261 7.79565L2.36399 9.07398C2.61184 9.56272 3.66042 9.75749 3.98286 10.1962C4.3201 10.655 4.16506 11.7928 4.62759 12.125C5.09011 12.4571 6.11877 11.9468 6.66131 12.1198C6.75379 12.1493 6.84631 12.2035 6.93897 12.2725C7.15816 11.5266 7.24136 11.2445 7.5228 10.2859L7.51979 7.52831L2.82681 7.53343Z" fill="#0043E0"/>
<path d="M11.211 11.4796C10.7529 11.8163 9.72032 11.3181 9.18058 11.4967C8.64083 11.6754 8.10946 12.6913 7.54092 12.6945C6.97238 12.6976 6.42986 11.6876 5.88818 11.5149C5.3465 11.3422 4.31946 11.8517 3.85767 11.5201C3.39587 11.1884 3.55063 10.0524 3.21392 9.5943C2.87721 9.13618 1.7468 8.94475 1.56814 8.405C1.38948 7.86526 2.18241 7.03717 2.17929 6.46864C2.17616 5.9001 1.37416 5.08079 1.54687 4.53911C1.71958 3.99744 2.84782 3.79357 3.17946 3.33178C3.51111 2.86999 3.34385 1.73575 3.80197 1.39904C4.26009 1.06233 5.29268 1.56056 5.83242 1.3819C6.37216 1.20324 6.90354 0.187308 7.47208 0.184181C8.04061 0.181047 8.58314 1.19107 9.12482 1.36378C9.6665 1.53649 10.6935 1.02693 11.1553 1.35858C11.6171 1.69022 11.4624 2.82623 11.7991 3.28435C12.1358 3.74247 13.2662 3.9339 13.4449 4.47364C13.6235 5.01339 12.8306 5.84147 12.8337 6.41001C12.8368 6.97855 13.6388 7.79786 13.4661 8.33954C13.2934 8.88121 12.1652 9.08507 11.8335 9.54687C11.5019 10.0087 11.6691 11.1429 11.211 11.4796Z" fill="#52C7FF"/>
<path d="M11.1834 6.43518C11.1845 7.4104 10.7981 8.34611 10.1092 9.03645C9.42039 9.72679 8.48554 10.1152 7.51031 10.1163C6.53509 10.1173 5.59938 9.73096 4.90904 9.04212C4.2187 8.35329 3.83027 7.41843 3.82921 6.4432C3.82868 5.96032 3.92327 5.48206 4.10757 5.03574C4.29188 4.58941 4.56229 4.18375 4.90337 3.84193C5.24444 3.50011 5.64951 3.22882 6.09543 3.04354C6.54135 2.85826 7.0194 2.76263 7.50229 2.7621C8.47751 2.76104 9.41322 3.14742 10.1036 3.83626C10.7939 4.5251 11.1823 5.45995 11.1834 6.43518Z" fill="#009FFF"/>
<path d="M9.71089 5.96569C9.54791 6.28079 9.11486 6.62182 9.02311 6.91121C8.89975 7.30029 9.22721 8.06264 8.89872 8.30491C8.57023 8.54717 7.94123 7.99166 7.53307 7.99457C7.24149 7.99666 6.81141 8.28555 6.46847 8.3639C6.45309 8.62332 6.46791 8.91735 6.62118 9.02704C6.9531 9.26459 7.63282 8.69939 8.04098 8.69647C8.44913 8.69356 9.13682 9.24901 9.46531 9.00675C9.7938 8.76448 9.46628 7.94344 9.58964 7.55436C9.71299 7.16528 10.4537 6.68287 10.3248 6.29559C10.2635 6.11139 9.97275 6.0282 9.71089 5.96569Z" fill="#0082FF"/>
<path d="M8.94438 8.35123C8.61641 8.59311 7.9298 8.03854 7.52229 8.04145C7.11477 8.04436 6.43616 8.60868 6.10476 8.3715C5.77336 8.13433 6.08862 7.30995 5.95993 6.92328C5.83123 6.53661 5.08482 6.0656 5.20798 5.67713C5.33114 5.28866 6.21259 5.33375 6.54057 5.09186C6.86854 4.84998 7.08585 3.99455 7.49337 3.99164C7.90088 3.98872 8.13039 4.84096 8.46178 5.07814C8.79318 5.31532 9.67389 5.25765 9.80259 5.64432C9.93129 6.03099 9.19168 6.51262 9.06852 6.90109C8.94536 7.28955 9.27236 8.10934 8.94438 8.35123Z" fill="#E7EDFB"/>
</g>
<defs>
<clipPath id="clip0_2678_11675">
<rect width="15" height="15" fill="white" transform="translate(0 0.0163574) rotate(-0.0625186)"/>
</clipPath>
</defs>
</svg>
