<svg width="367" height="461" viewBox="0 0 367 461" fill="none" xmlns="http://www.w3.org/2000/svg">
<rect width="367" height="460.766" rx="5" fill="#F5F7F9"/>
<path d="M93.7422 206.823L100.584 191.313H102.124L108.966 206.823H107.096L105.182 202.401L106.062 202.863H96.6022L97.5042 202.401L95.6122 206.823H93.7422ZM101.332 193.425L97.7902 201.763L97.2622 201.345H105.402L104.918 201.763L101.376 193.425H101.332ZM111.266 206.823V191.313H116.502C118.188 191.313 119.611 191.613 120.77 192.215C121.943 192.801 122.83 193.674 123.432 194.833C124.048 195.977 124.356 197.385 124.356 199.057C124.356 200.729 124.048 202.144 123.432 203.303C122.83 204.461 121.943 205.341 120.77 205.943C119.611 206.529 118.188 206.823 116.502 206.823H111.266ZM113.07 205.283H116.37C118.408 205.283 119.926 204.762 120.924 203.721C121.936 202.679 122.442 201.125 122.442 199.057C122.442 196.989 121.936 195.441 120.924 194.415C119.912 193.373 118.394 192.853 116.37 192.853H113.07V205.283ZM132.09 206.823L125.314 191.313H127.25L133.3 205.371H132.596L138.624 191.313H140.516L133.718 206.823H132.09ZM142.418 206.823V191.313H152.208V192.831H144.178V198.199H151.746V199.717H144.178V205.305H152.208V206.823H142.418ZM155.244 206.823V191.313H161.382C163.039 191.313 164.315 191.701 165.21 192.479C166.105 193.256 166.552 194.363 166.552 195.801C166.552 196.71 166.347 197.502 165.936 198.177C165.54 198.837 164.953 199.343 164.176 199.695C163.399 200.032 162.467 200.201 161.382 200.201L161.602 199.915H162.042C162.614 199.915 163.113 200.061 163.538 200.355C163.963 200.648 164.352 201.117 164.704 201.763L167.432 206.823H165.452L162.768 201.851C162.548 201.44 162.299 201.117 162.02 200.883C161.756 200.648 161.448 200.487 161.096 200.399C160.759 200.311 160.348 200.267 159.864 200.267H157.048V206.823H155.244ZM157.048 198.837H161.118C162.321 198.837 163.23 198.587 163.846 198.089C164.462 197.575 164.77 196.813 164.77 195.801C164.77 194.818 164.462 194.077 163.846 193.579C163.23 193.065 162.321 192.809 161.118 192.809H157.048V198.837ZM173.337 206.823V192.875H167.705V191.313H180.795V192.875H175.163V206.823H173.337ZM182.766 206.823V191.313H184.57V206.823H182.766ZM193.41 207.021C192.604 207.021 191.841 206.947 191.122 206.801C190.418 206.654 189.766 206.449 189.164 206.185C188.578 205.906 188.042 205.569 187.558 205.173L188.196 203.721C188.695 204.087 189.201 204.403 189.714 204.667C190.242 204.916 190.807 205.107 191.408 205.239C192.024 205.356 192.692 205.415 193.41 205.415C194.73 205.415 195.706 205.173 196.336 204.689C196.982 204.19 197.304 203.537 197.304 202.731C197.304 202.305 197.202 201.939 196.996 201.631C196.806 201.323 196.483 201.059 196.028 200.839C195.588 200.619 195.009 200.435 194.29 200.289L192.002 199.827C190.624 199.533 189.59 199.057 188.9 198.397C188.226 197.722 187.888 196.827 187.888 195.713C187.888 194.789 188.123 193.982 188.592 193.293C189.076 192.603 189.744 192.068 190.594 191.687C191.46 191.305 192.442 191.115 193.542 191.115C194.246 191.115 194.914 191.188 195.544 191.335C196.175 191.481 196.754 191.701 197.282 191.995C197.825 192.273 198.302 192.618 198.712 193.029L198.074 194.437C197.414 193.835 196.718 193.403 195.984 193.139C195.251 192.86 194.43 192.721 193.52 192.721C192.743 192.721 192.068 192.838 191.496 193.073C190.939 193.307 190.499 193.652 190.176 194.107C189.868 194.547 189.714 195.06 189.714 195.647C189.714 196.351 189.927 196.908 190.352 197.319C190.792 197.729 191.504 198.03 192.486 198.221L194.774 198.705C196.256 199.013 197.348 199.482 198.052 200.113C198.771 200.729 199.13 201.572 199.13 202.643C199.13 203.493 198.896 204.256 198.426 204.931C197.972 205.591 197.312 206.104 196.446 206.471C195.596 206.837 194.584 207.021 193.41 207.021ZM201.93 206.823V191.313H211.72V192.831H203.69V198.199H211.258V199.717H203.69V205.305H211.72V206.823H201.93ZM214.8 206.823V191.313H216.318L222.61 203.127H221.95L228.198 191.313H229.716V206.823H228.044V193.733H228.572L222.874 204.425H221.686L215.922 193.711H216.45V206.823H214.8ZM233.576 206.823V191.313H243.366V192.831H235.336V198.199H242.904V199.717H235.336V205.305H243.366V206.823H233.576ZM246.402 206.823V191.313H247.81L257.688 204.491H257.16V191.313H258.832V206.823H257.468L247.59 193.645H248.096V206.823H246.402ZM266.493 206.823V192.875H260.861V191.313H273.951V192.875H268.319V206.823H266.493ZM139.656 232.021C139.128 232.021 138.593 231.947 138.05 231.801C137.508 231.639 136.994 231.419 136.51 231.141C136.041 230.862 135.63 230.532 135.278 230.151L135.96 228.721C136.488 229.293 137.075 229.718 137.72 229.997C138.366 230.275 139.018 230.415 139.678 230.415C140.397 230.415 141.035 230.283 141.592 230.019C142.15 229.755 142.619 229.359 143 228.831C143.382 228.288 143.668 227.621 143.858 226.829C144.064 226.022 144.166 225.091 144.166 224.035V221.989H144.342C144.254 222.81 144.005 223.529 143.594 224.145C143.198 224.761 142.685 225.23 142.054 225.553C141.424 225.875 140.712 226.037 139.92 226.037C139.011 226.037 138.204 225.831 137.5 225.421C136.811 225.01 136.261 224.431 135.85 223.683C135.454 222.935 135.256 222.091 135.256 221.153C135.256 220.17 135.462 219.305 135.872 218.557C136.298 217.794 136.877 217.2 137.61 216.775C138.358 216.335 139.216 216.115 140.184 216.115C141.402 216.115 142.436 216.415 143.286 217.017C144.152 217.603 144.804 218.461 145.244 219.591C145.684 220.72 145.904 222.084 145.904 223.683C145.904 225.457 145.655 226.968 145.156 228.215C144.672 229.461 143.961 230.407 143.022 231.053C142.098 231.698 140.976 232.021 139.656 232.021ZM140.316 224.519C140.962 224.519 141.534 224.372 142.032 224.079C142.531 223.785 142.92 223.382 143.198 222.869C143.477 222.355 143.616 221.761 143.616 221.087C143.616 220.397 143.477 219.796 143.198 219.283C142.92 218.769 142.531 218.366 142.032 218.073C141.534 217.779 140.962 217.633 140.316 217.633C139.656 217.633 139.077 217.779 138.578 218.073C138.094 218.366 137.706 218.769 137.412 219.283C137.134 219.796 136.994 220.397 136.994 221.087C136.994 221.761 137.134 222.355 137.412 222.869C137.706 223.382 138.094 223.785 138.578 224.079C139.077 224.372 139.656 224.519 140.316 224.519ZM153.904 232.021C152.158 232.021 150.802 231.647 149.834 230.899C148.866 230.136 148.382 229.073 148.382 227.709C148.382 226.99 148.528 226.352 148.822 225.795C149.115 225.223 149.526 224.761 150.054 224.409C150.582 224.057 151.19 223.837 151.88 223.749V224.079C151.249 223.932 150.699 223.683 150.23 223.331C149.76 222.964 149.394 222.517 149.13 221.989C148.88 221.461 148.756 220.881 148.756 220.251C148.756 218.945 149.218 217.933 150.142 217.215C151.08 216.481 152.334 216.115 153.904 216.115C155.488 216.115 156.742 216.481 157.666 217.215C158.604 217.933 159.074 218.945 159.074 220.251C159.074 220.881 158.942 221.468 158.678 222.011C158.428 222.539 158.069 222.979 157.6 223.331C157.13 223.683 156.58 223.925 155.95 224.057V223.749C156.639 223.837 157.24 224.064 157.754 224.431C158.282 224.783 158.692 225.237 158.986 225.795C159.279 226.352 159.426 226.99 159.426 227.709C159.426 229.073 158.942 230.136 157.974 230.899C157.006 231.647 155.649 232.021 153.904 232.021ZM153.904 230.525C155.15 230.525 156.089 230.283 156.72 229.799C157.365 229.315 157.688 228.581 157.688 227.599C157.688 226.631 157.365 225.912 156.72 225.443C156.089 224.959 155.15 224.717 153.904 224.717C152.672 224.717 151.733 224.959 151.088 225.443C150.442 225.912 150.12 226.631 150.12 227.599C150.12 228.581 150.442 229.315 151.088 229.799C151.733 230.283 152.672 230.525 153.904 230.525ZM153.904 223.221C154.989 223.221 155.832 222.971 156.434 222.473C157.035 221.974 157.336 221.285 157.336 220.405C157.336 219.525 157.035 218.843 156.434 218.359C155.832 217.86 154.989 217.611 153.904 217.611C152.833 217.611 151.997 217.86 151.396 218.359C150.794 218.843 150.494 219.525 150.494 220.405C150.494 221.285 150.794 221.974 151.396 222.473C151.997 222.971 152.833 223.221 153.904 223.221ZM167.425 232.021C166.765 232.021 166.12 231.947 165.489 231.801C164.858 231.654 164.264 231.441 163.707 231.163C163.164 230.884 162.68 230.554 162.255 230.173L162.937 228.743C163.641 229.315 164.352 229.74 165.071 230.019C165.804 230.283 166.582 230.415 167.403 230.415C168.488 230.415 169.332 230.114 169.933 229.513C170.549 228.911 170.857 228.119 170.857 227.137C170.857 226.125 170.564 225.296 169.977 224.651C169.39 224.005 168.584 223.683 167.557 223.683C166.809 223.683 166.149 223.837 165.577 224.145C165.02 224.438 164.514 224.9 164.059 225.531H162.739V216.313H171.737V217.853H164.521V224.035H164.037C164.418 223.419 164.946 222.949 165.621 222.627C166.296 222.289 167.051 222.121 167.887 222.121C168.87 222.121 169.713 222.326 170.417 222.737C171.136 223.147 171.686 223.727 172.067 224.475C172.463 225.208 172.661 226.066 172.661 227.049C172.661 228.017 172.448 228.875 172.023 229.623C171.598 230.371 170.996 230.957 170.219 231.383C169.442 231.808 168.51 232.021 167.425 232.021ZM173.907 231.823L180.067 223.551V224.233L174.193 216.313H176.305L181.145 222.935H180.573L185.369 216.313H187.503L181.629 224.233V223.551L187.767 231.823H185.633L180.485 224.805H181.189L176.063 231.823H173.907ZM196.374 231.823V230.283H199.916V217.875H200.862L197.122 220.251L196.352 218.909L200.422 216.313H201.72V230.283H205.042V231.823H196.374ZM213.437 232.021C212.264 232.021 211.266 231.72 210.445 231.119C209.638 230.503 209.03 229.601 208.619 228.413C208.208 227.225 208.003 225.773 208.003 224.057C208.003 222.326 208.208 220.874 208.619 219.701C209.03 218.513 209.638 217.618 210.445 217.017C211.266 216.415 212.264 216.115 213.437 216.115C214.625 216.115 215.622 216.415 216.429 217.017C217.236 217.618 217.844 218.505 218.255 219.679C218.666 220.852 218.871 222.304 218.871 224.035C218.871 225.765 218.666 227.225 218.255 228.413C217.844 229.601 217.236 230.503 216.429 231.119C215.622 231.72 214.625 232.021 213.437 232.021ZM213.437 230.459C214.669 230.459 215.578 229.938 216.165 228.897C216.766 227.855 217.067 226.235 217.067 224.035C217.067 221.835 216.774 220.229 216.187 219.217C215.6 218.19 214.684 217.677 213.437 217.677C212.22 217.677 211.31 218.19 210.709 219.217C210.108 220.243 209.807 221.849 209.807 224.035C209.807 226.235 210.1 227.855 210.687 228.897C211.288 229.938 212.205 230.459 213.437 230.459ZM226.628 232.021C225.455 232.021 224.458 231.72 223.636 231.119C222.83 230.503 222.221 229.601 221.81 228.413C221.4 227.225 221.194 225.773 221.194 224.057C221.194 222.326 221.4 220.874 221.81 219.701C222.221 218.513 222.83 217.618 223.636 217.017C224.458 216.415 225.455 216.115 226.628 216.115C227.816 216.115 228.814 216.415 229.62 217.017C230.427 217.618 231.036 218.505 231.446 219.679C231.857 220.852 232.062 222.304 232.062 224.035C232.062 225.765 231.857 227.225 231.446 228.413C231.036 229.601 230.427 230.503 229.62 231.119C228.814 231.72 227.816 232.021 226.628 232.021ZM226.628 230.459C227.86 230.459 228.77 229.938 229.356 228.897C229.958 227.855 230.258 226.235 230.258 224.035C230.258 221.835 229.965 220.229 229.378 219.217C228.792 218.19 227.875 217.677 226.628 217.677C225.411 217.677 224.502 218.19 223.9 219.217C223.299 220.243 222.998 221.849 222.998 224.035C222.998 226.235 223.292 227.855 223.878 228.897C224.48 229.938 225.396 230.459 226.628 230.459Z" fill="#464B70" fill-opacity="0.41"/>
</svg>
