<svg width="984" height="99" viewBox="0 0 984 99" fill="none" xmlns="http://www.w3.org/2000/svg">
<rect width="984" height="99" rx="5" fill="white"/>
<path d="M349.697 57L356.539 41.49H358.079L364.921 57H363.051L361.335 53.04H353.261L351.567 57H349.697ZM357.287 43.602L353.921 51.522H360.697L357.331 43.602H357.287ZM367.221 57V41.49H372.457C374.965 41.49 376.901 42.1573 378.265 43.492C379.629 44.812 380.311 46.726 380.311 49.234C380.311 51.742 379.629 53.6633 378.265 54.998C376.901 56.3327 374.965 57 372.457 57H367.221ZM369.025 55.46H372.325C376.373 55.46 378.397 53.3847 378.397 49.234C378.397 45.098 376.373 43.03 372.325 43.03H369.025V55.46ZM388.045 57L381.269 41.49H383.205L388.903 54.712L394.579 41.49H396.471L389.673 57H388.045ZM398.373 57V41.49H408.163V43.008H400.133V48.376H407.701V49.894H400.133V55.482H408.163V57H398.373ZM411.199 57V41.49H417.337C419.009 41.49 420.285 41.8787 421.165 42.656C422.06 43.4333 422.507 44.5407 422.507 45.978C422.507 47.122 422.192 48.0607 421.561 48.794C420.945 49.5273 420.065 50.004 418.921 50.224C419.596 50.4587 420.175 51.0307 420.659 51.94L423.387 57H421.407L418.723 52.028C418.386 51.412 417.997 50.994 417.557 50.774C417.117 50.554 416.538 50.444 415.819 50.444H413.003V57H411.199ZM413.003 49.014H417.073C419.508 49.014 420.725 48.002 420.725 45.978C420.725 43.9833 419.508 42.986 417.073 42.986H413.003V49.014ZM429.292 57V43.052H423.66V41.49H436.75V43.052H431.118V57H429.292ZM438.721 57V41.49H440.525V57H438.721ZM449.366 57.198C448.148 57.198 447.048 57.044 446.066 56.736C445.083 56.4133 444.232 55.9513 443.514 55.35L444.152 53.898C444.9 54.47 445.684 54.8953 446.506 55.174C447.327 55.4527 448.28 55.592 449.366 55.592C450.686 55.592 451.661 55.35 452.292 54.866C452.937 54.3673 453.26 53.7147 453.26 52.908C453.26 52.2627 453.025 51.7493 452.556 51.368C452.101 50.9867 451.331 50.686 450.246 50.466L447.958 50.004C446.579 49.7107 445.545 49.234 444.856 48.574C444.181 47.8993 443.844 47.0047 443.844 45.89C443.844 44.966 444.078 44.1593 444.548 43.47C445.032 42.7807 445.699 42.2453 446.55 41.864C447.4 41.4827 448.383 41.292 449.498 41.292C450.539 41.292 451.507 41.4607 452.402 41.798C453.296 42.1207 454.052 42.59 454.668 43.206L454.03 44.614C453.37 44.0127 452.673 43.58 451.94 43.316C451.206 43.0373 450.385 42.898 449.476 42.898C448.317 42.898 447.393 43.1693 446.704 43.712C446.014 44.24 445.67 44.944 445.67 45.824C445.67 46.528 445.882 47.0853 446.308 47.496C446.748 47.9067 447.459 48.2073 448.442 48.398L450.73 48.882C452.211 49.19 453.304 49.6593 454.008 50.29C454.726 50.906 455.086 51.7493 455.086 52.82C455.086 53.6853 454.851 54.448 454.382 55.108C453.927 55.768 453.267 56.2813 452.402 56.648C451.551 57.0147 450.539 57.198 449.366 57.198ZM457.885 57V41.49H467.675V43.008H459.645V48.376H467.213V49.894H459.645V55.482H467.675V57H457.885ZM470.755 57V41.49H472.273L478.235 52.688L484.153 41.49H485.671V57H483.999V44.878L478.829 54.602H477.641L472.405 44.9V57H470.755ZM489.531 57V41.49H499.321V43.008H491.291V48.376H498.859V49.894H491.291V55.482H499.321V57H489.531ZM502.357 57V41.49H503.765L513.115 53.964V41.49H514.787V57H513.423L504.051 44.482V57H502.357ZM522.449 57V43.052H516.817V41.49H529.907V43.052H524.275V57H522.449ZM541.157 57.198C540.365 57.198 539.566 57.0293 538.759 56.692C537.953 56.3547 537.293 55.9 536.779 55.328L537.461 53.898C537.989 54.47 538.569 54.8953 539.199 55.174C539.845 55.4527 540.505 55.592 541.179 55.592C542.617 55.592 543.724 55.0567 544.501 53.986C545.279 52.9153 545.667 51.324 545.667 49.212V48.112C545.374 49.08 544.846 49.8427 544.083 50.4C543.335 50.9427 542.448 51.214 541.421 51.214C540.512 51.214 539.705 51.0087 539.001 50.598C538.297 50.1727 537.747 49.5933 537.351 48.86C536.955 48.1267 536.757 47.2833 536.757 46.33C536.757 45.3473 536.963 44.482 537.373 43.734C537.799 42.9713 538.378 42.3773 539.111 41.952C539.859 41.512 540.717 41.292 541.685 41.292C543.519 41.292 544.927 41.9593 545.909 43.294C546.907 44.614 547.405 46.4693 547.405 48.86C547.405 51.5293 546.855 53.59 545.755 55.042C544.655 56.4793 543.123 57.198 541.157 57.198ZM541.795 49.696C542.778 49.696 543.577 49.3807 544.193 48.75C544.809 48.1047 545.117 47.276 545.117 46.264C545.117 45.2373 544.809 44.4087 544.193 43.778C543.577 43.1327 542.778 42.81 541.795 42.81C540.827 42.81 540.035 43.1327 539.419 43.778C538.803 44.4087 538.495 45.2373 538.495 46.264C538.495 47.276 538.803 48.1047 539.419 48.75C540.035 49.3807 540.827 49.696 541.795 49.696ZM555.405 57.198C553.659 57.198 552.303 56.824 551.335 56.076C550.367 55.3133 549.883 54.25 549.883 52.886C549.883 51.9327 550.139 51.1187 550.653 50.444C551.181 49.7693 551.877 49.3073 552.743 49.058C551.965 48.7647 551.357 48.2953 550.917 47.65C550.477 47.0047 550.257 46.264 550.257 45.428C550.257 44.1227 550.719 43.1107 551.643 42.392C552.581 41.6587 553.835 41.292 555.405 41.292C556.974 41.292 558.228 41.6587 559.167 42.392C560.105 43.1107 560.575 44.1227 560.575 45.428C560.575 46.264 560.347 47.012 559.893 47.672C559.453 48.3173 558.851 48.7793 558.089 49.058C558.954 49.3073 559.643 49.7693 560.157 50.444C560.67 51.1187 560.927 51.9327 560.927 52.886C560.927 54.25 560.443 55.3133 559.475 56.076C558.507 56.824 557.15 57.198 555.405 57.198ZM555.405 48.398C556.475 48.398 557.311 48.1487 557.913 47.65C558.529 47.1367 558.837 46.4473 558.837 45.582C558.837 44.702 558.529 44.02 557.913 43.536C557.311 43.0373 556.475 42.788 555.405 42.788C554.334 42.788 553.498 43.0373 552.897 43.536C552.295 44.02 551.995 44.702 551.995 45.582C551.995 46.4473 552.295 47.1367 552.897 47.65C553.498 48.1487 554.334 48.398 555.405 48.398ZM555.405 55.702C557.927 55.702 559.189 54.7267 559.189 52.776C559.189 50.8547 557.927 49.894 555.405 49.894C552.882 49.894 551.621 50.8547 551.621 52.776C551.621 54.7267 552.882 55.702 555.405 55.702ZM568.926 57.198C567.929 57.198 566.975 57.0367 566.066 56.714C565.157 56.3913 564.387 55.9367 563.756 55.35L564.438 53.92C565.802 55.0347 567.291 55.592 568.904 55.592C569.975 55.592 570.818 55.2913 571.434 54.69C572.05 54.0887 572.358 53.2967 572.358 52.314C572.358 51.302 572.065 50.4733 571.478 49.828C570.891 49.1827 570.085 48.86 569.058 48.86C567.577 48.86 566.411 49.476 565.56 50.708H564.24V41.49H573.238V43.03H566.022V48.574C566.873 47.7233 567.995 47.298 569.388 47.298C570.356 47.298 571.199 47.5033 571.918 47.914C572.637 48.3247 573.187 48.904 573.568 49.652C573.964 50.3853 574.162 51.2433 574.162 52.226C574.162 53.194 573.949 54.052 573.524 54.8C573.099 55.548 572.49 56.1347 571.698 56.56C570.921 56.9853 569.997 57.198 568.926 57.198ZM575.408 57L581.304 49.08L575.694 41.49H577.806L582.36 47.716L586.87 41.49H589.004L583.372 49.08L589.268 57H587.134L582.338 50.444L577.564 57H575.408ZM597.874 57V55.46H601.416V43.668L598.622 45.428L597.852 44.086L601.922 41.49H603.22V55.46H606.542V57H597.874ZM614.938 57.198C613.163 57.198 611.814 56.516 610.89 55.152C609.966 53.788 609.504 51.8153 609.504 49.234C609.504 46.638 609.966 44.6653 610.89 43.316C611.814 41.9667 613.163 41.292 614.938 41.292C616.727 41.292 618.077 41.9667 618.986 43.316C619.91 44.6507 620.372 46.616 620.372 49.212C620.372 51.808 619.903 53.788 618.964 55.152C618.04 56.516 616.698 57.198 614.938 57.198ZM614.938 55.636C616.17 55.636 617.079 55.1153 617.666 54.074C618.267 53.0327 618.568 51.412 618.568 49.212C618.568 47.012 618.275 45.406 617.688 44.394C617.101 43.3673 616.185 42.854 614.938 42.854C613.706 42.854 612.789 43.3673 612.188 44.394C611.601 45.4207 611.308 47.0267 611.308 49.212C611.308 51.412 611.601 53.0327 612.188 54.074C612.789 55.1153 613.706 55.636 614.938 55.636ZM628.129 57.198C626.355 57.198 625.005 56.516 624.081 55.152C623.157 53.788 622.695 51.8153 622.695 49.234C622.695 46.638 623.157 44.6653 624.081 43.316C625.005 41.9667 626.355 41.292 628.129 41.292C629.919 41.292 631.268 41.9667 632.177 43.316C633.101 44.6507 633.563 46.616 633.563 49.212C633.563 51.808 633.094 53.788 632.155 55.152C631.231 56.516 629.889 57.198 628.129 57.198ZM628.129 55.636C629.361 55.636 630.271 55.1153 630.857 54.074C631.459 53.0327 631.759 51.412 631.759 49.212C631.759 47.012 631.466 45.406 630.879 44.394C630.293 43.3673 629.376 42.854 628.129 42.854C626.897 42.854 625.981 43.3673 625.379 44.394C624.793 45.4207 624.499 47.0267 624.499 49.212C624.499 51.412 624.793 53.0327 625.379 54.074C625.981 55.1153 626.897 55.636 628.129 55.636Z" fill="#464B70" fill-opacity="0.41"/>
</svg>
