<svg width="16" height="16" viewBox="0 0 16 16" fill="none" xmlns="http://www.w3.org/2000/svg">
<g clip-path="url(#clip0_1525_7772)">
<path d="M5.02452 14.4248C4.92452 14.6248 4.67452 14.6998 4.47452 14.5748C-0.25048 11.6498 -0.20048 4.54979 4.59952 1.69979C4.72452 1.62479 4.89952 1.67479 4.97452 1.79979C5.04952 1.92479 4.99952 2.07479 4.87452 2.14979C0.39952 4.82479 0.44952 11.2248 4.87452 13.9248C5.04952 14.0248 5.09952 14.2498 5.02452 14.4248Z" fill="#4CB274"/>
<path d="M4.85 3.3503C4.5 3.6253 4.125 3.7753 3.75 3.8503C3.375 3.9253 3.025 3.8753 2.75 3.6753C3.375 2.8503 4.45 2.7753 4.85 3.3503Z" fill="#79DCA0"/>
<path d="M3.32483 1.34998C2.82483 1.74998 2.49983 2.24998 2.42483 2.67498C2.32483 3.12498 2.44983 3.47498 2.72483 3.69998C3.32483 2.89998 3.72483 1.92498 3.32483 1.34998Z" fill="#79DCA0"/>
<path d="M3.65039 4.54958C3.40039 4.87458 3.10039 5.14958 2.77539 5.29958C2.45039 5.44958 2.07539 5.52458 1.77539 5.39958C2.12539 4.42458 3.10039 4.12458 3.65039 4.54958Z" fill="#79DCA0"/>
<path d="M1.62539 3.04999C1.27539 3.52499 1.12539 4.07499 1.17539 4.49999C1.22539 4.92499 1.42539 5.24999 1.75039 5.37499C2.10039 4.49999 2.17539 3.49999 1.62539 3.04999Z" fill="#79DCA0"/>
<path d="M2.87539 5.97471C2.72539 6.34971 2.50039 6.67471 2.22539 6.89971C1.95039 7.12471 1.62539 7.29971 1.27539 7.24971C1.40039 6.24971 2.22539 5.69971 2.87539 5.97471Z" fill="#79DCA0"/>
<path d="M0.526063 5.07495C0.326063 5.62495 0.326063 6.17495 0.476063 6.57495C0.626063 6.97495 0.926063 7.22495 1.27606 7.24995C1.37606 6.29995 1.17606 5.34995 0.526063 5.07495Z" fill="#79DCA0"/>
<path d="M2.50042 7.52457C2.45042 7.92457 2.32542 8.29957 2.12542 8.59957C1.92542 8.89957 1.65042 9.12457 1.30042 9.17457C1.15042 8.17457 1.82542 7.42457 2.50042 7.52457Z" fill="#79DCA0"/>
<path d="M-0.000185538 7.27496C-0.0501855 7.84996 0.0998145 8.37496 0.349814 8.72496C0.599815 9.07496 0.949815 9.22496 1.29981 9.17496C1.14981 8.22496 0.699815 7.37496 -0.000185538 7.27496Z" fill="#79DCA0"/>
<path d="M2.54943 9.125C2.62443 9.525 2.57443 9.925 2.47443 10.25C2.34943 10.6 2.14943 10.9 1.82443 11.05C1.42443 10.1 1.87443 9.2 2.54943 9.125Z" fill="#79DCA0"/>
<path d="M0.0996094 9.52529C0.199609 10.1003 0.474609 10.5753 0.824609 10.8253C1.17461 11.1003 1.54961 11.1503 1.84961 11.0253C1.44961 10.1503 0.774609 9.45029 0.0996094 9.52529Z" fill="#79DCA0"/>
<path d="M3.02502 10.65C3.20002 11.025 3.27502 11.4 3.25002 11.775C3.22502 12.15 3.12502 12.5 2.85002 12.725C2.20002 11.9 2.40002 10.9 3.02502 10.65Z" fill="#79DCA0"/>
<path d="M0.75 11.7003C1 12.2253 1.4 12.6253 1.8 12.8003C2.2 12.9753 2.6 12.9503 2.85 12.7253C2.225 11.9503 1.4 11.4503 0.75 11.7003Z" fill="#79DCA0"/>
<path d="M3.92505 12C4.20005 12.325 4.40005 12.675 4.50005 13.05C4.60005 13.425 4.60005 13.8 4.42505 14.075C3.47505 13.475 3.37505 12.425 3.92505 12Z" fill="#79DCA0"/>
<path d="M2.02539 13.6503C2.42539 14.1003 2.95039 14.3753 3.40039 14.4503C3.85039 14.5253 4.22539 14.3753 4.42539 14.1003C3.52539 13.5003 2.57539 13.2253 2.02539 13.6503Z" fill="#79DCA0"/>
<path d="M10.9739 14.4248C11.0739 14.6248 11.3239 14.6998 11.5239 14.5748C16.2489 11.6498 16.1989 4.54979 11.3989 1.69979C11.2739 1.62479 11.0989 1.67479 11.0239 1.79979C10.9489 1.92479 10.9989 2.07479 11.1239 2.14979C15.5989 4.82479 15.5239 11.1998 11.0989 13.9248C10.9489 14.0248 10.8989 14.2498 10.9739 14.4248Z" fill="#4CB274"/>
<path d="M11.1504 3.3503C11.5004 3.6253 11.8754 3.7753 12.2504 3.8503C12.6254 3.9253 12.9754 3.8753 13.2504 3.6753C12.6254 2.8503 11.5504 2.7753 11.1504 3.3503Z" fill="#79DCA0"/>
<path d="M12.6747 1.34998C13.1747 1.74998 13.4997 2.24998 13.5747 2.67498C13.6747 3.12498 13.5497 3.47498 13.2747 3.69998C12.6747 2.89998 12.2747 1.92498 12.6747 1.34998Z" fill="#79DCA0"/>
<path d="M12.3496 4.54958C12.5996 4.87458 12.8996 5.14958 13.2246 5.29958C13.5496 5.44958 13.9246 5.52458 14.2246 5.39958C13.8746 4.42458 12.8996 4.12458 12.3496 4.54958Z" fill="#79DCA0"/>
<path d="M14.3749 3.04999C14.7249 3.52499 14.8749 4.07499 14.8249 4.49999C14.7749 4.92499 14.5749 5.24999 14.2499 5.37499C13.8999 4.49999 13.8249 3.49999 14.3749 3.04999Z" fill="#79DCA0"/>
<path d="M13.125 5.97471C13.275 6.34971 13.5 6.67471 13.775 6.89971C14.05 7.12471 14.375 7.29971 14.725 7.24971C14.6 6.24971 13.775 5.69971 13.125 5.97471Z" fill="#79DCA0"/>
<path d="M15.4755 5.07495C15.6755 5.62495 15.6755 6.17495 15.5255 6.57495C15.3755 6.97495 15.0755 7.22495 14.7255 7.24995C14.6255 6.29995 14.8255 5.34995 15.4755 5.07495Z" fill="#79DCA0"/>
<path d="M13.5 7.52457C13.55 7.92457 13.675 8.29957 13.875 8.59957C14.075 8.89957 14.35 9.12457 14.7 9.17457C14.85 8.17457 14.175 7.42457 13.5 7.52457Z" fill="#79DCA0"/>
<path d="M15.9992 7.27496C16.0492 7.84996 15.8992 8.37496 15.6492 8.72496C15.3992 9.07496 15.0492 9.22496 14.6992 9.17496C14.8492 8.22496 15.2992 7.37496 15.9992 7.27496Z" fill="#79DCA0"/>
<path d="M13.4502 9.125C13.3752 9.525 13.4252 9.925 13.5252 10.25C13.6502 10.6 13.8502 10.9 14.1752 11.05C14.5752 10.1 14.1252 9.2 13.4502 9.125Z" fill="#79DCA0"/>
<path d="M15.9004 9.52529C15.8004 10.1003 15.5254 10.5753 15.1754 10.8253C14.8254 11.1003 14.4504 11.1503 14.1504 11.0253C14.5504 10.1503 15.2254 9.45029 15.9004 9.52529Z" fill="#79DCA0"/>
<path d="M12.9758 10.65C12.8008 11.025 12.7258 11.4 12.7508 11.775C12.7758 12.15 12.8758 12.5 13.1508 12.725C13.8008 11.9 13.6008 10.9 12.9758 10.65Z" fill="#79DCA0"/>
<path d="M15.2504 11.7003C15.0004 12.2253 14.6004 12.6253 14.2004 12.8003C13.8004 12.9753 13.4004 12.9503 13.1504 12.7253C13.7754 11.9503 14.6004 11.4503 15.2504 11.7003Z" fill="#79DCA0"/>
<path d="M12.0762 12C11.8012 12.325 11.6012 12.675 11.5012 13.05C11.4012 13.425 11.4012 13.8 11.5762 14.075C12.5262 13.475 12.6262 12.425 12.0762 12Z" fill="#79DCA0"/>
<path d="M13.9742 13.6503C13.5742 14.1003 13.0492 14.3753 12.5992 14.4503C12.1492 14.5253 11.7742 14.3753 11.5742 14.1003C12.4742 13.5003 13.4242 13.2253 13.9742 13.6503Z" fill="#79DCA0"/>
<path d="M10.2988 9.19996L10.8238 12.35L7.99883 10.875L5.17383 12.35L5.69883 9.19996L3.42383 6.97496L6.57383 6.49996L7.99883 3.64996L9.42383 6.49996L12.5738 6.97496L10.2988 9.19996Z" fill="#F7CA3C"/>
<path d="M8 3.64996V8.07496L9.425 6.49996L8 3.64996Z" fill="#F2BD27"/>
<path d="M12.575 6.97498L10.3 9.19998L8 8.07498L12.575 6.97498Z" fill="#F2BD27"/>
<path d="M3.42383 6.97498L5.69883 9.19998L7.99883 8.07498L3.42383 6.97498Z" fill="#F2BD27"/>
<path d="M8 8.07495V10.875L10.825 12.35L8 8.07495Z" fill="#F2BD27"/>
<path d="M7.99883 8.07495V10.875L5.17383 12.35L7.99883 8.07495Z" fill="#F2BD27"/>
</g>
<defs>
<clipPath id="clip0_1525_7772">
<rect width="16" height="16" fill="white"/>
</clipPath>
</defs>
</svg>
