<svg width="54" height="54" viewBox="0 0 54 54" fill="none" xmlns="http://www.w3.org/2000/svg">
<g clip-path="url(#clip0_2680_26485)">
<path d="M27 0C12.1117 0 0 12.1117 0 27C0 41.8882 12.1117 54 27 54C41.8882 54 54 41.8882 54 27C54 12.1117 41.8882 0 27 0ZM35.3407 32.1593C36.2205 33.039 36.2205 34.461 35.3407 35.3407C34.902 35.7795 34.326 36 33.75 36C33.174 36 32.598 35.7795 32.1593 35.3407L27 30.1815L21.8407 35.3407C21.402 35.7795 20.826 36 20.25 36C19.674 36 19.098 35.7795 18.6593 35.3407C17.7795 34.461 17.7795 33.039 18.6593 32.1593L23.8185 27L18.6593 21.8407C17.7795 20.961 17.7795 19.539 18.6593 18.6593C19.539 17.7795 20.961 17.7795 21.8407 18.6593L27 23.8185L32.1593 18.6593C33.039 17.7795 34.461 17.7795 35.3407 18.6593C36.2205 19.539 36.2205 20.961 35.3407 21.8407L30.1815 27L35.3407 32.1593Z" fill="#FE6C5F"/>
</g>
<defs>
<clipPath id="clip0_2680_26485">
<rect width="54" height="54" fill="white"/>
</clipPath>
</defs>
</svg>
