<svg width="110" height="71" viewBox="0 0 110 71" fill="none" xmlns="http://www.w3.org/2000/svg">
<path d="M96.1714 0H13.8286C10.3932 0.00276794 7.09919 1.37293 4.66985 3.8097C2.24051 6.24647 0.874351 9.55068 0.871284 12.9969V58.0007C0.873738 61.4474 2.23963 64.7522 4.66903 67.1895C7.09843 69.6267 10.3928 70.9972 13.8286 71H96.1714C99.6072 70.9972 102.902 69.6267 105.331 67.1895C107.76 64.7522 109.126 61.4474 109.129 58.0007V12.9969C109.126 9.55068 107.759 6.24647 105.33 3.8097C102.901 1.37293 99.6068 0.00276794 96.1714 0ZM105.076 58.0007C105.074 60.3692 104.135 62.6401 102.465 64.315C100.796 65.9899 98.5325 66.9321 96.1714 66.9348H13.8286C11.4675 66.9321 9.20395 65.9899 7.53452 64.315C5.86509 62.6401 4.92615 60.3692 4.9237 58.0007V12.9969C4.92677 10.6288 5.86598 8.35861 7.53534 6.68421C9.2047 5.00981 11.4679 4.06794 13.8286 4.06517H96.1714C98.5321 4.06794 100.795 5.00981 102.465 6.68421C104.134 8.35861 105.073 10.6288 105.076 12.9969V58.0007Z" fill="#CCD5DF"/>
<path d="M75.7339 14.7624C71.375 14.7631 67.1271 16.1372 63.5937 18.6897C60.0603 21.2422 57.421 24.8432 56.051 28.9811C54.6809 33.119 54.6496 37.5834 55.9616 41.7401C57.2735 45.8968 59.862 49.5344 63.3593 52.1361L63.4233 52.1803L63.4523 52.2001C66.796 54.6771 70.8144 56.0776 74.9734 56.2155C75.2234 56.2353 75.4734 56.2376 75.7339 56.2376C75.9944 56.2376 76.2433 56.2376 76.4933 56.2155C80.6538 56.0782 84.674 54.6785 88.0202 52.2024L88.0562 52.178C88.0748 52.1629 88.0958 52.1513 88.1144 52.1373C91.6125 49.5354 94.2017 45.8972 95.5138 41.7397C96.8259 37.5823 96.7943 33.117 95.4234 28.9785C94.0525 24.84 91.4122 21.2389 87.8775 18.6868C84.3428 16.1347 80.0937 14.7615 75.7339 14.7624ZM76.3073 52.1501C76.2677 52.1501 76.2258 52.1501 76.191 52.1582C76.0409 52.1699 75.8921 52.1664 75.7386 52.1675C75.5851 52.1687 75.4339 52.1675 75.285 52.1582C75.2455 52.1582 75.2048 52.1513 75.1688 52.1501C72.1235 52.0548 69.1645 51.116 66.6213 49.4383V48.8568C66.6231 46.9807 67.3693 45.1819 68.696 43.8553C70.0226 42.5287 71.8215 41.7826 73.6977 41.7807H77.7876C79.6646 41.7829 81.4642 42.5288 82.7923 43.8551C84.1204 45.1814 84.8687 46.9799 84.8733 48.8568V49.4383C82.3241 51.1179 79.3586 52.0567 76.3073 52.1501ZM75.7479 37.706H75.7258C74.3231 37.703 72.979 37.1434 71.9887 36.1501C70.9984 35.1567 70.4429 33.8108 70.4444 32.4082C70.4459 31.0056 71.0041 29.6609 71.9965 28.6696C72.9888 27.6783 74.3342 27.1215 75.7368 27.1215C77.1395 27.1215 78.4848 27.6783 79.4772 28.6696C80.4696 29.6609 81.0278 31.0056 81.0293 32.4082C81.0307 33.8108 80.4753 35.1567 79.485 36.1501C78.4947 37.1434 77.1506 37.703 75.7479 37.706ZM88.583 46.1276C88.179 44.5404 87.431 43.0615 86.3921 41.7955C85.3531 40.5295 84.0485 39.5074 82.5707 38.8014C83.8189 37.4688 84.6501 35.8003 84.9622 34.0014C85.2744 32.2024 85.0537 30.3515 84.3275 28.6763C83.6012 27.0012 82.401 25.5749 80.8746 24.573C79.3482 23.5711 77.5621 23.0373 75.7363 23.0373C73.9104 23.0373 72.1243 23.5711 70.5979 24.573C69.0715 25.5749 67.8713 27.0012 67.145 28.6763C66.4188 30.3515 66.1981 32.2024 66.5103 34.0014C66.8224 35.8003 67.6537 37.4688 68.9018 38.8014C67.4245 39.5077 66.1204 40.53 65.0818 41.796C64.0433 43.062 63.2957 44.5407 62.8918 46.1276C60.4088 43.146 59.0562 39.3847 59.0716 35.5046C59.0716 33.3158 59.5028 31.1485 60.3404 29.1263C61.1781 27.1041 62.4058 25.2666 63.9536 23.7189C65.5014 22.1712 67.3389 20.9435 69.3611 20.1058C71.3834 19.2682 73.5509 18.8371 75.7397 18.8371C77.9286 18.8371 80.0961 19.2682 82.1184 20.1058C84.1406 20.9435 85.9781 22.1712 87.5259 23.7189C89.0737 25.2666 90.3014 27.1041 91.1391 29.1263C91.9767 31.1485 92.4079 33.3158 92.4079 35.5046C92.4225 39.3853 91.0681 43.1469 88.583 46.1276Z" fill="#CCD5DF"/>
<path d="M41.7179 21.0891H15.5593C15.0197 21.0891 14.5022 21.3113 14.1207 21.7068C13.7391 22.1023 13.5247 22.6387 13.5247 23.198C13.5247 23.7573 13.7391 24.2937 14.1207 24.6892C14.5022 25.0847 15.0197 25.3069 15.5593 25.3069H41.7179C42.2575 25.3069 42.775 25.0847 43.1566 24.6892C43.5381 24.2937 43.7525 23.7573 43.7525 23.198C43.7525 22.6387 43.5381 22.1023 43.1566 21.7068C42.775 21.3113 42.2575 21.0891 41.7179 21.0891Z" fill="#CCD5DF"/>
<path d="M41.7179 33.7426H15.5593C15.0197 33.7426 14.5022 33.9648 14.1207 34.3603C13.7391 34.7558 13.5247 35.2922 13.5247 35.8515C13.5247 36.4108 13.7391 36.9472 14.1207 37.3427C14.5022 37.7382 15.0197 37.9604 15.5593 37.9604H41.7179C42.2575 37.9604 42.775 37.7382 43.1566 37.3427C43.5381 36.9472 43.7525 36.4108 43.7525 35.8515C43.7525 35.2922 43.5381 34.7558 43.1566 34.3603C42.775 33.9648 42.2575 33.7426 41.7179 33.7426Z" fill="#CCD5DF"/>
<path d="M41.7179 45.6931H15.5593C15.0197 45.6931 14.5022 45.9153 14.1207 46.3107C13.7391 46.7062 13.5247 47.2427 13.5247 47.802C13.5247 48.3613 13.7391 48.8977 14.1207 49.2932C14.5022 49.6887 15.0197 49.9109 15.5593 49.9109H41.7179C42.2575 49.9109 42.775 49.6887 43.1566 49.2932C43.5381 48.8977 43.7525 48.3613 43.7525 47.802C43.7525 47.2427 43.5381 46.7062 43.1566 46.3107C42.775 45.9153 42.2575 45.6931 41.7179 45.6931Z" fill="#CCD5DF"/>
</svg>
