<svg width="16" height="16" viewBox="0 0 16 16" fill="none" xmlns="http://www.w3.org/2000/svg">
<g clip-path="url(#clip0_518_7641)">
<path d="M10.4794 9.14551C10.4057 9.14551 10.3334 9.17501 10.2813 9.22677C10.2292 9.27881 10.1992 9.35062 10.1992 9.42381C10.1992 9.497 10.2292 9.5688 10.2813 9.62057C10.3334 9.6723 10.4057 9.70211 10.4794 9.70211C10.5531 9.70211 10.6254 9.67233 10.6775 9.62057C10.7296 9.5688 10.7596 9.497 10.7596 9.42381C10.7596 9.35062 10.7297 9.27881 10.6775 9.22677C10.6254 9.17498 10.5531 9.14551 10.4794 9.14551Z" fill="black"/>
<path d="M15.1691 8.81142C15.1691 8.41756 14.9103 8.08279 14.5527 7.96563V2.329C14.5527 1.50036 13.8739 0.826172 13.0395 0.826172H12.4439C11.6963 0.826172 11.074 1.36752 10.9526 2.07616C10.3509 2.19572 9.89614 2.72435 9.89614 3.35657V3.66484C9.89614 3.81852 10.0216 3.94315 10.1763 3.94315H12.2456C12.4004 3.94315 12.5258 3.81852 12.5258 3.66484V3.35657C12.5258 2.74314 12.0977 2.22745 11.5226 2.08807C11.6301 1.68264 12.0024 1.38277 12.4439 1.38277H13.0395C13.5649 1.38277 13.9923 1.80724 13.9923 2.329V7.92085H7.97077C7.81253 7.78242 7.60517 7.69821 7.37823 7.69821H4.91438C4.68743 7.69821 4.48008 7.78242 4.32184 7.92085H1.71895C1.22451 7.92085 0.822266 8.32035 0.822266 8.81142C0.822266 9.20527 1.08115 9.54004 1.43873 9.6572V10.7503C1.43873 11.5722 1.72901 12.3281 2.21285 12.9223L1.7466 13.7575C1.51176 14.1782 1.66195 14.7162 2.08143 14.9568C2.21929 15.0358 2.37195 15.0762 2.52671 15.0762C2.60708 15.0762 2.68803 15.0653 2.76773 15.0433C3.00075 14.9789 3.19356 14.8277 3.31061 14.6174L3.66668 13.9777C4.05653 14.1279 4.48008 14.2105 4.9227 14.2105H11.0687C11.5113 14.2105 11.9349 14.1279 12.3247 13.9777L12.6808 14.6175C12.7978 14.8277 12.9907 14.9789 13.2237 15.0433C13.3034 15.0653 13.3843 15.0761 13.4647 15.0761C13.6194 15.0761 13.7721 15.0358 13.91 14.9568C14.3295 14.7162 14.4797 14.1782 14.2448 13.7575L13.7786 12.9223C14.2624 12.3281 14.5527 11.5722 14.5527 10.7503V9.6572C14.9103 9.54004 15.1691 9.20527 15.1691 8.81142ZM11.9654 3.35657V3.38654H10.4565V3.35657C10.4565 2.9434 10.795 2.6073 11.2109 2.6073C11.6269 2.6073 11.9654 2.9434 11.9654 3.35657ZM4.91438 8.25481H7.37823C7.56421 8.25481 7.71549 8.40507 7.71549 8.58978V11.4831H4.57711V8.58978C4.57711 8.40507 4.72843 8.25481 4.91438 8.25481ZM1.71895 8.47745H4.02406C4.01938 8.51427 4.01669 8.5517 4.01669 8.58978V9.14538H1.71895C1.53353 9.14538 1.38269 8.99557 1.38269 8.81142C1.38269 8.62726 1.53353 8.47745 1.71895 8.47745ZM2.82013 14.3481C2.77647 14.4266 2.70457 14.483 2.61762 14.507C2.53064 14.531 2.43976 14.5195 2.36161 14.4747C2.20517 14.385 2.14913 14.1843 2.23675 14.0274L2.61862 13.3433C2.78611 13.4903 2.96785 13.6215 3.16154 13.7347L2.82013 14.3481ZM13.6298 14.4747C13.5516 14.5195 13.4608 14.531 13.3738 14.507C13.2868 14.483 13.2149 14.4266 13.1713 14.3482L12.8298 13.7347C13.0235 13.6215 13.2053 13.4903 13.3728 13.3433L13.7546 14.0274C13.8423 14.1843 13.7862 14.385 13.6298 14.4747ZM14.2725 9.14538H11.7412C11.5865 9.14538 11.461 9.27 11.461 9.42368C11.461 9.57736 11.5865 9.70198 11.7412 9.70198H13.9923V10.7503C13.9923 12.3513 12.6807 13.6539 11.0687 13.6539H4.9227C3.31067 13.6539 1.99916 12.3513 1.99916 10.7503V9.70198H4.01669V11.7614C4.01669 11.9151 4.14217 12.0397 4.2969 12.0397H7.99571C8.15044 12.0397 8.27592 11.9151 8.27592 11.7614V9.70198H9.21951C9.37424 9.70198 9.49972 9.57736 9.49972 9.42368C9.49972 9.27 9.37424 9.14538 9.21951 9.14538H8.27592V8.58978C8.27592 8.5517 8.27323 8.51427 8.26855 8.47745H14.2725C14.4579 8.47745 14.6087 8.62726 14.6087 8.81142C14.6087 8.99557 14.4579 9.14538 14.2725 9.14538Z" fill="black"/>
</g>
<defs>
<clipPath id="clip0_518_7641">
<rect width="14.3478" height="14.3478" fill="white" transform="translate(0.822266 0.826172)"/>
</clipPath>
</defs>
</svg>
