<svg width="22" height="22" viewBox="0 0 22 22" fill="none" xmlns="http://www.w3.org/2000/svg">
<g clip-path="url(#clip0_3827_18982)">
<path d="M14.8086 12.8438C14.6956 12.8438 14.5847 12.8893 14.5048 12.9692C14.4249 13.0496 14.3789 13.1604 14.3789 13.2734C14.3789 13.3864 14.4249 13.4973 14.5048 13.5772C14.5847 13.6571 14.6956 13.7031 14.8086 13.7031C14.9216 13.7031 15.0324 13.6571 15.1123 13.5772C15.1922 13.4973 15.2382 13.3864 15.2382 13.2734C15.2382 13.1604 15.1922 13.0496 15.1123 12.9692C15.0324 12.8893 14.9216 12.8438 14.8086 12.8438Z" fill="black"/>
<path d="M21.9985 12.3281C21.9985 11.7201 21.6016 11.2032 21.0533 11.0223V2.32016C21.0533 1.04085 20.0124 0 18.7331 0H17.8198C16.6736 0 15.7194 0.835773 15.5332 1.92981C14.6106 2.11439 13.9133 2.93053 13.9133 3.90659V4.38252C13.9133 4.61978 14.1057 4.81218 14.3429 4.81218H17.5158C17.7531 4.81218 17.9455 4.61978 17.9455 4.38252V3.90659C17.9455 2.95953 17.2889 2.16338 16.4072 1.9482C16.5721 1.32228 17.1428 0.859318 17.8198 0.859318H18.7331C19.5387 0.859318 20.194 1.51463 20.194 2.32016V10.9532H10.961C10.7184 10.7395 10.4005 10.6095 10.0525 10.6095H6.27457C5.92659 10.6095 5.60864 10.7395 5.36601 10.9532H1.37491C0.616775 10.9532 0 11.57 0 12.3281C0 12.9362 0.396962 13.453 0.94525 13.6339V15.3214C0.94525 16.5905 1.39033 17.7574 2.13223 18.6748L1.41732 19.9642C1.05722 20.6137 1.28752 21.4443 1.93072 21.8157C2.14211 21.9378 2.37619 22 2.61349 22C2.73671 22 2.86084 21.9832 2.98304 21.9493C3.34034 21.8499 3.63599 21.6164 3.81546 21.2918L4.36143 20.3041C4.95921 20.536 5.60864 20.6635 6.28733 20.6635H15.7112C16.3899 20.6635 17.0393 20.536 17.6371 20.3041L18.1831 21.2919C18.3626 21.6165 18.6582 21.8499 19.0155 21.9493C19.1377 21.9832 19.2617 22 19.3851 22C19.6223 22 19.8564 21.9377 20.0679 21.8157C20.7111 21.4443 20.9413 20.6137 20.5812 19.9642L19.8663 18.6748C20.6082 17.7574 21.0533 16.5905 21.0533 15.3214V13.6339C21.6016 13.453 21.9985 12.9362 21.9985 12.3281ZM17.0861 3.90659V3.95286H14.7725V3.90659C14.7725 3.26872 15.2915 2.74982 15.9293 2.74982C16.5671 2.74982 17.0861 3.26872 17.0861 3.90659ZM6.27457 11.4688H10.0525C10.3376 11.4688 10.5696 11.7008 10.5696 11.9859V16.4528H5.75743V11.9859C5.75743 11.7008 5.98945 11.4688 6.27457 11.4688ZM1.37491 11.8125H4.90941C4.90224 11.8694 4.89811 11.9272 4.89811 11.9859V12.8437H1.37491C1.0906 12.8437 0.859318 12.6124 0.859318 12.3281C0.859318 12.0438 1.0906 11.8125 1.37491 11.8125ZM3.06338 20.8761C2.99644 20.9971 2.88619 21.0843 2.75287 21.1213C2.6195 21.1583 2.48016 21.1406 2.36033 21.0715C2.12045 20.9329 2.03452 20.6231 2.16888 20.3809L2.75442 19.3248C3.01122 19.5517 3.2899 19.7543 3.58688 19.929L3.06338 20.8761ZM19.6383 21.0715C19.5184 21.1406 19.379 21.1583 19.2457 21.1213C19.1124 21.0843 19.0021 20.9971 18.9352 20.8761L18.4116 19.929C18.7086 19.7543 18.9873 19.5517 19.2441 19.3248L19.8296 20.3809C19.964 20.6231 19.8781 20.9329 19.6383 21.0715ZM20.6236 12.8437H16.7424C16.5051 12.8437 16.3127 13.0361 16.3127 13.2734C16.3127 13.5106 16.5051 13.703 16.7424 13.703H20.194V15.3214C20.194 17.7932 18.183 19.8042 15.7112 19.8042H6.28733C3.81554 19.8042 1.80457 17.7932 1.80457 15.3214V13.703H4.89811V16.8825C4.89811 17.1198 5.09051 17.3122 5.32777 17.3122H10.9993C11.2365 17.3122 11.4289 17.1198 11.4289 16.8825V13.703H12.8758C13.113 13.703 13.3054 13.5106 13.3054 13.2734C13.3054 13.0361 13.113 12.8437 12.8758 12.8437H11.4289V11.9859C11.4289 11.9272 11.4248 11.8694 11.4176 11.8125H20.6236C20.9079 11.8125 21.1392 12.0438 21.1392 12.3281C21.1392 12.6124 20.9079 12.8437 20.6236 12.8437Z" fill="black"/>
</g>
<defs>
<clipPath id="clip0_3827_18982">
<rect width="22" height="22" fill="white"/>
</clipPath>
</defs>
</svg>
