<svg width="22" height="22" viewBox="0 0 22 22" fill="none" xmlns="http://www.w3.org/2000/svg">
<path d="M20.5965 10.8064V3.89162C20.5965 2.20965 19.2281 0.841309 17.5462 0.841309H4.36614C2.68417 0.841309 1.31583 2.20969 1.31583 3.89162V10.8956C0.501145 11.7473 0 12.9013 0 14.1702V19.4134C0 20.3758 0.78302 21.1589 1.74552 21.1589C2.70798 21.1589 3.491 20.3758 3.491 19.4134V18.8719H18.509V19.4134C18.509 20.3758 19.2921 21.1589 20.2545 21.1589C21.217 21.1589 22 20.3759 22 19.4134V14.1702C22 12.8564 21.4627 11.6659 20.5965 10.8064ZM4.36614 1.70068H17.5462C18.7543 1.70068 19.7371 2.68355 19.7371 3.89162V10.1301C19.4739 9.96809 19.1938 9.83101 18.9001 9.7223V8.29342C18.9001 7.0267 17.8695 5.99614 16.6028 5.99614H12.8676C12.0987 5.99614 11.4172 6.37629 11 6.95813C10.5829 6.37629 9.90142 5.99614 9.13245 5.99614H5.39726C4.13054 5.99614 3.09998 7.02666 3.09998 8.29342V9.7223C2.77337 9.84317 2.46361 9.99907 2.17525 10.1854V3.89162C2.17521 2.68355 3.15803 1.70068 4.36614 1.70068ZM4.74087 9.42934C4.47468 9.42934 4.2136 9.45177 3.95927 9.49414V8.29342C3.95927 7.50056 4.60432 6.85552 5.39718 6.85552H9.13236C9.92522 6.85552 10.5703 7.50056 10.5703 8.29342V9.42939H4.74087V9.42934ZM11.4297 8.29338C11.4297 7.50052 12.0747 6.85547 12.8676 6.85547H16.6028C17.3956 6.85547 18.0407 7.50052 18.0407 8.29338V9.4941C17.7863 9.45173 17.5253 9.4293 17.2591 9.4293H11.4297V8.29338ZM4.74087 10.2887H17.2591C19.3994 10.2887 21.1406 12.0299 21.1406 14.1702V15.445H16.831C16.5937 15.445 16.4013 15.6374 16.4013 15.8747C16.4013 16.1119 16.5937 16.3043 16.831 16.3043H21.1406V18.0126H0.859375V16.3043H12.5341C12.7714 16.3043 12.9638 16.1119 12.9638 15.8747C12.9638 15.6374 12.7714 15.445 12.5341 15.445H0.859375V14.1702C0.859375 12.0299 2.6006 10.2887 4.74087 10.2887ZM2.63162 19.4134C2.63162 19.902 2.23412 20.2995 1.74552 20.2995C1.25692 20.2995 0.859375 19.902 0.859375 19.4134V18.8719H2.63162V19.4134ZM20.2545 20.2995C19.7659 20.2995 19.3684 19.902 19.3684 19.4134V18.8719H21.1406V19.4134C21.1406 19.902 20.7431 20.2995 20.2545 20.2995Z" fill="black"/>
<path d="M14.6819 16.3046C14.9193 16.3046 15.1118 16.1122 15.1118 15.8747C15.1118 15.6373 14.9193 15.4448 14.6819 15.4448C14.4444 15.4448 14.252 15.6373 14.252 15.8747C14.252 16.1122 14.4444 16.3046 14.6819 16.3046Z" fill="black"/>
</svg>
