<svg width="22" height="22" viewBox="0 0 22 22" fill="none" xmlns="http://www.w3.org/2000/svg">
<path d="M19.9657 19.36H18.3157V0.990049C18.3157 0.748054 18.1177 0.550049 17.8757 0.550049H4.1257C3.88371 0.550049 3.6857 0.748054 3.6857 0.990049V19.36H2.0357C1.79371 19.36 1.5957 19.5581 1.5957 19.8V21.01C1.5957 21.252 1.79371 21.45 2.0357 21.45H8.9085V15.62C8.9085 15.3781 9.1043 15.18 9.3485 15.18H12.6485C12.8905 15.18 13.0885 15.3781 13.0885 15.62V21.45H19.9657C20.2077 21.45 20.4057 21.252 20.4057 21.01V19.8C20.4057 19.5581 20.2077 19.36 19.9657 19.36ZM7.8657 12.65C7.8657 12.892 7.6677 13.09 7.4257 13.09H6.2157C5.97371 13.09 5.7757 12.892 5.7757 12.65V11.44C5.7757 11.1981 5.97371 11 6.2157 11H7.4257C7.6677 11 7.8657 11.1981 7.8657 11.44V12.65ZM7.8657 8.47005C7.8657 8.71204 7.6677 8.91005 7.4257 8.91005H6.2157C5.97371 8.91005 5.7757 8.71204 5.7757 8.47005V7.26005C5.7757 7.01805 5.97371 6.82005 6.2157 6.82005H7.4257C7.6677 6.82005 7.8657 7.01805 7.8657 7.26005V8.47005ZM7.8657 4.29005C7.8657 4.53204 7.6677 4.73005 7.4257 4.73005H6.2157C5.97371 4.73005 5.7757 4.53204 5.7757 4.29005V3.08005C5.7757 2.83805 5.97371 2.64005 6.2157 2.64005H7.4257C7.6677 2.64005 7.8657 2.83805 7.8657 3.08005V4.29005ZM12.0457 12.65C12.0457 12.892 11.8477 13.09 11.6057 13.09H10.3957C10.1537 13.09 9.9557 12.892 9.9557 12.65V11.44C9.9557 11.1981 10.1537 11 10.3957 11H11.6057C11.8477 11 12.0457 11.1981 12.0457 11.44V12.65ZM12.0457 8.47005C12.0457 8.71204 11.8477 8.91005 11.6057 8.91005H10.3957C10.1537 8.91005 9.9557 8.71204 9.9557 8.47005V7.26005C9.9557 7.01805 10.1537 6.82005 10.3957 6.82005H11.6057C11.8477 6.82005 12.0457 7.01805 12.0457 7.26005V8.47005ZM12.0457 4.29005C12.0457 4.53204 11.8477 4.73005 11.6057 4.73005H10.3957C10.1537 4.73005 9.9557 4.53204 9.9557 4.29005V3.08005C9.9557 2.83805 10.1537 2.64005 10.3957 2.64005H11.6057C11.8477 2.64005 12.0457 2.83805 12.0457 3.08005V4.29005ZM16.2257 12.65C16.2257 12.892 16.0277 13.09 15.7857 13.09H14.5757C14.3337 13.09 14.1357 12.892 14.1357 12.65V11.44C14.1357 11.1981 14.3337 11 14.5757 11H15.7857C16.0277 11 16.2257 11.1981 16.2257 11.44V12.65ZM16.2257 8.47005C16.2257 8.71204 16.0277 8.91005 15.7857 8.91005H14.5757C14.3337 8.91005 14.1357 8.71204 14.1357 8.47005V7.26005C14.1357 7.01805 14.3337 6.82005 14.5757 6.82005H15.7857C16.0277 6.82005 16.2257 7.01805 16.2257 7.26005V8.47005ZM16.2257 4.29005C16.2257 4.53204 16.0277 4.73005 15.7857 4.73005H14.5757C14.3337 4.73005 14.1357 4.53204 14.1357 4.29005V3.08005C14.1357 2.83805 14.3337 2.64005 14.5757 2.64005H15.7857C16.0277 2.64005 16.2257 2.83805 16.2257 3.08005V4.29005Z" fill="url(#paint0_linear_512_7011)"/>
<defs>
<linearGradient id="paint0_linear_512_7011" x1="-0.977636" y1="-1.18047" x2="20.939" y2="23.2362" gradientUnits="userSpaceOnUse">
<stop stop-color="#97E0FF"/>
<stop offset="1" stop-color="#1075FF"/>
</linearGradient>
</defs>
</svg>
