<svg width="71" height="71" viewBox="0 0 71 71" fill="none" xmlns="http://www.w3.org/2000/svg">
<path d="M38.7515 42.3477L42.3383 38.7609L47.0764 43.499L43.4896 47.0858L38.7515 42.3477Z" fill="#0A2540" stroke="#0A2540" strokeWidth="2"/>
<path d="M24.8446 48.6891C38.0135 48.6891 48.6891 38.0135 48.6891 24.8446C48.6891 11.6756 38.0135 1 24.8446 1C11.6756 1 1 11.6756 1 24.8446C1 38.0135 11.6756 48.6891 24.8446 48.6891Z" fill="#3F53FE" stroke="#0A2540" strokeWidth="2"/>
<path d="M24.8448 44.4615C35.6788 44.4615 44.4615 35.6788 44.4615 24.8448C44.4615 14.0107 35.6788 5.22803 24.8448 5.22803C14.0107 5.22803 5.22803 14.0107 5.22803 24.8448C5.22803 35.6788 14.0107 44.4615 24.8448 44.4615Z" fill="white" stroke="#0A2540" strokeWidth="2"/>
<path d="M42.293 48.2832L48.271 42.3052L68.5728 62.6069C69.2132 63.2474 69.573 64.1161 69.573 65.0218C69.573 65.9276 69.2132 66.7962 68.5728 67.4367L67.4245 68.585C66.784 69.2254 65.9154 69.5852 65.0096 69.5852C64.1039 69.5852 63.2352 69.2254 62.5947 68.585L42.293 48.2832Z" fill="white" stroke="#0A2540" strokeWidth="2"/>
</svg>
