<svg width="26" height="26" viewBox="0 0 26 26" fill="none" xmlns="http://www.w3.org/2000/svg">
<g clip-path="url(#clip0_2591_11535)">
<path d="M19.7666 17.1994C18.9172 16.3608 17.8568 16.3608 17.0128 17.1994C16.3689 17.8378 15.7251 18.4763 15.0921 19.1255C14.919 19.304 14.7729 19.3419 14.5619 19.2229C14.1453 18.9956 13.7016 18.8117 13.3013 18.5628C11.4347 17.3888 9.8711 15.8793 8.48605 14.1804C7.79893 13.3364 7.18756 12.4329 6.76014 11.4157C6.67358 11.2101 6.68981 11.0749 6.85753 10.9072C7.50136 10.285 8.12896 9.64656 8.76197 9.00813C9.64386 8.12084 9.64386 7.08205 8.75657 6.18934C8.2534 5.68077 7.75024 5.18301 7.24708 4.67444C6.72768 4.15505 6.2137 3.63024 5.68889 3.11626C4.83947 2.28847 3.77904 2.28847 2.93502 3.12167C2.28578 3.76009 1.66359 4.41474 1.00353 5.04234C0.392157 5.62125 0.0837665 6.33001 0.0188422 7.15779C-0.0839545 8.50497 0.246077 9.7764 0.711368 11.0154C1.66359 13.5799 3.11357 15.8576 4.87193 17.946C7.24708 20.7702 10.0821 23.0047 13.3986 24.617C14.8919 25.342 16.4393 25.8993 18.1219 25.9912C19.2797 26.0562 20.286 25.764 21.0922 24.8605C21.644 24.2437 22.2662 23.681 22.8505 23.0913C23.7162 22.2148 23.7216 21.1544 22.8614 20.2887C21.8334 19.2553 20.8 18.2274 19.7666 17.1994Z" fill="#19B400"/>
<path d="M18.734 12.8869L20.7304 12.546C20.4166 10.7119 19.5509 9.05094 18.2362 7.73082C16.8458 6.34035 15.0874 5.46388 13.1505 5.19336L12.8691 7.2006C14.3678 7.41161 15.7312 8.0879 16.8079 9.16456C17.825 10.1817 18.4905 11.4694 18.734 12.8869Z" fill="#19B400"/>
<path d="M21.8543 4.20926C19.5495 1.90445 16.6333 0.449059 13.4142 0L13.1328 2.00724C15.9137 2.39679 18.435 3.6574 20.426 5.643C22.3142 7.53121 23.5532 9.91718 24.0022 12.5412L25.9986 12.2004C25.4738 9.15973 24.0401 6.40045 21.8543 4.20926Z" fill="#19B400"/>
</g>
<defs>
<clipPath id="clip0_2591_11535">
<rect width="26" height="26" fill="white"/>
</clipPath>
</defs>
</svg>
