<svg width="26" height="26" viewBox="0 0 26 26" fill="none" xmlns="http://www.w3.org/2000/svg">
<path d="M19.8801 0H6.11888C4.0005 0 2.2832 1.7173 2.2832 3.83568V22.1643C2.2832 24.2827 4.0005 26 6.11888 26H19.8801C21.9985 26 23.7158 24.2827 23.7158 22.1643V3.83568C23.7158 1.7173 21.9985 0 19.8801 0ZM9.83061 7.25535H16.1684C16.6572 7.25495 17.0538 7.65096 17.0542 8.13982C17.0546 8.62867 16.6586 9.02532 16.1697 9.02567C16.1693 9.02567 16.1688 9.02567 16.1684 9.02567H9.83061C9.34176 9.02567 8.94545 8.62936 8.94545 8.14051C8.94545 7.65166 9.34176 7.25535 9.83061 7.25535ZM18.4491 18.7447H7.54989C7.06104 18.7447 6.66473 18.3484 6.66473 17.8595C6.66473 17.3707 7.06104 16.9744 7.54989 16.9744H18.4491C18.938 16.9744 19.3343 17.3707 19.3343 17.8595C19.3343 18.3484 18.938 18.7447 18.4491 18.7447ZM18.4491 13.8852H7.54989C7.06104 13.8852 6.66473 13.4889 6.66473 13C6.66473 12.5111 7.06104 12.1148 7.54989 12.1148H18.4491C18.938 12.1148 19.3343 12.5111 19.3343 13C19.3343 13.4889 18.938 13.8852 18.4491 13.8852Z" fill="#19B400"/>
</svg>
