<svg width="26" height="26" viewBox="0 0 26 26" fill="none" xmlns="http://www.w3.org/2000/svg">
<g clip-path="url(#clip0_2591_11541)">
<path fill-rule="evenodd" clip-rule="evenodd" d="M-0.0195312 4.10864C-0.0195312 3.01896 0.392003 1.97391 1.12454 1.20339C1.85708 0.432873 2.85061 0 3.88657 0H22.1151C23.151 0 24.1445 0.432873 24.8771 1.20339C25.6096 1.97391 26.0212 3.01896 26.0212 4.10864V17.8041C26.0212 18.8937 25.6096 19.9388 24.8771 20.7093C24.1445 21.4798 23.151 21.9128 22.1151 21.9128H7.3591C7.07738 21.9128 6.80326 22.0089 6.57788 22.1867L2.06372 25.7475C1.87028 25.9001 1.64026 25.9931 1.39944 26.0159C1.1586 26.0387 0.916488 25.9906 0.70022 25.8768C0.483939 25.7631 0.302045 25.5882 0.174928 25.3718C0.0477969 25.1556 -0.0195312 24.9062 -0.0195312 24.6519V4.10864ZM6.49064 4.10864C6.14532 4.10864 5.81414 4.25294 5.56996 4.50977C5.32579 4.76661 5.18861 5.11496 5.18861 5.47819C5.18861 5.84142 5.32579 6.18977 5.56996 6.44661C5.81414 6.70344 6.14532 6.84774 6.49064 6.84774H19.511C19.8563 6.84774 20.1875 6.70344 20.4317 6.44661C20.6758 6.18977 20.813 5.84142 20.813 5.47819C20.813 5.11496 20.6758 4.76661 20.4317 4.50977C20.1875 4.25294 19.8563 4.10864 19.511 4.10864H6.49064ZM6.49064 9.58683C6.14532 9.58683 5.81414 9.73118 5.56996 9.98797C5.32579 10.2448 5.18861 10.5932 5.18861 10.9564C5.18861 11.3196 5.32579 11.668 5.56996 11.9248C5.81414 12.1816 6.14532 12.3259 6.49064 12.3259H19.511C19.8563 12.3259 20.1875 12.1816 20.4317 11.9248C20.6758 11.668 20.813 11.3196 20.813 10.9564C20.813 10.5932 20.6758 10.2448 20.4317 9.98797C20.1875 9.73118 19.8563 9.58683 19.511 9.58683H6.49064ZM6.49064 15.065C6.14532 15.065 5.81414 15.2094 5.56996 15.4662C5.32579 15.723 5.18861 16.0714 5.18861 16.4346C5.18861 16.7978 5.32579 17.1462 5.56996 17.403C5.81414 17.6598 6.14532 17.8041 6.49064 17.8041H11.6988C12.0441 17.8041 12.3753 17.6598 12.6194 17.403C12.8636 17.1462 13.0008 16.7978 13.0008 16.4346C13.0008 16.0714 12.8636 15.723 12.6194 15.4662C12.3753 15.2094 12.0441 15.065 11.6988 15.065H6.49064Z" fill="#19B400"/>
</g>
<defs>
<clipPath id="clip0_2591_11541">
<rect width="26" height="26" fill="white"/>
</clipPath>
</defs>
</svg>
