<svg width="38" height="38" viewBox="0 0 38 38" fill="none" xmlns="http://www.w3.org/2000/svg">
<circle cx="19" cy="19" r="19" fill="#F5F7F9"/>
<g clip-path="url(#clip0_2785_12254)">
<mask id="mask0_2785_12254" style="mask-type:luminance" maskUnits="userSpaceOnUse" x="9" y="9" width="20" height="20">
<path d="M29 9H9V29H29V9Z" fill="white"/>
</mask>
<g mask="url(#mask0_2785_12254)">
<path d="M24.8064 21.3892C24.397 20.9629 23.9031 20.7349 23.3796 20.7349C22.8605 20.7349 22.3624 20.9586 21.936 21.385L20.6022 22.7146C20.4924 22.6555 20.3826 22.6007 20.2771 22.5458C20.1252 22.4698 19.9816 22.398 19.8593 22.322C18.6098 21.5285 17.4743 20.4943 16.3852 19.1562C15.8576 18.4892 15.503 17.9278 15.2455 17.358C15.5917 17.0414 15.9125 16.7122 16.2248 16.3956C16.343 16.2774 16.4612 16.155 16.5794 16.0368C17.4658 15.1503 17.4658 14.0022 16.5794 13.1158L15.427 11.9634C15.2962 11.8325 15.1611 11.6975 15.0345 11.5624C14.7812 11.3007 14.5153 11.0305 14.2409 10.7772C13.8315 10.372 13.3418 10.1567 12.8268 10.1567C12.3118 10.1567 11.8137 10.372 11.3916 10.7772C11.3874 10.7815 11.3874 10.7815 11.3832 10.7857L9.948 12.2335C9.4077 12.7738 9.09956 13.4323 9.03202 14.1964C8.93071 15.4289 9.29373 16.5771 9.57232 17.3284C10.2561 19.173 11.2777 20.8827 12.8015 22.7146C14.6504 24.9223 16.8749 26.6656 19.416 27.894C20.3869 28.354 21.6827 28.8986 23.1306 28.9914C23.2193 28.9957 23.3121 28.9999 23.3965 28.9999C24.3716 28.9999 25.1905 28.6495 25.8322 27.953C25.8364 27.9446 25.8448 27.9404 25.849 27.932C26.0685 27.666 26.3218 27.4254 26.5877 27.168C26.7693 26.9949 26.955 26.8133 27.1365 26.6234C27.5544 26.1886 27.7739 25.682 27.7739 25.1629C27.7739 24.6395 27.5502 24.1371 27.1238 23.715L24.8064 21.3892ZM26.3175 25.834C26.3134 25.8382 26.3134 25.834 26.3175 25.834C26.1529 26.0113 25.9841 26.1718 25.8026 26.349C25.5282 26.6108 25.2496 26.8851 24.9879 27.1932C24.5615 27.6491 24.0593 27.8644 23.4007 27.8644C23.3375 27.8644 23.2699 27.8644 23.2066 27.8602C21.9529 27.78 20.7879 27.2903 19.9141 26.8724C17.5249 25.7159 15.427 24.0739 13.6837 21.9928C12.2443 20.258 11.2819 18.6539 10.6445 16.9317C10.2519 15.8806 10.1084 15.0617 10.1717 14.2892C10.2139 13.7954 10.4039 13.3859 10.7542 13.0356L12.1936 11.5961C12.4005 11.402 12.62 11.2964 12.8353 11.2964C13.1012 11.2964 13.3165 11.4568 13.4515 11.5919C13.4558 11.5961 13.46 11.6004 13.4642 11.6046C13.7217 11.8452 13.9665 12.0942 14.224 12.3602C14.3549 12.4952 14.4899 12.6303 14.625 12.7696L15.7774 13.922C16.2248 14.3694 16.2248 14.7831 15.7774 15.2305C15.655 15.353 15.5368 15.4754 15.4144 15.5936C15.0598 15.9566 14.7221 16.2943 14.3549 16.6235C14.3464 16.632 14.338 16.6362 14.3338 16.6446C13.9707 17.0076 14.0383 17.3622 14.1143 17.6028C14.1185 17.6155 14.1227 17.6281 14.1269 17.6408C14.4266 18.3669 14.8487 19.0507 15.4904 19.8653L15.4946 19.8696C16.6596 21.3048 17.888 22.4233 19.2429 23.2802C19.416 23.39 19.5933 23.4787 19.7622 23.563C19.9141 23.639 20.0576 23.7108 20.18 23.7868C20.1969 23.7952 20.2138 23.8079 20.2307 23.8163C20.3742 23.8881 20.5093 23.9219 20.6485 23.9219C20.9989 23.9219 21.2185 23.7024 21.2902 23.6306L22.7338 22.187C22.8774 22.0435 23.1053 21.8704 23.3712 21.8704C23.6329 21.8704 23.8482 22.035 23.9791 22.1785C23.9833 22.1828 23.9833 22.1828 23.9875 22.187L26.3134 24.5129C26.7481 24.9434 26.7481 25.3866 26.3175 25.834Z" fill="#028001"/>
<path d="M19.8087 13.7574C20.9146 13.9431 21.9192 14.4666 22.7212 15.2686C23.5233 16.0706 24.0425 17.0752 24.2324 18.1812C24.2788 18.4597 24.5195 18.6539 24.7938 18.6539C24.8276 18.6539 24.8571 18.6497 24.8909 18.6455C25.2033 18.5948 25.4101 18.2994 25.3595 17.987C25.1315 16.6489 24.4984 15.429 23.5317 14.4623C22.565 13.4957 21.3451 12.8625 20.007 12.6346C19.6947 12.5839 19.4035 12.7908 19.3486 13.0989C19.2937 13.407 19.4963 13.7067 19.8087 13.7574Z" fill="#028001"/>
<path d="M28.9769 17.8224C28.6011 15.619 27.5628 13.6139 25.9671 12.0184C24.3716 10.4228 22.3665 9.38437 20.1631 9.00869C19.855 8.95381 19.5637 9.16487 19.5089 9.47301C19.4581 9.78538 19.665 10.0766 19.9774 10.1315C21.9444 10.465 23.7384 11.3979 25.1651 12.8204C26.5919 14.2471 27.5205 16.0411 27.854 18.0082C27.9004 18.2867 28.141 18.4809 28.4154 18.4809C28.4492 18.4809 28.4788 18.4767 28.5125 18.4725C28.8207 18.426 29.0317 18.1305 28.9769 17.8224Z" fill="#028001"/>
</g>
</g>
<defs>
<clipPath id="clip0_2785_12254">
<rect width="20" height="20" fill="white" transform="translate(9 9)"/>
</clipPath>
</defs>
</svg>
