<svg width="36" height="36" viewBox="0 0 36 36" fill="none" xmlns="http://www.w3.org/2000/svg">
<path d="M15.5 1.44338C17.047 0.550211 18.953 0.550212 20.5 1.44338L31.0885 7.55662C32.6355 8.44979 33.5885 10.1004 33.5885 11.8868V24.1132C33.5885 25.8996 32.6355 27.5502 31.0885 28.4434L20.5 34.5566C18.953 35.4498 17.047 35.4498 15.5 34.5566L4.91154 28.4434C3.36454 27.5502 2.41154 25.8996 2.41154 24.1132V11.8868C2.41154 10.1004 3.36454 8.44979 4.91154 7.55662L15.5 1.44338Z" fill="#73EBA7" fill-opacity="0.18"/>
<g filter="url(#filter0_d_3828_19270)">
<path d="M22.215 17.0625C21.8925 17.0625 21.6375 16.8 21.6375 16.485C21.6375 16.2075 21.36 15.63 20.895 15.1275C20.4375 14.64 19.935 14.355 19.515 14.355C19.1925 14.355 18.9375 14.0925 18.9375 13.7775C18.9375 13.4625 19.2 13.2 19.515 13.2C20.265 13.2 21.0525 13.605 21.7425 14.3325C22.3875 15.015 22.8 15.8625 22.8 16.4775C22.8 16.8 22.5375 17.0625 22.215 17.0625Z" fill="#0CD38A"/>
<path d="M24.9228 17.0625C24.6003 17.0625 24.3453 16.8 24.3453 16.485C24.3453 13.8225 22.1778 11.6625 19.5228 11.6625C19.2003 11.6625 18.9453 11.4 18.9453 11.085C18.9453 10.77 19.2003 10.5 19.5153 10.5C22.8153 10.5 25.5003 13.185 25.5003 16.485C25.5003 16.8 25.2378 17.0625 24.9228 17.0625Z" fill="#0CD38A"/>
<path d="M17.8425 19.6575L15.39 22.11C15.12 21.87 14.8575 21.6225 14.6025 21.3675C13.83 20.5875 13.1325 19.77 12.51 18.915C11.895 18.06 11.4 17.205 11.04 16.3575C10.68 15.5025 10.5 14.685 10.5 13.905C10.5 13.395 10.59 12.9075 10.77 12.4575C10.95 12 11.235 11.58 11.6325 11.205C12.1125 10.7325 12.6375 10.5 13.1925 10.5C13.4025 10.5 13.6125 10.545 13.8 10.635C13.995 10.725 14.1675 10.86 14.3025 11.055L16.0425 13.5075C16.1775 13.695 16.275 13.8675 16.3425 14.0325C16.41 14.19 16.4475 14.3475 16.4475 14.49C16.4475 14.67 16.395 14.85 16.29 15.0225C16.1925 15.195 16.05 15.375 15.87 15.555L15.3 16.1475C15.2175 16.23 15.18 16.3275 15.18 16.4475C15.18 16.5075 15.1875 16.56 15.2025 16.62C15.225 16.68 15.2475 16.725 15.2625 16.77C15.3975 17.0175 15.63 17.34 15.96 17.73C16.2975 18.12 16.6575 18.5175 17.0475 18.915C17.3175 19.1775 17.58 19.4325 17.8425 19.6575Z" fill="#0CD38A"/>
<path d="M25.4767 22.7475C25.4767 22.9575 25.4392 23.175 25.3642 23.385C25.3417 23.445 25.3192 23.505 25.2892 23.565C25.1617 23.835 24.9967 24.09 24.7792 24.33C24.4117 24.735 24.0067 25.0275 23.5492 25.215C23.5417 25.215 23.5342 25.2225 23.5267 25.2225C23.0842 25.4025 22.6042 25.5 22.0867 25.5C21.3217 25.5 20.5042 25.32 19.6417 24.9525C18.7792 24.585 17.9167 24.09 17.0617 23.4675C16.7692 23.25 16.4767 23.0325 16.1992 22.8L18.6517 20.3475C18.8617 20.505 19.0492 20.625 19.2067 20.7075C19.2442 20.7225 19.2892 20.745 19.3417 20.7675C19.4017 20.79 19.4617 20.7975 19.5292 20.7975C19.6567 20.7975 19.7542 20.7525 19.8367 20.67L20.4067 20.1075C20.5942 19.92 20.7742 19.7775 20.9467 19.6875C21.1192 19.5825 21.2917 19.53 21.4792 19.53C21.6217 19.53 21.7717 19.56 21.9367 19.6275C22.1017 19.695 22.2742 19.7925 22.4617 19.92L24.9442 21.6825C25.1392 21.8175 25.2742 21.975 25.3567 22.1625C25.4317 22.35 25.4767 22.5375 25.4767 22.7475Z" fill="#0CD38A"/>
</g>
<defs>
<filter id="filter0_d_3828_19270" x="4" y="9" width="28" height="28" filterUnits="userSpaceOnUse" color-interpolation-filters="sRGB">
<feFlood flood-opacity="0" result="BackgroundImageFix"/>
<feColorMatrix in="SourceAlpha" type="matrix" values="0 0 0 0 0 0 0 0 0 0 0 0 0 0 0 0 0 0 127 0" result="hardAlpha"/>
<feOffset dy="5"/>
<feGaussianBlur stdDeviation="2.5"/>
<feComposite in2="hardAlpha" operator="out"/>
<feColorMatrix type="matrix" values="0 0 0 0 0.523924 0 0 0 0 0.795833 0 0 0 0 0.640456 0 0 0 1 0"/>
<feBlend mode="normal" in2="BackgroundImageFix" result="effect1_dropShadow_3828_19270"/>
<feBlend mode="normal" in="SourceGraphic" in2="effect1_dropShadow_3828_19270" result="shape"/>
</filter>
</defs>
</svg>
