<svg width="32" height="32" viewBox="0 0 32 32" fill="none" xmlns="http://www.w3.org/2000/svg">
<path d="M13.8667 1.23168C15.1868 0.469514 16.8132 0.469514 18.1333 1.23168L27.7231 6.76832C29.0432 7.53049 29.8564 8.93903 29.8564 10.4634V21.5366C29.8564 23.061 29.0432 24.4695 27.7231 25.2317L18.1333 30.7683C16.8132 31.5305 15.1868 31.5305 13.8667 30.7683L4.27693 25.2317C2.95682 24.4695 2.14359 23.061 2.14359 21.5366V10.4634C2.14359 8.93903 2.95682 7.53049 4.27693 6.76832L13.8667 1.23168Z" fill="#BF57FF" fill-opacity="0.14"/>
<g filter="url(#filter0_d_2751_12211)">
<path opacity="0.4" d="M15.895 17.105L14.26 18.74C14.08 18.58 13.905 18.415 13.735 18.245C13.22 17.725 12.755 17.18 12.34 16.61C11.93 16.04 11.6 15.47 11.36 14.905C11.12 14.335 11 13.79 11 13.27C11 12.93 11.06 12.605 11.18 12.305C11.3 12 11.49 11.72 11.755 11.47C12.075 11.155 12.425 11 12.795 11C12.935 11 13.075 11.03 13.2 11.09C13.33 11.15 13.445 11.24 13.535 11.37L14.695 13.005C14.785 13.13 14.85 13.245 14.895 13.355C14.94 13.46 14.965 13.565 14.965 13.66C14.965 13.78 14.93 13.9 14.86 14.015C14.795 14.13 14.7 14.25 14.58 14.37L14.2 14.765C14.145 14.82 14.12 14.885 14.12 14.965C14.12 15.005 14.125 15.04 14.135 15.08C14.15 15.12 14.165 15.15 14.175 15.18C14.265 15.345 14.42 15.56 14.64 15.82C14.865 16.08 15.105 16.345 15.365 16.61C15.545 16.785 15.72 16.955 15.895 17.105Z" fill="#7400E8"/>
<path d="M20.985 19.165C20.985 19.305 20.96 19.45 20.91 19.59C20.895 19.63 20.88 19.67 20.86 19.71C20.775 19.89 20.665 20.06 20.52 20.22C20.275 20.49 20.005 20.685 19.7 20.81C19.695 20.81 19.69 20.815 19.685 20.815C19.39 20.935 19.07 21 18.725 21C18.215 21 17.67 20.88 17.095 20.635C16.52 20.39 15.945 20.06 15.375 19.645C15.18 19.5 14.985 19.355 14.8 19.2L16.435 17.565C16.575 17.67 16.7 17.75 16.805 17.805C16.83 17.815 16.86 17.83 16.895 17.845C16.935 17.86 16.975 17.865 17.02 17.865C17.105 17.865 17.17 17.835 17.225 17.78L17.605 17.405C17.73 17.28 17.85 17.185 17.965 17.125C18.08 17.055 18.195 17.02 18.32 17.02C18.415 17.02 18.515 17.04 18.625 17.085C18.735 17.13 18.85 17.195 18.975 17.28L20.63 18.455C20.76 18.545 20.85 18.65 20.905 18.775C20.955 18.9 20.985 19.025 20.985 19.165Z" fill="#7400E8"/>
</g>
<defs>
<filter id="filter0_d_2751_12211" x="6" y="10" width="19.985" height="20" filterUnits="userSpaceOnUse" color-interpolation-filters="sRGB">
<feFlood flood-opacity="0" result="BackgroundImageFix"/>
<feColorMatrix in="SourceAlpha" type="matrix" values="0 0 0 0 0 0 0 0 0 0 0 0 0 0 0 0 0 0 127 0" result="hardAlpha"/>
<feOffset dy="4"/>
<feGaussianBlur stdDeviation="2.5"/>
<feComposite in2="hardAlpha" operator="out"/>
<feColorMatrix type="matrix" values="0 0 0 0 0.588235 0 0 0 0 0.235294 0 0 0 0 0.933333 0 0 0 0.39 0"/>
<feBlend mode="normal" in2="BackgroundImageFix" result="effect1_dropShadow_2751_12211"/>
<feBlend mode="normal" in="SourceGraphic" in2="effect1_dropShadow_2751_12211" result="shape"/>
</filter>
</defs>
</svg>
