<svg width="38" height="38" viewBox="0 0 38 38" fill="none" xmlns="http://www.w3.org/2000/svg">
<circle cx="19" cy="19" r="19" fill="#F5F7F9"/>
<g filter="url(#filter0_d_1_59)">
<path d="M23.6833 17.9584C23.325 17.9584 23.0417 17.6667 23.0417 17.3167C23.0417 17.0084 22.7333 16.3667 22.2167 15.8084C21.7083 15.2667 21.15 14.95 20.6833 14.95C20.325 14.95 20.0417 14.6584 20.0417 14.3084C20.0417 13.9584 20.3333 13.6667 20.6833 13.6667C21.5167 13.6667 22.3917 14.1167 23.1583 14.925C23.875 15.6834 24.3333 16.625 24.3333 17.3084C24.3333 17.6667 24.0417 17.9584 23.6833 17.9584Z" fill="#1BBF00"/>
<path d="M26.6917 17.9584C26.3333 17.9584 26.05 17.6667 26.05 17.3167C26.05 14.3584 23.6417 11.9584 20.6917 11.9584C20.3333 11.9584 20.05 11.6667 20.05 11.3167C20.05 10.9667 20.3333 10.6667 20.6833 10.6667C24.35 10.6667 27.3333 13.65 27.3333 17.3167C27.3333 17.6667 27.0417 17.9584 26.6917 17.9584Z" fill="#1BBF00"/>
<path opacity="0.4" d="M18.825 20.8417L16.1 23.5667C15.8 23.3 15.5083 23.025 15.225 22.7417C14.3667 21.875 13.5917 20.9667 12.9 20.0167C12.2167 19.0667 11.6667 18.1167 11.2667 17.175C10.8667 16.225 10.6667 15.3167 10.6667 14.45C10.6667 13.8834 10.7667 13.3417 10.9667 12.8417C11.1667 12.3334 11.4833 11.8667 11.925 11.45C12.4583 10.925 13.0417 10.6667 13.6583 10.6667C13.8917 10.6667 14.125 10.7167 14.3333 10.8167C14.55 10.9167 14.7417 11.0667 14.8917 11.2834L16.825 14.0084C16.975 14.2167 17.0833 14.4084 17.1583 14.5917C17.2333 14.7667 17.275 14.9417 17.275 15.1C17.275 15.3 17.2167 15.5 17.1 15.6917C16.9917 15.8834 16.8333 16.0834 16.6333 16.2834L16 16.9417C15.9083 17.0334 15.8667 17.1417 15.8667 17.275C15.8667 17.3417 15.875 17.4 15.8917 17.4667C15.9167 17.5334 15.9417 17.5834 15.9583 17.6334C16.1083 17.9084 16.3667 18.2667 16.7333 18.7C17.1083 19.1334 17.5083 19.575 17.9417 20.0167C18.2417 20.3084 18.5333 20.5917 18.825 20.8417Z" fill="#1BBF00"/>
<path d="M27.3083 24.275C27.3083 24.5083 27.2667 24.75 27.1833 24.9833C27.1583 25.05 27.1333 25.1167 27.1 25.1833C26.9583 25.4833 26.775 25.7667 26.5333 26.0333C26.125 26.4833 25.675 26.8083 25.1667 27.0167C25.1583 27.0167 25.15 27.025 25.1417 27.025C24.65 27.225 24.1167 27.3333 23.5417 27.3333C22.6917 27.3333 21.7833 27.1333 20.825 26.725C19.8667 26.3167 18.9083 25.7667 17.9583 25.075C17.6333 24.8333 17.3083 24.5917 17 24.3333L19.725 21.6083C19.9583 21.7833 20.1667 21.9167 20.3417 22.0083C20.3833 22.025 20.4333 22.05 20.4917 22.075C20.5583 22.1 20.625 22.1083 20.7 22.1083C20.8417 22.1083 20.95 22.0583 21.0417 21.9667L21.675 21.3417C21.8833 21.1333 22.0833 20.975 22.275 20.875C22.4667 20.7583 22.6583 20.7 22.8667 20.7C23.025 20.7 23.1917 20.7333 23.375 20.8083C23.5583 20.8833 23.75 20.9917 23.9583 21.1333L26.7167 23.0917C26.9333 23.2417 27.0833 23.4167 27.175 23.625C27.2583 23.8333 27.3083 24.0417 27.3083 24.275Z" fill="#1BBF00"/>
</g>
<defs>
<filter id="filter0_d_1_59" x="4" y="9" width="30" height="30" filterUnits="userSpaceOnUse" color-interpolation-filters="sRGB">
<feFlood flood-opacity="0" result="BackgroundImageFix"/>
<feColorMatrix in="SourceAlpha" type="matrix" values="0 0 0 0 0 0 0 0 0 0 0 0 0 0 0 0 0 0 127 0" result="hardAlpha"/>
<feOffset dy="5"/>
<feGaussianBlur stdDeviation="2.5"/>
<feComposite in2="hardAlpha" operator="out"/>
<feColorMatrix type="matrix" values="0 0 0 0 0.0705882 0 0 0 0 0.501961 0 0 0 0 0 0 0 0 0.29 0"/>
<feBlend mode="normal" in2="BackgroundImageFix" result="effect1_dropShadow_1_59"/>
<feBlend mode="normal" in="SourceGraphic" in2="effect1_dropShadow_1_59" result="shape"/>
</filter>
</defs>
</svg>
