<svg width="42" height="37" viewBox="0 0 42 37" fill="none" xmlns="http://www.w3.org/2000/svg">
<path d="M16.0303 1.42592C17.5586 0.543555 19.4415 0.543557 20.9698 1.42592L32.0518 7.82408C33.5801 8.70644 34.5216 10.3371 34.5216 12.1019V24.8981C34.5216 26.6629 33.5801 28.2936 32.0518 29.1759L20.9698 35.5741C19.4415 36.4564 17.5586 36.4564 16.0303 35.5741L4.94832 29.1759C3.42001 28.2936 2.47854 26.6629 2.47854 24.8981V12.1019C2.47854 10.3371 3.42001 8.70644 4.94832 7.82407L16.0303 1.42592Z" fill="#FFEFF0"/>
<path fill-rule="evenodd" clip-rule="evenodd" d="M16.3547 11H20.7787L21.2859 11.5072C22.4336 12.6548 23.5804 13.8016 24.7271 14.9484V21.7216C24.7271 23.893 22.9502 25.67 20.7787 25.67H16.3547C14.1832 25.67 12.4062 23.893 12.4062 21.7216V14.9493C12.4062 12.777 14.1832 11 16.3547 11Z" fill="url(#paint0_linear_454_19387)"/>
<path fill-rule="evenodd" clip-rule="evenodd" d="M20.7773 11L24.7172 14.9399H22.7473C21.6637 14.9399 20.7774 14.0535 20.7774 12.97V11H20.7773Z" fill="url(#paint1_linear_454_19387)"/>
<path d="M15.7108 17.4102H14.4547C14.2467 17.4102 14.0781 17.5788 14.0781 17.7867V18.0728V19.2921V20.6259C14.0781 20.8339 14.2467 21.0025 14.4547 21.0025C14.6627 21.0025 14.8313 20.8339 14.8313 20.6259V19.6687H15.7108C16.3333 19.6687 16.8397 19.1623 16.8397 18.5399C16.8396 17.9169 16.3332 17.4102 15.7108 17.4102ZM15.7108 18.9156H14.8313V18.1633H15.7108C15.918 18.1633 16.0865 18.3322 16.0865 18.5399C16.0865 18.7471 15.9179 18.9156 15.7108 18.9156ZM18.7584 17.4102H17.7474C17.5394 17.4102 17.3708 17.5788 17.3708 17.7867V20.626C17.3708 20.834 17.5394 21.0025 17.7474 21.0025H18.7584C19.5235 21.0025 20.146 20.3797 20.146 19.6141V18.7978C20.146 18.0327 19.5235 17.4102 18.7584 17.4102ZM19.3928 19.6141C19.3928 19.9644 19.1082 20.2494 18.7584 20.2494H18.124V18.1633H18.7584C19.1082 18.1633 19.3928 18.4479 19.3928 18.7978V19.6141ZM23.0817 19.1829C23.0817 19.3909 22.9131 19.5594 22.7051 19.5594H21.5489V20.626C21.5489 20.834 21.3803 21.0025 21.1723 21.0025C20.9643 21.0025 20.7958 20.834 20.7958 20.626V17.7867C20.7958 17.5788 20.9643 17.4102 21.1723 17.4102H22.7051C22.9131 17.4102 23.0817 17.5788 23.0817 17.7867C23.0817 17.9947 22.9131 18.1633 22.7051 18.1633H21.5489V18.8063H22.7051C22.9131 18.8063 23.0817 18.9749 23.0817 19.1829Z" fill="url(#paint2_linear_454_19387)"/>
<path d="M30.9933 4.60456C31.3059 4.33168 31.8178 4.33168 32.135 4.60456L32.8508 5.23356C32.9867 5.35381 33.2405 5.45093 33.4217 5.45093H34.1919C34.6721 5.45093 35.0663 5.85331 35.0663 6.34356V7.12981C35.0663 7.31018 35.1614 7.57381 35.2792 7.71256L35.8954 8.44331C36.1627 8.76243 36.1627 9.28506 35.8954 9.60881L35.2792 10.3396C35.1614 10.4783 35.0663 10.7373 35.0663 10.9223V11.7086C35.0663 12.1988 34.6721 12.6012 34.1919 12.6012H33.4217C33.245 12.6012 32.9867 12.6983 32.8508 12.8186L32.135 13.4476C31.8224 13.7204 31.3104 13.7204 30.9933 13.4476L30.2774 12.8186C30.1415 12.6983 29.8878 12.6012 29.7066 12.6012H28.9228C28.4425 12.6012 28.0484 12.1988 28.0484 11.7086V10.9177C28.0484 10.7373 27.9532 10.4783 27.84 10.3396L27.2283 9.60418C26.9656 9.28506 26.9656 8.76706 27.2283 8.44793L27.84 7.71256C27.9532 7.57381 28.0484 7.31481 28.0484 7.13443V6.33893C28.0484 5.84868 28.4425 5.44631 28.9228 5.44631H29.7066C29.8833 5.44631 30.1415 5.34918 30.2774 5.22893L30.9933 4.60456Z" fill="#13A6FC"/>
<g filter="url(#filter0_d_454_19387)">
<path d="M29.9219 9.02208L31.0138 10.1413L33.202 7.90283" fill="#13A6FC"/>
<path d="M29.9219 9.02208L31.0138 10.1413L33.202 7.90283" stroke="white" stroke-width="0.864421" stroke-linecap="round" stroke-linejoin="round"/>
</g>
<defs>
<filter id="filter0_d_454_19387" x="22.079" y="2.53115" width="18.9632" height="17.9217" filterUnits="userSpaceOnUse" color-interpolation-filters="sRGB">
<feFlood flood-opacity="0" result="BackgroundImageFix"/>
<feColorMatrix in="SourceAlpha" type="matrix" values="0 0 0 0 0 0 0 0 0 0 0 0 0 0 0 0 0 0 127 0" result="hardAlpha"/>
<feOffset dy="2.46978"/>
<feGaussianBlur stdDeviation="3.70466"/>
<feComposite in2="hardAlpha" operator="out"/>
<feColorMatrix type="matrix" values="0 0 0 0 0 0 0 0 0 0 0 0 0 0 0 0 0 0 0.35 0"/>
<feBlend mode="normal" in2="BackgroundImageFix" result="effect1_dropShadow_454_19387"/>
<feBlend mode="normal" in="SourceGraphic" in2="effect1_dropShadow_454_19387" result="shape"/>
</filter>
<linearGradient id="paint0_linear_454_19387" x1="18.5667" y1="11" x2="18.5667" y2="25.67" gradientUnits="userSpaceOnUse">
<stop stop-color="#FD4985"/>
<stop offset="0.4167" stop-color="#FE6A88"/>
<stop offset="0.7669" stop-color="#FE7F89"/>
<stop offset="1" stop-color="#FE868A"/>
</linearGradient>
<linearGradient id="paint1_linear_454_19387" x1="22.7473" y1="11" x2="22.7473" y2="14.9399" gradientUnits="userSpaceOnUse">
<stop stop-color="#FD4985"/>
<stop offset="0.4167" stop-color="#FE6A88"/>
<stop offset="0.7669" stop-color="#FE7F89"/>
<stop offset="1" stop-color="#FE868A"/>
</linearGradient>
<linearGradient id="paint2_linear_454_19387" x1="18.5799" y1="17.4102" x2="18.5799" y2="21.0025" gradientUnits="userSpaceOnUse">
<stop stop-color="#FFC8D1"/>
<stop offset="1" stop-color="#FFECF0"/>
</linearGradient>
</defs>
</svg>
