<svg width="36" height="40" viewBox="0 0 36 40" fill="none" xmlns="http://www.w3.org/2000/svg">
<path d="M15.5303 1.42592C17.0586 0.543556 18.9415 0.543557 20.4698 1.42592L31.1188 7.57408C32.6471 8.45644 33.5886 10.0871 33.5886 11.8519V24.1481C33.5886 25.9129 32.6471 27.5436 31.1188 28.4259L20.4698 34.5741C18.9415 35.4564 17.0586 35.4564 15.5303 34.5741L4.88133 28.4259C3.35302 27.5436 2.41155 25.9129 2.41155 24.1481V11.8519C2.41155 10.0871 3.35303 8.45644 4.88133 7.57407L15.5303 1.42592Z" fill="#F5F7F9"/>
<g filter="url(#filter0_d_518_7766)">
<path d="M15.2603 21.4969C15.2529 22.6251 15.5658 23.7322 16.1628 24.6895H12.6382C12.453 24.6917 12.2692 24.6574 12.0974 24.5883C11.9255 24.5192 11.769 24.4169 11.6369 24.2871C11.5047 24.1574 11.3996 24.0028 11.3274 23.8322C11.2553 23.6616 11.2175 23.4785 11.2164 23.2933V18.3554C11.1209 18.3508 11.0265 18.3336 10.9355 18.3044C10.7699 18.2522 10.6189 18.1619 10.4946 18.0406C10.3704 17.9194 10.2764 17.7706 10.2203 17.6063L9.78615 16.21C9.71509 16.0003 9.70961 15.7739 9.77044 15.561C9.83128 15.348 9.95555 15.1587 10.1267 15.0181L16.5033 10.0377C16.6932 9.88648 16.9288 9.80412 17.1716 9.80412C17.4144 9.80412 17.65 9.88648 17.8399 10.0377L18.8105 10.7954C18.8149 10.5289 18.9233 10.2747 19.1126 10.087C19.3019 9.89931 19.557 9.79303 19.8236 9.79085H22.0967C22.2319 9.78744 22.3664 9.81113 22.4922 9.86051C22.6181 9.9099 22.7328 9.98398 22.8296 10.0784C22.9264 10.1728 23.0034 10.2857 23.0559 10.4103C23.1084 10.5349 23.1354 10.6687 23.1353 10.804V14.1583L24.2591 15.0096C24.4253 15.1406 24.5471 15.3195 24.608 15.5221C24.669 15.7246 24.666 15.9411 24.5997 16.1419C23.6532 15.5761 22.5693 15.2816 21.4667 15.2906C20.6507 15.2872 19.8422 15.4454 19.0876 15.7561C18.3331 16.0668 17.6476 16.5239 17.0706 17.1008C16.4936 17.6778 16.0366 18.3634 15.7259 19.1179C15.4152 19.8724 15.257 20.681 15.2603 21.4969ZM26.3279 21.4969C26.3279 22.4651 26.0408 23.4116 25.5029 24.2166C24.965 25.0216 24.2005 25.6491 23.306 26.0196C22.4115 26.3901 21.4272 26.487 20.4776 26.2981C19.528 26.1093 18.6558 25.643 17.9712 24.9584C17.2865 24.2738 16.8203 23.4015 16.6314 22.452C16.4425 21.5024 16.5395 20.5181 16.91 19.6236C17.2805 18.7291 17.908 17.9646 18.713 17.4267C19.518 16.8888 20.4644 16.6017 21.4326 16.6017C22.7303 16.6039 23.9741 17.1204 24.8916 18.0379C25.8092 18.9555 26.3257 20.1993 26.3279 21.4969Z" fill="url(#paint0_linear_518_7766)"/>
<path d="M23.1359 20.6455L20.641 22.7739L19.7305 21.9459" fill="url(#paint1_linear_518_7766)"/>
<path d="M23.1359 20.6455L20.641 22.7739L19.7305 21.9459" stroke="white" stroke-linecap="round" stroke-linejoin="round"/>
</g>
<defs>
<filter id="filter0_d_518_7766" x="0.728516" y="4.79053" width="34.5996" height="34.6016" filterUnits="userSpaceOnUse" color-interpolation-filters="sRGB">
<feFlood flood-opacity="0" result="BackgroundImageFix"/>
<feColorMatrix in="SourceAlpha" type="matrix" values="0 0 0 0 0 0 0 0 0 0 0 0 0 0 0 0 0 0 127 0" result="hardAlpha"/>
<feOffset dy="4"/>
<feGaussianBlur stdDeviation="4.5"/>
<feComposite in2="hardAlpha" operator="out"/>
<feColorMatrix type="matrix" values="0 0 0 0 0.247059 0 0 0 0 0.32549 0 0 0 0 0.996078 0 0 0 0.3 0"/>
<feBlend mode="normal" in2="BackgroundImageFix" result="effect1_dropShadow_518_7766"/>
<feBlend mode="normal" in="SourceGraphic" in2="effect1_dropShadow_518_7766" result="shape"/>
</filter>
<linearGradient id="paint0_linear_518_7766" x1="12.4339" y1="25.0641" x2="25.1105" y2="12.3875" gradientUnits="userSpaceOnUse">
<stop stop-color="#12A6FF"/>
<stop offset="1" stop-color="#3C58FF"/>
</linearGradient>
<linearGradient id="paint1_linear_518_7766" x1="20.2855" y1="22.6036" x2="21.7462" y2="20.2661" gradientUnits="userSpaceOnUse">
<stop stop-color="#12A6FF"/>
<stop offset="1" stop-color="#3C58FF"/>
</linearGradient>
</defs>
</svg>
