<svg width="42" height="42" viewBox="0 0 42 42" fill="none" xmlns="http://www.w3.org/2000/svg">
<circle cx="21" cy="21" r="21" fill="#F5F7F9"/>
<g filter="url(#filter0_d_564_7704)">
<path d="M11 22.4215V16.7405C11 14.1185 13.128 12 15.75 12H25.25C27.8721 12 30.0001 14.1185 30.0001 16.7405V23.3715C30.0001 25.984 27.8721 28.1025 25.25 28.1025H23.825C23.5305 28.1025 23.2455 28.245 23.065 28.4825L21.64 30.373C21.013 31.209 19.987 31.209 19.36 30.373L17.935 28.4825C17.783 28.2735 17.441 28.1025 17.175 28.1025H15.75C13.128 28.1025 11 25.984 11 23.3715V22.4215Z" fill="url(#paint0_linear_564_7704)"/>
<path d="M20.4969 21.5042C19.9649 21.5042 19.5469 21.0767 19.5469 20.5542C19.5469 20.0317 19.9744 19.6042 20.4969 19.6042C21.0194 19.6042 21.4469 20.0317 21.4469 20.5542C21.4469 21.0767 21.0289 21.5042 20.4969 21.5042Z" fill="white"/>
<path d="M24.2996 21.5042C23.7676 21.5042 23.3496 21.0767 23.3496 20.5542C23.3496 20.0317 23.7771 19.6042 24.2996 19.6042C24.8221 19.6042 25.2496 20.0317 25.2496 20.5542C25.2496 21.0767 24.8316 21.5042 24.2996 21.5042Z" fill="white"/>
<path d="M16.7 21.5038C16.168 21.5038 15.75 21.0763 15.75 20.5538C15.75 20.0313 16.1775 19.6038 16.7 19.6038C17.2225 19.6038 17.65 20.0313 17.65 20.5538C17.65 21.0763 17.232 21.5038 16.7 21.5038Z" fill="white"/>
</g>
<defs>
<filter id="filter0_d_564_7704" x="7" y="12" width="27" height="27" filterUnits="userSpaceOnUse" color-interpolation-filters="sRGB">
<feFlood flood-opacity="0" result="BackgroundImageFix"/>
<feColorMatrix in="SourceAlpha" type="matrix" values="0 0 0 0 0 0 0 0 0 0 0 0 0 0 0 0 0 0 127 0" result="hardAlpha"/>
<feOffset dy="4"/>
<feGaussianBlur stdDeviation="2"/>
<feComposite in2="hardAlpha" operator="out"/>
<feColorMatrix type="matrix" values="0 0 0 0 0.231771 0 0 0 0 0.563203 0 0 0 0 0.741667 0 0 0 0.4 0"/>
<feBlend mode="normal" in2="BackgroundImageFix" result="effect1_dropShadow_564_7704"/>
<feBlend mode="normal" in="SourceGraphic" in2="effect1_dropShadow_564_7704" result="shape"/>
</filter>
<linearGradient id="paint0_linear_564_7704" x1="20.5" y1="12" x2="20.5" y2="31" gradientUnits="userSpaceOnUse">
<stop stop-color="#3F53FE"/>
<stop offset="1" stop-color="#0DAFFF"/>
</linearGradient>
</defs>
</svg>
