<svg width="42" height="42" viewBox="0 0 42 42" fill="none" xmlns="http://www.w3.org/2000/svg">
<circle cx="21" cy="21" r="21" fill="#F5F7F9"/>
<path d="M29.0745 18.4269C28.9011 18.2944 28.7655 18.1185 28.6816 17.9169C28.5977 17.7154 28.5683 17.4953 28.5965 17.2788C28.8266 15.4786 28.6825 14.4281 28.1265 13.8726C27.5697 13.3167 26.5197 13.1708 24.7204 13.4036C24.5037 13.4309 24.2837 13.401 24.0822 13.3169C23.8807 13.2328 23.7048 13.0974 23.5719 12.9242C22.5379 11.6011 21.7439 11.0107 20.9973 11.0107C20.2516 11.0107 19.4576 11.6002 18.4237 12.9229C18.2903 13.0955 18.1142 13.2305 17.9128 13.3145C17.7115 13.3984 17.4917 13.4285 17.2751 13.4018C14.97 13.1032 14.2432 13.4953 13.869 13.87C13.314 14.4245 13.1698 15.475 13.3999 17.2766C13.428 17.4931 13.3986 17.7132 13.3147 17.9148C13.2308 18.1164 13.0953 18.2924 12.9219 18.4251C11.5997 19.4573 11.0098 20.2508 11.0098 20.9983C11.0098 21.7462 11.5997 22.5402 12.9237 23.5733C13.0972 23.7058 13.2327 23.8817 13.3166 24.0832C13.4005 24.2848 13.4299 24.5049 13.4017 24.7214C13.1716 26.5216 13.3158 27.5721 13.8717 28.1275C14.4276 28.6825 15.4767 28.8284 17.2778 28.5966C17.4944 28.5697 17.7143 28.5997 17.9157 28.6838C18.1172 28.7679 18.2932 28.9031 18.4264 29.076C19.4603 30.3991 20.2543 30.9895 21.0009 30.9895C21.7466 30.9895 22.5406 30.4 23.5745 29.0774C23.7076 28.9043 23.8836 28.7691 24.0851 28.6851C24.2866 28.6011 24.5065 28.5712 24.7231 28.5984C27.0273 28.8956 27.7541 28.5049 28.1292 28.1303C28.6842 27.5757 28.8284 26.5252 28.5983 24.7236C28.5702 24.5071 28.5996 24.287 28.6835 24.0854C28.7674 23.8838 28.9029 23.7078 29.0763 23.5751C30.3985 22.5429 30.9884 21.7494 30.9884 21.0019C30.9884 20.2539 30.3985 19.4599 29.0745 18.4269Z" fill="#2196F3"/>
<path d="M19.1829 23.8695L17.5206 22.207C17.3036 21.9899 17.1816 21.6955 17.1816 21.3885C17.1817 21.0815 17.3036 20.7871 17.5207 20.57C17.7377 20.353 18.0323 20.2309 18.3393 20.2308C18.6462 20.2308 18.9406 20.3527 19.1577 20.5697L19.9575 21.3693L22.8319 18.1752C22.9336 18.0622 23.0565 17.9704 23.1937 17.9049C23.3309 17.8394 23.4797 17.8016 23.6315 17.7936C23.7833 17.7856 23.9352 17.8076 24.0785 17.8583C24.2218 17.909 24.3537 17.9875 24.4667 18.0892C24.6949 18.2946 24.8321 18.5821 24.8482 18.8887C24.8644 19.1952 24.7581 19.4956 24.5528 19.7238L20.862 23.8253C20.7569 23.9422 20.6291 24.0364 20.4864 24.1022C20.3437 24.168 20.189 24.2041 20.0319 24.2082C19.8748 24.2124 19.7185 24.1845 19.5725 24.1262C19.4266 24.068 19.294 23.9806 19.1829 23.8695Z" fill="#F2F2F2"/>
</svg>
