<svg width="120" height="120" viewBox="0 0 120 120" fill="none" xmlns="http://www.w3.org/2000/svg">
<path d="M56.6955 10.865C58.5155 12.0781 61.4937 12.0781 63.311 10.865L68.117 7.65521C69.936 6.44049 72.3804 6.96471 73.5501 8.81873L76.6415 13.7194C77.8112 15.5724 80.5302 16.7892 82.6829 16.4231L88.3729 15.454C90.5262 15.0875 92.5498 16.5636 92.8667 18.7352L93.7106 24.465C94.0307 26.637 96.0202 28.8639 98.1361 29.4117L103.72 30.8593C105.836 31.4091 107.085 33.589 106.497 35.7031L104.951 41.2735C104.364 43.3875 105.282 46.235 106.993 47.6L111.526 51.2141C113.237 52.5791 113.497 55.0783 112.104 56.7708L108.424 61.2357C107.033 62.9266 106.722 65.9027 107.732 67.8483L110.405 72.9835C111.416 74.9301 110.645 77.3213 108.689 78.2971L103.52 80.8761C101.563 81.8526 100.076 84.445 100.212 86.6357L100.57 92.4198C100.708 94.6095 99.0325 96.4799 96.8494 96.5736L91.0873 96.8187C88.9058 96.9126 86.498 98.6728 85.7353 100.731L83.7309 106.16C82.9682 108.219 80.684 109.243 78.6534 108.435L73.2851 106.302C71.2558 105.494 68.3435 106.115 66.815 107.684L62.7832 111.824C61.2541 113.392 58.7542 113.392 57.224 111.826L53.1859 107.684C51.6564 106.116 48.7441 105.495 46.7135 106.302L41.3479 108.435C39.3175 109.244 37.0331 108.22 36.2721 106.16L34.2629 100.732C33.5012 98.6738 31.0934 96.913 28.9109 96.8192L23.1509 96.574C20.9677 96.4802 19.2945 94.6097 19.4307 92.4202L19.7912 86.6361C19.9268 84.446 18.4376 81.853 16.4818 80.8766L11.3143 78.2975C9.35867 77.3215 8.58541 74.931 9.59717 72.9839L12.2695 67.8487C13.2807 65.9031 12.9697 62.9272 11.5758 61.2378L7.89579 56.767C6.50288 55.0772 6.76374 52.5781 8.47402 51.2131L13.0076 47.5989C14.7179 46.2339 15.6375 43.3881 15.0508 41.2731L13.5005 35.7004C12.9134 33.5865 14.163 31.408 16.2772 30.8616L21.865 29.4108C23.9792 28.8637 25.9715 26.6368 26.2905 24.4648L27.1337 18.735C27.4534 16.5634 29.4759 15.0873 31.6286 15.4538L37.3193 16.4229C39.4726 16.789 42.1911 15.5722 43.3592 13.7192L46.4491 8.81852C47.6172 6.9645 50.0633 6.44028 51.8837 7.655L56.6955 10.865Z" fill="#A5E79B"/>
<path d="M98.8245 60.0642C98.8245 81.5065 81.4407 98.8884 60.0003 98.8884C38.5611 98.8884 21.1772 81.5065 21.1772 60.0642C21.1772 38.6285 38.5604 21.2461 60.0003 21.2461C81.4407 21.2461 98.8245 38.6285 98.8245 60.0642Z" fill="#21C607"/>
<path d="M55.8256 74.5901C55.045 75.3693 53.7809 75.3693 53.0001 74.5902L43.2392 64.8498C42.0032 63.6165 42.003 61.6141 43.2387 60.3805C44.471 59.1503 46.4667 59.1499 47.6993 60.3797L53.0001 65.6682C53.7809 66.4471 55.0449 66.447 55.8255 65.668L72.3 49.2268C73.5329 47.9964 75.5294 47.9967 76.7619 49.2276C77.9974 50.4614 77.997 52.4636 76.7611 53.697L55.8256 74.5901Z" fill="white"/>
</svg>
