<svg width="20" height="20" viewBox="0 0 20 20" fill="none" xmlns="http://www.w3.org/2000/svg">
<path d="M10.8914 4.05572V6.40006H17.9245V4.05572H10.8914ZM15.9276 15.1881L12.9433 13.198C12.2496 12.7361 11.3161 12.8283 10.7255 13.4184L9.94019 14.2031C9.47945 14.1367 8.38398 13.8625 7.26045 12.739C6.13693 11.6155 5.8628 10.52 5.79637 10.0593L6.58106 9.27399C7.17117 8.68388 7.26389 7.75099 6.80084 7.05558L4.81136 4.07193C4.51773 3.63178 4.04785 3.34964 3.52127 3.29756C2.99469 3.24606 2.47901 3.43033 2.10529 3.80409L0.861575 5.04722C0.269238 5.6396 -0.0432622 6.4489 0.00483586 7.26794C0.0986876 8.86252 0.789526 12.0705 4.35925 15.6402C7.92957 19.21 11.137 19.9008 12.7316 19.9947C13.5335 20.0448 14.3524 19.7384 14.9517 19.1378L16.1954 17.8941C16.5691 17.5204 16.754 17.0041 16.7019 16.4781C16.6499 15.9516 16.3677 15.4817 15.9276 15.1881Z" fill="url(#paint0_linear_2170_11469)"/>
<path d="M14.724 0C11.817 0 9.44922 2.35606 9.44922 5.27477C9.44922 6.17738 9.68361 7.0565 10.129 7.84182L9.48434 9.77594C9.41401 9.98693 9.47262 10.2214 9.62501 10.3737C9.79899 10.5302 10.0153 10.5972 10.2228 10.5144L12.1569 9.86967C12.9422 10.3151 13.8214 10.5496 14.724 10.5496C17.6427 10.5496 19.9988 8.18175 19.9988 5.27481C19.9988 2.35606 17.6427 0 14.724 0ZM12.3796 5.86085C12.0631 5.86085 11.7936 5.59129 11.7936 5.27477C11.7936 4.9466 12.0631 4.68868 12.3796 4.68868C12.7078 4.68868 12.9657 4.9466 12.9657 5.27477C12.9657 5.59129 12.7078 5.86085 12.3796 5.86085ZM14.724 5.86085C14.4075 5.86085 14.1379 5.59129 14.1379 5.27477C14.1379 4.9466 14.4075 4.68868 14.724 4.68868C15.0522 4.68868 15.3101 4.9466 15.3101 5.27477C15.3101 5.59129 15.0522 5.86085 14.724 5.86085ZM17.0683 5.86085C16.7518 5.86085 16.4822 5.59129 16.4822 5.27477C16.4822 4.9466 16.7518 4.68868 17.0683 4.68868C17.3965 4.68868 17.6544 4.9466 17.6544 5.27477C17.6544 5.59129 17.3965 5.86085 17.0683 5.86085Z" fill="url(#paint1_linear_2170_11469)"/>
<defs>
<linearGradient id="paint0_linear_2170_11469" x1="8.96221" y1="20" x2="8.96221" y2="3.28904" gradientUnits="userSpaceOnUse">
<stop stop-color="#FD3A84"/>
<stop offset="1" stop-color="#FFA68D"/>
</linearGradient>
<linearGradient id="paint1_linear_2170_11469" x1="14.724" y1="10.5502" x2="14.724" y2="0" gradientUnits="userSpaceOnUse">
<stop stop-color="#FFC2CC"/>
<stop offset="1" stop-color="#FFF2F4"/>
</linearGradient>
</defs>
</svg>
