<svg width="42" height="42" viewBox="0 0 42 42" fill="none" xmlns="http://www.w3.org/2000/svg">
<circle cx="21" cy="21" r="21" fill="#F5F7F9"/>
<g filter="url(#filter0_d_564_7659)">
<path d="M14.3098 30.0001C13.4401 30.0001 12.7324 29.2763 12.7324 28.3868V18.9394C12.7324 18.7856 12.7971 18.6388 12.9096 18.5366L20.2706 11.8684C20.37 11.778 20.4946 11.7334 20.6192 11.7334C20.7439 11.7334 20.8685 11.7786 20.9678 11.8684L28.3289 18.5366C28.4414 18.6388 28.5061 18.7851 28.5061 18.9394V28.3868C28.5061 29.2763 27.7983 30.0001 26.9287 30.0001H14.3098Z" fill="white"/>
<path d="M30.1569 22.0305H30.1319C29.87 22.0305 29.6168 21.9328 29.4201 21.7554L20.605 13.8029L11.7899 21.7554C11.5932 21.9328 11.3401 22.0305 11.0782 22.0305C10.0935 22.0305 9.62618 20.7897 10.356 20.1139L19.8834 11.285C20.2931 10.9052 20.917 10.9052 21.3272 11.2838L30.8785 20.1127C31.6095 20.7885 31.1422 22.0305 30.1569 22.0305Z" fill="url(#paint0_linear_564_7659)"/>
<path d="M20.6208 27.8748C23.2342 27.8748 25.3529 25.7079 25.3529 23.0349C25.3529 20.3619 23.2342 18.1951 20.6208 18.1951C18.0073 18.1951 15.8887 20.3619 15.8887 23.0349C15.8887 25.7079 18.0073 27.8748 20.6208 27.8748Z" fill="url(#paint1_linear_564_7659)"/>
<path d="M21.3537 24.3326C21.3537 24.1315 21.299 23.9718 21.1902 23.8529C21.0814 23.7341 20.8963 23.6244 20.635 23.5238C20.3736 23.4233 20.1486 23.3238 19.9593 23.2243C19.77 23.1248 19.6076 23.0113 19.4724 22.8823C19.3368 22.7538 19.2316 22.6021 19.1564 22.4284C19.0807 22.2547 19.0434 22.0477 19.0434 21.8073C19.0434 21.3932 19.1727 21.0539 19.4314 20.7893C19.6901 20.5247 20.034 20.3704 20.463 20.3263V19.5396H21.0382V20.3371C21.462 20.3984 21.7943 20.579 22.0336 20.8791C22.2733 21.1792 22.3932 21.5685 22.3932 22.0461H21.3548C21.3548 21.7519 21.2953 21.532 21.177 21.3862C21.0582 21.2405 20.9 21.1674 20.7007 21.1674C20.5014 21.1674 20.3521 21.2244 20.2443 21.3384C20.1365 21.4524 20.0824 21.6099 20.0824 21.8105C20.0824 21.9966 20.1349 22.1461 20.2406 22.259C20.3458 22.3719 20.5419 22.487 20.8279 22.6043C21.114 22.722 21.3495 22.8328 21.5341 22.9371C21.7186 23.0415 21.8742 23.1587 22.0015 23.2899C22.1282 23.4211 22.2255 23.5706 22.2928 23.7384C22.3595 23.9062 22.3932 24.1019 22.3932 24.3246C22.3932 24.7413 22.266 25.0796 22.012 25.3388C21.758 25.5985 21.4084 25.7518 20.9625 25.798V26.5294H20.391V25.8018C19.8999 25.748 19.5198 25.5695 19.25 25.2667C18.9803 24.9639 18.8457 24.5617 18.8457 24.0594H19.8841C19.8841 24.3509 19.952 24.5746 20.0871 24.73C20.2222 24.8854 20.4173 24.9634 20.6712 24.9634C20.8821 24.9634 21.0488 24.9064 21.1707 24.7924C21.2927 24.6784 21.3542 24.5246 21.3542 24.331L21.3537 24.3326Z" fill="white"/>
</g>
<defs>
<filter id="filter0_d_564_7659" x="6" y="9" width="33.2344" height="31" filterUnits="userSpaceOnUse" color-interpolation-filters="sRGB">
<feFlood flood-opacity="0" result="BackgroundImageFix"/>
<feColorMatrix in="SourceAlpha" type="matrix" values="0 0 0 0 0 0 0 0 0 0 0 0 0 0 0 0 0 0 127 0" result="hardAlpha"/>
<feOffset dx="2" dy="4"/>
<feGaussianBlur stdDeviation="3"/>
<feComposite in2="hardAlpha" operator="out"/>
<feColorMatrix type="matrix" values="0 0 0 0 0.00454861 0 0 0 0 0.545833 0 0 0 0 0.356754 0 0 0 0.36 0"/>
<feBlend mode="normal" in2="BackgroundImageFix" result="effect1_dropShadow_564_7659"/>
<feBlend mode="normal" in="SourceGraphic" in2="effect1_dropShadow_564_7659" result="shape"/>
</filter>
<linearGradient id="paint0_linear_564_7659" x1="20.6176" y1="11" x2="20.6176" y2="22.0305" gradientUnits="userSpaceOnUse">
<stop stop-color="#07B89C"/>
<stop offset="1" stop-color="#8FF9AA"/>
</linearGradient>
<linearGradient id="paint1_linear_564_7659" x1="20.6208" y1="18.1951" x2="20.6208" y2="27.8748" gradientUnits="userSpaceOnUse">
<stop stop-color="#07B89C"/>
<stop offset="1" stop-color="#93FAAB"/>
</linearGradient>
</defs>
</svg>
