<svg width="60" height="60" viewBox="0 0 60 60" fill="none" xmlns="http://www.w3.org/2000/svg">
<path d="M34.7855 29.9997L51.0075 13.7777C52.3297 12.4564 52.3297 10.313 51.0075 8.9918C49.687 7.66962 47.5419 7.66962 46.2216 8.9918L29.9996 25.2138L13.7776 8.99163C12.4571 7.66946 10.3119 7.66946 8.99163 8.99163C7.66946 10.313 7.66946 12.4564 8.99163 13.7776L25.2136 29.9997L8.99163 46.2218C7.67893 47.5345 7.67893 49.695 8.99163 51.0077C10.3043 52.3204 12.4649 52.3204 13.7776 51.0077L29.9996 34.7857L46.2216 51.0077C47.5343 52.3204 49.6948 52.3204 51.0075 51.0077C52.3202 49.695 52.3202 47.5345 51.0075 46.2218L34.7855 29.9997Z" fill="#E21B1B"/>
</svg>
