<svg width="85" height="85" viewBox="0 0 85 85" fill="none" xmlns="http://www.w3.org/2000/svg">
<g clip-path="url(#clip0_3608_15956)">
<path d="M61.7487 36.7958V20.7098C61.7487 20.2493 61.536 19.8239 61.2351 19.4874L43.2004 0.549278C42.8638 0.195198 42.3852 0 41.9073 0H13.3137C8.03495 0 3.81842 4.30473 3.81842 9.58415V63.6526C3.81842 68.9321 8.03495 73.1661 13.3137 73.1661H35.884C40.1531 80.2522 47.913 84.9999 56.7527 84.9999C70.1811 84.9999 81.1472 74.087 81.1472 60.641C81.1654 48.8954 72.7323 39.0811 61.7487 36.7958ZM43.679 6.21844L55.7786 18.9556H47.9305C45.592 18.9556 43.679 17.025 43.679 14.6865V6.21844ZM13.3137 69.6227C10.0012 69.6227 7.36181 66.9652 7.36181 63.6526V9.58415C7.36181 6.25346 10.0012 3.54339 13.3137 3.54339H40.1356V14.6865C40.1356 18.9913 43.6258 22.499 47.9305 22.499H58.2053V36.3347C57.6742 36.3172 57.2488 36.264 56.7884 36.264C50.6056 36.264 44.9189 38.6381 40.6317 42.3586H18.1327C17.158 42.3586 16.361 43.1556 16.361 44.1296C16.361 45.1043 17.158 45.9013 18.1327 45.9013H37.3367C36.0786 47.673 35.0332 49.4447 34.2187 51.3934H18.1327C17.158 51.3934 16.361 52.1904 16.361 53.1651C16.361 54.1392 17.158 54.9368 18.1327 54.9368H33.067C32.624 56.7085 32.3938 58.6748 32.3938 60.641C32.3938 63.8297 33.0138 66.9833 34.1298 69.6409H13.3137V69.6227ZM56.7708 81.4746C45.2911 81.4746 35.9547 72.1382 35.9547 60.6585C35.9547 49.1788 45.273 39.8424 56.7708 39.8424C68.2681 39.8424 77.5863 49.1788 77.5863 60.6585C77.5863 72.1382 68.2505 81.4746 56.7708 81.4746Z" fill="#CCD5DF"/>
<path d="M18.1327 37.0258H36.0786C37.0533 37.0258 37.8503 36.2282 37.8503 35.2541C37.8503 34.2794 37.0533 33.4824 36.0786 33.4824H18.1327C17.158 33.4824 16.361 34.2794 16.361 35.2541C16.361 36.2282 17.158 37.0258 18.1327 37.0258Z" fill="#CCD5DF"/>
<path d="M58.0283 47.5844C57.6917 47.2303 57.2313 47.0176 56.7352 47.0176C56.2391 47.0176 55.7786 47.2303 55.4421 47.5844L45.0603 58.7275C44.3871 59.4363 44.4403 60.5699 45.1491 61.2255C45.8579 61.8987 47.009 61.8455 47.6821 61.1373L55.0167 53.2892V72.6345C55.0167 73.6092 55.8137 74.4062 56.7884 74.4062C57.7624 74.4062 58.56 73.6092 58.56 72.6345V53.2892L65.8407 61.1373C66.1955 61.5089 66.6559 61.7041 67.1345 61.7041C67.5593 61.7041 67.9847 61.5446 68.3387 61.2255C69.0476 60.5524 69.1007 59.4363 68.4276 58.7275L58.0283 47.5844Z" fill="#CCD5DF"/>
</g>
<defs>
<clipPath id="clip0_3608_15956">
<rect width="85" height="85" fill="white"/>
</clipPath>
</defs>
</svg>
