<svg width="60" height="60" viewBox="0 0 60 60" fill="none" xmlns="http://www.w3.org/2000/svg">
<path fill-rule="evenodd" clip-rule="evenodd" d="M29.9997 14.8169C26.9968 14.8169 24.0612 15.7074 21.5643 17.3757C19.0675 19.0441 17.1214 21.4154 15.9722 24.1898C14.823 26.9642 14.5223 30.0171 15.1082 32.9624C15.694 35.9076 17.1401 38.613 19.2635 40.7365C21.3869 42.8599 24.0923 44.306 27.0376 44.8918C29.9829 45.4777 33.0358 45.177 35.8102 44.0278C38.5845 42.8786 40.9559 40.9325 42.6242 38.4356C44.2926 35.9388 45.1831 33.0032 45.1831 30.0002C45.1787 25.9747 43.5776 22.1153 40.7311 19.2689C37.8846 16.4224 34.0253 14.8213 29.9997 14.8169ZM29.9997 34.6669C29.6347 35.0115 29.1517 35.2034 28.6497 35.2034C28.1478 35.2034 27.6648 35.0115 27.2997 34.6669L21.9831 29.3502L24.6997 26.6669L28.6664 30.6336L35.3331 23.9669L37.9831 26.6669L29.9997 34.6669Z" fill="#072A30"/>
<path fill-rule="evenodd" clip-rule="evenodd" d="M55.4167 25.8167C53.75 23.3833 52.0833 20.8167 52.0833 20.8167C52.0833 20.8167 51.5 17.8333 50.9167 15C50.6237 13.5403 49.9057 12.1998 48.8529 11.147C47.8002 10.0943 46.4597 9.3763 45 9.08333L39.1667 7.88333L34.1667 4.54999C32.9293 3.73632 31.4809 3.30273 30 3.30273C28.5191 3.30273 27.0706 3.73632 25.8333 4.54999L20.8333 7.88333L15 9.08333C13.5403 9.3763 12.1998 10.0943 11.147 11.147C10.0943 12.1998 9.3763 13.5403 9.08333 15C8.49999 17.85 7.88333 20.85 7.88333 20.85C7.88333 20.85 6.21666 23.4167 4.54999 25.85C3.73632 27.0873 3.30273 28.5358 3.30273 30.0167C3.30273 31.4975 3.73632 32.946 4.54999 34.1833C6.21666 36.6167 7.88333 39.1833 7.88333 39.1833C7.88333 39.1833 8.48333 42.1833 9.08333 45.0333C9.38218 46.4869 10.1028 47.8202 11.1551 48.8666C12.2074 49.913 13.5447 50.626 15 50.9167L20.85 52.1167L25.85 55.45C27.0873 56.2637 28.5358 56.6973 30.0167 56.6973C31.4975 56.6973 32.946 56.2637 34.1833 55.45L39.1833 52.1167L45 50.9167C46.4597 50.6237 47.8002 49.9057 48.8529 48.8529C49.9057 47.8002 50.6237 46.4597 50.9167 45C51.5 42.15 52.1167 39.15 52.1167 39.15C52.1167 39.15 53.7833 36.5833 55.45 34.15C56.2587 32.9094 56.6865 31.4592 56.6806 29.9783C56.6747 28.4975 56.2353 27.0507 55.4167 25.8167ZM30 48.9833C26.2454 48.9833 22.5752 47.87 19.4534 45.7841C16.3316 43.6981 13.8985 40.7334 12.4617 37.2646C11.0249 33.7959 10.6489 29.9789 11.3814 26.2965C12.1139 22.6141 13.9219 19.2316 16.5767 16.5767C19.2316 13.9219 22.6141 12.1139 26.2965 11.3814C29.9789 10.6489 33.7959 11.0249 37.2646 12.4617C40.7334 13.8985 43.6981 16.3316 45.7841 19.4534C47.87 22.5752 48.9833 26.2454 48.9833 30C48.9745 35.032 46.9717 39.8553 43.4135 43.4135C39.8553 46.9717 35.032 48.9745 30 48.9833Z" fill="#43D685"/>
</svg>
