<svg width="16" height="16" viewBox="0 0 16 16" fill="none" xmlns="http://www.w3.org/2000/svg">
<g clip-path="url(#clip0_518_7633)">
<path d="M14.1632 7.82576V3.34686C14.1632 2.2574 13.2768 1.37109 12.1874 1.37109H3.65033C2.56088 1.37109 1.67457 2.25743 1.67457 3.34686V7.88354C1.14687 8.43522 0.822266 9.18271 0.822266 10.0046V13.4007C0.822266 14.0241 1.32945 14.5314 1.95289 14.5314C2.5763 14.5314 3.08348 14.0241 3.08348 13.4007V13.05H12.8111V13.4007C12.8111 14.0241 13.3183 14.5314 13.9417 14.5314C14.5651 14.5314 15.0723 14.0242 15.0723 13.4007V10.0046C15.0723 9.15362 14.7243 8.38245 14.1632 7.82576ZM3.65033 1.92773H12.1874C12.9699 1.92773 13.6065 2.56436 13.6065 3.34686V7.38771C13.436 7.28276 13.2546 7.19397 13.0644 7.12356V6.19803C13.0644 5.37754 12.3969 4.71002 11.5764 4.71002H9.15698C8.6589 4.71002 8.21751 4.95625 7.94729 5.33312C7.67707 4.95625 7.23568 4.71002 6.7376 4.71002H4.31822C3.49773 4.71002 2.83021 5.37751 2.83021 6.19803V7.12356C2.61866 7.20185 2.41802 7.30282 2.23123 7.4235V3.34686C2.23121 2.56436 2.86781 1.92773 3.65033 1.92773ZM3.89306 6.9338C3.72064 6.9338 3.55153 6.94833 3.38679 6.97577V6.19803C3.38679 5.68447 3.80461 5.26666 4.31816 5.26666H6.73755C7.2511 5.26666 7.66892 5.68447 7.66892 6.19803V6.93383H3.89306V6.9338ZM8.22559 6.198C8.22559 5.68445 8.6434 5.26663 9.15696 5.26663H11.5763C12.0899 5.26663 12.5077 5.68445 12.5077 6.198V6.97574C12.3429 6.9483 12.1739 6.93377 12.0014 6.93377H8.22559V6.198ZM3.89306 7.49044H12.0014C13.3878 7.49044 14.5156 8.61828 14.5156 10.0046V10.8303H11.7242C11.5704 10.8303 11.4458 10.9549 11.4458 11.1086C11.4458 11.2623 11.5704 11.3869 11.7242 11.3869H14.5156V12.4934H1.37891V11.3869H8.94095C9.09467 11.3869 9.21927 11.2623 9.21927 11.1086C9.21927 10.9549 9.09467 10.8303 8.94095 10.8303H1.37891V10.0046C1.37891 8.61828 2.50674 7.49044 3.89306 7.49044ZM2.52684 13.4007C2.52684 13.7172 2.26936 13.9747 1.95289 13.9747C1.63641 13.9747 1.37891 13.7172 1.37891 13.4007V13.05H2.52684V13.4007ZM13.9416 13.9747C13.6252 13.9747 13.3677 13.7172 13.3677 13.4007V13.05H14.5156V13.4007C14.5156 13.7172 14.2582 13.9747 13.9416 13.9747Z" fill="black"/>
<path d="M10.3312 11.387C10.485 11.387 10.6097 11.2623 10.6097 11.1085C10.6097 10.9547 10.485 10.8301 10.3312 10.8301C10.1774 10.8301 10.0527 10.9547 10.0527 11.1085C10.0527 11.2623 10.1774 11.387 10.3312 11.387Z" fill="black"/>
</g>
<defs>
<clipPath id="clip0_518_7633">
<rect width="14.25" height="14.25" fill="white" transform="translate(0.822266 0.826172)"/>
</clipPath>
</defs>
</svg>
