<svg width="38" height="32" viewBox="0 0 38 32" fill="none" xmlns="http://www.w3.org/2000/svg">
<path d="M13.8667 1.23168C15.1868 0.469514 16.8132 0.469514 18.1333 1.23168L27.7231 6.76832C29.0432 7.53049 29.8564 8.93903 29.8564 10.4634V21.5366C29.8564 23.061 29.0432 24.4695 27.7231 25.2317L18.1333 30.7683C16.8132 31.5305 15.1868 31.5305 13.8667 30.7683L4.27693 25.2317C2.95682 24.4695 2.14359 23.061 2.14359 21.5366V10.4634C2.14359 8.93903 2.95682 7.53049 4.27693 6.76832L13.8667 1.23168Z" fill="#F89972" fill-opacity="0.13"/>
<path d="M28.3001 3.98022C28.5761 3.74422 29.0281 3.74422 29.3081 3.98022L29.9401 4.52422C30.0601 4.62822 30.2841 4.71222 30.4441 4.71222H31.1241C31.5481 4.71222 31.8961 5.06022 31.8961 5.48422V6.16422C31.8961 6.32022 31.9801 6.54822 32.0841 6.66822L32.6281 7.30022C32.8641 7.57622 32.8641 8.02822 32.6281 8.30822L32.0841 8.94022C31.9801 9.06022 31.8961 9.28422 31.8961 9.44422V10.1242C31.8961 10.5482 31.5481 10.8962 31.1241 10.8962H30.4441C30.2881 10.8962 30.0601 10.9802 29.9401 11.0842L29.3081 11.6282C29.0321 11.8642 28.5801 11.8642 28.3001 11.6282L27.6681 11.0842C27.5481 10.9802 27.3241 10.8962 27.1641 10.8962H26.4721C26.0481 10.8962 25.7001 10.5482 25.7001 10.1242V9.44022C25.7001 9.28422 25.6161 9.06022 25.5161 8.94022L24.9761 8.30422C24.7441 8.02822 24.7441 7.58022 24.9761 7.30422L25.5161 6.66822C25.6161 6.54822 25.7001 6.32422 25.7001 6.16822V5.48022C25.7001 5.05622 26.0481 4.70822 26.4721 4.70822H27.1641C27.3201 4.70822 27.5481 4.62422 27.6681 4.52022L28.3001 3.98022Z" fill="#13A8FF"/>
<g filter="url(#filter0_d_2744_11952)">
<path d="M27.3521 7.80003L28.3161 8.76803L30.2481 6.83203" stroke="white" stroke-width="0.746667" stroke-linecap="round" stroke-linejoin="round" shape-rendering="crispEdges"/>
</g>
<g filter="url(#filter1_d_2744_11952)">
<path opacity="0.4" d="M20.2667 9.6001H11.7334C10.1618 9.6001 8.88892 10.8659 8.88892 12.4232V19.577C8.88892 21.1343 10.1618 22.4001 11.7334 22.4001H20.2667C21.8382 22.4001 23.1111 21.1343 23.1111 19.577V12.4232C23.1111 10.8659 21.8382 9.6001 20.2667 9.6001Z" fill="#FE5106"/>
<path d="M20.9777 13.689H17.4221C17.1306 13.689 16.8888 13.4472 16.8888 13.1556C16.8888 12.8641 17.1306 12.6223 17.4221 12.6223H20.9777C21.2692 12.6223 21.511 12.8641 21.511 13.1556C21.511 13.4472 21.2692 13.689 20.9777 13.689Z" fill="#FE5106"/>
<path d="M20.9776 16.5335H18.1332C17.8416 16.5335 17.5999 16.2917 17.5999 16.0001C17.5999 15.7086 17.8416 15.4668 18.1332 15.4668H20.9776C21.2692 15.4668 21.511 15.7086 21.511 16.0001C21.511 16.2917 21.2692 16.5335 20.9776 16.5335Z" fill="#FE5106"/>
<path d="M20.9777 19.3779H19.5555C19.2639 19.3779 19.0222 19.1362 19.0222 18.8446C19.0222 18.5531 19.2639 18.3113 19.5555 18.3113H20.9777C21.2693 18.3113 21.511 18.5531 21.511 18.8446C21.511 19.1362 21.2693 19.3779 20.9777 19.3779Z" fill="#FE5106"/>
<path d="M13.511 15.8508C14.4182 15.8508 15.1537 15.1153 15.1537 14.2081C15.1537 13.3009 14.4182 12.5654 13.511 12.5654C12.6038 12.5654 11.8683 13.3009 11.8683 14.2081C11.8683 15.1153 12.6038 15.8508 13.511 15.8508Z" fill="#FE5106"/>
<path d="M14.08 16.7896C13.7032 16.7541 13.312 16.7541 12.9352 16.7896C11.7405 16.9034 10.7805 17.8492 10.6667 19.0438C10.6596 19.1434 10.688 19.2429 10.7592 19.3141C10.8303 19.3852 10.9227 19.4349 11.0223 19.4349H16C16.0996 19.4349 16.1992 19.3923 16.2632 19.3212C16.3272 19.2501 16.3627 19.1505 16.3556 19.0509C16.2347 17.8492 15.2818 16.9034 14.08 16.7896Z" fill="#FE5106"/>
</g>
<defs>
<filter id="filter0_d_2744_11952" x="20.5788" y="2.19207" width="16.4427" height="15.4826" filterUnits="userSpaceOnUse" color-interpolation-filters="sRGB">
<feFlood flood-opacity="0" result="BackgroundImageFix"/>
<feColorMatrix in="SourceAlpha" type="matrix" values="0 0 0 0 0 0 0 0 0 0 0 0 0 0 0 0 0 0 127 0" result="hardAlpha"/>
<feOffset dy="2.13333"/>
<feGaussianBlur stdDeviation="3.2"/>
<feComposite in2="hardAlpha" operator="out"/>
<feColorMatrix type="matrix" values="0 0 0 0 0 0 0 0 0 0 0 0 0 0 0 0 0 0 0.35 0"/>
<feBlend mode="normal" in2="BackgroundImageFix" result="effect1_dropShadow_2744_11952"/>
<feBlend mode="normal" in="SourceGraphic" in2="effect1_dropShadow_2744_11952" result="shape"/>
</filter>
<filter id="filter1_d_2744_11952" x="4.62225" y="9.6001" width="22.7556" height="21.3334" filterUnits="userSpaceOnUse" color-interpolation-filters="sRGB">
<feFlood flood-opacity="0" result="BackgroundImageFix"/>
<feColorMatrix in="SourceAlpha" type="matrix" values="0 0 0 0 0 0 0 0 0 0 0 0 0 0 0 0 0 0 127 0" result="hardAlpha"/>
<feOffset dy="4.26667"/>
<feGaussianBlur stdDeviation="2.13333"/>
<feComposite in2="hardAlpha" operator="out"/>
<feColorMatrix type="matrix" values="0 0 0 0 1 0 0 0 0 0.396078 0 0 0 0 0.137255 0 0 0 0.25 0"/>
<feBlend mode="normal" in2="BackgroundImageFix" result="effect1_dropShadow_2744_11952"/>
<feBlend mode="normal" in="SourceGraphic" in2="effect1_dropShadow_2744_11952" result="shape"/>
</filter>
</defs>
</svg>
