<svg width="52" height="51" viewBox="0 0 52 51" fill="none" xmlns="http://www.w3.org/2000/svg">
<rect x="0.5" width="51" height="51" rx="25.5" fill="#F84437"/>
<path d="M29.8493 26.2205L27.6717 28.4054C26.7887 29.2915 25.235 29.3106 24.3328 28.4054L22.1552 26.2205L14.334 34.067C14.6251 34.2017 14.9461 34.282 15.2874 34.282H36.7172C37.0585 34.282 37.3793 34.2018 37.6704 34.0671L29.8493 26.2205Z" fill="white"/>
<path d="M36.7171 16H15.2873C14.946 16 14.625 16.0803 14.334 16.215L22.6915 24.6002C22.692 24.6007 22.6927 24.6008 22.6932 24.6014C22.6938 24.6019 22.6939 24.6027 22.6939 24.6027L25.4114 27.3292C25.7 27.6178 26.3044 27.6178 26.5931 27.3292L29.31 24.6032C29.31 24.6032 29.3106 24.6019 29.3112 24.6014C29.3112 24.6014 29.3124 24.6007 29.313 24.6002L37.6703 16.2149C37.3792 16.0802 37.0584 16 36.7171 16Z" fill="white"/>
<path d="M13.243 17.2805C13.0924 17.5851 13 17.9232 13 18.2854V31.9964C13 32.3586 13.0923 32.6967 13.243 33.0013L21.0777 25.1412L13.243 17.2805Z" fill="white"/>
<path d="M38.7546 17.2803L30.9199 25.141L38.7546 33.0012C38.9052 32.6967 38.9976 32.3586 38.9976 31.9963V18.2852C38.9976 17.923 38.9052 17.5849 38.7546 17.2803Z" fill="white"/>
</svg>
