<svg width="18" height="14" viewBox="0 0 18 14" fill="none" xmlns="http://www.w3.org/2000/svg">
<path d="M17.6247 1.55746L11.043 6.3157L9.96295 7.09829C9.39082 7.52097 8.60987 7.52097 8.03774 7.09829L6.95774 6.3157L0.368164 1.56528C0.734681 1.05272 1.32674 0.749371 1.95687 0.751352H16.0438C16.6693 0.751903 17.2569 1.05151 17.6247 1.55746Z" fill="#FFD54F"/>
<path d="M0.367855 1.56531L6.95743 6.31573L0.571346 12.7018C0.204645 12.3342 -0.000900032 11.8359 1.70873e-05 11.3166V2.70793C-0.0017071 2.29765 0.127093 1.89749 0.367855 1.56531Z" fill="#FFC107"/>
<path d="M18.0003 2.70793V11.3166C18.0013 11.8359 17.7958 12.3342 17.4291 12.7018L11.043 6.31577L17.6247 1.5575C17.869 1.89125 18.0006 2.29424 18.0003 2.70793Z" fill="#FFC107"/>
<path d="M11.0426 6.31567L9.96259 7.09827C9.39045 7.52095 8.60951 7.52095 8.03737 7.09827L6.95737 6.31567L0.571289 12.7018C0.938907 13.0685 1.43723 13.274 1.95651 13.273H3.93257H8.87766H14.0666H16.0435C16.5627 13.274 17.0611 13.0685 17.4287 12.7018L11.0426 6.31567Z" fill="#FFA000"/>
</svg>
