<svg width="22" height="22" viewBox="0 0 22 22" fill="none" xmlns="http://www.w3.org/2000/svg">
<path d="M20.0664 3.26562H1.93359C0.865262 3.26562 0 4.13626 0 5.19922V16.8008C0 17.8701 0.871621 18.7344 1.93359 18.7344H20.0664C21.1258 18.7344 22 17.8737 22 16.8008V5.19922C22 4.13815 21.1382 3.26562 20.0664 3.26562ZM19.7956 4.55469C19.4006 4.94764 12.602 11.7104 12.3673 11.9439C12.002 12.3091 11.5165 12.5102 11 12.5102C10.4835 12.5102 9.99797 12.3091 9.63153 11.9427C9.47366 11.7856 2.75013 5.09755 2.20438 4.55469H19.7956ZM1.28906 16.5384V5.4624L6.85945 11.0034L1.28906 16.5384ZM2.2052 17.4453L7.77339 11.9125L8.72124 12.8554C9.32993 13.4641 10.1392 13.7993 11 13.7993C11.8608 13.7993 12.6701 13.4641 13.2776 12.8566L14.2266 11.9125L19.7948 17.4453H2.2052ZM20.7109 16.5384L15.1406 11.0034L20.7109 5.4624V16.5384Z" fill="#028001"/>
</svg>
