<svg width="38" height="38" viewBox="0 0 38 38" fill="none" xmlns="http://www.w3.org/2000/svg">
<circle cx="19" cy="19" r="19" fill="#F5F7F9"/>
<path d="M27.2422 11.9688H10.7578C9.79055 11.9688 9 12.7558 9 13.7266V24.2734C9 25.2445 9.79105 26.0312 10.7578 26.0312H27.2422C28.2095 26.0312 29 25.2442 29 24.2734V13.7266C29 12.7556 28.2091 11.9688 27.2422 11.9688ZM26.9723 13.1406C26.4039 13.7108 19.7283 20.4082 19.4541 20.6834C19.225 20.9131 18.7751 20.9133 18.5459 20.6834L11.0277 13.1406H26.9723ZM10.1719 24.058V13.942L15.2135 19L10.1719 24.058ZM11.0277 24.8594L16.0408 19.83L17.716 21.5107C18.4025 22.1994 19.5978 22.1991 20.2841 21.5107L21.9593 19.83L26.9723 24.8594H11.0277ZM27.8281 24.058L22.7865 19L27.8281 13.942V24.058Z" fill="#028001"/>
</svg>
