<svg width="50" height="50" viewBox="0 0 50 50" fill="none" xmlns="http://www.w3.org/2000/svg">
<g clip-path="url(#clip0_570_23)">
<path d="M43.2619 0H6.7376C3.0166 0 0 3.01648 0 6.7376V43.2622C0 46.9833 3.01648 49.9998 6.7376 49.9998H24.7512L24.7819 32.1325H20.14C19.5368 32.1325 19.0472 31.6448 19.0448 31.0415L19.0226 25.2822C19.0203 24.6756 19.5113 24.1827 20.1179 24.1827H24.7513V18.6177C24.7513 12.1596 28.6956 8.64311 34.4566 8.64311H39.184C39.7888 8.64311 40.2793 9.13346 40.2793 9.73842V14.5947C40.2793 15.1994 39.7892 15.6897 39.1846 15.69L36.2835 15.6914C33.1504 15.6914 32.5438 17.1802 32.5438 19.3651V24.1828H39.4281C40.0841 24.1828 40.593 24.7556 40.5157 25.4071L39.8331 31.1664C39.7678 31.7175 39.3004 32.1328 38.7455 32.1328H32.5745L32.5438 50H43.2622C46.9832 50 49.9996 46.9835 49.9996 43.2625V6.7376C49.9995 3.01648 46.983 0 43.2619 0Z" fill="#475993"/>
</g>
<defs>
<clipPath id="clip0_570_23">
<rect width="50" height="50" fill="white"/>
</clipPath>
</defs>
</svg>
