<svg width="28" height="28" viewBox="0 0 28 28" fill="none" xmlns="http://www.w3.org/2000/svg">
<g clipPath="url(#clip0_270_15205)">
<path d="M28 14C28 20.988 22.8802 26.7799 16.1875 27.8299V18.0469H19.4496L20.0703 14H16.1875V11.3739C16.1875 10.2665 16.73 9.1875 18.4691 9.1875H20.2344V5.74219C20.2344 5.74219 18.632 5.46875 17.1002 5.46875C13.9027 5.46875 11.8125 7.40687 11.8125 10.9156V14H8.25781V18.0469H11.8125V27.8299C5.11984 26.7799 0 20.988 0 14C0 6.26828 6.26828 0 14 0C21.7317 0 28 6.26828 28 14Z" fill="#1877F2"/>
<path d="M19.4496 18.0469L20.0703 14H16.1875V11.3739C16.1875 10.2667 16.7299 9.1875 18.469 9.1875H20.2344V5.74219C20.2344 5.74219 18.6323 5.46875 17.1005 5.46875C13.9026 5.46875 11.8125 7.40688 11.8125 10.9156V14H8.25781V18.0469H11.8125V27.8299C12.5253 27.9417 13.2558 28 14 28C14.7442 28 15.4747 27.9417 16.1875 27.8299V18.0469H19.4496Z" fill="white"/>
</g>
<defs>
<clipPath id="clip0_270_15205">
<rect width="28" height="28" fill="white"/>
</clipPath>
</defs>
</svg>
