<svg width="1200" height="630" viewBox="0 0 1200 630" fill="none" xmlns="http://www.w3.org/2000/svg">
<g clip-path="url(#clip0_574_74)">
<mask id="mask0_574_74" style="mask-type:luminance" maskUnits="userSpaceOnUse" x="0" y="207" width="1200" height="246">
<path d="M1200 207H0V452.455H1200V207Z" fill="white"/>
</mask>
<g mask="url(#mask0_574_74)">
<path d="M326.497 307.833C334.417 302.283 338.985 293.34 338.985 282.547C338.985 263.121 324.67 250.169 303.655 250.169H264.975L243.96 371.355H299.391C324.67 371.355 342.335 355.937 342.335 334.968C342.031 323.251 336.549 313.691 326.497 307.833ZM284.772 271.446H300.001C309.138 271.446 314.619 276.38 314.619 284.397C314.619 293.648 308.223 299.507 297.869 299.507H280.203L284.772 271.446ZM299.086 350.078H271.066L276.244 319.858H302.132C312.183 319.858 317.97 325.409 317.97 334.352C317.97 344.527 310.66 350.078 299.086 350.078Z" fill="#121639"/>
<path d="M427.919 280.697L418.477 335.893C416.955 345.144 409.95 351.311 400.813 351.311C391.676 351.311 384.975 345.144 384.975 336.51C384.975 334.351 385.28 333.118 385.28 332.193L394.112 280.389H369.746L361.523 328.801C360.914 332.193 360.609 335.276 360.609 337.743C360.609 359.02 376.447 373.513 399.29 373.513C422.437 373.513 438.579 359.329 442.538 336.202L452.285 280.697H427.919Z" fill="#121639"/>
<path d="M532.995 280.698L523.858 331.577C522.335 341.444 514.111 347.303 505.279 347.303C496.142 347.303 490.051 341.752 490.051 333.119C490.051 330.96 490.356 329.418 490.66 327.877L498.883 280.389H474.518L466.294 328.185C465.685 332.501 465.076 335.585 465.076 338.052C465.076 346.995 468.121 354.087 473.604 359.946C479.391 365.805 487.005 368.272 495.837 368.272C504.061 368.272 511.675 365.805 518.376 360.871L517.462 366.113C515.33 378.139 508.02 383.998 496.447 383.998C486.396 383.998 478.477 379.681 468.426 369.505L453.807 385.848C463.858 398.799 479.695 406.508 496.447 406.508C520.203 406.508 537.563 391.398 541.523 366.729L556.751 280.081H532.995V280.698Z" fill="#121639"/>
<path d="M629.849 278.539C619.798 278.539 611.27 281.623 604.569 287.79L614.315 233.519H589.95L566.193 371.356H590.559L592.691 360.254C598.478 368.889 608.529 373.514 621.32 373.514C647.514 374.131 670.051 350.695 669.442 322.018C669.138 297.041 652.387 278.539 629.849 278.539ZM619.188 351.62C606.702 351.62 597.564 342.369 597.564 329.11C597.564 313.075 608.529 300.741 622.539 300.741C635.33 300.741 643.859 309.992 643.859 324.485C643.859 339.594 632.894 351.62 619.188 351.62Z" fill="#121639"/>
<path d="M732.791 278.54C705.382 277.923 681.32 301.05 681.927 328.186C681.927 354.088 701.42 373.823 727.616 373.823C755.332 374.44 779.393 351.313 778.78 324.177C779.086 298.275 758.986 278.54 732.791 278.54ZM728.836 351.313C716.039 351.313 707.209 342.062 707.209 327.878C707.209 312.768 718.173 300.742 731.877 300.742C744.975 300.742 754.111 310.609 754.111 324.486C754.111 339.595 743.148 351.313 728.836 351.313Z" fill="#121639"/>
<path d="M804.061 251.403H780.913L843.654 371.355H868.023L804.061 251.403ZM775.432 371.355H804.368L819.9 351.928L809.236 331.885L775.432 371.355ZM853.704 280.697L841.827 295.807L852.484 316.158L882.641 280.697H853.704Z" fill="#121639"/>
<path d="M991.063 307.833C998.986 302.283 1003.55 293.34 1003.55 282.547C1003.55 263.121 989.543 250.169 968.222 250.169H929.543L908.529 371.355H963.961C989.236 371.355 1006.9 355.937 1006.9 334.968C1006.6 323.251 1001.11 313.691 991.063 307.833ZM949.343 271.446H964.568C973.704 271.446 979.186 276.38 979.186 284.397C979.186 293.648 972.791 299.507 962.434 299.507H944.768L949.343 271.446ZM963.347 350.078H935.332L940.506 319.858H966.395C976.445 319.858 982.234 325.409 982.234 334.352C982.234 344.527 975.225 350.078 963.347 350.078Z" fill="#121639"/>
<path d="M1072.38 278.54C1044.97 277.923 1020.91 301.05 1021.52 328.186C1021.52 354.088 1041.01 373.823 1067.21 373.823C1094.92 374.44 1118.99 351.313 1118.38 324.177C1118.38 298.275 1098.27 278.54 1072.38 278.54ZM1068.12 351.313C1055.33 351.313 1046.49 342.062 1046.49 327.878C1046.49 312.768 1057.47 300.742 1071.17 300.742C1084.26 300.742 1093.4 310.609 1093.4 324.486C1093.4 339.595 1082.43 351.313 1068.12 351.313Z" fill="#121639"/>
<path d="M1170.46 301.357H1196.35L1199.69 280.697H1173.8L1178.07 257.878H1153.7L1149.74 280.697H1135.74L1132.38 301.357H1146.4L1140.31 336.51C1139.69 340.21 1139.39 342.986 1139.39 345.453C1139.39 363.954 1153.4 373.822 1175.94 373.822C1179.29 373.822 1182.94 373.514 1186.9 372.897L1190.56 352.237C1189.04 352.545 1186.3 352.545 1182.94 352.545C1170.46 352.545 1164.37 349.461 1164.37 341.136C1164.37 339.594 1164.67 338.052 1164.67 336.818L1170.46 301.357Z" fill="#121639"/>
<path d="M155.94 291.798L112.082 314.309L68.2236 291.798L112.082 266.205L155.94 291.798Z" fill="#3F53FE"/>
<path d="M106.6 324.176V379.989L62.1328 354.087V301.357L106.6 324.176Z" fill="#3F53FE"/>
<path d="M162.03 301.357V354.087L117.563 379.989V324.176L162.03 301.357Z" fill="#3F53FE"/>
<path d="M35.0254 369.197V305.983C49.0355 303.516 59.6954 291.182 59.6954 276.38C59.6954 273.605 59.3909 270.83 58.4772 268.363C57.868 266.205 56.9543 264.046 56.0406 262.196C53.2995 257.262 49.3401 252.945 44.467 250.17C42.335 248.937 39.5939 247.703 37.1574 247.086C34.7208 246.47 32.2843 246.161 29.5431 246.161C13.401 245.853 0 259.421 0 276.072C0 288.715 7.91877 299.816 18.8832 304.133V378.14L79.4925 414.835C80.7109 409.284 83.4518 404.35 86.8023 400.341L35.0254 369.197ZM16.1421 276.072C16.1421 268.363 22.2335 262.196 29.8477 262.196C30.7615 262.196 31.6752 262.196 32.8934 262.504C38.9848 263.738 43.8579 269.597 43.8579 276.072C43.8579 276.689 43.8579 276.997 43.8579 277.614C43.2487 284.706 37.1574 289.949 30.1522 289.949C22.2335 290.257 16.1421 283.782 16.1421 276.072Z" fill="#3F53FE"/>
<path d="M194.315 245.853C188.833 245.853 183.96 247.395 179.696 249.862L112.081 207L50.5586 246.162C55.1271 249.245 58.7819 253.562 61.5231 258.496L112.081 226.118L167.818 261.58C165.381 265.897 164.163 270.831 164.163 276.073C164.163 288.715 171.777 299.508 182.741 304.133C184.874 305.058 187.006 305.675 189.138 305.984C190.66 306.292 192.183 306.292 194.011 306.292C197.97 306.292 201.929 305.367 205.28 304.133C207.716 303.209 209.848 301.975 211.675 300.433C218.985 294.882 223.858 285.94 223.858 276.073C224.163 259.421 210.761 245.853 194.315 245.853ZM194.315 290.257C189.746 290.257 185.482 287.79 183.046 284.399C181.523 282.24 180.609 279.464 180.609 276.381C180.609 268.672 186.701 262.505 194.315 262.505C201.929 262.505 208.021 268.672 208.021 276.381C208.021 279.156 207.107 281.932 205.584 284.09C203.148 287.79 198.884 290.257 194.315 290.257Z" fill="#3F53FE"/>
<path d="M205.583 311.226C201.929 312.459 198.274 313.075 194.314 313.075C192.792 313.075 190.965 313.075 189.441 312.767V369.505L133.706 402.808C128.528 397.874 121.523 394.482 113.604 394.482C107.817 394.482 102.03 396.333 97.4621 399.417C95.6342 400.65 93.8069 402.192 92.2844 403.733C88.6292 407.742 86.193 412.676 85.2794 418.535C84.9746 420.076 84.9746 421.927 84.9746 423.469C84.9746 424.394 84.9746 425.01 84.9746 425.935C86.193 440.737 98.3757 452.454 113.604 452.454C129.441 452.454 142.234 439.503 142.234 423.469C142.234 421.002 141.929 418.843 141.32 416.684L205.279 378.448V311.226H205.583ZM113.604 436.42C107.513 436.42 102.335 431.794 101.117 425.935C100.812 425.318 100.812 424.394 100.812 423.777C100.812 418.226 104.467 413.292 109.645 411.751C110.863 411.443 112.081 411.134 113.604 411.134C120.609 411.134 126.091 416.993 126.091 423.777C126.396 430.561 120.609 436.42 113.604 436.42Z" fill="#3F53FE"/>
</g>
</g>
<defs>
<clipPath id="clip0_574_74">
<rect width="1200" height="245.455" fill="white" transform="translate(0 207)"/>
</clipPath>
</defs>
</svg>
