<svg width="1200" height="630" viewBox="0 0 1200 630" fill="none" xmlns="http://www.w3.org/2000/svg">
<g clip-path="url(#clip0_574_74)">
<mask id="mask0_574_74" style="mask-type:luminance" maskUnits="userSpaceOnUse" x="100" y="213" width="1000" height="205">
<path d="M1100 213H100V417.545H1100V213Z" fill="white"/>
</mask>
<g mask="url(#mask0_574_74)">
<path d="M372.081 297.027C378.68 292.402 382.487 284.95 382.487 275.956C382.487 259.767 370.558 248.975 353.046 248.975H320.812L303.3 349.962H349.492C370.558 349.962 385.279 337.114 385.279 319.64C385.025 309.876 380.457 301.91 372.081 297.027ZM337.309 266.705H350C357.615 266.705 362.183 270.817 362.183 277.498C362.183 285.207 356.853 290.089 348.224 290.089H333.503L337.309 266.705ZM349.238 332.232H325.888L330.203 307.049H351.776C360.153 307.049 364.975 311.674 364.975 319.127C364.975 327.606 358.883 332.232 349.238 332.232Z" fill="#121639"/>
<path d="M456.599 274.414L448.731 320.411C447.462 328.12 441.625 333.26 434.011 333.26C426.396 333.26 420.812 328.12 420.812 320.925C420.812 319.126 421.066 318.098 421.066 317.328L428.427 274.157H408.122L401.269 314.501C400.762 317.328 400.508 319.897 400.508 321.953C400.508 339.683 413.706 351.761 432.741 351.761C452.031 351.761 465.482 339.941 468.782 320.668L476.904 274.414H456.599Z" fill="#121639"/>
<path d="M544.162 274.415L536.548 316.814C535.279 325.037 528.426 329.919 521.066 329.919C513.451 329.919 508.375 325.294 508.375 318.099C508.375 316.3 508.629 315.015 508.883 313.73L515.736 274.157H495.431L488.578 313.987C488.071 317.584 487.563 320.154 487.563 322.21C487.563 329.662 490.101 335.573 494.67 340.455C499.492 345.337 505.837 347.393 513.197 347.393C520.05 347.393 526.396 345.337 531.979 341.226L531.218 345.594C529.441 355.616 523.35 360.498 513.705 360.498C505.329 360.498 498.73 356.9 490.355 348.421L478.172 362.04C486.548 372.833 499.746 379.257 513.705 379.257C533.502 379.257 547.969 366.665 551.268 346.108L563.959 273.9H544.162V274.415Z" fill="#121639"/>
<path d="M624.874 272.616C616.499 272.616 609.392 275.186 603.808 280.325L611.93 235.099H591.625L571.828 349.963H592.133L593.909 340.712C598.732 347.907 607.108 351.762 617.767 351.762C639.595 352.275 658.376 332.746 657.869 308.848C657.615 288.034 643.656 272.616 624.874 272.616ZM615.991 333.517C605.585 333.517 597.971 325.808 597.971 314.758C597.971 301.396 607.108 291.117 618.783 291.117C629.442 291.117 636.549 298.826 636.549 310.904C636.549 323.495 627.412 333.517 615.991 333.517Z" fill="#121639"/>
<path d="M710.659 272.617C687.818 272.102 667.767 291.375 668.273 313.988C668.273 335.573 684.517 352.019 706.347 352.019C729.444 352.533 749.495 333.261 748.983 310.648C749.239 289.063 732.489 272.617 710.659 272.617ZM707.364 333.261C696.699 333.261 689.341 325.552 689.341 313.731C689.341 301.14 698.478 291.118 709.898 291.118C720.813 291.118 728.426 299.341 728.426 310.905C728.426 323.496 719.29 333.261 707.364 333.261Z" fill="#121639"/>
<path d="M770.051 250.002H750.762L803.046 349.962H823.352L770.051 250.002ZM746.193 349.962H770.307L783.25 333.774L774.364 317.071L746.193 349.962ZM811.421 274.414L801.523 287.006L810.404 303.965L835.534 274.414H811.421Z" fill="#121639"/>
<path d="M925.887 297.027C932.489 292.402 936.296 284.95 936.296 275.956C936.296 259.767 924.62 248.975 906.853 248.975H874.62L857.108 349.962H903.302C924.364 349.962 939.086 337.114 939.086 319.64C938.83 309.876 934.262 301.91 925.887 297.027ZM891.12 266.705H903.807C911.421 266.705 915.989 270.817 915.989 277.498C915.989 285.207 910.659 290.089 902.029 290.089H887.307L891.12 266.705ZM902.79 332.232H879.444L883.756 307.049H905.33C913.705 307.049 918.529 311.674 918.529 319.127C918.529 327.606 912.688 332.232 902.79 332.232Z" fill="#121639"/>
<path d="M993.654 272.617C970.813 272.102 950.761 291.375 951.267 313.988C951.267 335.573 967.512 352.019 989.341 352.019C1012.44 352.533 1032.49 333.261 1031.98 310.648C1031.98 289.063 1015.23 272.617 993.654 272.617ZM990.102 333.261C979.443 333.261 972.08 325.552 972.08 313.731C972.08 301.14 981.222 291.118 992.642 291.118C1003.55 291.118 1011.17 299.341 1011.17 310.905C1011.17 323.496 1002.03 333.261 990.102 333.261Z" fill="#121639"/>
<path d="M1075.38 291.63H1096.95L1099.74 274.414H1078.17L1081.73 255.398H1061.42L1058.12 274.414H1046.45L1043.65 291.63H1055.33L1050.26 320.925C1049.74 324.008 1049.49 326.321 1049.49 328.377C1049.49 343.795 1061.16 352.018 1079.95 352.018C1082.74 352.018 1085.78 351.761 1089.09 351.247L1092.13 334.03C1090.86 334.287 1088.58 334.287 1085.78 334.287C1075.38 334.287 1070.31 331.717 1070.31 324.779C1070.31 323.495 1070.56 322.21 1070.56 321.182L1075.38 291.63Z" fill="#121639"/>
<path d="M229.949 283.666L193.401 302.424L156.853 283.666L193.401 262.337L229.949 283.666Z" fill="#3F53FE"/>
<path d="M188.833 310.647V357.158L151.777 335.573V291.631L188.833 310.647Z" fill="#3F53FE"/>
<path d="M235.025 291.631V335.573L197.97 357.158V310.647L235.025 291.631Z" fill="#3F53FE"/>
<path d="M129.188 348.164V295.486C140.863 293.43 149.746 283.152 149.746 270.817C149.746 268.505 149.492 266.192 148.731 264.136C148.223 262.337 147.462 260.539 146.701 258.997C144.416 254.885 141.117 251.288 137.056 248.975C135.279 247.947 132.995 246.919 130.964 246.406C128.934 245.892 126.904 245.635 124.619 245.635C111.167 245.378 100 256.684 100 270.56C100 281.096 106.599 290.347 115.736 293.944V355.617L166.244 386.196C167.259 381.57 169.543 377.459 172.335 374.118L129.188 348.164ZM113.452 270.56C113.452 264.136 118.528 258.997 124.873 258.997C125.635 258.997 126.396 258.997 127.411 259.254C132.487 260.282 136.548 265.164 136.548 270.56C136.548 271.075 136.548 271.331 136.548 271.845C136.041 277.755 130.964 282.124 125.127 282.124C118.528 282.381 113.452 276.985 113.452 270.56Z" fill="#3F53FE"/>
<path d="M261.929 245.378C257.36 245.378 253.3 246.663 249.746 248.718L193.401 213L142.132 245.635C145.939 248.204 148.985 251.802 151.269 255.913L193.401 228.932L239.848 258.483C237.817 262.081 236.802 266.192 236.802 270.561C236.802 281.096 243.147 290.09 252.284 293.944C254.061 294.715 255.838 295.23 257.614 295.486C258.883 295.743 260.152 295.743 261.675 295.743C264.975 295.743 268.274 294.972 271.066 293.944C273.096 293.174 274.873 292.145 276.396 290.861C282.487 286.235 286.548 278.784 286.548 270.561C286.802 256.684 275.634 245.378 261.929 245.378ZM261.929 282.381C258.122 282.381 254.568 280.325 252.538 277.499C251.269 275.7 250.508 273.387 250.508 270.818C250.508 264.393 255.584 259.254 261.929 259.254C268.274 259.254 273.35 264.393 273.35 270.818C273.35 273.13 272.589 275.443 271.319 277.241C269.289 280.325 265.736 282.381 261.929 282.381Z" fill="#3F53FE"/>
<path d="M271.319 299.854C268.273 300.882 265.227 301.396 261.928 301.396C260.659 301.396 259.137 301.396 257.867 301.139V348.421L211.421 376.173C207.106 372.062 201.268 369.235 194.669 369.235C189.847 369.235 185.025 370.777 181.218 373.347C179.694 374.375 178.172 375.66 176.903 376.944C173.857 380.285 171.827 384.397 171.065 389.279C170.812 390.564 170.812 392.106 170.812 393.39C170.812 394.161 170.812 394.675 170.812 395.446C171.827 407.781 181.979 417.545 194.669 417.545C207.867 417.545 218.527 406.752 218.527 393.39C218.527 391.335 218.273 389.536 217.766 387.737L271.065 355.873V299.854H271.319ZM194.669 404.183C189.593 404.183 185.279 400.328 184.263 395.446C184.009 394.932 184.009 394.161 184.009 393.647C184.009 389.022 187.055 384.91 191.37 383.626C192.385 383.369 193.4 383.111 194.669 383.111C200.507 383.111 205.075 387.994 205.075 393.647C205.329 399.301 200.507 404.183 194.669 404.183Z" fill="#3F53FE"/>
</g>
</g>
<defs>
<clipPath id="clip0_574_74">
<rect width="1000" height="204.545" fill="white" transform="translate(100 213)"/>
</clipPath>
</defs>
</svg>
