<svg width="20" height="20" viewBox="0 0 20 20" fill="none" xmlns="http://www.w3.org/2000/svg">
<path d="M5.68363 3.18459V2.98998C5.68363 2.3383 5.15535 1.81006 4.50371 1.81006H1.17992C0.528281 1.81006 0 2.33834 0 2.99002V4.24916V17.5997C0 17.9255 0.264141 18.1897 0.589961 18.1897H17.0658V4.36455C17.0658 3.71287 16.5375 3.18463 15.8859 3.18463L5.68363 3.18459Z" fill="#DB710D"/>
<path d="M5.68363 3.18459V2.98998C5.68363 2.3383 5.15535 1.81006 4.50371 1.81006H1.17992C0.528281 1.81006 0 2.33834 0 2.99002V4.24916V17.5997C0 17.9255 0.264141 18.1897 0.589961 18.1897H8.47133V3.18459H5.68363Z" fill="#F58F00"/>
<path d="M18.8201 5.99365H3.46912C2.90904 5.99365 2.42611 6.3874 2.31334 6.93603L0.065918 17.8699C0.163926 18.0598 0.36166 18.1899 0.590098 18.1899H17.7318C18.3333 18.1899 18.8385 17.7375 18.9046 17.1397L19.9928 7.30334C20.0702 6.60459 19.5231 5.99365 18.8201 5.99365Z" fill="#FCC200"/>
<path d="M10.758 5.99365H3.46912C2.90904 5.99365 2.42611 6.3874 2.31334 6.93603L0.065918 17.8699C0.163926 18.0598 0.36166 18.1899 0.590098 18.1899H9.4085L10.758 5.99365Z" fill="#FFDE47"/>
</svg>
