<svg width="68" height="68" viewBox="0 0 68 68" fill="none" xmlns="http://www.w3.org/2000/svg">
<g clipPath="url(#clip0_270_15766)">
<path d="M19.3185 10.8136V10.1528C19.3185 7.94009 17.5229 6.14648 15.308 6.14648H4.01052C1.79561 6.14648 0 7.94022 0 10.153V14.4283V59.759C0 60.8653 0.897806 61.7622 2.00526 61.7622H58.0062V14.8201C58.0062 12.6073 56.2106 10.8137 53.9957 10.8137L19.3185 10.8136Z" fill="#DB710D"/>
<path d="M19.3185 10.8136V10.1528C19.3185 7.94009 17.5229 6.14648 15.308 6.14648H4.01052C1.79561 6.14648 0 7.94022 0 10.153V14.4283V59.759C0 60.8653 0.897806 61.7622 2.00526 61.7622H28.7938V10.8136H19.3185Z" fill="#F58F00"/>
<path d="M63.9684 20.3506H11.791C9.88733 20.3506 8.24587 21.6875 7.86255 23.5504L0.223633 60.6754C0.556759 61.3202 1.22885 61.762 2.0053 61.762H60.2695C62.3138 61.762 64.031 60.226 64.2559 58.1962L67.9546 24.7975C68.2175 22.425 66.3581 20.3506 63.9684 20.3506Z" fill="#FCC200"/>
<path d="M36.5658 20.3506H11.791C9.88733 20.3506 8.24587 21.6875 7.86256 23.5504L0.223633 60.6754C0.556759 61.3202 1.22885 61.762 2.0053 61.762H31.9788L36.5658 20.3506Z" fill="#FFDE47"/>
</g>
<defs>
<clipPath id="clip0_270_15766">
<rect width="67.9794" height="67.9085" fill="white"/>
</clipPath>
</defs>
</svg>
