<svg width="108" height="71" viewBox="0 0 108 71" fill="none" xmlns="http://www.w3.org/2000/svg">
<path d="M95.0735 0H12.9265C9.49923 0.00276136 6.21309 1.36967 3.78953 3.80064C1.36597 6.23161 0.00305896 9.52797 0 12.966V57.8628C0.00244724 61.3013 1.36509 64.5982 3.78872 67.0297C6.21234 69.4612 9.49883 70.8284 12.9265 70.8312H95.0735C98.5012 70.8284 101.788 69.4612 104.211 67.0297C106.635 64.5982 107.998 61.3013 108 57.8628V12.966C107.997 9.52797 106.634 6.23161 104.21 3.80064C101.787 1.36967 98.5008 0.00276136 95.0735 0ZM103.957 57.8628C103.955 60.2257 103.018 62.4911 101.353 64.162C99.6871 65.8329 97.429 66.7729 95.0735 66.7757H12.9265C10.571 66.7729 8.31285 65.8329 6.64739 64.162C4.98193 62.4911 4.04523 60.2257 4.04278 57.8628V12.966C4.04584 10.6036 4.98282 8.33873 6.64821 6.66832C8.3136 4.9979 10.5714 4.05827 12.9265 4.05551H95.0735C97.4286 4.05827 99.6864 4.9979 101.352 6.66832C103.017 8.33873 103.954 10.6036 103.957 12.966V57.8628Z" fill="#CCD5DF"/>
<path d="M33.308 14.7273C28.9594 14.728 24.7216 16.0989 21.1966 18.6453C17.6716 21.1917 15.0387 24.7841 13.6718 28.9122C12.305 33.0402 12.2738 37.494 13.5827 41.6409C14.8915 45.7877 17.4738 49.4166 20.9628 52.0122L21.0266 52.0563L21.0556 52.076C24.3913 54.5471 28.4002 55.9443 32.5493 56.0818C32.7987 56.1016 33.0481 56.1039 33.308 56.1039C33.5679 56.1039 33.8162 56.1039 34.0656 56.0818C38.2161 55.9448 42.2268 54.5485 45.565 52.0783L45.601 52.0539C45.6196 52.0389 45.6404 52.0273 45.659 52.0133C49.1489 49.4176 51.7318 45.7881 53.0408 41.6405C54.3498 37.4929 54.3183 33.0383 52.9507 28.9096C51.5831 24.781 48.949 21.1884 45.4227 18.6423C41.8964 16.0963 37.6574 14.7264 33.308 14.7273ZM33.88 52.0261C33.8405 52.0261 33.7987 52.0261 33.7639 52.0342C33.6143 52.0458 33.4658 52.0423 33.3126 52.0435C33.1595 52.0447 33.0087 52.0435 32.8602 52.0342C32.8207 52.0342 32.7801 52.0273 32.7442 52.0261C29.7062 51.931 26.7542 50.9944 24.217 49.3207V48.7407C24.2189 46.869 24.9633 45.0745 26.2868 43.751C27.6103 42.4275 29.4048 41.6832 31.2766 41.6814H35.3568C37.2293 41.6835 39.0247 42.4276 40.3496 43.7508C41.6745 45.0739 42.421 46.8682 42.4257 48.7407V49.3207C39.8825 50.9963 36.9241 51.9329 33.88 52.0261ZM33.3219 37.6163H33.2999C31.9005 37.6134 30.5596 37.0551 29.5716 36.0641C28.5837 35.0731 28.0296 33.7304 28.031 32.3311C28.0325 30.9318 28.5894 29.5903 29.5794 28.6014C30.5694 27.6125 31.9116 27.057 33.3109 27.057C34.7103 27.057 36.0524 27.6125 37.0424 28.6014C38.0324 29.5903 38.5893 30.9318 38.5908 32.3311C38.5922 33.7304 38.0381 35.0731 37.0502 36.0641C36.0622 37.0551 34.7213 37.6134 33.3219 37.6163ZM46.1265 46.0179C45.7235 44.4345 44.9773 42.9591 43.9408 41.6961C42.9043 40.4331 41.6028 39.4134 40.1285 38.7091C41.3737 37.3797 42.203 35.7152 42.5144 33.9205C42.8258 32.1259 42.6056 30.2793 41.8811 28.6081C41.1566 26.937 39.9592 25.5141 38.4364 24.5145C36.9137 23.515 35.1319 22.9825 33.3103 22.9825C31.4888 22.9825 29.707 23.515 28.1842 24.5145C26.6614 25.5141 25.4641 26.937 24.7395 28.6081C24.015 30.2793 23.7949 32.1259 24.1063 33.9205C24.4177 35.7152 25.2469 37.3797 26.4921 38.7091C25.0183 39.4138 23.7173 40.4336 22.6813 41.6966C21.6452 42.9596 20.8993 44.4348 20.4964 46.0179C18.0193 43.0434 16.6699 39.291 16.6853 35.4202C16.6853 33.2366 17.1154 31.0744 17.9511 29.057C18.7868 27.0396 20.0116 25.2066 21.5557 23.6625C23.0998 22.1185 24.9329 20.8937 26.9504 20.058C28.9678 19.2224 31.1301 18.7923 33.3138 18.7923C35.4975 18.7923 37.6598 19.2224 39.6772 20.058C41.6947 20.8937 43.5278 22.1185 45.0719 23.6625C46.616 25.2066 47.8409 27.0396 48.6765 29.057C49.5122 31.0744 49.9423 33.2366 49.9423 35.4202C49.9569 39.2917 48.6057 43.0443 46.1265 46.0179Z" fill="#CCD5DF"/>
<path d="M93.3469 21.039H67.2505C66.7122 21.039 66.1959 21.2606 65.8153 21.6552C65.4346 22.0497 65.2208 22.5849 65.2208 23.1429C65.2208 23.7008 65.4346 24.236 65.8153 24.6305C66.1959 25.0251 66.7122 25.2468 67.2505 25.2468H93.3469C93.8852 25.2468 94.4015 25.0251 94.7821 24.6305C95.1628 24.236 95.3766 23.7008 95.3766 23.1429C95.3766 22.5849 95.1628 22.0497 94.7821 21.6552C94.4015 21.2606 93.8852 21.039 93.3469 21.039Z" fill="#CCD5DF"/>
<path d="M93.3469 33.6623H67.2505C66.7122 33.6623 66.1959 33.884 65.8153 34.2786C65.4346 34.6731 65.2208 35.2082 65.2208 35.7662C65.2208 36.3242 65.4346 36.8594 65.8153 37.2539C66.1959 37.6485 66.7122 37.8701 67.2505 37.8701H93.3469C93.8852 37.8701 94.4015 37.6485 94.7821 37.2539C95.1628 36.8594 95.3766 36.3242 95.3766 35.7662C95.3766 35.2082 95.1628 34.6731 94.7821 34.2786C94.4015 33.884 93.8852 33.6623 93.3469 33.6623Z" fill="#CCD5DF"/>
<path d="M93.3469 45.5844H67.2505C66.7122 45.5844 66.1959 45.8061 65.8153 46.2006C65.4346 46.5952 65.2208 47.1303 65.2208 47.6883C65.2208 48.2463 65.4346 48.7814 65.8153 49.176C66.1959 49.5705 66.7122 49.7922 67.2505 49.7922H93.3469C93.8852 49.7922 94.4015 49.5705 94.7821 49.176C95.1628 48.7814 95.3766 48.2463 95.3766 47.6883C95.3766 47.1303 95.1628 46.5952 94.7821 46.2006C94.4015 45.8061 93.8852 45.5844 93.3469 45.5844Z" fill="#CCD5DF"/>
</svg>
