<svg width="13" height="13" viewBox="0 0 13 13" fill="none" xmlns="http://www.w3.org/2000/svg">
<g clip-path="url(#clip0_1006_8222)">
<path d="M0.124748 0.374713C0.0850818 0.414165 0.0536333 0.461093 0.0322225 0.51278C0.0108117 0.564466 -0.00013613 0.619886 1.24522e-05 0.675832V2.66665C-0.000355627 2.70784 0.00743982 2.7487 0.0229487 2.78686C0.0384576 2.82503 0.0613726 2.85974 0.0903708 2.889C0.119369 2.91826 0.153876 2.94148 0.191899 2.95733C0.229922 2.97318 0.270708 2.98134 0.311902 2.98134C0.353096 2.98134 0.393882 2.97318 0.431905 2.95733C0.469928 2.94148 0.504435 2.91826 0.533433 2.889C0.562431 2.85974 0.585346 2.82503 0.600855 2.78686C0.616364 2.7487 0.624159 2.70784 0.623791 2.66665V1.31485L3.43029 4.12135C3.48893 4.1791 3.56802 4.21133 3.65033 4.21101C3.73263 4.2107 3.81148 4.17786 3.86968 4.11967C3.92788 4.06147 3.96072 3.98263 3.96103 3.90032C3.96135 3.81802 3.92913 3.73892 3.87138 3.68027L1.06489 0.873781H2.41669C2.49892 0.873046 2.57754 0.839862 2.63543 0.781452C2.69332 0.723041 2.7258 0.64413 2.7258 0.561891C2.7258 0.479652 2.69332 0.400742 2.63543 0.342331C2.57754 0.28392 2.49892 0.250737 2.41669 0.250002H0.425843C0.369901 0.249838 0.314482 0.260777 0.262798 0.282184C0.211114 0.303591 0.164191 0.335041 0.124748 0.374713Z" fill="black"/>
<path d="M12.6249 12.8753C12.5854 12.915 12.5385 12.9464 12.4868 12.9679C12.4351 12.9893 12.3797 13.0002 12.3237 13.0001H10.3329C10.2917 13.0004 10.2509 12.9926 10.2127 12.9771C10.1745 12.9616 10.1398 12.9387 10.1106 12.9097C10.0813 12.8807 10.0581 12.8462 10.0422 12.8082C10.0264 12.7702 10.0182 12.7294 10.0182 12.6882C10.0182 12.647 10.0264 12.6062 10.0422 12.5682C10.0581 12.5301 10.0813 12.4956 10.1106 12.4666C10.1398 12.4376 10.1745 12.4147 10.2127 12.3992C10.2509 12.3837 10.2917 12.3759 10.3329 12.3763H11.6847L8.87822 9.56979C8.84889 9.54091 8.82557 9.50651 8.8096 9.46858C8.79362 9.43064 8.78532 9.38992 8.78516 9.34876C8.785 9.30759 8.79299 9.26681 8.80867 9.22875C8.82434 9.19069 8.8474 9.15611 8.8765 9.127C8.90561 9.0979 8.94019 9.07484 8.97825 9.05916C9.0163 9.04348 9.05709 9.03549 9.09825 9.03565C9.13941 9.0358 9.18013 9.04411 9.21807 9.06008C9.25601 9.07605 9.29041 9.09937 9.31929 9.1287L12.1258 11.9352V10.5834C12.1265 10.5012 12.1597 10.4225 12.2181 10.3646C12.2765 10.3068 12.3554 10.2743 12.4377 10.2743C12.5199 10.2743 12.5988 10.3068 12.6572 10.3646C12.7156 10.4225 12.7488 10.5012 12.7496 10.5834V12.5742C12.7497 12.6302 12.7388 12.6856 12.7174 12.7373C12.696 12.789 12.6645 12.8359 12.6249 12.8753Z" fill="black"/>
<path d="M0.124713 12.8753C0.164165 12.915 0.211093 12.9464 0.26278 12.9679C0.314466 12.9893 0.369886 13.0002 0.425832 13.0001H2.41665C2.45784 13.0004 2.4987 12.9926 2.53686 12.9771C2.57503 12.9616 2.60974 12.9387 2.639 12.9097C2.66826 12.8807 2.69148 12.8462 2.70733 12.8082C2.72318 12.7702 2.73134 12.7294 2.73134 12.6882C2.73134 12.647 2.72318 12.6062 2.70733 12.5682C2.69148 12.5301 2.66826 12.4956 2.639 12.4666C2.60974 12.4376 2.57503 12.4147 2.53686 12.3992C2.4987 12.3837 2.45784 12.3759 2.41665 12.3763H1.06485L3.87135 9.56979C3.90067 9.54091 3.924 9.50651 3.93997 9.46858C3.95594 9.43064 3.96425 9.38992 3.96441 9.34876C3.96457 9.30759 3.95658 9.26681 3.9409 9.22875C3.92522 9.19069 3.90217 9.15611 3.87306 9.127C3.84396 9.0979 3.80938 9.07484 3.77132 9.05916C3.73326 9.04348 3.69248 9.03549 3.65132 9.03565C3.61015 9.0358 3.56943 9.04411 3.53149 9.06008C3.49356 9.07605 3.45916 9.09937 3.43027 9.1287L0.623781 11.9352V10.5834C0.623046 10.5012 0.589862 10.4225 0.531452 10.3646C0.473041 10.3068 0.39413 10.2743 0.311891 10.2743C0.229652 10.2743 0.150742 10.3068 0.0923308 10.3646C0.03392 10.4225 0.000736634 10.5012 1.81008e-06 10.5834V12.5742C-0.00016187 12.6302 0.0107768 12.6856 0.032184 12.7373C0.0535912 12.789 0.0850415 12.8359 0.124713 12.8753Z" fill="black"/>
<path d="M12.6248 0.374713C12.6645 0.414165 12.696 0.461093 12.7174 0.51278C12.7388 0.564466 12.7497 0.619886 12.7496 0.675832V2.66665C12.7499 2.70784 12.7421 2.7487 12.7266 2.78686C12.7111 2.82503 12.6882 2.85974 12.6592 2.889C12.6302 2.91826 12.5957 2.94148 12.5577 2.95733C12.5197 2.97318 12.4789 2.98134 12.4377 2.98134C12.3965 2.98134 12.3557 2.97318 12.3177 2.95733C12.2797 2.94148 12.2452 2.91826 12.2162 2.889C12.1872 2.85974 12.1642 2.82503 12.1487 2.78686C12.1332 2.7487 12.1254 2.70784 12.1258 2.66665V1.31485L9.3193 4.12135C9.29042 4.15067 9.25602 4.174 9.21809 4.18997C9.18015 4.20594 9.13943 4.21425 9.09827 4.21441C9.05711 4.21457 9.01632 4.20658 8.97826 4.1909C8.9402 4.17522 8.90562 4.15217 8.87652 4.12306C8.84741 4.09396 8.82435 4.05938 8.80867 4.02132C8.79299 3.98326 8.785 3.94248 8.78516 3.90132C8.78532 3.86015 8.79362 3.81943 8.80959 3.78149C8.82556 3.74356 8.84888 3.70916 8.87821 3.68027L11.6847 0.873781H10.3329C10.2507 0.873046 10.1721 0.839862 10.1142 0.781452C10.0563 0.723041 10.0238 0.64413 10.0238 0.561891C10.0238 0.479652 10.0563 0.400742 10.1142 0.342331C10.1721 0.28392 10.2507 0.250737 10.3329 0.250002H12.3237C12.3797 0.249838 12.4351 0.260777 12.4868 0.282184C12.5385 0.303591 12.5854 0.335041 12.6248 0.374713Z" fill="black"/>
</g>
<defs>
<clipPath id="clip0_1006_8222">
<rect width="12.75" height="12.75" fill="white" transform="translate(0 0.25)"/>
</clipPath>
</defs>
</svg>
