<svg width="24" height="24" viewBox="0 0 24 24" fill="none" xmlns="http://www.w3.org/2000/svg">
<path d="M12.4346 14.3301L2.91709 8.27332C2.42505 7.94793 2.08048 7.44231 1.95758 6.86535C1.83468 6.28839 1.94329 5.68624 2.26001 5.18857C2.57673 4.6909 3.07622 4.33752 3.65094 4.20452C4.22566 4.07153 4.82961 4.16956 5.33276 4.4775L12.3153 8.92072L18.5846 4.5321C19.0737 4.20064 19.6736 4.07489 20.2547 4.182C20.8357 4.28912 21.3514 4.6205 21.6902 5.10458C22.029 5.58865 22.1637 6.18657 22.0654 6.76919C21.9671 7.35181 21.6435 7.87236 21.1646 8.21842L12.4346 14.3301Z" fill="#EA4435"/>
<path d="M20.625 19.8757H17.625V6.37573C17.625 5.779 17.8621 5.2067 18.284 4.78474C18.706 4.36279 19.2783 4.12573 19.875 4.12573C20.4717 4.12573 21.044 4.36279 21.466 4.78474C21.8879 5.2067 22.125 5.779 22.125 6.37573V18.3757C22.125 18.7736 21.967 19.1551 21.6857 19.4364C21.4044 19.7177 21.0228 19.8757 20.625 19.8757Z" fill="#00AC47"/>
<path d="M22.0925 6.04921C22.0859 6.00421 22.0864 5.95823 22.077 5.91331C22.0626 5.84446 22.0358 5.78086 22.0153 5.71441C21.9954 5.63835 21.9714 5.56342 21.9434 5.48993C21.9284 5.45431 21.9053 5.42303 21.8883 5.38838C21.8416 5.28841 21.7876 5.19202 21.7268 5.10001C21.6968 5.05643 21.6593 5.01931 21.6261 4.97806C21.5692 4.90309 21.5077 4.83173 21.442 4.76438C21.3921 4.71586 21.3353 4.67528 21.281 4.63156C21.2234 4.58215 21.1633 4.53566 21.101 4.49228C21.0416 4.45343 20.9765 4.42351 20.9135 4.39036C20.8472 4.35578 20.7823 4.31813 20.7133 4.29053C20.6466 4.26368 20.5755 4.24658 20.5058 4.22611C20.4362 4.20563 20.3669 4.18111 20.2953 4.16783C20.2067 4.15359 20.1173 4.14458 20.0276 4.14083C19.9706 4.13686 19.9142 4.12688 19.8571 4.12733C19.751 4.13043 19.6452 4.14108 19.5407 4.15921C19.4984 4.16551 19.4559 4.16498 19.414 4.17368C19.2725 4.21693 19.1313 4.26143 18.9906 4.30718C18.952 4.32368 18.9182 4.34821 18.8807 4.36681C18.4999 4.54453 18.1786 4.82875 17.9558 5.18513C17.7331 5.54151 17.6182 5.95478 17.6253 6.37501V10.6965L21.1653 8.21828C21.5129 7.98498 21.7855 7.65592 21.95 7.27094C22.1145 6.88595 22.1641 6.46169 22.0925 6.04921Z" fill="#FFBA00"/>
<path d="M4.125 4.125C4.72174 4.125 5.29403 4.36205 5.71599 4.78401C6.13795 5.20597 6.375 5.77826 6.375 6.375V19.875H3.375C2.97718 19.875 2.59564 19.717 2.31434 19.4357C2.03304 19.1544 1.875 18.7728 1.875 18.375V6.375C1.875 5.77826 2.11205 5.20597 2.53401 4.78401C2.95597 4.36205 3.52826 4.125 4.125 4.125Z" fill="#4285F4"/>
<path d="M1.90785 6.04919C1.91445 6.00419 1.91393 5.95821 1.9233 5.91328C1.9377 5.84443 1.96448 5.78083 1.98503 5.71438C2.00495 5.63835 2.02893 5.56345 2.05688 5.48998C2.07188 5.45436 2.09498 5.42308 2.11208 5.38843C2.15871 5.28842 2.21271 5.192 2.27363 5.09998C2.30363 5.05641 2.34113 5.01928 2.37428 4.97803C2.43114 4.90306 2.49261 4.8317 2.55833 4.76436C2.6082 4.71583 2.66505 4.67526 2.71935 4.63153C2.77696 4.5821 2.83704 4.53562 2.89935 4.49226C2.95883 4.45341 3.02393 4.42348 3.08685 4.39033C3.15188 4.35355 3.21871 4.32006 3.2871 4.28998C3.35385 4.26313 3.42495 4.24603 3.49455 4.22556C3.56415 4.20508 3.63353 4.18056 3.70508 4.16728C3.79372 4.15305 3.88313 4.14403 3.97283 4.14028C4.02983 4.13631 4.08615 4.12633 4.1433 4.12678C4.2494 4.12987 4.35514 4.14053 4.45973 4.15866C4.50195 4.16496 4.54448 4.16443 4.58648 4.17313C4.65907 4.19163 4.73067 4.21386 4.80098 4.23973C4.87168 4.25853 4.94139 4.28085 5.00985 4.30663C5.0484 4.32313 5.08223 4.34766 5.11973 4.36626C5.21695 4.41193 5.31074 4.46457 5.40038 4.52376C5.70085 4.73008 5.9466 5.00643 6.11639 5.32896C6.28618 5.65149 6.37491 6.01049 6.37493 6.37498V10.6965L2.83493 8.21841C2.48736 7.98504 2.21484 7.65598 2.05031 7.27102C1.88579 6.88605 1.83631 6.46167 1.90785 6.04919Z" fill="#C52528"/>
</svg>
