<svg width="28" height="28" viewBox="0 0 28 28" fill="none" xmlns="http://www.w3.org/2000/svg">
<g clipPath="url(#clip0_270_15211)">
<path d="M26.9427 11.5657L15.5218 11.5652C15.0174 11.5652 14.6086 11.9739 14.6086 12.4782V16.1267C14.6086 16.6309 15.0174 17.0398 15.5217 17.0398H21.9533C21.249 18.8675 19.9345 20.3981 18.2575 21.3707L20.9999 26.1181C25.3991 23.5738 27.9999 19.1098 27.9999 14.1125C27.9999 13.401 27.9475 12.8923 27.8426 12.3196C27.7628 11.8845 27.3851 11.5657 26.9427 11.5657Z" fill="#167EE6"/>
<path d="M14 22.5218C10.8525 22.5218 8.10478 20.8021 6.62904 18.2573L1.88184 20.9936C4.29766 25.1805 8.82327 28.0001 14 28.0001C16.5395 28.0001 18.9358 27.3163 21 26.1247V26.1182L18.2576 21.3708C17.0031 22.0984 15.5515 22.5218 14 22.5218Z" fill="#12B347"/>
<path d="M21 26.1245V26.118L18.2576 21.3706C17.0032 22.0981 15.5516 22.5216 14 22.5216V27.9999C16.5395 27.9999 18.9359 27.3161 21 26.1245Z" fill="#0F993E"/>
<path d="M5.47827 14.0001C5.47827 12.4487 5.90166 10.9972 6.62906 9.74283L1.88185 7.00659C0.683703 9.06432 0 11.4541 0 14.0001C0 16.5461 0.683703 18.9359 1.88185 20.9936L6.62906 18.2573C5.90166 17.003 5.47827 15.5515 5.47827 14.0001Z" fill="#FFD500"/>
<path d="M14 5.47827C16.0525 5.47827 17.9378 6.20758 19.4103 7.42071C19.7736 7.71996 20.3016 7.69836 20.6344 7.36559L23.2195 4.78051C23.597 4.40295 23.5701 3.78492 23.1668 3.43503C20.6996 1.29462 17.4894 0 14 0C8.82327 0 4.29766 2.81952 1.88184 7.00651L6.62904 9.74274C8.10478 7.19797 10.8525 5.47827 14 5.47827Z" fill="#FF4B26"/>
<path d="M19.4103 7.42071C19.7736 7.71996 20.3017 7.69836 20.6344 7.36559L23.2195 4.78051C23.597 4.40295 23.5701 3.78492 23.1668 3.43503C20.6996 1.29456 17.4894 0 14 0V5.47827C16.0524 5.47827 17.9378 6.20758 19.4103 7.42071Z" fill="#D93F21"/>
</g>
<defs>
<clipPath id="clip0_270_15211">
<rect width="28" height="28" fill="white"/>
</clipPath>
</defs>
</svg>
