<svg width="80" height="75" viewBox="0 0 80 75" fill="none" xmlns="http://www.w3.org/2000/svg">
<g filter="url(#filter0_d_3828_19213)">
<path d="M20.9602 55.3499C18.8511 55.3499 17.1348 53.5841 17.1348 51.4142V28.3671C17.1348 27.9919 17.2916 27.6337 17.5645 27.3845L35.4165 11.1171C35.6575 10.8967 35.9597 10.7878 36.2619 10.7878C36.5641 10.7878 36.8664 10.898 37.1074 11.1171L54.9594 27.3845C55.2323 27.6337 55.3891 27.9906 55.3891 28.3671V51.4142C55.3891 53.5841 53.6728 55.3499 51.5637 55.3499H20.9602Z" fill="white"/>
<path d="M59.3846 35.9091H59.3239C58.6888 35.9091 58.0749 35.6709 57.5978 35.2381L36.2194 15.8377L14.841 35.2381C14.3639 35.6709 13.75 35.9091 13.1148 35.9091C10.7268 35.9091 9.59341 32.8822 11.3633 31.2337L34.4693 9.69536C35.4629 8.7687 36.9759 8.7687 37.9709 9.69245L61.1348 31.2308C62.9075 32.8793 61.7741 35.9091 59.3846 35.9091Z" fill="url(#paint0_linear_3828_19213)"/>
<path d="M36.2495 50.716C42.7137 50.716 47.954 45.528 47.954 39.1283C47.954 32.7285 42.7137 27.5405 36.2495 27.5405C29.7852 27.5405 24.5449 32.7285 24.5449 39.1283C24.5449 45.528 29.7852 50.716 36.2495 50.716Z" fill="url(#paint1_linear_3828_19213)"/>
<path d="M38.0473 41.8869C38.0473 41.4168 37.9147 41.0435 37.6507 40.7657C37.3868 40.4879 36.9379 40.2315 36.3042 39.9965C35.6704 39.7614 35.1247 39.5289 34.6656 39.2964C34.2065 39.0638 33.8125 38.7986 33.4848 38.497C33.1558 38.1965 32.9008 37.8421 32.7185 37.4361C32.5348 37.0301 32.4443 36.5462 32.4443 35.9843C32.4443 35.0165 32.758 34.2234 33.3854 33.605C34.0127 32.9865 34.8467 32.6258 35.8872 32.5227V30.6838H37.2822V32.5479C38.31 32.6912 39.1159 33.1135 39.696 33.8149C40.2775 34.5162 40.5682 35.4263 40.5682 36.5424H38.0498C38.0498 35.8549 37.9057 35.3408 37.6188 35.0002C37.3307 34.6595 36.9468 34.4886 36.4636 34.4886C35.9803 34.4886 35.6181 34.6218 35.3567 34.8883C35.0953 35.1548 34.964 35.523 34.964 35.9919C34.964 36.4268 35.0915 36.7762 35.3478 37.0402C35.6028 37.3041 36.0785 37.5731 36.7721 37.8471C37.4658 38.1224 38.0371 38.3813 38.4847 38.6252C38.9322 38.869 39.3097 39.143 39.6183 39.4497C39.9256 39.7564 40.1615 40.1058 40.3247 40.498C40.4866 40.8902 40.5682 41.3477 40.5682 41.8681C40.5682 42.8422 40.2597 43.6328 39.6438 44.2386C39.0279 44.8457 38.1799 45.204 37.0986 45.3121V47.0215H35.7125V45.3209C34.5215 45.1952 33.5996 44.7779 32.9454 44.0702C32.2913 43.3626 31.9648 42.4224 31.9648 41.2484H34.4833C34.4833 41.9296 34.6477 42.4525 34.9755 42.8158C35.3032 43.179 35.7763 43.3613 36.3921 43.3613C36.9035 43.3613 37.3077 43.2281 37.6035 42.9616C37.8994 42.6951 38.0486 42.3356 38.0486 41.8831L38.0473 41.8869Z" fill="white"/>
</g>
<defs>
<filter id="filter0_d_3828_19213" x="0.5" y="0" width="79.5" height="74.3499" filterUnits="userSpaceOnUse" color-interpolation-filters="sRGB">
<feFlood flood-opacity="0" result="BackgroundImageFix"/>
<feColorMatrix in="SourceAlpha" type="matrix" values="0 0 0 0 0 0 0 0 0 0 0 0 0 0 0 0 0 0 127 0" result="hardAlpha"/>
<feOffset dx="4" dy="5"/>
<feGaussianBlur stdDeviation="7"/>
<feComposite in2="hardAlpha" operator="out"/>
<feColorMatrix type="matrix" values="0 0 0 0 0.00454861 0 0 0 0 0.545833 0 0 0 0 0.356754 0 0 0 0.29 0"/>
<feBlend mode="normal" in2="BackgroundImageFix" result="effect1_dropShadow_3828_19213"/>
<feBlend mode="normal" in="SourceGraphic" in2="effect1_dropShadow_3828_19213" result="shape"/>
</filter>
<linearGradient id="paint0_linear_3828_19213" x1="36.25" y1="9" x2="36.25" y2="35.9091" gradientUnits="userSpaceOnUse">
<stop stop-color="#07B89C"/>
<stop offset="1" stop-color="#8FF9AA"/>
</linearGradient>
<linearGradient id="paint1_linear_3828_19213" x1="36.2495" y1="32.1756" x2="36.2495" y2="55.3511" gradientUnits="userSpaceOnUse">
<stop stop-color="#07B89C"/>
<stop offset="1" stop-color="#93FAAB"/>
</linearGradient>
</defs>
</svg>
