<svg width="45" height="45" viewBox="0 0 45 45" fill="none" xmlns="http://www.w3.org/2000/svg">
<path d="M20.0302 1.42593C21.5585 0.543559 23.4415 0.54356 24.9698 1.42593L39.5158 9.82407C41.0441 10.7064 41.9856 12.3371 41.9856 14.1019V30.8981C41.9856 32.6629 41.0441 34.2936 39.5158 35.1759L24.9698 43.5741C23.4415 44.4564 21.5585 44.4564 20.0302 43.5741L5.48421 35.1759C3.9559 34.2936 3.01443 32.6629 3.01443 30.8981V14.1019C3.01443 12.3371 3.9559 10.7064 5.48421 9.82407L20.0302 1.42593Z" fill="#FFF7F1"/>
<g filter="url(#filter0_d_396_19206)">
<path d="M19.6642 26.1027C19.6552 27.4618 20.0322 28.7955 20.7513 29.9488H16.5053C16.2822 29.9515 16.0607 29.91 15.8537 29.8268C15.6467 29.7437 15.4582 29.6203 15.299 29.464C15.1398 29.3077 15.0131 29.1214 14.9262 28.916C14.8393 28.7105 14.7938 28.4898 14.7925 28.2667V22.3181C14.6775 22.3126 14.5637 22.2919 14.454 22.2566C14.2545 22.1938 14.0726 22.085 13.9229 21.9389C13.7733 21.7928 13.6601 21.6135 13.5925 21.4156L13.0694 19.7336C12.9838 19.4809 12.9772 19.2081 13.0505 18.9516C13.1238 18.6951 13.2735 18.467 13.4797 18.2977L21.1616 12.2978C21.3904 12.1156 21.6742 12.0164 21.9667 12.0164C22.2592 12.0164 22.543 12.1156 22.7718 12.2978L23.941 13.2106C23.9464 12.8895 24.077 12.5833 24.305 12.3572C24.533 12.1311 24.8404 12.003 25.1615 12.0004H27.8999C28.0628 11.9963 28.2248 12.0248 28.3764 12.0843C28.5281 12.1438 28.6663 12.2331 28.7829 12.3468C28.8995 12.4605 28.9922 12.5965 29.0554 12.7466C29.1187 12.8967 29.1512 13.058 29.1512 13.2209V17.2618L30.505 18.2874C30.7052 18.4452 30.8519 18.6607 30.9253 18.9048C30.9987 19.1488 30.9952 19.4095 30.9152 19.6515C29.775 18.9699 28.4693 18.6151 27.141 18.6259C26.158 18.6218 25.1839 18.8124 24.2749 19.1867C23.3659 19.561 22.5401 20.1116 21.845 20.8067C21.1499 21.5018 20.5993 22.3277 20.225 23.2366C19.8507 24.1456 19.6601 25.1197 19.6642 26.1027ZM32.9973 26.1027C32.9973 27.2691 32.6514 28.4092 32.0034 29.3791C31.3554 30.3489 30.4343 31.1047 29.3567 31.5511C28.2791 31.9974 27.0934 32.1142 25.9494 31.8867C24.8055 31.6591 23.7547 31.0975 22.9299 30.2727C22.1051 29.448 21.5435 28.3972 21.3159 27.2532C21.0884 26.1092 21.2052 24.9235 21.6515 23.8459C22.0979 22.7683 22.8537 21.8472 23.8236 21.1992C24.7934 20.5512 25.9336 20.2054 27.0999 20.2054C28.6632 20.2081 30.1616 20.8303 31.267 21.9356C32.3724 23.041 32.9945 24.5394 32.9973 26.1027Z" fill="url(#paint0_linear_396_19206)"/>
<path d="M29.1513 25.0774L26.1458 27.6414L25.0488 26.6439" fill="url(#paint1_linear_396_19206)"/>
<path d="M29.1513 25.0774L26.1458 27.6414L25.0488 26.6439" stroke="white" stroke-linecap="round" stroke-linejoin="round"/>
</g>
<defs>
<filter id="filter0_d_396_19206" x="4" y="7" width="37.9971" height="38" filterUnits="userSpaceOnUse" color-interpolation-filters="sRGB">
<feFlood flood-opacity="0" result="BackgroundImageFix"/>
<feColorMatrix in="SourceAlpha" type="matrix" values="0 0 0 0 0 0 0 0 0 0 0 0 0 0 0 0 0 0 127 0" result="hardAlpha"/>
<feOffset dy="4"/>
<feGaussianBlur stdDeviation="4.5"/>
<feComposite in2="hardAlpha" operator="out"/>
<feColorMatrix type="matrix" values="0 0 0 0 0.937255 0 0 0 0 0.388235 0 0 0 0 0.0941176 0 0 0 0.31 0"/>
<feBlend mode="normal" in2="BackgroundImageFix" result="effect1_dropShadow_396_19206"/>
<feBlend mode="normal" in="SourceGraphic" in2="effect1_dropShadow_396_19206" result="shape"/>
</filter>
<linearGradient id="paint0_linear_396_19206" x1="16.2591" y1="30.4" x2="31.5306" y2="15.1285" gradientUnits="userSpaceOnUse">
<stop stop-color="#F48F29"/>
<stop offset="1" stop-color="#E93103"/>
</linearGradient>
<linearGradient id="paint1_linear_396_19206" x1="25.7174" y1="27.4363" x2="27.4772" y2="24.6203" gradientUnits="userSpaceOnUse">
<stop stop-color="#F48F29"/>
<stop offset="1" stop-color="#E93103"/>
</linearGradient>
</defs>
</svg>
