<svg width="34" height="34" viewBox="0 0 34 34" fill="none" xmlns="http://www.w3.org/2000/svg">
<path d="M14 1.44338C15.547 0.550211 17.453 0.550212 19 1.44338L28.2894 6.80662C29.8364 7.69979 30.7894 9.35042 30.7894 11.1368V21.8632C30.7894 23.6496 29.8364 25.3002 28.2894 26.1934L19 31.5566C17.453 32.4498 15.547 32.4498 14 31.5566L4.71058 26.1934C3.16357 25.3002 2.21058 23.6496 2.21058 21.8632V11.1368C2.21058 9.35042 3.16358 7.69979 4.71058 6.80662L14 1.44338Z" fill="#4FDAA4" fill-opacity="0.13"/>
<g filter="url(#filter0_d_5117_13927)">
<path d="M10.8547 24.0001C10.0766 24.0001 9.44336 23.3525 9.44336 22.5567V14.1037C9.44336 13.9661 9.50122 13.8348 9.6019 13.7433L16.1881 7.77702C16.277 7.69619 16.3885 7.65625 16.5 7.65625C16.6115 7.65625 16.723 7.69667 16.8119 7.77702L23.3981 13.7433C23.4987 13.8348 23.5566 13.9656 23.5566 14.1037V22.5567C23.5566 23.3525 22.9234 24.0001 22.1453 24.0001H10.8547Z" fill="white"/>
<path d="M25.0351 16.8694H25.0127C24.7784 16.8694 24.5519 16.782 24.3759 16.6232L16.4887 9.50786L8.60153 16.6232C8.42553 16.782 8.19902 16.8694 7.9647 16.8694C7.08366 16.8694 6.66553 15.7592 7.3185 15.1546L15.843 7.25503C16.2096 6.91517 16.7678 6.91517 17.1349 7.25397L25.6808 15.1535C26.3348 15.7581 25.9167 16.8694 25.0351 16.8694Z" fill="url(#paint0_linear_5117_13927)"/>
<path d="M16.5016 22.0983C18.8399 22.0983 20.7355 20.1595 20.7355 17.7679C20.7355 15.3763 18.8399 13.4375 16.5016 13.4375C14.1632 13.4375 12.2676 15.3763 12.2676 17.7679C12.2676 20.1595 14.1632 22.0983 16.5016 22.0983Z" fill="url(#paint1_linear_5117_13927)"/>
<path d="M17.1561 18.9287C17.1561 18.7487 17.1072 18.6058 17.0098 18.4995C16.9124 18.3931 16.7468 18.295 16.513 18.205C16.2792 18.115 16.0779 18.026 15.9085 17.937C15.7391 17.848 15.5938 17.7465 15.4729 17.631C15.3515 17.516 15.2574 17.3803 15.1901 17.2249C15.1224 17.0695 15.089 16.8842 15.089 16.6692C15.089 16.2987 15.2047 15.9951 15.4362 15.7583C15.6676 15.5216 15.9753 15.3835 16.3592 15.3441V14.6401H16.8739V15.3537C17.253 15.4085 17.5503 15.5702 17.7644 15.8387C17.9789 16.1072 18.0862 16.4555 18.0862 16.8828H17.1571C17.1571 16.6196 17.1039 16.4228 16.998 16.2924C16.8917 16.162 16.7501 16.0966 16.5718 16.0966C16.3935 16.0966 16.2599 16.1476 16.1635 16.2496C16.067 16.3516 16.0186 16.4926 16.0186 16.6721C16.0186 16.8385 16.0656 16.9723 16.1602 17.0733C16.2543 17.1744 16.4298 17.2773 16.6857 17.3822C16.9416 17.4876 17.1524 17.5867 17.3175 17.6801C17.4826 17.7734 17.6219 17.8783 17.7357 17.9957C17.8491 18.1131 17.9361 18.2469 17.9963 18.397C18.0561 18.5471 18.0862 18.7223 18.0862 18.9215C18.0862 19.2943 17.9723 19.597 17.7451 19.8289C17.5179 20.0613 17.205 20.1984 16.8061 20.2398V20.8942H16.2947V20.2432C15.8553 20.1951 15.5152 20.0353 15.2739 19.7644C15.0325 19.4935 14.9121 19.1336 14.9121 18.6842H15.8412C15.8412 18.945 15.9019 19.1452 16.0228 19.2842C16.1437 19.4233 16.3183 19.4931 16.5455 19.4931C16.7341 19.4931 16.8833 19.4421 16.9924 19.3401C17.1015 19.2381 17.1566 19.1004 17.1566 18.9272L17.1561 18.9287Z" fill="white"/>
</g>
<defs>
<filter id="filter0_d_5117_13927" x="3" y="5" width="31" height="29" filterUnits="userSpaceOnUse" color-interpolation-filters="sRGB">
<feFlood flood-opacity="0" result="BackgroundImageFix"/>
<feColorMatrix in="SourceAlpha" type="matrix" values="0 0 0 0 0 0 0 0 0 0 0 0 0 0 0 0 0 0 127 0" result="hardAlpha"/>
<feOffset dx="2" dy="4"/>
<feGaussianBlur stdDeviation="3"/>
<feComposite in2="hardAlpha" operator="out"/>
<feColorMatrix type="matrix" values="0 0 0 0 0.00454861 0 0 0 0 0.545833 0 0 0 0 0.356754 0 0 0 0.36 0"/>
<feBlend mode="normal" in2="BackgroundImageFix" result="effect1_dropShadow_5117_13927"/>
<feBlend mode="normal" in="SourceGraphic" in2="effect1_dropShadow_5117_13927" result="shape"/>
</filter>
<linearGradient id="paint0_linear_5117_13927" x1="16.5" y1="7" x2="16" y2="19" gradientUnits="userSpaceOnUse">
<stop stop-color="#07B89C"/>
<stop offset="1" stop-color="#8FF9AA"/>
</linearGradient>
<linearGradient id="paint1_linear_5117_13927" x1="16.5016" y1="13.4375" x2="16.5016" y2="29.5" gradientUnits="userSpaceOnUse">
<stop stop-color="#07B89C"/>
<stop offset="1" stop-color="#93FAAB"/>
</linearGradient>
</defs>
</svg>
