<svg width="44" height="45" viewBox="0 0 44 45" fill="none" xmlns="http://www.w3.org/2000/svg">
<path d="M19.5001 1.94337C21.0471 1.05021 22.9531 1.05021 24.5001 1.94337L38.5527 10.0566C40.0997 10.9498 41.0527 12.6004 41.0527 14.3868V30.6132C41.0527 32.3996 40.0997 34.0502 38.5527 34.9434L24.5001 43.0566C22.9531 43.9498 21.0471 43.9498 19.5001 43.0566L5.44745 34.9434C3.90045 34.0502 2.94745 32.3996 2.94745 30.6132V14.3868C2.94745 12.6004 3.90045 10.9498 5.44746 10.0566L19.5001 1.94337Z" fill="#73EBA7" fill-opacity="0.18"/>
<g filter="url(#filter0_d_5101_1341)">
<path d="M15.4662 31.4996C14.5652 31.4996 13.832 30.7376 13.832 29.8014V19.8568C13.832 19.6949 13.899 19.5403 14.0156 19.4328L21.6417 12.4136C21.7447 12.3185 21.8738 12.2715 22.0029 12.2715C22.132 12.2715 22.2611 12.319 22.364 12.4136L29.9901 19.4328C30.1067 19.5403 30.1737 19.6943 30.1737 19.8568V29.8014C30.1737 30.7376 29.4405 31.4996 28.5395 31.4996H15.4662Z" fill="white"/>
<path d="M31.8828 23.111H31.8568C31.5855 23.111 31.3232 23.0082 31.1194 22.8215L21.9869 14.4504L12.8544 22.8215C12.6506 23.0082 12.3883 23.111 12.117 23.111C11.0969 23.111 10.6127 21.8049 11.3688 21.0936L21.2393 11.8C21.6638 11.4002 22.3101 11.4002 22.7352 11.7988L32.6304 21.0924C33.3877 21.8037 32.9035 23.111 31.8828 23.111Z" fill="url(#paint0_linear_5101_1341)"/>
<path d="M22 29.5C24.7614 29.5 27 27.2614 27 24.5C27 21.7386 24.7614 19.5 22 19.5C19.2386 19.5 17 21.7386 17 24.5C17 27.2614 19.2386 29.5 22 29.5Z" fill="url(#paint1_linear_5101_1341)"/>
<path d="M22.7624 25.69C22.7624 25.4871 22.7057 25.3261 22.593 25.2062C22.4802 25.0863 22.2885 24.9757 22.0178 24.8743C21.747 24.7729 21.5139 24.6725 21.3178 24.5722C21.1217 24.4718 20.9534 24.3574 20.8134 24.2272C20.6728 24.0976 20.5639 23.9447 20.486 23.7695C20.4076 23.5943 20.3689 23.3855 20.3689 23.1431C20.3689 22.7255 20.5029 22.3832 20.7709 22.1164C21.0389 21.8496 21.3951 21.6939 21.8396 21.6494V20.856H22.4356V21.6603C22.8746 21.7221 23.2189 21.9043 23.4667 22.207C23.7151 22.5096 23.8393 22.9023 23.8393 23.3839H22.7635C22.7635 23.0872 22.7019 22.8654 22.5794 22.7184C22.4563 22.5714 22.2923 22.4977 22.0858 22.4977C21.8794 22.4977 21.7247 22.5552 21.613 22.6701C21.5014 22.7851 21.4452 22.944 21.4452 23.1463C21.4452 23.334 21.4997 23.4848 21.6092 23.5987C21.7182 23.7125 21.9213 23.8286 22.2177 23.9468C22.514 24.0656 22.758 24.1773 22.9492 24.2826C23.1404 24.3878 23.3017 24.506 23.4335 24.6383C23.5648 24.7707 23.6655 24.9215 23.7353 25.0907C23.8044 25.2599 23.8393 25.4573 23.8393 25.6818C23.8393 26.1022 23.7075 26.4433 23.4444 26.7047C23.1813 26.9667 22.819 27.1213 22.3571 27.1679V27.9055H21.765V27.1717C21.2562 27.1175 20.8624 26.9374 20.583 26.632C20.3035 26.3267 20.1641 25.921 20.1641 25.4145H21.2399C21.2399 25.7084 21.3102 25.934 21.4502 26.0908C21.5901 26.2475 21.7922 26.3262 22.0553 26.3262C22.2738 26.3262 22.4464 26.2687 22.5728 26.1537C22.6992 26.0387 22.7629 25.8836 22.7629 25.6883L22.7624 25.69Z" fill="white"/>
</g>
<defs>
<filter id="filter0_d_5101_1341" x="7" y="9.5" width="34" height="31.9995" filterUnits="userSpaceOnUse" color-interpolation-filters="sRGB">
<feFlood flood-opacity="0" result="BackgroundImageFix"/>
<feColorMatrix in="SourceAlpha" type="matrix" values="0 0 0 0 0 0 0 0 0 0 0 0 0 0 0 0 0 0 127 0" result="hardAlpha"/>
<feOffset dx="2" dy="4"/>
<feGaussianBlur stdDeviation="3"/>
<feComposite in2="hardAlpha" operator="out"/>
<feColorMatrix type="matrix" values="0 0 0 0 0.00454861 0 0 0 0 0.545833 0 0 0 0 0.356754 0 0 0 0.36 0"/>
<feBlend mode="normal" in2="BackgroundImageFix" result="effect1_dropShadow_5101_1341"/>
<feBlend mode="normal" in="SourceGraphic" in2="effect1_dropShadow_5101_1341" result="shape"/>
</filter>
<linearGradient id="paint0_linear_5101_1341" x1="22" y1="11.5" x2="22" y2="23.111" gradientUnits="userSpaceOnUse">
<stop stop-color="#07B89C"/>
<stop offset="1" stop-color="#8FF9AA"/>
</linearGradient>
<linearGradient id="paint1_linear_5101_1341" x1="22" y1="21.5" x2="22" y2="37" gradientUnits="userSpaceOnUse">
<stop stop-color="#07B89C"/>
<stop offset="1" stop-color="#93FAAB"/>
</linearGradient>
</defs>
</svg>
