<svg width="40" height="40" viewBox="0 0 40 40" fill="none" xmlns="http://www.w3.org/2000/svg">
<path d="M17.5 1.44338C19.047 0.550211 20.953 0.550212 22.5 1.44338L34.8205 8.55662C36.3675 9.44979 37.3205 11.1004 37.3205 12.8868V27.1132C37.3205 28.8996 36.3675 30.5502 34.8205 31.4434L22.5 38.5566C20.953 39.4498 19.047 39.4498 17.5 38.5566L5.17949 31.4434C3.63249 30.5502 2.67949 28.8996 2.67949 27.1132V12.8868C2.67949 11.1004 3.63249 9.44979 5.17949 8.55662L17.5 1.44338Z" fill="#F5F7F9"/>
<g filter="url(#filter0_d_3415_13288)">
<path d="M14.8547 28.0001C14.0766 28.0001 13.4434 27.3525 13.4434 26.5567V18.1037C13.4434 17.9661 13.5012 17.8348 13.6019 17.7433L20.1881 11.777C20.277 11.6962 20.3885 11.6562 20.5 11.6562C20.6115 11.6562 20.723 11.6967 20.8119 11.777L27.3981 17.7433C27.4987 17.8348 27.5566 17.9656 27.5566 18.1037V26.5567C27.5566 27.3525 26.9234 28.0001 26.1453 28.0001H14.8547Z" fill="white"/>
<path d="M29.0351 20.8694H29.0127C28.7784 20.8694 28.5519 20.782 28.3759 20.6232L20.4887 13.5079L12.6015 20.6232C12.4255 20.782 12.199 20.8694 11.9647 20.8694C11.0837 20.8694 10.6655 19.7592 11.3185 19.1546L19.843 11.255C20.2096 10.9152 20.7678 10.9152 21.1349 11.254L29.6808 19.1535C30.3348 19.7581 29.9167 20.8694 29.0351 20.8694Z" fill="url(#paint0_linear_3415_13288)"/>
<path d="M20.5016 26.0983C22.8399 26.0983 24.7355 24.1595 24.7355 21.7679C24.7355 19.3763 22.8399 17.4375 20.5016 17.4375C18.1632 17.4375 16.2676 19.3763 16.2676 21.7679C16.2676 24.1595 18.1632 26.0983 20.5016 26.0983Z" fill="url(#paint1_linear_3415_13288)"/>
<path d="M21.1561 22.9287C21.1561 22.7487 21.1072 22.6058 21.0098 22.4995C20.9124 22.3931 20.7468 22.295 20.513 22.205C20.2792 22.115 20.0779 22.026 19.9085 21.937C19.7391 21.848 19.5938 21.7465 19.4729 21.631C19.3515 21.516 19.2574 21.3803 19.1901 21.2249C19.1224 21.0695 19.089 20.8842 19.089 20.6692C19.089 20.2987 19.2047 19.9951 19.4362 19.7583C19.6676 19.5216 19.9753 19.3835 20.3592 19.3441V18.6401H20.8739V19.3537C21.253 19.4085 21.5503 19.5702 21.7644 19.8387C21.9789 20.1072 22.0862 20.4555 22.0862 20.8828H21.1571C21.1571 20.6196 21.1039 20.4228 20.998 20.2924C20.8917 20.162 20.7501 20.0966 20.5718 20.0966C20.3935 20.0966 20.2599 20.1476 20.1635 20.2496C20.067 20.3516 20.0186 20.4926 20.0186 20.6721C20.0186 20.8385 20.0656 20.9723 20.1602 21.0733C20.2543 21.1744 20.4298 21.2773 20.6857 21.3822C20.9416 21.4876 21.1524 21.5867 21.3175 21.6801C21.4826 21.7734 21.6219 21.8783 21.7357 21.9957C21.8491 22.1131 21.9361 22.2469 21.9963 22.397C22.0561 22.5471 22.0862 22.7223 22.0862 22.9215C22.0862 23.2943 21.9723 23.597 21.7451 23.8289C21.5179 24.0613 21.205 24.1984 20.8061 24.2398V24.8942H20.2947V24.2432C19.8553 24.1951 19.5152 24.0353 19.2739 23.7644C19.0325 23.4935 18.9121 23.1336 18.9121 22.6842H19.8412C19.8412 22.945 19.9019 23.1452 20.0228 23.2842C20.1437 23.4233 20.3183 23.4931 20.5455 23.4931C20.7341 23.4931 20.8833 23.4421 20.9924 23.3401C21.1015 23.2381 21.1566 23.1004 21.1566 22.9272L21.1561 22.9287Z" fill="white"/>
</g>
<defs>
<filter id="filter0_d_3415_13288" x="7" y="9" width="31" height="29" filterUnits="userSpaceOnUse" color-interpolation-filters="sRGB">
<feFlood flood-opacity="0" result="BackgroundImageFix"/>
<feColorMatrix in="SourceAlpha" type="matrix" values="0 0 0 0 0 0 0 0 0 0 0 0 0 0 0 0 0 0 127 0" result="hardAlpha"/>
<feOffset dx="2" dy="4"/>
<feGaussianBlur stdDeviation="3"/>
<feComposite in2="hardAlpha" operator="out"/>
<feColorMatrix type="matrix" values="0 0 0 0 0.00454861 0 0 0 0 0.545833 0 0 0 0 0.356754 0 0 0 0.36 0"/>
<feBlend mode="normal" in2="BackgroundImageFix" result="effect1_dropShadow_3415_13288"/>
<feBlend mode="normal" in="SourceGraphic" in2="effect1_dropShadow_3415_13288" result="shape"/>
</filter>
<linearGradient id="paint0_linear_3415_13288" x1="20.5" y1="11" x2="20.5" y2="20.8694" gradientUnits="userSpaceOnUse">
<stop stop-color="#07B89C"/>
<stop offset="1" stop-color="#8FF9AA"/>
</linearGradient>
<linearGradient id="paint1_linear_3415_13288" x1="20.5016" y1="17.4375" x2="20.5016" y2="33.5" gradientUnits="userSpaceOnUse">
<stop stop-color="#07B89C"/>
<stop offset="1" stop-color="#93FAAB"/>
</linearGradient>
</defs>
</svg>
