<svg width="37" height="41" viewBox="0 0 37 41" fill="none" xmlns="http://www.w3.org/2000/svg">
<path d="M16.0303 1.92592C17.5586 1.04356 19.4415 1.04356 20.9698 1.92592L32.0518 8.32408C33.5801 9.20644 34.5216 10.8371 34.5216 12.6019V25.3981C34.5216 27.1629 33.5801 28.7936 32.0518 29.6759L20.9698 36.0741C19.4415 36.9564 17.5586 36.9564 16.0303 36.0741L4.94832 29.6759C3.42001 28.7936 2.47854 27.1629 2.47854 25.3981V12.6019C2.47854 10.8371 3.42001 9.20644 4.94832 8.32407L16.0303 1.92592Z" fill="#F5F7F9"/>
<g filter="url(#filter0_d_2001_2411)">
<path d="M15.6855 22.5941C15.6778 23.7536 15.9995 24.8914 16.613 25.8753H12.9905C12.8002 25.8776 12.6113 25.8423 12.4346 25.7713C12.258 25.7003 12.0972 25.5952 11.9614 25.4618C11.8256 25.3284 11.7175 25.1695 11.6433 24.9942C11.5691 24.8189 11.5304 24.6307 11.5292 24.4403V19.3653C11.4311 19.3606 11.334 19.3429 11.2405 19.3128C11.0703 19.2593 10.9151 19.1664 10.7874 19.0418C10.6597 18.9171 10.5631 18.7642 10.5055 18.5953L10.0592 17.1603C9.9862 16.9448 9.98057 16.7121 10.0431 16.4932C10.1056 16.2744 10.2333 16.0798 10.4092 15.9353L16.963 10.8166C17.1582 10.6611 17.4003 10.5765 17.6499 10.5765C17.8994 10.5765 18.1416 10.6611 18.3367 10.8166L19.3342 11.5953C19.3388 11.3214 19.4502 11.0601 19.6448 10.8672C19.8393 10.6743 20.1015 10.5651 20.3755 10.5628H22.7117C22.8507 10.5593 22.9889 10.5837 23.1183 10.6344C23.2477 10.6852 23.3656 10.7613 23.465 10.8584C23.5645 10.9554 23.6436 11.0714 23.6975 11.1995C23.7515 11.3275 23.7793 11.4651 23.7792 11.6041V15.0516L24.9342 15.9266C25.105 16.0612 25.2302 16.245 25.2928 16.4532C25.3555 16.6614 25.3525 16.8839 25.2842 17.0903C24.3115 16.5088 23.1975 16.2061 22.0642 16.2153C21.2256 16.2119 20.3946 16.3745 19.6191 16.6938C18.8436 17.0131 18.1391 17.4829 17.546 18.0759C16.953 18.6689 16.4833 19.3735 16.164 20.1489C15.8446 20.9244 15.682 21.7554 15.6855 22.5941ZM27.0605 22.5941C27.0605 23.5892 26.7654 24.5619 26.2126 25.3893C25.6597 26.2167 24.874 26.8615 23.9546 27.2423C23.0353 27.6232 22.0237 27.7228 21.0477 27.5287C20.0717 27.3345 19.1752 26.8553 18.4716 26.1517C17.768 25.4481 17.2888 24.5516 17.0947 23.5756C16.9005 22.5997 17.0002 21.588 17.381 20.6687C17.7618 19.7494 18.4066 18.9636 19.234 18.4107C20.0614 17.8579 21.0342 17.5628 22.0292 17.5628C23.3629 17.5651 24.6413 18.096 25.5843 19.039C26.5274 19.982 27.0582 21.2604 27.0605 22.5941Z" fill="url(#paint0_linear_2001_2411)"/>
<path d="M23.7793 21.7192L21.2152 23.9067L20.2793 23.0557" fill="url(#paint1_linear_2001_2411)"/>
<path d="M23.7793 21.7192L21.2152 23.9067L20.2793 23.0557" stroke="white" stroke-linecap="round" stroke-linejoin="round"/>
</g>
<defs>
<filter id="filter0_d_2001_2411" x="1" y="5.5625" width="35.0605" height="35.0627" filterUnits="userSpaceOnUse" color-interpolation-filters="sRGB">
<feFlood flood-opacity="0" result="BackgroundImageFix"/>
<feColorMatrix in="SourceAlpha" type="matrix" values="0 0 0 0 0 0 0 0 0 0 0 0 0 0 0 0 0 0 127 0" result="hardAlpha"/>
<feOffset dy="4"/>
<feGaussianBlur stdDeviation="4.5"/>
<feComposite in2="hardAlpha" operator="out"/>
<feColorMatrix type="matrix" values="0 0 0 0 0.937255 0 0 0 0 0.388235 0 0 0 0 0.0941176 0 0 0 0.31 0"/>
<feBlend mode="normal" in2="BackgroundImageFix" result="effect1_dropShadow_2001_2411"/>
<feBlend mode="normal" in="SourceGraphic" in2="effect1_dropShadow_2001_2411" result="shape"/>
</filter>
<linearGradient id="paint0_linear_2001_2411" x1="12.7805" y1="26.2603" x2="25.8092" y2="13.2316" gradientUnits="userSpaceOnUse">
<stop stop-color="#F48F29"/>
<stop offset="1" stop-color="#E93103"/>
</linearGradient>
<linearGradient id="paint1_linear_2001_2411" x1="20.8497" y1="23.7317" x2="22.351" y2="21.3293" gradientUnits="userSpaceOnUse">
<stop stop-color="#F48F29"/>
<stop offset="1" stop-color="#E93103"/>
</linearGradient>
</defs>
</svg>
