<svg width="48" height="57" viewBox="0 0 48 57" fill="none" xmlns="http://www.w3.org/2000/svg">
<g filter="url(#filter0_d_3829_19282)">
<path d="M6.5902 20.1133H11.0388V29.4697C11.0388 31.9709 13.054 34.0055 15.5308 34.0055H30.7264C33.2032 34.0055 35.2184 31.9709 35.2184 29.4697V20.1133H39.4068C39.7994 20.1133 40.145 19.8747 40.2874 19.5053C40.4296 19.1361 40.3348 18.7243 40.0454 18.4563L23.5452 3.17666C23.292 2.94212 22.9032 2.94098 22.6484 3.17406L5.95582 18.4525C5.66404 18.7195 5.56716 19.1317 5.70882 19.5027C5.85048 19.8737 6.1964 20.1133 6.5902 20.1133Z" fill="white"/>
<path d="M4.5 21L21.5769 4.42569C22.3593 3.63545 23.6363 3.63545 24.4189 4.42569L41 20.5" stroke="url(#paint0_linear_3829_19282)" stroke-width="2.5" stroke-linecap="round"/>
<path d="M41.2274 29.973C40.1652 29.67 39.095 30.076 38.5012 31.0076C38.382 31.1948 38.2948 31.3658 38.235 31.5298C37.7948 32.7354 37.0548 34.7264 36.5496 36.0834C36.016 35.5818 35.2714 35.3672 34.5166 35.5394C33.8656 35.6878 33.4322 35.9868 33.352 36.0452C33.3484 36.0476 33.3452 36.0502 33.3418 36.0528C33.3382 36.0556 33.3282 36.0632 33.3246 36.066C33.3208 36.069 33.317 36.072 33.3134 36.0752L31.072 37.9278C30.7976 38.1548 30.5022 38.3208 30.194 38.4218C28.5272 38.9672 27.0418 40.4588 26.7106 41.288C26.4402 41.9654 26.2418 44.69 26.1874 45.5092C26.184 45.5598 26.1868 45.6092 26.1942 45.6572C25.4342 45.91 24.8564 46.587 24.7566 47.4282L24.6972 47.9282C24.5586 49.0962 25.3866 50.16 26.5432 50.3L32.0674 50.9684C32.1512 50.9784 32.2364 50.9836 32.3204 50.9836C33.388 50.9836 34.289 50.1758 34.416 49.1042L34.4754 48.6042C34.5452 48.0156 34.3692 47.4534 34.0296 47.0226C36.0648 44.9716 39.1082 41.8842 39.6508 41.2146C40.5328 40.1268 42.9456 32.6876 42.9644 32.6202C42.9916 32.5242 43.0024 32.4178 42.9996 32.2746C42.9764 31.1768 42.2808 30.2734 41.2274 29.973ZM21.2436 47.428C21.1438 46.5868 20.566 45.91 19.806 45.657C19.8132 45.609 19.816 45.5596 19.8128 45.509C19.7584 44.69 19.5598 41.9652 19.2896 41.2878C18.9584 40.4586 17.473 38.967 15.8062 38.4216C15.498 38.3206 15.2026 38.1546 14.9282 37.9276L12.6868 36.075C12.683 36.072 12.673 36.0642 12.6692 36.061C12.6622 36.0554 12.655 36.05 12.6478 36.0448C12.5674 35.9864 12.1336 35.6876 11.4834 35.5392C10.7288 35.367 9.98399 35.5816 9.45039 36.0832C8.94519 34.7264 8.20539 32.7354 7.76499 31.53C7.70519 31.3658 7.61819 31.1948 7.49879 31.0074C6.90499 30.076 5.83485 29.67 4.77261 29.9728C3.71911 30.2732 3.02358 31.1768 3.00048 32.2746C2.99752 32.417 3.00826 32.5232 3.03518 32.6186C3.05456 32.6876 5.46825 40.1278 6.34919 41.2144C6.89119 41.883 9.93439 44.9706 11.9702 47.0218C11.9672 47.0252 11.964 47.0284 11.9612 47.032C11.6126 47.48 11.4576 48.0382 11.5248 48.604L11.584 49.104C11.7112 50.1754 12.612 50.9832 13.6796 50.9834C13.7636 50.9834 13.849 50.9782 13.9328 50.9682L19.4568 50.2996C20.6134 50.1598 21.4414 49.0958 21.3028 47.928L21.2436 47.428Z" fill="white"/>
<path d="M41.2274 29.973C40.1652 29.67 39.095 30.076 38.5012 31.0076C38.382 31.1948 38.2948 31.3658 38.235 31.5298C37.7948 32.7354 37.0548 34.7264 36.5496 36.0834C36.016 35.5818 35.2714 35.3672 34.5166 35.5394C33.8656 35.6878 33.4322 35.9868 33.352 36.0452L33.3418 36.0528C33.3382 36.0556 33.3282 36.0632 33.3246 36.066C33.3208 36.069 33.317 36.072 33.3134 36.0752L31.072 37.9278C30.7976 38.1548 30.5022 38.3208 30.194 38.4218C28.5272 38.9672 27.0418 40.4588 26.7106 41.288C26.4402 41.9654 26.2418 44.69 26.1874 45.5092C26.184 45.5598 26.1868 45.6092 26.1942 45.6572C25.4342 45.91 24.8564 46.587 24.7566 47.4282L24.6972 47.9282C24.5586 49.0962 25.3866 50.16 26.5432 50.3L32.0674 50.9684C32.1512 50.9784 32.2364 50.9836 32.3204 50.9836C33.388 50.9836 34.289 50.1758 34.416 49.1042L34.4754 48.6042C34.5452 48.0156 34.3692 47.4534 34.0296 47.0226C36.0648 44.9716 39.1082 41.8842 39.6508 41.2146C40.5328 40.1268 42.9456 32.6876 42.9644 32.6202C42.9916 32.5242 43.0024 32.4178 42.9996 32.2746C42.9764 31.1768 42.2808 30.2734 41.2274 29.973ZM33.1538 48.444L33.0944 48.9442C33.0474 49.3406 32.7146 49.6394 32.3204 49.6394C32.289 49.6394 32.257 49.6376 32.2256 49.6338L26.7016 48.9652C26.2738 48.9136 25.9672 48.52 26.0186 48.088L26.078 47.5878C26.125 47.1914 26.4578 46.8926 26.852 46.8926C26.8834 46.8926 26.9154 46.8946 26.9468 46.8984L32.4708 47.5668C32.8988 47.6184 33.205 48.012 33.1538 48.444ZM38.6206 40.3632C38.2374 40.8362 36.0982 43.0412 32.8822 46.2794C32.7998 46.259 32.7154 46.2428 32.6292 46.2324L27.5136 45.6134C27.514 45.6086 27.515 45.604 27.5152 45.599C27.6198 44.0252 27.8138 42.1218 27.945 41.7904C28.089 41.4298 29.227 40.1508 30.6044 39.7002C31.0708 39.5474 31.5118 39.301 31.9148 38.9678L34.1392 37.1292C34.19 37.095 34.442 36.9344 34.8096 36.8504C35.3354 36.731 35.6942 37.0318 35.855 37.3532C35.9156 37.4746 35.9572 37.6164 35.9652 37.7656C35.965 37.782 35.965 37.7986 35.966 37.815C35.9666 38.0564 35.876 38.3128 35.6292 38.528C34.2162 39.7616 32.5586 41.1662 32.542 41.1802C32.2604 41.4186 32.2236 41.8426 32.4598 42.1268C32.696 42.4112 33.1158 42.4482 33.3974 42.2098C33.414 42.1958 35.079 40.785 36.4998 39.5446C36.9978 39.1098 37.2708 38.5162 37.295 37.8984C37.5448 37.229 38.8364 33.7672 39.4836 31.9946C39.5012 31.9464 39.5392 31.8622 39.6204 31.7348C39.9478 31.221 40.478 31.1562 40.8654 31.2664C41.2454 31.3748 41.656 31.704 41.6686 32.3028C41.3838 33.2594 39.1984 39.6508 38.6206 40.3632ZM21.2436 47.428C21.1438 46.5868 20.566 45.91 19.806 45.657C19.8132 45.609 19.816 45.5596 19.8128 45.509C19.7584 44.69 19.5598 41.9652 19.2896 41.2878C18.9584 40.4586 17.473 38.967 15.8062 38.4216C15.498 38.3206 15.2026 38.1546 14.9282 37.9276L12.6868 36.075C12.683 36.072 12.673 36.0642 12.6692 36.061C12.6622 36.0554 12.655 36.05 12.6478 36.0448C12.5674 35.9864 12.1336 35.6876 11.4834 35.5392C10.7288 35.367 9.98399 35.5816 9.45039 36.0832C8.94519 34.7264 8.20539 32.7354 7.76499 31.53C7.70519 31.3658 7.61819 31.1948 7.49879 31.0074C6.90499 30.076 5.83485 29.67 4.77261 29.9728C3.71911 30.2732 3.02358 31.1768 3.00048 32.2746C2.99752 32.417 3.00826 32.5232 3.03518 32.6186C3.05456 32.6876 5.46825 40.1278 6.34919 41.2144C6.89119 41.883 9.93439 44.9706 11.9702 47.0218C11.9672 47.0252 11.964 47.0284 11.9612 47.032C11.6126 47.48 11.4576 48.0382 11.5248 48.604L11.584 49.104C11.7112 50.1754 12.612 50.9832 13.6796 50.9834C13.7636 50.9834 13.849 50.9782 13.9328 50.9682L19.4568 50.2996C20.6134 50.1598 21.4414 49.0958 21.3028 47.928L21.2436 47.428ZM7.37919 40.363C6.80239 39.6518 4.61697 33.264 4.33119 32.305C4.34373 31.706 4.75435 31.3746 5.13435 31.2664C5.52159 31.1558 6.05199 31.2208 6.37939 31.7346C6.46059 31.8622 6.49839 31.9462 6.51619 31.9948C7.16339 33.767 8.45479 37.2284 8.70479 37.8982C8.72879 38.5162 9.00179 39.1098 9.49999 39.5446C10.9206 40.785 12.5858 42.1956 12.6024 42.2098C12.8838 42.4482 13.3036 42.4112 13.54 42.1268C13.7762 41.8426 13.7394 41.4186 13.4578 41.1802C13.4412 41.1662 11.7836 39.7616 10.3704 38.528C10.124 38.3128 10.0334 38.0568 10.0338 37.8154C10.0348 37.7988 10.035 37.782 10.0348 37.7652C10.0428 37.6164 10.0844 37.4744 10.145 37.3534C10.3058 37.0316 10.6646 36.731 11.1902 36.8506C11.5572 36.9342 11.8088 37.0944 11.8604 37.1292L14.085 38.968C14.4882 39.3012 14.9292 39.5476 15.3956 39.7002C16.7728 40.151 17.9108 41.43 18.055 41.7906C18.186 42.1216 18.38 44.0252 18.4846 45.5992C18.4848 45.604 18.4858 45.6086 18.4862 45.6136L13.3706 46.2324C13.2848 46.2428 13.201 46.26 13.1184 46.2804C9.90139 43.041 7.76219 40.8354 7.37919 40.363ZM19.8198 48.6694C19.6908 48.8352 19.5058 48.9402 19.2984 48.9654L13.7744 49.6338C13.7428 49.6376 13.711 49.6396 13.6798 49.6396C13.2856 49.6396 12.9526 49.3406 12.9056 48.9442L12.8462 48.4442C12.8214 48.2348 12.8788 48.0284 13.0078 47.8626C13.1366 47.697 13.3218 47.592 13.5292 47.5668L19.053 46.8984C19.0846 46.8946 19.1166 46.8928 19.1478 46.8928C19.5422 46.8928 19.8748 47.1916 19.922 47.588L19.9812 48.088C20.0062 48.2972 19.9488 48.5038 19.8198 48.6694Z" fill="url(#paint1_linear_3829_19282)"/>
<path d="M23.0006 26.9922C26.2822 26.9922 28.9426 24.306 28.9426 20.9922C28.9426 17.6784 26.2822 14.9922 23.0006 14.9922C19.719 14.9922 17.0586 17.6784 17.0586 20.9922C17.0586 24.306 19.719 26.9922 23.0006 26.9922Z" fill="url(#paint2_linear_3829_19282)"/>
<path d="M26.5 19.5L21.8104 23.391L19.4336 21.1" stroke="white" stroke-linecap="round" stroke-linejoin="round"/>
</g>
<defs>
<filter id="filter0_d_3829_19282" x="0" y="0.583008" width="48" height="56.4005" filterUnits="userSpaceOnUse" color-interpolation-filters="sRGB">
<feFlood flood-opacity="0" result="BackgroundImageFix"/>
<feColorMatrix in="SourceAlpha" type="matrix" values="0 0 0 0 0 0 0 0 0 0 0 0 0 0 0 0 0 0 127 0" result="hardAlpha"/>
<feOffset dx="1" dy="2"/>
<feGaussianBlur stdDeviation="2"/>
<feComposite in2="hardAlpha" operator="out"/>
<feColorMatrix type="matrix" values="0 0 0 0 0.231373 0 0 0 0 0.564706 0 0 0 0 0.741176 0 0 0 0.26 0"/>
<feBlend mode="normal" in2="BackgroundImageFix" result="effect1_dropShadow_3829_19282"/>
<feBlend mode="normal" in="SourceGraphic" in2="effect1_dropShadow_3829_19282" result="shape"/>
</filter>
<linearGradient id="paint0_linear_3829_19282" x1="23.0023" y1="-0.00924905" x2="23.0023" y2="33.9907" gradientUnits="userSpaceOnUse">
<stop stop-color="#2BE8F5"/>
<stop offset="1" stop-color="#1064E8"/>
</linearGradient>
<linearGradient id="paint1_linear_3829_19282" x1="8.13639" y1="16.2504" x2="38.1526" y2="45.9762" gradientUnits="userSpaceOnUse">
<stop stop-color="#2BE8F5"/>
<stop offset="1" stop-color="#006BE8"/>
</linearGradient>
<linearGradient id="paint2_linear_3829_19282" x1="18.5127" y1="14.7798" x2="30.846" y2="31.5979" gradientUnits="userSpaceOnUse">
<stop stop-color="#2BE8F5"/>
<stop offset="1" stop-color="#0768E8"/>
</linearGradient>
</defs>
</svg>
