<svg width="44" height="44" viewBox="0 0 44 44" fill="none" xmlns="http://www.w3.org/2000/svg">
<path d="M19.5001 1.44337C21.0471 0.550208 22.9531 0.550209 24.5001 1.44337L38.5527 9.55663C40.0997 10.4498 41.0527 12.1004 41.0527 13.8868V30.1132C41.0527 31.8996 40.0997 33.5502 38.5527 34.4434L24.5001 42.5566C22.9531 43.4498 21.0471 43.4498 19.5001 42.5566L5.44745 34.4434C3.90045 33.5502 2.94745 31.8996 2.94745 30.1132V13.8868C2.94745 12.1004 3.90045 10.4498 5.44746 9.55663L19.5001 1.44337Z" fill="#E4F5FF"/>
<g filter="url(#filter0_d_29_13367)">
<path d="M14.615 18.701H16.6169V22.9113C16.6169 24.0369 17.5237 24.9525 18.6383 24.9525H25.4763C26.5908 24.9525 27.4977 24.0369 27.4977 22.9113V18.701H29.3825C29.5591 18.701 29.7146 18.5936 29.7787 18.4274C29.8427 18.2612 29.8001 18.0759 29.6698 17.9553L22.2447 11.0795C22.1308 10.974 21.9558 10.9734 21.8412 11.0783L14.3295 17.9536C14.1982 18.0738 14.1546 18.2593 14.2184 18.4262C14.2821 18.5932 14.4378 18.701 14.615 18.701Z" fill="white"/>
<path d="M13.9766 19.0957L21.3588 11.6415C21.7109 11.2859 22.2855 11.2859 22.6377 11.6415L30.02 19.0957" stroke="url(#paint0_linear_29_13367)" stroke-width="1.5" stroke-linecap="round"/>
<path d="M30.2023 23.1378C29.7243 23.0015 29.2427 23.1842 28.9755 23.6034C28.9219 23.6877 28.8826 23.7646 28.8557 23.8384C28.6576 24.3809 28.3246 25.2769 28.0973 25.8875C27.8572 25.6618 27.5221 25.5652 27.1824 25.6427C26.8895 25.7095 26.6945 25.8441 26.6584 25.8703C26.6568 25.8714 26.6553 25.8726 26.6538 25.8738C26.6522 25.875 26.6477 25.8784 26.646 25.8797C26.6443 25.881 26.6426 25.8824 26.641 25.8838L25.6324 26.7175C25.5089 26.8197 25.376 26.8944 25.2373 26.9398C24.4872 27.1852 23.8188 27.8565 23.6698 28.2296C23.5481 28.5344 23.4588 29.7605 23.4343 30.1291C23.4328 30.1519 23.434 30.1741 23.4374 30.1957C23.0954 30.3095 22.8354 30.6141 22.7905 30.9927L22.7637 31.2177C22.7014 31.7433 23.074 32.222 23.5944 32.285L26.0803 32.5858C26.118 32.5903 26.1564 32.5926 26.1942 32.5926C26.6746 32.5926 27.08 32.2291 27.1372 31.7469L27.1639 31.5219C27.1953 31.257 27.1161 31.004 26.9633 30.8102C27.8791 29.8872 29.2487 28.4979 29.4928 28.1966C29.8897 27.7071 30.9755 24.3594 30.984 24.3291C30.9962 24.2859 31.0011 24.238 30.9998 24.1736C30.9894 23.6796 30.6763 23.273 30.2023 23.1378ZM21.2096 30.9926C21.1647 30.614 20.9047 30.3095 20.5627 30.1956C20.5659 30.174 20.5672 30.1518 20.5657 30.129C20.5413 29.7605 20.4519 28.5343 20.3303 28.2295C20.1813 27.8564 19.5128 27.1851 18.7628 26.9397C18.6241 26.8943 18.4912 26.8196 18.3677 26.7174L17.3591 25.8837C17.3573 25.8824 17.3528 25.8789 17.3511 25.8774C17.348 25.8749 17.3447 25.8725 17.3415 25.8702C17.3053 25.8439 17.1101 25.7094 16.8175 25.6426C16.478 25.5651 16.1428 25.6617 15.9027 25.8874C15.6753 25.2769 15.3424 24.3809 15.1442 23.8385C15.1173 23.7646 15.0782 23.6877 15.0245 23.6033C14.7572 23.1842 14.2757 23.0015 13.7977 23.1378C13.3236 23.2729 13.0106 23.6796 13.0002 24.1736C12.9989 24.2376 13.0037 24.2854 13.0158 24.3284C13.0245 24.3594 14.1107 27.7075 14.5071 28.1965C14.751 28.4973 16.1205 29.8868 17.0366 30.8098C17.0352 30.8113 17.0338 30.8128 17.0325 30.8144C16.8757 31.016 16.8059 31.2672 16.8362 31.5218L16.8628 31.7468C16.92 32.2289 17.3254 32.5924 17.8058 32.5925C17.8436 32.5925 17.882 32.5902 17.9198 32.5857L20.4055 32.2848C20.926 32.2219 21.2986 31.7431 21.2362 31.2176L21.2096 30.9926Z" fill="white"/>
<path d="M30.2023 23.1378C29.7243 23.0015 29.2427 23.1842 28.9755 23.6034C28.9219 23.6877 28.8826 23.7646 28.8557 23.8384C28.6576 24.3809 28.3246 25.2769 28.0973 25.8875C27.8572 25.6618 27.5221 25.5652 27.1824 25.6427C26.8895 25.7095 26.6945 25.8441 26.6584 25.8703L26.6538 25.8738C26.6522 25.875 26.6477 25.8784 26.646 25.8797C26.6443 25.881 26.6426 25.8824 26.641 25.8838L25.6324 26.7175C25.5089 26.8197 25.376 26.8944 25.2373 26.9398C24.4872 27.1852 23.8188 27.8565 23.6698 28.2296C23.5481 28.5344 23.4588 29.7605 23.4343 30.1291C23.4328 30.1519 23.434 30.1741 23.4374 30.1957C23.0954 30.3095 22.8354 30.6141 22.7905 30.9927L22.7637 31.2177C22.7014 31.7433 23.074 32.222 23.5944 32.285L26.0803 32.5858C26.118 32.5903 26.1564 32.5926 26.1942 32.5926C26.6746 32.5926 27.08 32.2291 27.1372 31.7469L27.1639 31.5219C27.1953 31.257 27.1161 31.004 26.9633 30.8102C27.8791 29.8872 29.2487 28.4979 29.4928 28.1966C29.8897 27.7071 30.9755 24.3594 30.984 24.3291C30.9962 24.2859 31.0011 24.238 30.9998 24.1736C30.9894 23.6796 30.6763 23.273 30.2023 23.1378ZM26.5692 31.4498L26.5425 31.6749C26.5213 31.8533 26.3715 31.9877 26.1942 31.9877C26.18 31.9877 26.1656 31.9869 26.1515 31.9852L23.6657 31.6843C23.4732 31.6611 23.3352 31.484 23.3584 31.2896L23.3851 31.0645C23.4062 30.8861 23.556 30.7517 23.7334 30.7517C23.7475 30.7517 23.7619 30.7526 23.776 30.7543L26.2618 31.055C26.4544 31.0783 26.5922 31.2554 26.5692 31.4498ZM29.0292 27.8134C28.8568 28.0263 27.8942 29.0185 26.447 30.4757C26.4099 30.4665 26.3719 30.4592 26.3331 30.4546L24.0311 30.176C24.0313 30.1739 24.0317 30.1718 24.0318 30.1695C24.0789 29.4613 24.1662 28.6048 24.2252 28.4557C24.29 28.2934 24.8021 27.7179 25.422 27.5151C25.6318 27.4463 25.8303 27.3354 26.0116 27.1855L27.0126 26.3581C27.0355 26.3427 27.1489 26.2705 27.3143 26.2327C27.5509 26.1789 27.7124 26.3143 27.7847 26.4589C27.812 26.5136 27.8307 26.5774 27.8343 26.6445C27.8342 26.6519 27.8342 26.6594 27.8347 26.6667C27.8349 26.7754 27.7942 26.8908 27.6831 26.9876C27.0473 27.5427 26.3013 28.1748 26.2939 28.1811C26.1672 28.2884 26.1506 28.4792 26.2569 28.6071C26.3632 28.735 26.5521 28.7517 26.6788 28.6444C26.6863 28.6381 27.4355 28.0032 28.0749 27.4451C28.299 27.2494 28.4218 26.9823 28.4327 26.7043C28.5451 26.403 29.1264 24.8452 29.4176 24.0476C29.4255 24.0259 29.4426 23.988 29.4792 23.9307C29.6265 23.6994 29.8651 23.6703 30.0394 23.7199C30.2104 23.7687 30.3952 23.9168 30.4008 24.1863C30.2727 24.6167 29.2893 27.4929 29.0292 27.8134ZM21.2096 30.9926C21.1647 30.614 20.9047 30.3095 20.5627 30.1956C20.5659 30.174 20.5672 30.1518 20.5657 30.129C20.5413 29.7605 20.4519 28.5343 20.3303 28.2295C20.1813 27.8564 19.5128 27.1851 18.7628 26.9397C18.6241 26.8943 18.4912 26.8196 18.3677 26.7174L17.3591 25.8837C17.3573 25.8824 17.3528 25.8789 17.3511 25.8774C17.348 25.8749 17.3447 25.8725 17.3415 25.8702C17.3053 25.8439 17.1101 25.7094 16.8175 25.6426C16.478 25.5651 16.1428 25.6617 15.9027 25.8874C15.6753 25.2769 15.3424 24.3809 15.1442 23.8385C15.1173 23.7646 15.0782 23.6877 15.0245 23.6033C14.7572 23.1842 14.2757 23.0015 13.7977 23.1378C13.3236 23.2729 13.0106 23.6796 13.0002 24.1736C12.9989 24.2376 13.0037 24.2854 13.0158 24.3284C13.0245 24.3594 14.1107 27.7075 14.5071 28.1965C14.751 28.4973 16.1205 29.8868 17.0366 30.8098C17.0352 30.8113 17.0338 30.8128 17.0325 30.8144C16.8757 31.016 16.8059 31.2672 16.8362 31.5218L16.8628 31.7468C16.92 32.2289 17.3254 32.5924 17.8058 32.5925C17.8436 32.5925 17.882 32.5902 17.9198 32.5857L20.4055 32.2848C20.926 32.2219 21.2986 31.7431 21.2362 31.2176L21.2096 30.9926ZM14.9706 27.8133C14.7111 27.4933 13.7276 24.6188 13.599 24.1872C13.6047 23.9177 13.7895 23.7686 13.9605 23.7199C14.1347 23.6701 14.3734 23.6994 14.5207 23.9306C14.5573 23.988 14.5743 24.0258 14.5823 24.0477C14.8735 24.8451 15.4547 26.4028 15.5672 26.7042C15.578 26.9823 15.7008 27.2494 15.925 27.4451C16.5643 28.0032 17.3136 28.638 17.3211 28.6444C17.4477 28.7517 17.6366 28.735 17.743 28.6071C17.8493 28.4792 17.8327 28.2884 17.706 28.1811C17.6985 28.1748 16.9526 27.5427 16.3167 26.9876C16.2058 26.8908 16.165 26.7756 16.1652 26.6669C16.1657 26.6595 16.1657 26.6519 16.1657 26.6443C16.1693 26.5774 16.188 26.5135 16.2152 26.459C16.2876 26.3142 16.4491 26.1789 16.6856 26.2328C16.8507 26.2704 16.964 26.3425 16.9872 26.3581L17.9882 27.1856C18.1697 27.3355 18.3681 27.4464 18.578 27.5151C19.1977 27.7179 19.7098 28.2935 19.7747 28.4558C19.8337 28.6047 19.921 29.4613 19.9681 30.1696C19.9681 30.1718 19.9686 30.1739 19.9688 30.1761L17.6668 30.4546C17.6282 30.4592 17.5904 30.467 17.5533 30.4762C16.1056 29.0184 15.143 28.0259 14.9706 27.8133ZM20.5689 31.5512C20.5108 31.6258 20.4276 31.6731 20.3343 31.6844L17.8485 31.9852C17.8343 31.9869 17.8199 31.9878 17.8059 31.9878C17.6285 31.9878 17.4787 31.8533 17.4575 31.6749L17.4308 31.4499C17.4196 31.3556 17.4455 31.2628 17.5035 31.1882C17.5615 31.1136 17.6448 31.0664 17.7381 31.055L20.2238 30.7543C20.2381 30.7526 20.2525 30.7517 20.2665 30.7517C20.444 30.7517 20.5936 30.8862 20.6149 31.0646L20.6415 31.2896C20.6528 31.3837 20.6269 31.4767 20.5689 31.5512Z" fill="url(#paint1_linear_29_13367)"/>
<path d="M22.0001 21.7965C23.4768 21.7965 24.674 20.5877 24.674 19.0965C24.674 17.6053 23.4768 16.3965 22.0001 16.3965C20.5233 16.3965 19.3262 17.6053 19.3262 19.0965C19.3262 20.5877 20.5233 21.7965 22.0001 21.7965Z" fill="url(#paint2_linear_29_13367)"/>
<path d="M23.6032 18.5559L21.4641 20.1759L20.3945 19.145" stroke="white" stroke-width="0.7" stroke-linecap="round" stroke-linejoin="round"/>
</g>
<defs>
<filter id="filter0_d_29_13367" x="10" y="8.62476" width="26" height="29.9678" filterUnits="userSpaceOnUse" color-interpolation-filters="sRGB">
<feFlood flood-opacity="0" result="BackgroundImageFix"/>
<feColorMatrix in="SourceAlpha" type="matrix" values="0 0 0 0 0 0 0 0 0 0 0 0 0 0 0 0 0 0 127 0" result="hardAlpha"/>
<feOffset dx="1" dy="2"/>
<feGaussianBlur stdDeviation="2"/>
<feComposite in2="hardAlpha" operator="out"/>
<feColorMatrix type="matrix" values="0 0 0 0 0.121569 0 0 0 0 0.678431 0 0 0 0 0.937255 0 0 0 0.26 0"/>
<feBlend mode="normal" in2="BackgroundImageFix" result="effect1_dropShadow_29_13367"/>
<feBlend mode="normal" in="SourceGraphic" in2="effect1_dropShadow_29_13367" result="shape"/>
</filter>
<linearGradient id="paint0_linear_29_13367" x1="22.0002" y1="9.64574" x2="22.0002" y2="24.9457" gradientUnits="userSpaceOnUse">
<stop stop-color="#2BE8F5"/>
<stop offset="1" stop-color="#1064E8"/>
</linearGradient>
<linearGradient id="paint1_linear_29_13367" x1="15.3114" y1="16.9627" x2="28.8186" y2="30.3393" gradientUnits="userSpaceOnUse">
<stop stop-color="#2BE8F5"/>
<stop offset="1" stop-color="#006BE8"/>
</linearGradient>
<linearGradient id="paint2_linear_29_13367" x1="19.9805" y1="16.3009" x2="25.5305" y2="23.8691" gradientUnits="userSpaceOnUse">
<stop stop-color="#2BE8F5"/>
<stop offset="1" stop-color="#0768E8"/>
</linearGradient>
</defs>
</svg>
