<svg width="37" height="38" viewBox="0 0 37 38" fill="none" xmlns="http://www.w3.org/2000/svg">
<path d="M16.0303 1.92592C17.5586 1.04356 19.4415 1.04356 20.9698 1.92592L32.0518 8.32408C33.5801 9.20644 34.5216 10.8371 34.5216 12.6019V25.3981C34.5216 27.1629 33.5801 28.7936 32.0518 29.6759L20.9698 36.0741C19.4415 36.9564 17.5586 36.9564 16.0303 36.0741L4.94832 29.6759C3.42001 28.7936 2.47854 27.1629 2.47854 25.3981V12.6019C2.47854 10.8371 3.42001 9.20644 4.94832 8.32407L16.0303 1.92592Z" fill="#F5F7F9"/>
<g filter="url(#filter0_d_3829_22499)">
<path d="M11.615 16.201H13.6169V20.4113C13.6169 21.5369 14.5237 22.4525 15.6383 22.4525H22.4763C23.5908 22.4525 24.4977 21.5369 24.4977 20.4113V16.201H26.3825C26.5591 16.201 26.7146 16.0936 26.7787 15.9274C26.8427 15.7612 26.8001 15.5759 26.6698 15.4553L19.2447 8.5795C19.1308 8.47395 18.9558 8.47344 18.8412 8.57833L11.3295 15.4536C11.1982 15.5738 11.1546 15.7593 11.2184 15.9262C11.2821 16.0932 11.4378 16.201 11.615 16.201Z" fill="white"/>
<path d="M10.9766 16.596L18.3588 9.14171C18.7109 8.7861 19.2855 8.7861 19.6377 9.14171L27.02 16.596" stroke="url(#paint0_linear_3829_22499)" stroke-width="1.5" stroke-linecap="round"/>
<path d="M27.2023 20.6378C26.7243 20.5015 26.2427 20.6842 25.9755 21.1034C25.9219 21.1877 25.8826 21.2646 25.8557 21.3384C25.6576 21.8809 25.3246 22.7769 25.0973 23.3875C24.8572 23.1618 24.5221 23.0652 24.1824 23.1427C23.8895 23.2095 23.6945 23.3441 23.6584 23.3703C23.6568 23.3714 23.6553 23.3726 23.6538 23.3738C23.6522 23.375 23.6477 23.3784 23.646 23.3797C23.6443 23.381 23.6426 23.3824 23.641 23.3838L22.6324 24.2175C22.5089 24.3197 22.376 24.3944 22.2373 24.4398C21.4872 24.6852 20.8188 25.3565 20.6698 25.7296C20.5481 26.0344 20.4588 27.2605 20.4343 27.6291C20.4328 27.6519 20.434 27.6741 20.4374 27.6957C20.0954 27.8095 19.8354 28.1141 19.7905 28.4927L19.7637 28.7177C19.7014 29.2433 20.074 29.722 20.5944 29.785L23.0803 30.0858C23.118 30.0903 23.1564 30.0926 23.1942 30.0926C23.6746 30.0926 24.08 29.7291 24.1372 29.2469L24.1639 29.0219C24.1953 28.757 24.1161 28.504 23.9633 28.3102C24.8791 27.3872 26.2487 25.9979 26.4928 25.6966C26.8897 25.2071 27.9755 21.8594 27.984 21.8291C27.9962 21.7859 28.0011 21.738 27.9998 21.6736C27.9894 21.1796 27.6763 20.773 27.2023 20.6378ZM18.2096 28.4926C18.1647 28.114 17.9047 27.8095 17.5627 27.6956C17.5659 27.674 17.5672 27.6518 17.5657 27.629C17.5413 27.2605 17.4519 26.0343 17.3303 25.7295C17.1813 25.3564 16.5128 24.6851 15.7628 24.4397C15.6241 24.3943 15.4912 24.3196 15.3677 24.2174L14.3591 23.3837C14.3573 23.3824 14.3528 23.3789 14.3511 23.3774C14.348 23.3749 14.3447 23.3725 14.3415 23.3702C14.3053 23.3439 14.1101 23.2094 13.8175 23.1426C13.478 23.0651 13.1428 23.1617 12.9027 23.3874C12.6753 22.7769 12.3424 21.8809 12.1442 21.3385C12.1173 21.2646 12.0782 21.1877 12.0245 21.1033C11.7572 20.6842 11.2757 20.5015 10.7977 20.6378C10.3236 20.7729 10.0106 21.1796 10.0002 21.6736C9.99888 21.7376 10.0037 21.7854 10.0158 21.8284C10.0245 21.8594 11.1107 25.2075 11.5071 25.6965C11.751 25.9973 13.1205 27.3868 14.0366 28.3098C14.0352 28.3113 14.0338 28.3128 14.0325 28.3144C13.8757 28.516 13.8059 28.7672 13.8362 29.0218L13.8628 29.2468C13.92 29.7289 14.3254 30.0924 14.8058 30.0925C14.8436 30.0925 14.882 30.0902 14.9198 30.0857L17.4055 29.7848C17.926 29.7219 18.2986 29.2431 18.2362 28.7176L18.2096 28.4926Z" fill="white"/>
<path d="M27.2023 20.6378C26.7243 20.5015 26.2427 20.6842 25.9755 21.1034C25.9219 21.1877 25.8826 21.2646 25.8557 21.3384C25.6576 21.8809 25.3246 22.7769 25.0973 23.3875C24.8572 23.1618 24.5221 23.0652 24.1824 23.1427C23.8895 23.2095 23.6945 23.3441 23.6584 23.3703L23.6538 23.3738C23.6522 23.375 23.6477 23.3784 23.646 23.3797C23.6443 23.381 23.6426 23.3824 23.641 23.3838L22.6324 24.2175C22.5089 24.3197 22.376 24.3944 22.2373 24.4398C21.4872 24.6852 20.8188 25.3565 20.6698 25.7296C20.5481 26.0344 20.4588 27.2605 20.4343 27.6291C20.4328 27.6519 20.434 27.6741 20.4374 27.6957C20.0954 27.8095 19.8354 28.1141 19.7905 28.4927L19.7637 28.7177C19.7014 29.2433 20.074 29.722 20.5944 29.785L23.0803 30.0858C23.118 30.0903 23.1564 30.0926 23.1942 30.0926C23.6746 30.0926 24.08 29.7291 24.1372 29.2469L24.1639 29.0219C24.1953 28.757 24.1161 28.504 23.9633 28.3102C24.8791 27.3872 26.2487 25.9979 26.4928 25.6966C26.8897 25.2071 27.9755 21.8594 27.984 21.8291C27.9962 21.7859 28.0011 21.738 27.9998 21.6736C27.9894 21.1796 27.6763 20.773 27.2023 20.6378ZM23.5692 28.9498L23.5425 29.1749C23.5213 29.3533 23.3715 29.4877 23.1942 29.4877C23.18 29.4877 23.1656 29.4869 23.1515 29.4852L20.6657 29.1843C20.4732 29.1611 20.3352 28.984 20.3584 28.7896L20.3851 28.5645C20.4062 28.3861 20.556 28.2517 20.7334 28.2517C20.7475 28.2517 20.7619 28.2526 20.776 28.2543L23.2618 28.555C23.4544 28.5783 23.5922 28.7554 23.5692 28.9498ZM26.0292 25.3134C25.8568 25.5263 24.8942 26.5185 23.447 27.9757C23.4099 27.9665 23.3719 27.9592 23.3331 27.9546L21.0311 27.676C21.0313 27.6739 21.0317 27.6718 21.0318 27.6695C21.0789 26.9613 21.1662 26.1048 21.2252 25.9557C21.29 25.7934 21.8021 25.2179 22.422 25.0151C22.6318 24.9463 22.8303 24.8354 23.0116 24.6855L24.0126 23.8581C24.0355 23.8427 24.1489 23.7705 24.3143 23.7327C24.5509 23.6789 24.7124 23.8143 24.7847 23.9589C24.812 24.0136 24.8307 24.0774 24.8343 24.1445C24.8342 24.1519 24.8342 24.1594 24.8347 24.1667C24.8349 24.2754 24.7942 24.3908 24.6831 24.4876C24.0473 25.0427 23.3013 25.6748 23.2939 25.6811C23.1672 25.7884 23.1506 25.9792 23.2569 26.1071C23.3632 26.235 23.5521 26.2517 23.6788 26.1444C23.6863 26.1381 24.4355 25.5032 25.0749 24.9451C25.299 24.7494 25.4218 24.4823 25.4327 24.2043C25.5451 23.903 26.1264 22.3452 26.4176 21.5476C26.4255 21.5259 26.4426 21.488 26.4792 21.4307C26.6265 21.1994 26.8651 21.1703 27.0394 21.2199C27.2104 21.2687 27.3952 21.4168 27.4008 21.6863C27.2727 22.1167 26.2893 24.9929 26.0292 25.3134ZM18.2096 28.4926C18.1647 28.114 17.9047 27.8095 17.5627 27.6956C17.5659 27.674 17.5672 27.6518 17.5657 27.629C17.5413 27.2605 17.4519 26.0343 17.3303 25.7295C17.1813 25.3564 16.5128 24.6851 15.7628 24.4397C15.6241 24.3943 15.4912 24.3196 15.3677 24.2174L14.3591 23.3837C14.3573 23.3824 14.3528 23.3789 14.3511 23.3774C14.348 23.3749 14.3447 23.3725 14.3415 23.3702C14.3053 23.3439 14.1101 23.2094 13.8175 23.1426C13.478 23.0651 13.1428 23.1617 12.9027 23.3874C12.6753 22.7769 12.3424 21.8809 12.1442 21.3385C12.1173 21.2646 12.0782 21.1877 12.0245 21.1033C11.7572 20.6842 11.2757 20.5015 10.7977 20.6378C10.3236 20.7729 10.0106 21.1796 10.0002 21.6736C9.99888 21.7376 10.0037 21.7854 10.0158 21.8284C10.0245 21.8594 11.1107 25.2075 11.5071 25.6965C11.751 25.9973 13.1205 27.3868 14.0366 28.3098C14.0352 28.3113 14.0338 28.3128 14.0325 28.3144C13.8757 28.516 13.8059 28.7672 13.8362 29.0218L13.8628 29.2468C13.92 29.7289 14.3254 30.0924 14.8058 30.0925C14.8436 30.0925 14.882 30.0902 14.9198 30.0857L17.4055 29.7848C17.926 29.7219 18.2986 29.2431 18.2362 28.7176L18.2096 28.4926ZM11.9706 25.3133C11.7111 24.9933 10.7276 22.1188 10.599 21.6872C10.6047 21.4177 10.7895 21.2686 10.9605 21.2199C11.1347 21.1701 11.3734 21.1994 11.5207 21.4306C11.5573 21.488 11.5743 21.5258 11.5823 21.5477C11.8735 22.3451 12.4547 23.9028 12.5672 24.2042C12.578 24.4823 12.7008 24.7494 12.925 24.9451C13.5643 25.5032 14.3136 26.138 14.3211 26.1444C14.4477 26.2517 14.6366 26.235 14.743 26.1071C14.8493 25.9792 14.8327 25.7884 14.706 25.6811C14.6985 25.6748 13.9526 25.0427 13.3167 24.4876C13.2058 24.3908 13.165 24.2756 13.1652 24.1669C13.1657 24.1595 13.1657 24.1519 13.1657 24.1443C13.1693 24.0774 13.188 24.0135 13.2152 23.959C13.2876 23.8142 13.4491 23.6789 13.6856 23.7328C13.8507 23.7704 13.964 23.8425 13.9872 23.8581L14.9882 24.6856C15.1697 24.8355 15.3681 24.9464 15.578 25.0151C16.1977 25.2179 16.7098 25.7935 16.7747 25.9558C16.8337 26.1047 16.921 26.9613 16.9681 27.6696C16.9681 27.6718 16.9686 27.6739 16.9688 27.6761L14.6668 27.9546C14.6282 27.9592 14.5904 27.967 14.5533 27.9762C13.1056 26.5184 12.143 25.5259 11.9706 25.3133ZM17.5689 29.0512C17.5108 29.1258 17.4276 29.1731 17.3343 29.1844L14.8485 29.4852C14.8343 29.4869 14.8199 29.4878 14.8059 29.4878C14.6285 29.4878 14.4787 29.3533 14.4575 29.1749L14.4308 28.9499C14.4196 28.8556 14.4455 28.7628 14.5035 28.6882C14.5615 28.6136 14.6448 28.5664 14.7381 28.555L17.2238 28.2543C17.2381 28.2526 17.2525 28.2517 17.2665 28.2517C17.444 28.2517 17.5936 28.3862 17.6149 28.5646L17.6415 28.7896C17.6528 28.8837 17.6269 28.9767 17.5689 29.0512Z" fill="url(#paint1_linear_3829_22499)"/>
<path d="M19.0001 19.2965C20.4768 19.2965 21.674 18.0877 21.674 16.5965C21.674 15.1053 20.4768 13.8965 19.0001 13.8965C17.5233 13.8965 16.3262 15.1053 16.3262 16.5965C16.3262 18.0877 17.5233 19.2965 19.0001 19.2965Z" fill="url(#paint2_linear_3829_22499)"/>
<path d="M20.6032 16.0562L18.4641 17.6761L17.3945 16.6452" stroke="white" stroke-width="0.7" stroke-linecap="round" stroke-linejoin="round"/>
</g>
<defs>
<filter id="filter0_d_3829_22499" x="7" y="6.125" width="26" height="29.9678" filterUnits="userSpaceOnUse" color-interpolation-filters="sRGB">
<feFlood flood-opacity="0" result="BackgroundImageFix"/>
<feColorMatrix in="SourceAlpha" type="matrix" values="0 0 0 0 0 0 0 0 0 0 0 0 0 0 0 0 0 0 127 0" result="hardAlpha"/>
<feOffset dx="1" dy="2"/>
<feGaussianBlur stdDeviation="2"/>
<feComposite in2="hardAlpha" operator="out"/>
<feColorMatrix type="matrix" values="0 0 0 0 0.121569 0 0 0 0 0.678431 0 0 0 0 0.937255 0 0 0 0.26 0"/>
<feBlend mode="normal" in2="BackgroundImageFix" result="effect1_dropShadow_3829_22499"/>
<feBlend mode="normal" in="SourceGraphic" in2="effect1_dropShadow_3829_22499" result="shape"/>
</filter>
<linearGradient id="paint0_linear_3829_22499" x1="19.0002" y1="7.14599" x2="19.0002" y2="22.446" gradientUnits="userSpaceOnUse">
<stop stop-color="#2BE8F5"/>
<stop offset="1" stop-color="#1064E8"/>
</linearGradient>
<linearGradient id="paint1_linear_3829_22499" x1="12.3114" y1="14.4627" x2="25.8186" y2="27.8393" gradientUnits="userSpaceOnUse">
<stop stop-color="#2BE8F5"/>
<stop offset="1" stop-color="#006BE8"/>
</linearGradient>
<linearGradient id="paint2_linear_3829_22499" x1="16.9805" y1="13.8009" x2="22.5305" y2="21.3691" gradientUnits="userSpaceOnUse">
<stop stop-color="#2BE8F5"/>
<stop offset="1" stop-color="#0768E8"/>
</linearGradient>
</defs>
</svg>
