<svg width="33" height="33" viewBox="0 0 33 33" fill="none" xmlns="http://www.w3.org/2000/svg">
<path d="M14.0303 1.42592C15.5586 0.543557 17.4415 0.543557 18.9698 1.42592L28.3197 6.82407C29.848 7.70644 30.7895 9.33712 30.7895 11.1019V21.8981C30.7895 23.6629 29.848 25.2936 28.3197 26.1759L18.9698 31.5741C17.4415 32.4564 15.5586 32.4564 14.0303 31.5741L4.68037 26.1759C3.15207 25.2936 2.21059 23.6629 2.21059 21.8981V11.1019C2.21059 9.33712 3.15206 7.70644 4.68037 6.82407L14.0303 1.42592Z" fill="white"/>
<g filter="url(#filter0_d_3537_16445)">
<path d="M11.2568 13.9897H12.8138V17.2644C12.8138 18.1398 13.5191 18.8519 14.386 18.8519H19.7044C20.5713 18.8519 21.2766 18.1398 21.2766 17.2644V13.9897H22.7426C22.88 13.9897 23.0009 13.9061 23.0508 13.7769C23.1006 13.6476 23.0674 13.5035 22.9661 13.4097L17.191 8.06183C17.1024 7.97974 16.9663 7.97934 16.8771 8.06092L11.0347 13.4084C10.9326 13.5018 10.8987 13.6461 10.9483 13.7759C10.9979 13.9058 11.1189 13.9897 11.2568 13.9897Z" fill="white"/>
<path d="M10.7598 14.2967L16.5015 8.49897C16.7754 8.22239 17.2223 8.22239 17.4962 8.49897L23.238 14.2967" stroke="url(#paint0_linear_3537_16445)" stroke-width="1.5" stroke-linecap="round"/>
<path d="M23.3796 17.4406C23.0078 17.3345 22.6333 17.4766 22.4254 17.8027C22.3837 17.8682 22.3532 17.9281 22.3323 17.9855C22.1782 18.4074 21.9192 19.1043 21.7424 19.5792C21.5556 19.4037 21.295 19.3286 21.0308 19.3888C20.803 19.4408 20.6513 19.5454 20.6232 19.5659C20.6219 19.5667 20.6208 19.5676 20.6196 19.5685C20.6184 19.5695 20.6149 19.5722 20.6136 19.5731C20.6123 19.5742 20.611 19.5752 20.6097 19.5764L19.8252 20.2248C19.7292 20.3042 19.6258 20.3623 19.5179 20.3977C18.9345 20.5886 18.4146 21.1106 18.2987 21.4008C18.2041 21.6379 18.1346 22.5915 18.1156 22.8783C18.1144 22.896 18.1154 22.9133 18.118 22.9301C17.852 23.0185 17.6497 23.2555 17.6148 23.5499L17.594 23.7249C17.5455 24.1337 17.8353 24.506 18.2401 24.555L20.1736 24.789C20.2029 24.7925 20.2327 24.7943 20.2621 24.7943C20.6358 24.7943 20.9512 24.5116 20.9956 24.1365L21.0164 23.9615C21.0408 23.7555 20.9792 23.5587 20.8604 23.408C21.5727 22.6901 22.6379 21.6095 22.8278 21.3752C23.1365 20.9944 23.981 18.3907 23.9875 18.3671C23.9971 18.3335 24.0008 18.2963 23.9999 18.2462C23.9917 17.8619 23.7483 17.5457 23.3796 17.4406ZM16.3853 23.5498C16.3503 23.2554 16.1481 23.0185 15.8821 22.93C15.8846 22.9132 15.8856 22.8959 15.8845 22.8782C15.8654 22.5915 15.7959 21.6379 15.7014 21.4008C15.5854 21.1106 15.0656 20.5885 14.4822 20.3976C14.3743 20.3623 14.2709 20.3042 14.1749 20.2247L13.3904 19.5763C13.389 19.5752 13.3856 19.5725 13.3842 19.5714C13.3818 19.5694 13.3792 19.5675 13.3767 19.5657C13.3486 19.5453 13.1968 19.4407 12.9692 19.3888C12.7051 19.3285 12.4444 19.4036 12.2576 19.5792C12.0808 19.1043 11.8219 18.4074 11.6677 17.9855C11.6468 17.9281 11.6164 17.8682 11.5746 17.8026C11.3667 17.4766 10.9922 17.3345 10.6204 17.4405C10.2517 17.5457 10.0083 17.8619 10.0002 18.2462C9.99913 18.296 10.0029 18.3332 10.0123 18.3666C10.0191 18.3907 10.8639 20.9948 11.1722 21.3751C11.3619 21.6091 12.427 22.6898 13.1396 23.4077C13.1385 23.4089 13.1374 23.41 13.1364 23.4112C13.0144 23.568 12.9602 23.7634 12.9837 23.9614L13.0044 24.1364C13.0489 24.5114 13.3642 24.7942 13.7379 24.7942C13.7673 24.7942 13.7971 24.7924 13.8265 24.7889L15.7599 24.5549C16.1647 24.506 16.4545 24.1336 16.406 23.7248L16.3853 23.5498Z" fill="white"/>
<path d="M23.3796 17.4406C23.0078 17.3345 22.6333 17.4766 22.4254 17.8027C22.3837 17.8682 22.3532 17.9281 22.3323 17.9855C22.1782 18.4074 21.9192 19.1043 21.7424 19.5792C21.5556 19.4037 21.295 19.3286 21.0308 19.3888C20.803 19.4408 20.6513 19.5454 20.6232 19.5659L20.6196 19.5685C20.6184 19.5695 20.6149 19.5722 20.6136 19.5731C20.6123 19.5742 20.611 19.5752 20.6097 19.5764L19.8252 20.2248C19.7292 20.3042 19.6258 20.3623 19.5179 20.3977C18.9345 20.5886 18.4146 21.1106 18.2987 21.4008C18.2041 21.6379 18.1346 22.5915 18.1156 22.8783C18.1144 22.896 18.1154 22.9133 18.118 22.9301C17.852 23.0185 17.6497 23.2555 17.6148 23.5499L17.594 23.7249C17.5455 24.1337 17.8353 24.506 18.2401 24.555L20.1736 24.789C20.2029 24.7925 20.2327 24.7943 20.2621 24.7943C20.6358 24.7943 20.9512 24.5116 20.9956 24.1365L21.0164 23.9615C21.0408 23.7555 20.9792 23.5587 20.8604 23.408C21.5727 22.6901 22.6379 21.6095 22.8278 21.3752C23.1365 20.9944 23.981 18.3907 23.9875 18.3671C23.9971 18.3335 24.0008 18.2963 23.9999 18.2462C23.9917 17.8619 23.7483 17.5457 23.3796 17.4406ZM20.5538 23.9054L20.533 24.0805C20.5166 24.2193 20.4001 24.3238 20.2621 24.3238C20.2512 24.3238 20.24 24.3232 20.229 24.3219L18.2956 24.0879C18.1458 24.0698 18.0385 23.932 18.0565 23.7808L18.0773 23.6058C18.0938 23.467 18.2102 23.3625 18.3482 23.3625C18.3592 23.3625 18.3704 23.3632 18.3814 23.3645L20.3148 23.5984C20.4646 23.6165 20.5718 23.7542 20.5538 23.9054ZM22.4672 21.0772C22.3331 21.2427 21.5844 22.0145 20.4588 23.1478C20.4299 23.1407 20.4004 23.135 20.3702 23.1314L18.5798 22.9147C18.5799 22.9131 18.5803 22.9114 18.5803 22.9097C18.6169 22.3589 18.6848 21.6927 18.7308 21.5767C18.7812 21.4505 19.1795 21.0028 19.6615 20.8451C19.8248 20.7916 19.9791 20.7054 20.1202 20.5888L20.8987 19.9453C20.9165 19.9333 21.0047 19.8771 21.1334 19.8477C21.3174 19.8059 21.443 19.9112 21.4993 20.0237C21.5205 20.0662 21.535 20.1158 21.5378 20.168C21.5378 20.1737 21.5378 20.1796 21.5381 20.1853C21.5383 20.2698 21.5066 20.3595 21.4202 20.4348C20.9257 20.8666 20.3455 21.3582 20.3397 21.3631C20.2411 21.4466 20.2283 21.595 20.3109 21.6944C20.3936 21.794 20.5405 21.8069 20.6391 21.7235C20.6449 21.7186 21.2277 21.2248 21.7249 20.7907C21.8992 20.6385 21.9948 20.4307 22.0033 20.2145C22.0907 19.9802 22.5427 18.7686 22.7693 18.1482C22.7754 18.1313 22.7887 18.1018 22.8171 18.0572C22.9317 17.8774 23.1173 17.8547 23.2529 17.8933C23.3859 17.9312 23.5296 18.0464 23.534 18.256C23.4343 18.5908 22.6694 20.8278 22.4672 21.0772ZM16.3853 23.5498C16.3503 23.2554 16.1481 23.0185 15.8821 22.93C15.8846 22.9132 15.8856 22.8959 15.8845 22.8782C15.8654 22.5915 15.7959 21.6379 15.7014 21.4008C15.5854 21.1106 15.0656 20.5885 14.4822 20.3976C14.3743 20.3623 14.2709 20.3042 14.1749 20.2247L13.3904 19.5763C13.389 19.5752 13.3855 19.5725 13.3842 19.5714C13.3818 19.5694 13.3792 19.5675 13.3767 19.5657C13.3486 19.5453 13.1968 19.4407 12.9692 19.3888C12.7051 19.3285 12.4444 19.4036 12.2576 19.5792C12.0808 19.1043 11.8219 18.4074 11.6677 17.9855C11.6468 17.9281 11.6164 17.8682 11.5746 17.8026C11.3667 17.4766 10.9922 17.3345 10.6204 17.4405C10.2517 17.5457 10.0083 17.8619 10.0002 18.2462C9.99913 18.296 10.0029 18.3332 10.0123 18.3666C10.0191 18.3907 10.8639 20.9948 11.1722 21.3751C11.3619 21.6091 12.427 22.6898 13.1396 23.4077C13.1385 23.4089 13.1374 23.41 13.1364 23.4112C13.0144 23.568 12.9602 23.7634 12.9837 23.9614L13.0044 24.1364C13.0489 24.5114 13.3642 24.7942 13.7379 24.7942C13.7673 24.7942 13.7971 24.7924 13.8265 24.7889L15.7599 24.5549C16.1647 24.506 16.4545 24.1336 16.406 23.7248L16.3853 23.5498ZM11.5327 21.0771C11.3308 20.8282 10.5659 18.5924 10.4659 18.2568C10.4703 18.0471 10.614 17.9312 10.747 17.8933C10.8826 17.8546 11.0682 17.8773 11.1828 18.0572C11.2112 18.1018 11.2244 18.1312 11.2307 18.1482C11.4572 18.7685 11.9092 19.98 11.9967 20.2144C12.0051 20.4307 12.1006 20.6385 12.275 20.7907C12.7722 21.2248 13.355 21.7185 13.3608 21.7235C13.4593 21.8069 13.6063 21.794 13.689 21.6944C13.7717 21.595 13.7588 21.4466 13.6602 21.3631C13.6544 21.3582 13.0743 20.8666 12.5796 20.4348C12.4934 20.3595 12.4617 20.2699 12.4618 20.1854C12.4622 20.1796 12.4622 20.1737 12.4622 20.1679C12.465 20.1158 12.4795 20.0661 12.5007 20.0237C12.557 19.9111 12.6826 19.8059 12.8666 19.8478C12.995 19.877 13.0831 19.9331 13.1011 19.9453L13.8797 20.5888C14.0209 20.7055 14.1752 20.7917 14.3385 20.8451C14.8205 21.0029 15.2188 21.4505 15.2693 21.5768C15.3151 21.6926 15.383 22.3589 15.4196 22.9098C15.4197 22.9114 15.42 22.9131 15.4202 22.9148L13.6297 23.1314C13.5997 23.135 13.5703 23.141 13.5414 23.1482C12.4155 22.0144 11.6668 21.2424 11.5327 21.0771ZM15.8869 23.9843C15.8418 24.0424 15.777 24.0791 15.7044 24.0879L13.771 24.3219C13.76 24.3232 13.7488 24.3239 13.7379 24.3239C13.6 24.3239 13.4834 24.2193 13.467 24.0805L13.4462 23.9055C13.4375 23.8322 13.4576 23.76 13.5027 23.702C13.5478 23.644 13.6126 23.6072 13.6852 23.5984L15.6186 23.3645C15.6296 23.3632 15.6408 23.3625 15.6517 23.3625C15.7898 23.3625 15.9062 23.4671 15.9227 23.6058L15.9434 23.7808C15.9522 23.8541 15.9321 23.9264 15.8869 23.9843Z" fill="url(#paint1_linear_3537_16445)"/>
<path d="M16.9996 16.3973C18.1482 16.3973 19.0793 15.4571 19.0793 14.2973C19.0793 13.1374 18.1482 12.1973 16.9996 12.1973C15.8511 12.1973 14.9199 13.1374 14.9199 14.2973C14.9199 15.4571 15.8511 16.3973 16.9996 16.3973Z" fill="url(#paint2_linear_3537_16445)"/>
<path d="M18.2476 13.8769L16.5838 15.1369L15.752 14.335" stroke="white" stroke-width="0.7" stroke-linecap="round" stroke-linejoin="round"/>
</g>
<defs>
<filter id="filter0_d_3537_16445" x="6" y="7.54153" width="22" height="25.2528" filterUnits="userSpaceOnUse" color-interpolation-filters="sRGB">
<feFlood flood-opacity="0" result="BackgroundImageFix"/>
<feColorMatrix in="SourceAlpha" type="matrix" values="0 0 0 0 0 0 0 0 0 0 0 0 0 0 0 0 0 0 127 0" result="hardAlpha"/>
<feOffset dy="4"/>
<feGaussianBlur stdDeviation="2"/>
<feComposite in2="hardAlpha" operator="out"/>
<feColorMatrix type="matrix" values="0 0 0 0 0.231373 0 0 0 0 0.564706 0 0 0 0 0.741176 0 0 0 0.26 0"/>
<feBlend mode="normal" in2="BackgroundImageFix" result="effect1_dropShadow_3537_16445"/>
<feBlend mode="normal" in="SourceGraphic" in2="effect1_dropShadow_3537_16445" result="shape"/>
</filter>
<linearGradient id="paint0_linear_3537_16445" x1="17.0004" y1="6.94674" x2="17.0004" y2="18.8467" gradientUnits="userSpaceOnUse">
<stop stop-color="#2BE8F5"/>
<stop offset="1" stop-color="#1064E8"/>
</linearGradient>
<linearGradient id="paint1_linear_3537_16445" x1="11.7977" y1="12.6377" x2="22.3034" y2="23.0417" gradientUnits="userSpaceOnUse">
<stop stop-color="#2BE8F5"/>
<stop offset="1" stop-color="#006BE8"/>
</linearGradient>
<linearGradient id="paint2_linear_3537_16445" x1="15.4288" y1="12.1229" x2="19.7455" y2="18.0093" gradientUnits="userSpaceOnUse">
<stop stop-color="#2BE8F5"/>
<stop offset="1" stop-color="#0768E8"/>
</linearGradient>
</defs>
</svg>
