<svg width="33" height="37" viewBox="0 0 33 37" fill="none" xmlns="http://www.w3.org/2000/svg">
<g clip-path="url(#clip0_2028_18963)">
<path d="M14.2976 1.71767C15.6607 0.930699 17.3401 0.930699 18.7031 1.71767L28.5871 7.42414C29.9502 8.21111 30.7899 9.66548 30.7899 11.2395V22.6523C30.7899 24.2263 29.9502 25.6807 28.5871 26.4676L18.7031 32.1742C17.3401 32.9611 15.6607 32.9611 14.2976 32.1742L4.41371 26.4676C3.05063 25.6807 2.21094 24.2263 2.21094 22.6523V11.2395C2.21094 9.66548 3.05063 8.2111 4.41371 7.42413L14.2976 1.71767Z" fill="white"/>
<g filter="url(#filter0_d_2028_18963)">
<path d="M13.9888 20.1514C13.982 21.1856 14.2689 22.2004 14.8161 23.0779H11.5852C11.4154 23.08 11.247 23.0485 11.0894 22.9852C10.9319 22.9218 10.7884 22.8281 10.6673 22.7091C10.5462 22.5901 10.4498 22.4484 10.3836 22.2921C10.3174 22.1357 10.2829 21.9679 10.2818 21.7981V17.2717C10.1944 17.2675 10.1078 17.2517 10.0244 17.2249C9.87256 17.1772 9.73414 17.0943 9.62024 16.9832C9.50635 16.872 9.42019 16.7356 9.36882 16.5849L8.97077 15.3051C8.90566 15.1129 8.90064 14.9053 8.95641 14.7101C9.01215 14.515 9.12605 14.3414 9.28293 14.2125L15.1282 9.64719C15.3023 9.5085 15.5182 9.43304 15.7409 9.43304C15.9634 9.43304 16.1794 9.5085 16.3534 9.64719L17.2431 10.3417C17.2472 10.0974 17.3465 9.86436 17.5201 9.69232C17.6936 9.52027 17.9274 9.42288 18.1718 9.42083H20.2554C20.3794 9.4177 20.5027 9.43947 20.6181 9.48469C20.7335 9.52999 20.8386 9.59787 20.9273 9.68447C21.016 9.77098 21.0866 9.87444 21.1347 9.98869C21.1828 10.1029 21.2076 10.2256 21.2075 10.3496V13.4244L22.2377 14.2048C22.39 14.3248 22.5017 14.4887 22.5575 14.6744C22.6134 14.8601 22.6107 15.0586 22.5498 15.2426C21.6823 14.724 20.6887 14.454 19.6779 14.4622C18.93 14.4592 18.1888 14.6042 17.4972 14.889C16.8055 15.1738 16.1772 15.5928 15.6482 16.1217C15.1193 16.6506 14.7004 17.279 14.4156 17.9706C14.1307 18.6623 13.9857 19.4034 13.9888 20.1514ZM24.1341 20.1514C24.1341 21.039 23.8709 21.9065 23.3779 22.6445C22.8847 23.3824 22.184 23.9575 21.364 24.2971C20.544 24.6369 19.6418 24.7257 18.7713 24.5526C17.9008 24.3794 17.1013 23.952 16.4737 23.3244C15.8462 22.6969 15.4188 21.8973 15.2457 21.0268C15.0725 20.1564 15.1614 19.2541 15.501 18.4342C15.8407 17.6143 16.4157 16.9134 17.1537 16.4203C17.8916 15.9273 18.7593 15.6641 19.6467 15.6641C20.8362 15.6661 21.9764 16.1396 22.8175 16.9807C23.6586 17.8217 24.132 18.9619 24.1341 20.1514Z" fill="url(#paint0_linear_2028_18963)"/>
<path d="M21.2076 19.3711L18.9207 21.3221L18.0859 20.5631" fill="url(#paint1_linear_2028_18963)"/>
<path d="M21.2076 19.3711L18.9207 21.3221L18.0859 20.5631" stroke="white" stroke-linecap="round" stroke-linejoin="round"/>
</g>
</g>
<defs>
<filter id="filter0_d_2028_18963" x="-0.0820312" y="4.42053" width="33.2148" height="33.2183" filterUnits="userSpaceOnUse" color-interpolation-filters="sRGB">
<feFlood flood-opacity="0" result="BackgroundImageFix"/>
<feColorMatrix in="SourceAlpha" type="matrix" values="0 0 0 0 0 0 0 0 0 0 0 0 0 0 0 0 0 0 127 0" result="hardAlpha"/>
<feOffset dy="4"/>
<feGaussianBlur stdDeviation="4.5"/>
<feComposite in2="hardAlpha" operator="out"/>
<feColorMatrix type="matrix" values="0 0 0 0 0.937255 0 0 0 0 0.388235 0 0 0 0 0.0941176 0 0 0 0.31 0"/>
<feBlend mode="normal" in2="BackgroundImageFix" result="effect1_dropShadow_2028_18963"/>
<feBlend mode="normal" in="SourceGraphic" in2="effect1_dropShadow_2028_18963" result="shape"/>
</filter>
<linearGradient id="paint0_linear_2028_18963" x1="11.3979" y1="23.4213" x2="23.0181" y2="11.8011" gradientUnits="userSpaceOnUse">
<stop stop-color="#F48F29"/>
<stop offset="1" stop-color="#E93103"/>
</linearGradient>
<linearGradient id="paint1_linear_2028_18963" x1="18.5947" y1="21.166" x2="19.9337" y2="19.0233" gradientUnits="userSpaceOnUse">
<stop stop-color="#F48F29"/>
<stop offset="1" stop-color="#E93103"/>
</linearGradient>
<clipPath id="clip0_2028_18963">
<rect width="33" height="36.5676" fill="white"/>
</clipPath>
</defs>
</svg>
