<svg width="56" height="56" viewBox="0 0 56 56" fill="none" xmlns="http://www.w3.org/2000/svg">
<path d="M17.5873 29.6008V51.1357C17.5873 52.325 16.6231 53.2891 15.4338 53.2891H8.49723C7.30789 53.2891 6.34375 52.325 6.34375 51.1357V29.6008C6.34375 28.4115 7.30789 27.4473 8.49723 27.4473H15.4338C16.6231 27.4473 17.5873 28.4115 17.5873 29.6008Z" fill="#6ACDF3"/>
<path opacity="0.4" d="M12.6241 53.2917H8.49955C7.30933 53.2917 6.3418 52.3241 6.3418 51.1339V29.6008C6.3418 28.4106 7.30933 27.4494 8.49955 27.4494H12.6241C11.4339 27.4494 10.4663 28.4106 10.4663 29.6008V51.1339C10.4663 52.3241 11.4339 53.2917 12.6241 53.2917Z" fill="white"/>
<path d="M36.6921 47.2338H42.1718C43.9028 47.2338 45.306 48.6371 45.306 50.3681V50.6665C45.306 52.3975 43.9028 53.8008 42.1718 53.8008H25.2352C23.57 53.8008 21.9265 53.4244 20.4273 52.6998L17.5879 51.3275V29.6008L17.588 29.6006C21.1888 28.1526 24.0056 25.2472 25.4971 21.6676L28.064 15.5071C28.4609 14.5546 29.6477 14.2296 30.4745 14.8468C33.1441 16.8396 34.3193 20.2651 33.4352 23.477L32.3425 27.4473H44.3891C46.1201 27.4473 47.5234 28.8506 47.5234 30.5816C47.5234 32.3125 46.1201 33.7158 44.3891 33.7158H36.6068H46.5213C48.2523 33.7158 49.6555 35.1191 49.6555 36.8501V37.2339C49.6555 38.9648 48.2523 40.3681 46.5213 40.3681H36.7773H44.048C45.779 40.3681 47.1823 41.7714 47.1823 43.5024V44.0845C47.1823 45.813 45.7829 47.2152 44.0543 47.2187L36.6921 47.2338Z" fill="#FFFCFF"/>
<path d="M29.2047 9.26745C28.1467 9.26745 27.2891 8.40984 27.2891 7.35197V4.11469C27.2891 3.05681 28.1467 2.1992 29.2045 2.1992H29.2047C30.2625 2.1992 31.1201 3.05681 31.1201 4.11469V7.35197C31.1202 8.40984 30.2626 9.26745 29.2047 9.26745Z" fill="#FFC563"/>
<path d="M36.4985 12.2892C35.7504 11.541 35.7506 10.3283 36.4986 9.58026L38.788 7.29094C39.5361 6.54281 40.749 6.54292 41.497 7.29105C42.2449 8.03917 42.2449 9.25192 41.4969 9.99994L39.2075 12.2893C38.4593 13.0374 37.2465 13.0374 36.4985 12.2892Z" fill="#FFC563"/>
<path d="M44.6742 21.5002H41.437C40.3791 21.5002 39.5215 20.6426 39.5215 19.5847C39.5215 18.5268 40.3791 17.6691 41.437 17.6691H44.6742C45.7321 17.6691 46.5897 18.5267 46.5897 19.5846C46.5897 20.6424 45.7321 21.5002 44.6742 21.5002Z" fill="#FFC563"/>
<path d="M14.4502 47.651C14.4502 49.0214 13.3367 50.1349 11.9663 50.1349C10.5959 50.1349 9.48242 49.0213 9.48242 47.651C9.48242 46.2805 10.596 45.1671 11.9663 45.1671C13.3367 45.1669 14.4502 46.2805 14.4502 47.651Z" fill="#FFFCFF"/>
<path d="M14.4058 30.1137H12.6254C12.3405 30.1137 12.1094 30.3447 12.1094 30.6297C12.1094 30.9146 12.3404 31.1457 12.6254 31.1457H13.8898V39.053C13.8898 39.3379 14.1208 39.569 14.4058 39.569C14.6907 39.569 14.9218 39.338 14.9218 39.053V30.6297C14.9218 30.3448 14.6908 30.1137 14.4058 30.1137Z" fill="white"/>
<path d="M17.9835 28.8515C17.6573 27.7457 16.6443 26.9314 15.4342 26.9314H8.49764C7.02567 26.9314 5.82812 28.1287 5.82812 29.6007V51.1357C5.82812 52.6076 7.02567 53.8052 8.49764 53.8052H15.4341C16.578 53.8052 17.5481 53.0783 17.9273 52.0649L20.2024 53.1645C21.7623 53.9184 23.5024 54.3169 25.2349 54.3169H42.1715C44.1842 54.3169 45.8216 52.6795 45.8216 50.6665V50.3682C45.8216 49.3089 45.3681 48.3535 44.645 47.6861C46.3742 47.3998 47.698 45.8923 47.698 44.0846V43.5026C47.698 42.4763 47.2722 41.5476 46.588 40.8839C48.5699 40.848 50.1712 39.2245 50.1712 37.234V36.8503C50.1712 34.9686 48.7398 33.4148 46.9085 33.2206C47.6049 32.5554 48.039 31.6183 48.039 30.5818C48.039 28.5691 46.4016 26.9316 44.3888 26.9316H33.0193L33.9324 23.6143C34.8794 20.1725 33.6434 16.5689 30.7826 14.4336C29.6877 13.6154 28.1138 14.0446 27.5872 15.3087L25.0205 21.4694C23.7063 24.6236 21.251 27.3495 17.9835 28.8515ZM17.0717 51.1357C17.0717 52.0387 16.3372 52.7731 15.4342 52.7731H8.49764C7.59464 52.7731 6.86019 52.0387 6.86019 51.1357V29.6007C6.86019 28.6979 7.59464 27.9635 8.49764 27.9635H15.4341C16.3371 27.9635 17.0715 28.6979 17.0715 29.6007L17.0717 51.1357ZM28.54 15.7055C28.8098 15.0589 29.6118 14.8468 30.1656 15.2602C32.6832 17.1396 33.7711 20.311 32.9374 23.3401L31.8446 27.3105C31.8021 27.4657 31.8343 27.632 31.9318 27.76C32.0293 27.8883 32.1813 27.9634 32.3423 27.9634H44.389C45.8328 27.9634 47.0072 29.1377 47.0072 30.5815C47.0072 32.0252 45.8328 33.1999 44.389 33.1999H36.6067C36.3218 33.1999 36.0907 33.4309 36.0907 33.7159C36.0907 34.0009 36.3217 34.232 36.6067 34.232H46.5211C47.9648 34.232 49.1392 35.4063 49.1392 36.8501V37.2338C49.1392 38.6775 47.9648 39.8522 46.5211 39.8522H36.7772C36.4923 39.8522 36.2612 40.0832 36.2612 40.3682C36.2612 40.6532 36.4922 40.8843 36.7772 40.8843H44.0478C45.4916 40.8843 46.6659 42.0586 46.6659 43.5024V44.0844C46.6659 45.5254 45.4937 46.6997 44.0531 46.7028L36.6907 46.7177C36.406 46.7182 36.1754 46.9494 36.1756 47.2341C36.1759 47.5188 36.407 47.7496 36.6917 47.7496H42.1714C43.6151 47.7496 44.7895 48.9243 44.7895 50.3681V50.6664C44.7895 52.1102 43.6151 53.2849 42.1714 53.2849H25.235C23.6572 53.2849 22.0724 52.9218 20.6515 52.2352L18.1037 51.0039L18.1039 30.5204C22.8275 27.4106 24.8643 24.5276 25.9733 21.8662L28.54 15.7055Z" fill="#281261"/>
<path d="M31.6346 7.35197V4.11447C31.6346 2.77375 30.5438 1.68306 29.2029 1.68306C27.8622 1.68306 26.7715 2.77375 26.7715 4.11447V7.35197C26.7715 8.69269 27.8622 9.78337 29.2031 9.78337C30.5439 9.78348 31.6346 8.69269 31.6346 7.35197ZM27.8035 7.35197V4.11447C27.8035 3.34293 28.4315 2.71512 29.2032 2.71512C29.9748 2.71512 30.6026 3.34304 30.6026 4.11447V7.35197C30.6026 8.1235 29.9746 8.75131 29.2032 8.75131H29.203C28.4315 8.75142 27.8035 8.1235 27.8035 7.35197Z" fill="#281261"/>
<path d="M38.4243 6.92617L36.135 9.2155C35.1868 10.1633 35.1868 11.7062 36.135 12.654C37.0837 13.6032 38.6235 13.6048 39.5735 12.6542L41.863 10.3649C42.8112 9.41708 42.8112 7.87423 41.863 6.92639C40.8672 5.92998 39.3322 6.01836 38.4243 6.92617ZM41.1334 9.63528L38.8438 11.9246C38.2978 12.4706 37.4118 12.4715 36.8647 11.9244C36.3193 11.3786 36.3193 10.491 36.8647 9.94525L39.154 7.65592C39.7009 7.10904 40.5865 7.10872 41.1334 7.65614C41.6788 8.20192 41.6788 9.0895 41.1334 9.63528Z" fill="#281261"/>
<path d="M39.0059 19.5847C39.0059 20.9254 40.0967 22.0161 41.4373 22.0161H44.6748C46.0155 22.0161 47.1062 20.9253 47.1062 19.5847C47.1062 18.2437 46.0154 17.1529 44.6748 17.1529H41.4373C40.0965 17.1531 39.0059 18.2437 39.0059 19.5847ZM46.0741 19.5847C46.0741 20.3562 45.4462 20.984 44.6748 20.984H41.4373C40.6657 20.984 40.0379 20.3561 40.0379 19.5844C40.0379 18.8128 40.6658 18.185 41.4373 18.185H44.6748C45.4462 18.1851 46.0741 18.8129 46.0741 19.5847Z" fill="#281261"/>
<path d="M11.9666 44.6509C10.3125 44.6509 8.9668 45.9967 8.9668 47.6511C8.9668 49.3052 10.3125 50.6509 11.9666 50.6509C13.621 50.6509 14.9668 49.3052 14.9668 47.6511C14.9668 45.9966 13.621 44.6509 11.9666 44.6509ZM11.9666 49.6188C10.8816 49.6188 9.99886 48.736 9.99886 47.6511C9.99886 46.5659 10.8817 45.683 11.9666 45.683C13.0518 45.683 13.9347 46.5659 13.9347 47.6511C13.9347 48.736 13.0518 49.6188 11.9666 49.6188Z" fill="#281261"/>
</svg>
