<svg width="15" height="14" viewBox="0 0 15 14" fill="none" xmlns="http://www.w3.org/2000/svg">
<path d="M1 12.4023C1 12.7327 1.26271 13 1.58494 13H3.95958C4.28181 13 4.54452 12.7327 4.54452 12.4023V5.92631C4.54452 5.59378 4.28181 5.32649 3.95958 5.32649H1.58494C1.26271 5.32649 1 5.59378 1 5.92631V12.4023Z" fill="#0091E4"/>
<path d="M14 7.07501V6.90032C14 6.31944 13.5403 5.848 12.9738 5.848H10.5807C10.6279 5.65438 10.7695 5.1661 11.0507 4.83778C11.4099 4.41895 11.8491 3.25088 11.6048 2.23224C11.3606 1.21149 10.7428 0.794769 10.3836 1.09573C10.0245 1.3967 10.0409 2.89941 9.25892 3.65076C8.47695 4.40212 7.61494 5.92377 7.23934 6.14055H5.464V12.1535H6.9479C6.9479 12.1535 7.30502 12.5702 8.54263 12.5702C8.56931 12.5702 8.4749 12.566 12.3109 12.566C13.2324 12.566 13.5444 11.3622 13.0272 11.0023C13.5321 10.6971 13.7393 9.96467 13.2427 9.58584C14.158 9.00496 13.9405 8.08523 13.5074 7.86214C13.7722 7.73376 14 7.3886 14 7.07501ZM1 12.4018C1 12.7323 1.26271 12.9996 1.58494 12.9996H3.95958C4.28181 12.9996 4.54452 12.7323 4.54452 12.4018V5.92587C4.54452 5.59334 4.28181 5.32605 3.95958 5.32605H1.58494C1.26271 5.32605 1 5.59334 1 5.92587V12.4018Z" fill="#0091E4" stroke="#003D74" stroke-width="0.614931"/>
<g style="mix-blend-mode:multiply" opacity="0.4">
<path d="M1 9.1714V12.402C1 12.7324 1.26271 12.9997 1.58494 12.9997H3.95958C4.28181 12.9997 4.54452 12.7324 4.54452 12.402V9.1714H1Z" fill="#0091E4"/>
</g>
<path d="M3.83447 11.2859C3.83447 11.5638 3.61486 11.7868 3.346 11.7868C3.07508 11.7868 2.85547 11.5638 2.85547 11.2859C2.85547 11.0081 3.07508 10.785 3.346 10.785C3.61486 10.785 3.83447 11.0081 3.83447 11.2859Z" fill="#ECEFF0"/>
</svg>
