<svg width="38" height="32" viewBox="0 0 38 32" fill="none" xmlns="http://www.w3.org/2000/svg">
<path d="M14.8 1.23168C16.1201 0.469514 17.7466 0.469514 19.0667 1.23168L28.6564 6.76832C29.9765 7.53049 30.7898 8.93903 30.7898 10.4634V21.5366C30.7898 23.061 29.9765 24.4695 28.6564 25.2317L19.0667 30.7683C17.7466 31.5305 16.1201 31.5305 14.8 30.7683L5.21028 25.2317C3.89017 24.4695 3.07694 23.061 3.07694 21.5366V10.4634C3.07694 8.93903 3.89017 7.53049 5.21028 6.76832L14.8 1.23168Z" fill="#FFCC57" fill-opacity="0.14"/>
<g filter="url(#filter0_d_2744_11954)">
<path opacity="0.4" d="M23.6888 13.4187V18.7165C23.6888 18.8231 23.6533 18.9298 23.5608 19.0222C22.5297 20.0605 20.695 21.9093 19.6426 22.9689C19.5501 23.0685 19.4293 23.1111 19.3084 23.1111H13.6408C11.7279 23.1111 10.1777 21.5609 10.1777 19.648V13.4187C10.1777 11.5058 11.7279 9.95557 13.6408 9.95557H20.2257C22.1386 9.95557 23.6888 11.5058 23.6888 13.4187Z" fill="#FFA800"/>
<path d="M14.295 11.9396C13.9964 11.9396 13.7617 11.6978 13.7617 11.4062V9.42225C13.7617 9.13069 13.9964 8.88892 14.295 8.88892C14.5937 8.88892 14.8284 9.13069 14.8284 9.42225V11.3991C14.8284 11.6978 14.5937 11.9396 14.295 11.9396Z" fill="#FFA800"/>
<path d="M19.5716 11.9396C19.2729 11.9396 19.0382 11.6978 19.0382 11.4062V9.42225C19.0382 9.12358 19.28 8.88892 19.5716 8.88892C19.8702 8.88892 20.1049 9.13069 20.1049 9.42225V11.3991C20.1049 11.6978 19.8702 11.9396 19.5716 11.9396Z" fill="#FFA800"/>
<path d="M18.9101 16.5051H13.6337C13.335 16.5051 13.1004 16.2634 13.1004 15.9718C13.1004 15.6803 13.3422 15.4385 13.6337 15.4385H18.9101C19.2088 15.4385 19.4435 15.6803 19.4435 15.9718C19.4435 16.2634 19.2088 16.5051 18.9101 16.5051Z" fill="#FFA800"/>
<path d="M16.9333 19.1433H13.6337C13.335 19.1433 13.1004 18.9015 13.1004 18.61C13.1004 18.3113 13.3422 18.0767 13.6337 18.0767H16.9333C17.2319 18.0767 17.4666 18.3184 17.4666 18.61C17.4666 18.9015 17.2319 19.1433 16.9333 19.1433Z" fill="#FFA800"/>
<path d="M23.6889 18.7166C23.6889 18.8233 23.6533 18.9299 23.5609 19.0224C22.5297 20.0606 20.6951 21.9095 19.6426 22.969C19.5502 23.0686 19.4293 23.1113 19.3084 23.1113C19.0737 23.1113 18.8462 22.9264 18.8462 22.6561V20.1673C18.8462 19.129 19.728 18.2686 20.8089 18.2686C21.4844 18.2615 22.4231 18.2615 23.2266 18.2615C23.504 18.2615 23.6889 18.4819 23.6889 18.7166Z" fill="#FFA800"/>
</g>
<path d="M28.3001 3.98022C28.5761 3.74422 29.0281 3.74422 29.3081 3.98022L29.9401 4.52422C30.0601 4.62822 30.2841 4.71222 30.4441 4.71222H31.1241C31.5481 4.71222 31.8961 5.06022 31.8961 5.48422V6.16422C31.8961 6.32022 31.9801 6.54822 32.0841 6.66822L32.6281 7.30022C32.8641 7.57622 32.8641 8.02822 32.6281 8.30822L32.0841 8.94022C31.9801 9.06022 31.8961 9.28422 31.8961 9.44422V10.1242C31.8961 10.5482 31.5481 10.8962 31.1241 10.8962H30.4441C30.2881 10.8962 30.0601 10.9802 29.9401 11.0842L29.3081 11.6282C29.0321 11.8642 28.5801 11.8642 28.3001 11.6282L27.6681 11.0842C27.5481 10.9802 27.3241 10.8962 27.1641 10.8962H26.4721C26.0481 10.8962 25.7001 10.5482 25.7001 10.1242V9.44022C25.7001 9.28422 25.6161 9.06022 25.5161 8.94022L24.9761 8.30422C24.7441 8.02822 24.7441 7.58022 24.9761 7.30422L25.5161 6.66822C25.6161 6.54822 25.7001 6.32422 25.7001 6.16822V5.48022C25.7001 5.05622 26.0481 4.70822 26.4721 4.70822H27.1641C27.3201 4.70822 27.5481 4.62422 27.6681 4.52022L28.3001 3.98022Z" fill="#13A6FC"/>
<g filter="url(#filter1_d_2744_11954)">
<path d="M27.3521 7.80003L28.3161 8.76803L30.2481 6.83203" fill="#13A6FC"/>
<path d="M27.3521 7.80003L28.3161 8.76803L30.2481 6.83203" stroke="white" stroke-width="0.746667" stroke-linecap="round" stroke-linejoin="round"/>
</g>
<defs>
<filter id="filter0_d_2744_11954" x="4.13333" y="7.4668" width="25.6" height="25.6" filterUnits="userSpaceOnUse" color-interpolation-filters="sRGB">
<feFlood flood-opacity="0" result="BackgroundImageFix"/>
<feColorMatrix in="SourceAlpha" type="matrix" values="0 0 0 0 0 0 0 0 0 0 0 0 0 0 0 0 0 0 127 0" result="hardAlpha"/>
<feOffset dy="4.26667"/>
<feGaussianBlur stdDeviation="2.13333"/>
<feComposite in2="hardAlpha" operator="out"/>
<feColorMatrix type="matrix" values="0 0 0 0 1 0 0 0 0 0.721569 0 0 0 0 0 0 0 0 0.24 0"/>
<feBlend mode="normal" in2="BackgroundImageFix" result="effect1_dropShadow_2744_11954"/>
<feBlend mode="normal" in="SourceGraphic" in2="effect1_dropShadow_2744_11954" result="shape"/>
</filter>
<filter id="filter1_d_2744_11954" x="20.5788" y="2.19207" width="16.4427" height="15.4826" filterUnits="userSpaceOnUse" color-interpolation-filters="sRGB">
<feFlood flood-opacity="0" result="BackgroundImageFix"/>
<feColorMatrix in="SourceAlpha" type="matrix" values="0 0 0 0 0 0 0 0 0 0 0 0 0 0 0 0 0 0 127 0" result="hardAlpha"/>
<feOffset dy="2.13333"/>
<feGaussianBlur stdDeviation="3.2"/>
<feComposite in2="hardAlpha" operator="out"/>
<feColorMatrix type="matrix" values="0 0 0 0 0 0 0 0 0 0 0 0 0 0 0 0 0 0 0.35 0"/>
<feBlend mode="normal" in2="BackgroundImageFix" result="effect1_dropShadow_2744_11954"/>
<feBlend mode="normal" in="SourceGraphic" in2="effect1_dropShadow_2744_11954" result="shape"/>
</filter>
</defs>
</svg>
