<svg width="19" height="17" viewBox="0 0 19 17" fill="none" xmlns="http://www.w3.org/2000/svg">
<path d="M16.2864 7.0835C16.2864 12.0418 9.53638 16.2918 9.53638 16.2918C9.53638 16.2918 2.78638 12.0418 2.78638 7.0835C2.78638 5.39274 3.49754 3.77123 4.76341 2.57569C6.02928 1.38015 7.74617 0.708496 9.53638 0.708496C11.3266 0.708496 13.0435 1.38015 14.3093 2.57569C15.5752 3.77123 16.2864 5.39274 16.2864 7.0835Z" stroke="#464B70" stroke-linecap="round" stroke-linejoin="round"/>
<path d="M9.53638 9.2085C10.779 9.2085 11.7864 8.2571 11.7864 7.0835C11.7864 5.90989 10.779 4.9585 9.53638 4.9585C8.29374 4.9585 7.28638 5.90989 7.28638 7.0835C7.28638 8.2571 8.29374 9.2085 9.53638 9.2085Z" stroke="#464B70" stroke-linecap="round" stroke-linejoin="round"/>
</svg>
