<svg width="16" height="16" viewBox="0 0 16 16" fill="none" xmlns="http://www.w3.org/2000/svg">
<path d="M8 16C7.85259 16 7.71344 15.9304 7.62463 15.8123L3.12116 9.74212C2.32647 8.6815 1.90625 7.41991 1.90625 6.09375C1.90625 2.73375 4.64 0 8 0C11.36 0 14.0938 2.73375 14.0938 6.09375C14.0938 7.41991 13.6735 8.6815 12.8788 9.74212L8.37537 15.8123C8.28656 15.9304 8.14741 16 8 16Z" fill="url(#paint0_linear_3299_12501)"/>
<path d="M8 8.4375C6.70728 8.4375 5.65625 7.38603 5.65625 6.09375C5.65625 4.80147 6.70728 3.75 8 3.75C9.29272 3.75 10.3438 4.80147 10.3438 6.09375C10.3438 7.38603 9.29272 8.4375 8 8.4375Z" fill="url(#paint1_linear_3299_12501)"/>
<defs>
<linearGradient id="paint0_linear_3299_12501" x1="8" y1="16" x2="8" y2="0" gradientUnits="userSpaceOnUse">
<stop stop-color="#00B59C"/>
<stop offset="1" stop-color="#9CFFAC"/>
</linearGradient>
<linearGradient id="paint1_linear_3299_12501" x1="8" y1="8.4375" x2="8" y2="3.75" gradientUnits="userSpaceOnUse">
<stop stop-color="#C3FFE8"/>
<stop offset="0.9973" stop-color="#F0FFF4"/>
</linearGradient>
</defs>
</svg>
