<svg width="34" height="34" viewBox="0 0 34 34" fill="none" xmlns="http://www.w3.org/2000/svg">
<path d="M0 17C0 7.61116 7.61116 0 17 0C26.3888 0 34 7.61116 34 17C34 26.3888 26.3888 34 17 34C7.61116 34 0 26.3888 0 17Z" fill="#F5F7F9"/>
<g filter="url(#filter0_d_985_6)">
<path d="M23.4115 23.3753H10.5896C10.3999 23.3757 10.2143 23.3204 10.0557 23.2164C9.89704 23.1125 9.77236 22.9643 9.69702 22.7902C9.62169 22.6162 9.59901 22.4238 9.63179 22.237C9.66457 22.0502 9.75137 21.8771 9.88146 21.739C10.6686 20.9037 11.6071 19.6456 11.5933 18.4012V15.4038C11.8903 8.23519 22.1114 8.23704 22.4077 15.4037V18.3978C22.394 19.6456 23.3324 20.9037 24.1196 21.739C24.2473 21.8779 24.332 22.0508 24.3635 22.2368C24.395 22.4229 24.3719 22.614 24.2969 22.7872C24.222 22.9603 24.0985 23.108 23.9413 23.2124C23.7842 23.3168 23.6001 23.3734 23.4115 23.3753ZM17.0005 9.31249C17.5514 9.31058 18.0999 9.38578 18.6299 9.53592V8.75217C18.5646 6.60568 15.4409 6.6012 15.3711 8.75221V9.53592C15.9012 9.38578 16.4496 9.31057 17.0005 9.31249ZM14.4052 24.0628C14.6168 24.5932 14.9827 25.048 15.4554 25.3684C15.9282 25.6888 16.4862 25.86 17.0573 25.86C17.6283 25.86 18.1863 25.6887 18.6591 25.3683C19.1318 25.048 19.4976 24.5932 19.7093 24.0627L14.4052 24.0628Z" fill="url(#paint0_linear_985_6)"/>
</g>
<defs>
<filter id="filter0_d_985_6" x="5.61719" y="3.14062" width="26.7598" height="30.7192" filterUnits="userSpaceOnUse" color-interpolation-filters="sRGB">
<feFlood flood-opacity="0" result="BackgroundImageFix"/>
<feColorMatrix in="SourceAlpha" type="matrix" values="0 0 0 0 0 0 0 0 0 0 0 0 0 0 0 0 0 0 127 0" result="hardAlpha"/>
<feOffset dx="2" dy="2"/>
<feGaussianBlur stdDeviation="3"/>
<feComposite in2="hardAlpha" operator="out"/>
<feColorMatrix type="matrix" values="0 0 0 0 0.0901961 0 0 0 0 0.631373 0 0 0 0 1 0 0 0 0.31 0"/>
<feBlend mode="normal" in2="BackgroundImageFix" result="effect1_dropShadow_985_6"/>
<feBlend mode="normal" in="SourceGraphic" in2="effect1_dropShadow_985_6" result="shape"/>
</filter>
<linearGradient id="paint0_linear_985_6" x1="17" y1="24" x2="17" y2="7.5" gradientUnits="userSpaceOnUse">
<stop stop-color="#0EADFF"/>
<stop offset="1" stop-color="#3F72FF"/>
</linearGradient>
</defs>
</svg>
