<svg width="33" height="36" viewBox="0 0 33 36" fill="none" xmlns="http://www.w3.org/2000/svg">
<path d="M22.8728 12.4374L16.4403 15.7389L10.0078 12.4374L16.4403 8.68359L22.8728 12.4374Z" fill="#3F53FE"/>
<path d="M15.6351 17.1861V25.372L9.11328 21.573V13.8394L15.6351 17.1861Z" fill="#3F53FE"/>
<path d="M23.764 13.8394V21.573L17.2422 25.372V17.1861L23.764 13.8394Z" fill="#3F53FE"/>
<path d="M5.13706 23.789V14.5176C7.19188 14.1558 8.75533 12.3468 8.75533 10.1759C8.75533 9.76886 8.71066 9.36183 8.57665 9.00002C8.48731 8.68344 8.3533 8.36685 8.21929 8.0955C7.81726 7.37188 7.23655 6.73871 6.52183 6.33168C6.20914 6.15077 5.80711 5.96987 5.44975 5.87942C5.09239 5.78896 4.73503 5.74374 4.33299 5.74374C1.96548 5.69851 0 7.68846 0 10.1307C0 11.9849 1.16142 13.6131 2.76954 14.2463V25.1005L11.6589 30.4824C11.8376 29.6684 12.2396 28.9447 12.731 28.3568L5.13706 23.789ZM2.36751 10.1307C2.36751 9.00002 3.26091 8.0955 4.37767 8.0955C4.51168 8.0955 4.64569 8.0955 4.82437 8.14072C5.71777 8.32163 6.43249 9.18092 6.43249 10.1307C6.43249 10.2211 6.43249 10.2664 6.43249 10.3568C6.34315 11.397 5.44975 12.1658 4.42234 12.1658C3.26091 12.2111 2.36751 11.2613 2.36751 10.1307Z" fill="#3F53FE"/>
<path d="M28.4983 5.69849C27.6943 5.69849 26.9795 5.92462 26.3542 6.28643L16.4374 0L7.41406 5.74372C8.08411 6.19598 8.62015 6.82915 9.02218 7.55276L16.4374 2.80402L24.612 8.00503C24.2547 8.63819 24.076 9.36181 24.076 10.1307C24.076 11.9849 25.1927 13.5678 26.8009 14.2462C27.1136 14.3819 27.4262 14.4724 27.7389 14.5176C27.9623 14.5628 28.1856 14.5628 28.4537 14.5628C29.0344 14.5628 29.6151 14.4271 30.1064 14.2462C30.4638 14.1106 30.7765 13.9296 31.0445 13.7035C32.1166 12.8894 32.8313 11.5779 32.8313 10.1307C32.876 7.68844 30.9105 5.69849 28.4983 5.69849ZM28.4983 12.2111C27.8283 12.2111 27.2029 11.8492 26.8455 11.3518C26.6222 11.0352 26.4882 10.6281 26.4882 10.1759C26.4882 9.04523 27.3816 8.1407 28.4983 8.1407C29.6151 8.1407 30.5085 9.04523 30.5085 10.1759C30.5085 10.5829 30.3745 10.99 30.1511 11.3065C29.7938 11.8492 29.1684 12.2111 28.4983 12.2111Z" fill="#3F53FE"/>
<path d="M30.1542 15.2864C29.6181 15.4673 29.0821 15.5578 28.5014 15.5578C28.278 15.5578 28.01 15.5578 27.7867 15.5126V23.8342L19.6121 28.7186C18.8527 27.995 17.8252 27.4975 16.6638 27.4975C15.8151 27.4975 14.9664 27.7689 14.2963 28.2211C14.0283 28.402 13.7603 28.6281 13.5369 28.8543C13.0009 29.4422 12.6435 30.1658 12.5095 31.0251C12.4648 31.2513 12.4648 31.5226 12.4648 31.7487C12.4648 31.8844 12.4648 31.9749 12.4648 32.1106C12.6435 34.2814 14.4303 36 16.6638 36C18.9867 36 20.8628 34.1005 20.8628 31.7487C20.8628 31.3869 20.8181 31.0704 20.7288 30.7538L30.1095 25.1457V15.2864H30.1542ZM16.6638 33.6482C15.7704 33.6482 15.011 32.9699 14.8324 32.1106C14.7877 32.0201 14.7877 31.8844 14.7877 31.794C14.7877 30.9799 15.3237 30.2563 16.0831 30.0302C16.2618 29.9849 16.4405 29.9397 16.6638 29.9397C17.6912 29.9397 18.4953 30.799 18.4953 31.794C18.54 32.789 17.6912 33.6482 16.6638 33.6482Z" fill="#3F53FE"/>
</svg>
