<svg width="33" height="33" viewBox="0 0 33 33" fill="none" xmlns="http://www.w3.org/2000/svg">
<path d="M14.0303 1.42592C15.5586 0.543557 17.4415 0.543557 18.9698 1.42592L28.3197 6.82407C29.848 7.70644 30.7895 9.33712 30.7895 11.1019V21.8981C30.7895 23.6629 29.848 25.2936 28.3197 26.1759L18.9698 31.5741C17.4415 32.4564 15.5586 32.4564 14.0303 31.5741L4.68037 26.1759C3.15207 25.2936 2.21059 23.6629 2.21059 21.8981V11.1019C2.21059 9.33712 3.15206 7.70644 4.68037 6.82407L14.0303 1.42592Z" fill="white"/>
<g filter="url(#filter0_d_3519_14625)">
<path d="M8.91992 17.2354V12.7019C8.91992 10.6095 10.6181 8.91895 12.7105 8.91895H20.2916C22.384 8.91895 24.0821 10.6095 24.0821 12.7019V17.9935C24.0821 20.0783 22.384 21.7689 20.2916 21.7689H19.1544C18.9194 21.7689 18.692 21.8826 18.5479 22.0721L17.4108 23.5808C16.9104 24.2479 16.0916 24.2479 15.5913 23.5808L14.4541 22.0721C14.3328 21.9053 14.0599 21.7689 13.8476 21.7689H12.7105C10.6181 21.7689 8.91992 20.0783 8.91992 17.9935V17.2354Z" fill="url(#paint0_linear_3519_14625)"/>
<path d="M16.5003 16.5033C16.0758 16.5033 15.7422 16.1621 15.7422 15.7452C15.7422 15.3282 16.0833 14.9871 16.5003 14.9871C16.9173 14.9871 17.2584 15.3282 17.2584 15.7452C17.2584 16.1621 16.9248 16.5033 16.5003 16.5033Z" fill="white"/>
<path d="M19.5315 16.5033C19.107 16.5033 18.7734 16.1621 18.7734 15.7452C18.7734 15.3282 19.1146 14.9871 19.5315 14.9871C19.9485 14.9871 20.2897 15.3282 20.2897 15.7452C20.2897 16.1621 19.9561 16.5033 19.5315 16.5033Z" fill="white"/>
<path d="M13.469 16.5028C13.0445 16.5028 12.7109 16.1616 12.7109 15.7447C12.7109 15.3277 13.0521 14.9866 13.469 14.9866C13.886 14.9866 14.2272 15.3277 14.2272 15.7447C14.2272 16.1616 13.8936 16.5028 13.469 16.5028Z" fill="white"/>
</g>
<defs>
<filter id="filter0_d_3519_14625" x="4.91992" y="8.91895" width="23.1621" height="23.1621" filterUnits="userSpaceOnUse" color-interpolation-filters="sRGB">
<feFlood flood-opacity="0" result="BackgroundImageFix"/>
<feColorMatrix in="SourceAlpha" type="matrix" values="0 0 0 0 0 0 0 0 0 0 0 0 0 0 0 0 0 0 127 0" result="hardAlpha"/>
<feOffset dy="4"/>
<feGaussianBlur stdDeviation="2"/>
<feComposite in2="hardAlpha" operator="out"/>
<feColorMatrix type="matrix" values="0 0 0 0 0.231771 0 0 0 0 0.563203 0 0 0 0 0.741667 0 0 0 0.4 0"/>
<feBlend mode="normal" in2="BackgroundImageFix" result="effect1_dropShadow_3519_14625"/>
<feBlend mode="normal" in="SourceGraphic" in2="effect1_dropShadow_3519_14625" result="shape"/>
</filter>
<linearGradient id="paint0_linear_3519_14625" x1="16.501" y1="8.91895" x2="16.501" y2="24.0811" gradientUnits="userSpaceOnUse">
<stop stop-color="#3F53FE"/>
<stop offset="1" stop-color="#0DAFFF"/>
</linearGradient>
</defs>
</svg>
