<svg width="37" height="38" viewBox="0 0 37 38" fill="none" xmlns="http://www.w3.org/2000/svg">
<path d="M16.0303 2.17592C17.5586 1.29356 19.4415 1.29356 20.9698 2.17592L32.0518 8.57408C33.5801 9.45644 34.5216 11.0871 34.5216 12.8519V25.6481C34.5216 27.4129 33.5801 29.0436 32.0518 29.9259L20.9698 36.3241C19.4415 37.2064 17.5586 37.2064 16.0303 36.3241L4.94832 29.9259C3.42001 29.0436 2.47854 27.4129 2.47854 25.6481V12.8519C2.47854 11.0871 3.42001 9.45644 4.94832 8.57407L16.0303 2.17592Z" fill="#F5F7F9"/>
<g filter="url(#filter0_d_3415_13312)">
<path d="M10 20.0745V14.9915C10 12.6455 11.904 10.75 14.25 10.75H22.75C25.096 10.75 27.0001 12.6455 27.0001 14.9915V20.9245C27.0001 23.262 25.096 25.1575 22.75 25.1575H21.475C21.2115 25.1575 20.9565 25.285 20.795 25.4975L19.52 27.189C18.959 27.937 18.041 27.937 17.48 27.189L16.205 25.4975C16.069 25.3105 15.763 25.1575 15.525 25.1575H14.25C11.904 25.1575 10 23.262 10 20.9245V20.0745Z" fill="url(#paint0_linear_3415_13312)"/>
<path d="M18.4984 19.2537C18.0224 19.2537 17.6484 18.8712 17.6484 18.4037C17.6484 17.9362 18.0309 17.5537 18.4984 17.5537C18.9659 17.5537 19.3484 17.9362 19.3484 18.4037C19.3484 18.8712 18.9744 19.2537 18.4984 19.2537Z" fill="white"/>
<path d="M21.8988 19.2537C21.4228 19.2537 21.0488 18.8712 21.0488 18.4037C21.0488 17.9362 21.4313 17.5537 21.8988 17.5537C22.3663 17.5537 22.7488 17.9362 22.7488 18.4037C22.7488 18.8712 22.3748 19.2537 21.8988 19.2537Z" fill="white"/>
<path d="M15.1 19.2532C14.624 19.2532 14.25 18.8707 14.25 18.4032C14.25 17.9357 14.6325 17.5532 15.1 17.5532C15.5675 17.5532 15.95 17.9357 15.95 18.4032C15.95 18.8707 15.576 19.2532 15.1 19.2532Z" fill="white"/>
</g>
<defs>
<filter id="filter0_d_3415_13312" x="6" y="10.75" width="25" height="25" filterUnits="userSpaceOnUse" color-interpolation-filters="sRGB">
<feFlood flood-opacity="0" result="BackgroundImageFix"/>
<feColorMatrix in="SourceAlpha" type="matrix" values="0 0 0 0 0 0 0 0 0 0 0 0 0 0 0 0 0 0 127 0" result="hardAlpha"/>
<feOffset dy="4"/>
<feGaussianBlur stdDeviation="2"/>
<feComposite in2="hardAlpha" operator="out"/>
<feColorMatrix type="matrix" values="0 0 0 0 0.231771 0 0 0 0 0.563203 0 0 0 0 0.741667 0 0 0 0.4 0"/>
<feBlend mode="normal" in2="BackgroundImageFix" result="effect1_dropShadow_3415_13312"/>
<feBlend mode="normal" in="SourceGraphic" in2="effect1_dropShadow_3415_13312" result="shape"/>
</filter>
<linearGradient id="paint0_linear_3415_13312" x1="18.5" y1="10.75" x2="18.5" y2="27.75" gradientUnits="userSpaceOnUse">
<stop stop-color="#3F53FE"/>
<stop offset="1" stop-color="#0DAFFF"/>
</linearGradient>
</defs>
</svg>
