<svg width="78" height="75" viewBox="0 0 78 75" fill="none" xmlns="http://www.w3.org/2000/svg">
<path fill-rule="evenodd" clip-rule="evenodd" d="M18.3895 27.4909C17.5902 26.9251 17.2024 26.0065 17.3427 25.0142C18.1232 19.4936 22.7649 15.267 28.149 15.1774L28.1549 15.1772L28.1608 15.1774C33.5445 15.267 38.1872 19.4937 38.9678 25.0142C39.1081 26.0068 38.7198 26.9251 37.9203 27.4909C35.1106 29.4791 31.5265 30.3543 28.1549 30.3543C24.7845 30.3543 21.1979 29.479 18.3895 27.4909Z" fill="#3F53FE"/>
<path fill-rule="evenodd" clip-rule="evenodd" d="M50.1893 27.4909C49.39 26.9251 49.0023 26.0065 49.1425 25.0142C49.923 19.4936 54.5648 15.267 59.9488 15.1774L59.9547 15.1772L59.9606 15.1774C65.3443 15.267 69.987 19.4937 70.7676 25.0142C70.9079 26.0068 70.5196 26.9251 69.7201 27.4909C66.9104 29.4791 63.3263 30.3543 59.9547 30.3543C56.5843 30.3543 52.9978 29.479 50.1893 27.4909Z" fill="#3F53FE"/>
<path fill-rule="evenodd" clip-rule="evenodd" d="M17.4178 24.7764C18.1935 19.5447 22.8089 15.5382 28.1558 15.4532C33.5021 15.5381 38.1181 19.5447 38.8944 24.7764C39.0174 25.6116 38.685 26.363 37.9797 26.8396C35.271 28.6674 31.7149 29.5816 28.1558 29.5816C24.5985 29.5816 21.0401 28.6674 18.332 26.8396C17.6273 26.363 17.2943 25.6116 17.4178 24.7764ZM17.4733 28.0823C20.3341 30.0133 24.1283 31.0769 28.1558 31.0769C32.184 31.0769 35.9774 30.0135 38.8384 28.0823C40.0248 27.2808 40.6084 25.9643 40.4007 24.5582C39.9729 21.6781 38.5101 19.0169 36.2819 17.0682C34.034 15.1005 31.151 13.9922 28.1672 13.9486C28.1595 13.9486 28.1518 13.9486 28.1447 13.9486C25.1603 13.9922 22.2786 15.1005 20.0299 17.0682C17.8016 19.0169 16.339 21.6781 15.9112 24.5582C15.7027 25.9643 16.287 27.2808 17.4733 28.0823ZM28.1558 1.50467C30.729 1.50467 32.8236 3.5744 32.8236 6.11701C32.8236 8.66037 30.729 10.7293 28.1558 10.7293C25.5827 10.7293 23.4892 8.66024 23.4892 6.11701C23.4892 3.57427 25.5827 1.50467 28.1558 1.50467ZM28.1558 12.234C31.5686 12.234 34.3459 9.49014 34.3459 6.11701C34.3459 2.74388 31.5686 0 28.1558 0C24.743 0 21.9662 2.74388 21.9662 6.11701C21.9663 9.49014 24.743 12.234 28.1558 12.234Z" fill="#0A2540"/>
<path fill-rule="evenodd" clip-rule="evenodd" d="M49.2171 24.7764C49.9929 19.5447 54.6082 15.5382 59.9551 15.4532C65.3014 15.5381 69.9174 19.5447 70.6938 24.7764C70.8167 25.6116 70.4843 26.363 69.779 26.8396C67.0703 28.6674 63.5143 29.5816 59.9551 29.5816C56.3978 29.5816 52.8394 28.6674 50.1313 26.8396C49.4266 26.363 49.0936 25.6116 49.2171 24.7764ZM49.2726 28.0823C52.1334 30.0133 55.9276 31.0769 59.9551 31.0769C63.9833 31.0769 67.7768 30.0135 70.6377 28.0823C71.8241 27.2808 72.4077 25.9643 72.2 24.5582C71.7722 21.6781 70.3095 19.0169 68.0813 17.0682C65.8333 15.1005 62.9503 13.9922 59.9666 13.9486C59.9588 13.9486 59.9511 13.9486 59.944 13.9486C56.9596 13.9922 54.0779 15.1005 51.8293 17.0682C49.6009 19.0169 48.1383 21.6781 47.7105 24.5582C47.502 25.9643 48.0863 27.2808 49.2726 28.0823ZM59.9551 1.50467C62.5283 1.50467 64.6229 3.5744 64.6229 6.11701C64.6229 8.66037 62.5283 10.7293 59.9551 10.7293C57.382 10.7293 55.2885 8.66024 55.2885 6.11701C55.2885 3.57427 57.382 1.50467 59.9551 1.50467ZM59.9551 12.234C63.368 12.234 66.1453 9.49014 66.1453 6.11701C66.1453 2.74388 63.368 0 59.9551 0C56.5423 0 53.7655 2.74388 53.7655 6.11701C53.7656 9.49014 56.5423 12.234 59.9551 12.234Z" fill="#0A2540"/>
<path fill-rule="evenodd" clip-rule="evenodd" d="M35.0126 27.4909C34.2133 26.9251 33.8255 26.0065 33.9657 25.0142C34.7462 19.4936 39.388 15.267 44.772 15.1774L44.7779 15.1772L44.7839 15.1774C50.1675 15.267 54.8103 19.4937 55.5908 25.0142C55.7311 26.0068 55.3428 26.9251 54.5433 27.4909C51.7337 29.4791 48.1495 30.3543 44.7779 30.3543C41.4076 30.3543 37.821 29.479 35.0126 27.4909Z" fill="#3F53FE"/>
<path fill-rule="evenodd" clip-rule="evenodd" d="M7.47064 54.8087H7.47885L25.0126 64.933C26.3173 65.6864 26.7679 67.3655 26.0143 68.6706L23.9859 72.1833C23.6213 72.8149 23.0285 73.2658 22.3241 73.4542C21.6217 73.6421 20.8789 73.548 20.249 73.1842L2.81659 63.1184C2.18547 62.754 1.73313 62.1616 1.54421 61.4579C1.35561 60.7552 1.45104 60.0126 1.81487 59.3824L3.84324 55.8697C4.33356 55.0207 5.23807 54.5015 6.21549 54.5015C6.6556 54.5015 7.08589 54.6085 7.47064 54.8087Z" fill="#3F53FE"/>
<path fill-rule="evenodd" clip-rule="evenodd" d="M34.0404 24.7764C34.8161 19.5447 39.4315 15.5382 44.7784 15.4532C50.1247 15.5381 54.7406 19.5447 55.517 24.7764C55.6399 25.6116 55.3075 26.363 54.6022 26.8396C51.8936 28.6674 48.3375 29.5816 44.7784 29.5816C41.221 29.5816 37.6627 28.6674 34.9545 26.8396C34.2499 26.363 33.9168 25.6116 34.0404 24.7764ZM34.0958 28.0823C36.9566 30.0133 40.7508 31.0769 44.7784 31.0769C48.8066 31.0769 52.6 30.0135 55.4609 28.0823C56.6473 27.2808 57.231 25.9643 57.0233 24.5582C56.5954 21.6781 55.1327 19.0169 52.9045 17.0682C50.6565 15.1005 47.7735 13.9922 44.7898 13.9486C44.7821 13.9486 44.7743 13.9486 44.7672 13.9486C41.7828 13.9922 38.9011 15.1005 36.6525 17.0682C34.4242 19.0169 32.9616 21.6781 32.5337 24.5582C32.3253 25.9643 32.9095 27.2808 34.0958 28.0823ZM44.7784 1.50467C47.3515 1.50467 49.4461 3.5744 49.4461 6.11701C49.4461 8.66037 47.3515 10.7293 44.7784 10.7293C42.2052 10.7293 40.1118 8.66024 40.1118 6.11701C40.1118 3.57427 42.2052 1.50467 44.7784 1.50467ZM44.7784 12.234C48.1912 12.234 50.9685 9.49014 50.9685 6.11701C50.9685 2.74388 48.1912 0 44.7784 0C41.3656 0 38.5888 2.74388 38.5888 6.11701C38.5889 9.49014 41.3656 12.234 44.7784 12.234Z" fill="#0A2540"/>
<path fill-rule="evenodd" clip-rule="evenodd" d="M76.0302 38.6578C75.9431 39.068 75.6926 39.4109 75.3217 39.6235L50.9095 53.7196C45.6311 56.7661 41.6371 56.7403 36.1118 56.7047C35.4987 56.7017 34.8691 56.6972 34.2188 56.6972C30.6728 56.6972 27.6226 58.4592 25.8501 61.5291L24.8912 63.1912L9.14977 54.1027L13.4746 46.612C18.2186 38.3946 25.0191 39.3937 30.4142 41.183C30.5125 41.2148 30.6147 41.2314 30.7185 41.2314H44.5602C46.4258 41.2314 47.9435 42.7505 47.9435 44.6153C47.9435 45.5145 47.5893 46.3629 46.949 47.0048C46.3071 47.6451 45.4587 47.9993 44.5603 47.9993H34.1351C33.6023 47.9993 33.1694 48.4321 33.1694 48.9651C33.1694 49.4972 33.6023 49.9301 34.1351 49.9301H44.5603C45.9756 49.9301 47.3085 49.3769 48.3137 48.3694C49.1735 47.5104 49.701 46.4129 49.8381 45.2299L66.5074 36.8976C70.8132 34.745 73.9339 34.9426 75.7775 37.488C76.0286 37.832 76.1172 38.2477 76.0302 38.6578ZM25.5959 68.4294C26.2173 67.3523 25.8464 65.9718 24.7708 65.3512L7.34926 55.2916H7.34781H7.34701L7.33864 55.2871C6.98446 55.0827 6.59761 54.9844 6.21543 54.9844C5.43659 54.9844 4.67754 55.3884 4.26125 56.1113L2.23288 59.624C1.93326 60.1431 1.8536 60.7502 2.01033 61.3329C2.16626 61.9149 2.53863 62.4016 3.05791 62.7005L20.4901 72.7663C21.0092 73.0652 21.6164 73.1439 22.1991 72.988C22.7819 72.8321 23.2677 72.4605 23.5675 71.942L25.5959 68.4294ZM77.3418 36.3532C75.9431 34.4276 72.5651 31.7113 65.6442 35.1709L49.6682 43.156C49.0324 40.9337 46.9844 39.2997 44.56 39.2997H30.8727C25.2642 37.4659 17.2565 36.1997 11.8018 45.6468L7.42183 53.2338C5.60459 52.6836 3.57767 53.432 2.58835 55.1456L0.560628 58.6583C0.00272675 59.6241 -0.144835 60.7518 0.145139 61.8333C0.434308 62.9126 1.12609 63.8157 2.09176 64.3742L19.524 74.4384C20.1665 74.8099 20.881 74.9999 21.6054 74.9999C21.9696 74.9999 22.3366 74.9515 22.6984 74.8546C23.7799 74.5655 24.6822 73.873 25.2399 72.908L27.2676 69.3954C28.2568 67.6809 27.8914 65.5526 26.5078 64.2524L27.522 62.4949C28.9412 60.0373 31.3813 58.628 34.2188 58.628C34.8652 58.628 35.4904 58.6325 36.099 58.6364C41.7119 58.6734 46.1426 58.7022 51.8745 55.3917L76.2875 41.2972C77.1246 40.8143 77.7195 39.9984 77.9193 39.0606C78.119 38.122 77.9079 37.1357 77.3418 36.3532Z" fill="#0A2540"/>
</svg>
