<svg width="14" height="14" viewBox="0 0 14 14" fill="none" xmlns="http://www.w3.org/2000/svg">
<g clip-path="url(#clip0_518_7650)">
<path d="M10.2224 4.62392L10.2958 4.00245L7.29829 7L10.2959 9.99758L10.2224 9.37608C10.2087 9.26038 10.2914 9.15552 10.4071 9.14183C10.5228 9.12828 10.6277 9.21086 10.6414 9.32656L10.7862 10.552C10.7938 10.6161 10.7716 10.6802 10.7259 10.7259C10.6861 10.7657 10.6324 10.7877 10.5768 10.7877C10.5686 10.7877 10.5603 10.7872 10.552 10.7862L9.32659 10.6414C9.21089 10.6277 9.1282 10.5228 9.14186 10.4071C9.15552 10.2914 9.26025 10.2087 9.37611 10.2224L9.99758 10.2959L7 7.29829L4.00242 10.2959L4.62392 10.2224C4.73954 10.2088 4.84448 10.2914 4.85817 10.4071C4.87185 10.5228 4.78914 10.6277 4.67344 10.6414L3.44802 10.7862C3.43977 10.7872 3.43149 10.7877 3.42326 10.7877C3.36766 10.7877 3.31392 10.7657 3.27413 10.7259C3.22846 10.6803 3.20621 10.6162 3.2138 10.552L3.35864 9.32659C3.37232 9.21089 3.47695 9.12812 3.59288 9.14186C3.70858 9.15554 3.79127 9.26041 3.77761 9.37611L3.70415 9.99758L6.70168 7L3.70413 4.00245L3.77759 4.62395C3.79127 4.73965 3.70856 4.84451 3.59286 4.85819C3.58447 4.8592 3.57609 4.85967 3.56784 4.85967C3.46239 4.85967 3.37129 4.78078 3.35861 4.67347L3.21375 3.44805C3.20616 3.3839 3.22841 3.31983 3.27408 3.27413C3.31975 3.22849 3.38385 3.20629 3.448 3.2138L4.67344 3.35864C4.78914 3.37232 4.87183 3.47719 4.85817 3.59288C4.84448 3.70856 4.73967 3.79122 4.62392 3.77761L4.00245 3.70415L7 6.70168L9.99755 3.70413L9.37608 3.77759C9.26043 3.79132 9.15552 3.70856 9.14183 3.59286C9.12815 3.47716 9.21086 3.3723 9.32656 3.35861L10.552 3.21375C10.6161 3.20608 10.6802 3.22838 10.7259 3.27408C10.7716 3.31975 10.7938 3.38385 10.7862 3.448L10.6414 4.67341C10.6287 4.7807 10.5376 4.85962 10.4322 4.85962C10.4239 4.85962 10.4156 4.85914 10.4071 4.85814C10.2914 4.84448 10.2087 4.73962 10.2224 4.62392ZM2.45066 0.460938V2.23972C2.45066 2.35621 2.35621 2.45066 2.23972 2.45066H0.460938C0.344447 2.45066 0.25 2.35621 0.25 2.23972V0.460938C0.25 0.344447 0.344447 0.25 0.460938 0.25H2.23972C2.35624 0.25 2.45066 0.344447 2.45066 0.460938ZM2.02878 0.671875H0.671875V2.02878H2.02878V0.671875ZM2.45066 11.7603V13.5391C2.45066 13.6556 2.35621 13.75 2.23972 13.75H0.460938C0.344447 13.75 0.25 13.6556 0.25 13.5391V11.7603C0.25 11.6438 0.344447 11.5493 0.460938 11.5493H2.23972C2.35624 11.5493 2.45066 11.6438 2.45066 11.7603ZM2.02878 11.9712H0.671875V13.3281H2.02878V11.9712ZM13.75 0.460938V2.23972C13.75 2.35621 13.6556 2.45066 13.5391 2.45066H11.7603C11.6438 2.45066 11.5493 2.35621 11.5493 2.23972V0.460938C11.5493 0.344447 11.6438 0.25 11.7603 0.25H13.5391C13.6556 0.25 13.75 0.344447 13.75 0.460938ZM13.3281 0.671875H11.9712V2.02878H13.3281V0.671875ZM13.75 11.7603V13.5391C13.75 13.6556 13.6556 13.75 13.5391 13.75H11.7603C11.6438 13.75 11.5493 13.6556 11.5493 13.5391V11.7603C11.5493 11.6438 11.6438 11.5493 11.7603 11.5493H13.5391C13.6556 11.5493 13.75 11.6438 13.75 11.7603ZM13.3281 11.9712H11.9712V13.3281H13.3281V11.9712ZM3.08532 1.56127H3.97471C4.0912 1.56127 4.18565 1.46682 4.18565 1.35033C4.18565 1.23384 4.0912 1.13939 3.97471 1.13939H3.08532C2.96883 1.13939 2.87438 1.23384 2.87438 1.35033C2.87438 1.46682 2.96883 1.56127 3.08532 1.56127ZM4.8203 1.56127H5.7097C5.82619 1.56127 5.92063 1.46682 5.92063 1.35033C5.92063 1.23384 5.82619 1.13939 5.7097 1.13939H4.8203C4.70381 1.13939 4.60937 1.23384 4.60937 1.35033C4.60937 1.46682 4.70381 1.56127 4.8203 1.56127ZM6.55529 1.56127H7.44468C7.56117 1.56127 7.65562 1.46682 7.65562 1.35033C7.65562 1.23384 7.56117 1.13939 7.44468 1.13939H6.55529C6.4388 1.13939 6.34435 1.23384 6.34435 1.35033C6.34435 1.46682 6.4388 1.56127 6.55529 1.56127ZM8.29031 1.56127H9.1797C9.29619 1.56127 9.39063 1.46682 9.39063 1.35033C9.39063 1.23384 9.29619 1.13939 9.1797 1.13939H8.29031C8.17381 1.13939 8.07937 1.23384 8.07937 1.35033C8.07937 1.46682 8.17379 1.56127 8.29031 1.56127ZM10.9147 1.13939H10.0253C9.9088 1.13939 9.81435 1.23384 9.81435 1.35033C9.81435 1.46682 9.9088 1.56127 10.0253 1.56127H10.9147C11.0312 1.56127 11.1256 1.46682 11.1256 1.35033C11.1256 1.23384 11.0312 1.13939 10.9147 1.13939ZM3.97473 12.4387H3.08534C2.96885 12.4387 2.87441 12.5332 2.87441 12.6497C2.87441 12.7662 2.96885 12.8606 3.08534 12.8606H3.97473C4.09122 12.8606 4.18567 12.7662 4.18567 12.6497C4.18567 12.5332 4.09122 12.4387 3.97473 12.4387ZM5.7097 12.4387H4.8203C4.70381 12.4387 4.60937 12.5332 4.60937 12.6497C4.60937 12.7662 4.70381 12.8606 4.8203 12.8606H5.7097C5.82619 12.8606 5.92063 12.7662 5.92063 12.6497C5.92063 12.5332 5.82621 12.4387 5.7097 12.4387ZM7.44471 12.4387H6.55532C6.43883 12.4387 6.34438 12.5332 6.34438 12.6497C6.34438 12.7662 6.43883 12.8606 6.55532 12.8606H7.44471C7.5612 12.8606 7.65565 12.7662 7.65565 12.6497C7.65565 12.5332 7.5612 12.4387 7.44471 12.4387ZM9.1797 12.4387H8.29031C8.17381 12.4387 8.07937 12.5332 8.07937 12.6497C8.07937 12.7662 8.17381 12.8606 8.29031 12.8606H9.1797C9.29619 12.8606 9.39063 12.7662 9.39063 12.6497C9.39063 12.5332 9.29619 12.4387 9.1797 12.4387ZM10.9147 12.4387H10.0253C9.9088 12.4387 9.81435 12.5332 9.81435 12.6497C9.81435 12.7662 9.9088 12.8606 10.0253 12.8606H10.9147C11.0312 12.8606 11.1256 12.7662 11.1256 12.6497C11.1256 12.5332 11.0312 12.4387 10.9147 12.4387ZM12.6497 4.18567C12.7662 4.18567 12.8606 4.09122 12.8606 3.97473V3.08534C12.8606 2.96885 12.7662 2.87441 12.6497 2.87441C12.5332 2.87441 12.4387 2.96885 12.4387 3.08534V3.97473C12.4387 4.09122 12.5332 4.18567 12.6497 4.18567ZM12.4387 5.7097C12.4387 5.82619 12.5332 5.92063 12.6497 5.92063C12.7662 5.92063 12.8606 5.82619 12.8606 5.7097V4.8203C12.8606 4.70381 12.7662 4.60937 12.6497 4.60937C12.5332 4.60937 12.4387 4.70381 12.4387 4.8203V5.7097ZM12.4387 7.44471C12.4387 7.5612 12.5332 7.65565 12.6497 7.65565C12.7662 7.65565 12.8606 7.5612 12.8606 7.44471V6.55532C12.8606 6.43883 12.7662 6.34438 12.6497 6.34438C12.5332 6.34438 12.4387 6.43883 12.4387 6.55532V7.44471ZM12.4387 9.1797C12.4387 9.29619 12.5332 9.39063 12.6497 9.39063C12.7662 9.39063 12.8606 9.29619 12.8606 9.1797V8.29031C12.8606 8.17381 12.7662 8.07937 12.6497 8.07937C12.5332 8.07937 12.4387 8.17381 12.4387 8.29031V9.1797ZM12.4387 10.9147C12.4387 11.0312 12.5332 11.1256 12.6497 11.1256C12.7662 11.1256 12.8606 11.0312 12.8606 10.9147V10.0253C12.8606 9.9088 12.7662 9.81435 12.6497 9.81435C12.5332 9.81435 12.4387 9.9088 12.4387 10.0253V10.9147ZM1.35033 4.18567C1.46682 4.18567 1.56127 4.09122 1.56127 3.97473V3.08534C1.56127 2.96885 1.46682 2.87441 1.35033 2.87441C1.23384 2.87441 1.13939 2.96885 1.13939 3.08534V3.97473C1.13939 4.09122 1.23384 4.18567 1.35033 4.18567ZM1.13939 5.7097C1.13939 5.82619 1.23384 5.92063 1.35033 5.92063C1.46682 5.92063 1.56127 5.82619 1.56127 5.7097V4.8203C1.56127 4.70381 1.46682 4.60937 1.35033 4.60937C1.23384 4.60937 1.13939 4.70381 1.13939 4.8203V5.7097ZM1.13939 7.44471C1.13939 7.5612 1.23384 7.65565 1.35033 7.65565C1.46682 7.65565 1.56127 7.5612 1.56127 7.44471V6.55532C1.56127 6.43883 1.46682 6.34438 1.35033 6.34438C1.23384 6.34438 1.13939 6.43883 1.13939 6.55532V7.44471ZM1.13939 9.1797C1.13939 9.29619 1.23384 9.39063 1.35033 9.39063C1.46682 9.39063 1.56127 9.29619 1.56127 9.1797V8.29031C1.56127 8.17381 1.46682 8.07937 1.35033 8.07937C1.23384 8.07937 1.13939 8.17381 1.13939 8.29031V9.1797ZM1.13939 10.9147C1.13939 11.0312 1.23384 11.1256 1.35033 11.1256C1.46682 11.1256 1.56127 11.0312 1.56127 10.9147V10.0253C1.56127 9.9088 1.46682 9.81435 1.35033 9.81435C1.23384 9.81435 1.13939 9.9088 1.13939 10.0253V10.9147Z" fill="black"/>
</g>
<defs>
<clipPath id="clip0_518_7650">
<rect width="13.5" height="13.5" fill="white" transform="translate(0.25 0.25)"/>
</clipPath>
</defs>
</svg>
