<svg width="38" height="38" viewBox="0 0 38 38" fill="none" xmlns="http://www.w3.org/2000/svg">
<circle cx="19" cy="19" r="19" fill="#F5F7F9"/>
<path d="M24.8568 11.6204H23.0475V10.8109C23.0475 10.549 22.7617 10.43 22.4998 10.43H21.0953C20.7619 9.4777 19.9286 9.00154 18.9764 9.00154C18.0345 8.96613 17.1779 9.54364 16.8575 10.43H15.4766C15.2147 10.43 14.9528 10.549 14.9528 10.8109V11.6204H13.1434C12.0712 11.6318 11.194 12.4777 11.1436 13.5488V27.1905C11.1436 28.2381 12.0959 28.9999 13.1434 28.9999H24.8568C25.9044 28.9999 26.8566 28.2381 26.8566 27.1905V13.5488C26.8063 12.4777 25.9291 11.6318 24.8568 11.6204ZM15.9051 11.3823H17.2145C17.4431 11.3544 17.6267 11.1805 17.6669 10.9538C17.8079 10.3398 18.3465 9.89903 18.9764 9.88244C19.6003 9.90135 20.1308 10.3435 20.2619 10.9538C20.3046 11.1884 20.5004 11.3645 20.7381 11.3823H22.0952V13.2869H15.9051V11.3823ZM25.9044 27.1906C25.9044 27.7144 25.3805 28.0477 24.8568 28.0477H13.1434C12.6196 28.0477 12.0959 27.7144 12.0959 27.1906V13.5488C12.1444 13.0036 12.5961 12.5827 13.1434 12.5727H14.9528V13.7869C14.9779 14.0537 15.209 14.2532 15.4766 14.2393H22.4998C22.7724 14.2542 23.0106 14.0574 23.0474 13.7869V12.5727H24.8567C25.404 12.5827 25.8557 13.0036 25.9043 13.5488L25.9044 27.1906Z" fill="#028001"/>
<path d="M17.1671 19.6433C16.9886 19.4551 16.6921 19.4445 16.5005 19.6195L14.9768 21.0717L14.334 20.4051C14.1554 20.2169 13.8589 20.2063 13.6674 20.3814C13.4829 20.5745 13.4829 20.8785 13.6674 21.0717L14.6435 22.0717C14.7279 22.1663 14.85 22.2186 14.9768 22.2145C15.1023 22.2127 15.2221 22.1615 15.31 22.0717L17.167 20.3099C17.3511 20.1411 17.3635 19.8549 17.1945 19.6708C17.1859 19.6612 17.1767 19.652 17.1671 19.6433Z" fill="#028001"/>
<path d="M23.9997 20.6672H18.524C18.261 20.6672 18.0479 20.8804 18.0479 21.1434C18.0479 21.4063 18.261 21.6195 18.524 21.6195H23.9997C24.2627 21.6195 24.4759 21.4063 24.4759 21.1434C24.4759 20.8804 24.2627 20.6672 23.9997 20.6672Z" fill="#028001"/>
<path d="M17.1671 15.8342C16.9886 15.646 16.6921 15.6354 16.5005 15.8105L14.9768 17.2627L14.334 16.5961C14.1554 16.4078 13.8589 16.3972 13.6674 16.5723C13.4829 16.7655 13.4829 17.0695 13.6674 17.2627L14.6435 18.2626C14.7279 18.3573 14.85 18.4095 14.9768 18.4055C15.1023 18.4037 15.2221 18.3523 15.31 18.2626L17.167 16.5009C17.3511 16.332 17.3635 16.0458 17.1945 15.8618C17.1859 15.8521 17.1767 15.843 17.1671 15.8342Z" fill="#028001"/>
<path d="M23.9997 16.8582H18.524C18.261 16.8582 18.0479 17.0713 18.0479 17.3343C18.0479 17.5973 18.261 17.8105 18.524 17.8105H23.9997C24.2627 17.8105 24.4759 17.5973 24.4759 17.3343C24.4759 17.0713 24.2627 16.8582 23.9997 16.8582Z" fill="#028001"/>
<path d="M17.1671 23.4528C16.9886 23.2647 16.6921 23.254 16.5005 23.4291L14.9768 24.8813L14.334 24.2147C14.1554 24.0265 13.8589 24.0158 13.6674 24.1909C13.4829 24.3841 13.4829 24.6881 13.6674 24.8813L14.6435 25.8813C14.7279 25.9758 14.85 26.0282 14.9768 26.0241C15.1023 26.0224 15.2221 25.971 15.31 25.8813L17.167 24.1195C17.3511 23.9507 17.3635 23.6645 17.1945 23.4804C17.1859 23.4708 17.1767 23.4617 17.1671 23.4528Z" fill="#028001"/>
<path d="M23.9997 24.4768H18.524C18.261 24.4768 18.0479 24.69 18.0479 24.953C18.0479 25.216 18.261 25.4292 18.524 25.4292H23.9997C24.2627 25.4292 24.4759 25.216 24.4759 24.953C24.4759 24.69 24.2627 24.4768 23.9997 24.4768Z" fill="#028001"/>
</svg>
