<svg width="32" height="33" viewBox="0 0 32 33" fill="none" xmlns="http://www.w3.org/2000/svg">
<path d="M13.8667 1.23168C15.1868 0.469514 16.8132 0.469514 18.1333 1.23168L27.7231 6.76832C29.0432 7.53049 29.8564 8.93903 29.8564 10.4634V21.5366C29.8564 23.061 29.0432 24.4695 27.7231 25.2317L18.1333 30.7683C16.8132 31.5305 15.1868 31.5305 13.8667 30.7683L4.27693 25.2317C2.95682 24.4695 2.14359 23.061 2.14359 21.5366V10.4634C2.14359 8.93903 2.95682 7.53049 4.27693 6.76832L13.8667 1.23168Z" fill="#BF57FF" fill-opacity="0.14"/>
<g filter="url(#filter0_d_2752_12262)">
<path opacity="0.4" d="M20.8563 19.4842H14.6162C12.7441 19.4842 11.4961 18.6033 11.4961 16.5477V12.4365C11.4961 10.381 12.7441 9.5 14.6162 9.5H20.8563C22.7283 9.5 23.9764 10.381 23.9764 12.4365V16.5477C23.9764 18.6033 22.7283 19.4842 20.8563 19.4842Z" fill="#7400E8"/>
<path d="M20.3071 16.073V19.4593C20.3071 19.7588 20.2738 20.0417 20.199 20.2996C19.8911 21.5227 18.8761 22.2882 17.4783 22.2882H15.2152L12.7025 23.9605C12.3281 24.2185 11.8289 23.9439 11.8289 23.4946V22.2882C10.9802 22.2882 10.273 22.0053 9.7821 21.5144C9.28289 21.0152 9 20.3079 9 19.4593V16.073C9 14.4922 9.98178 13.4022 11.4961 13.2608C11.6042 13.2525 11.7124 13.2441 11.8289 13.2441H17.4783C19.1756 13.2441 20.3071 14.3757 20.3071 16.073Z" fill="#7400E8"/>
</g>
<path d="M14.4 12L17.9 14L21.4 12" stroke="#7400E8" stroke-opacity="0.4" stroke-width="0.8" stroke-linecap="round"/>
<path d="M17.2587 18.9695L16.5609 18.2718C16.3117 18.0226 15.8881 18.1223 15.7884 18.4462C15.7136 18.6705 15.4644 18.7951 15.2401 18.7453C14.7417 18.6207 14.0689 17.9727 13.9443 17.4494C13.8695 17.2251 14.0191 16.9759 14.2433 16.9012C14.5673 16.8015 14.667 16.3778 14.4178 16.1286L13.72 15.4309C13.5207 15.2564 13.2216 15.2564 13.0472 15.4309L12.5737 15.9044C12.1002 16.4028 12.6235 17.7235 13.7948 18.8948C14.966 20.066 16.2868 20.6143 16.7852 20.1159L17.2587 19.6424C17.4331 19.443 17.4331 19.144 17.2587 18.9695Z" fill="#C28BF6"/>
<defs>
<filter id="filter0_d_2752_12262" x="5" y="9.5" width="22.9764" height="22.5601" filterUnits="userSpaceOnUse" color-interpolation-filters="sRGB">
<feFlood flood-opacity="0" result="BackgroundImageFix"/>
<feColorMatrix in="SourceAlpha" type="matrix" values="0 0 0 0 0 0 0 0 0 0 0 0 0 0 0 0 0 0 127 0" result="hardAlpha"/>
<feOffset dy="4"/>
<feGaussianBlur stdDeviation="2"/>
<feComposite in2="hardAlpha" operator="out"/>
<feColorMatrix type="matrix" values="0 0 0 0 0.588235 0 0 0 0 0.235294 0 0 0 0 0.933333 0 0 0 0.27 0"/>
<feBlend mode="normal" in2="BackgroundImageFix" result="effect1_dropShadow_2752_12262"/>
<feBlend mode="normal" in="SourceGraphic" in2="effect1_dropShadow_2752_12262" result="shape"/>
</filter>
</defs>
</svg>
