<svg width="23" height="22" viewBox="0 0 23 22" fill="none" xmlns="http://www.w3.org/2000/svg">
<path d="M1.22958 18.4571C1.22789 18.4571 1.22654 18.4571 1.22485 18.4575C1.02247 18.4651 0.919597 18.6167 0.919434 18.7688C0.919265 18.926 1.02879 19.0837 1.25154 19.0837C1.44192 19.0837 1.57062 18.9339 1.56444 18.7688C1.55859 18.6125 1.38792 18.4309 1.22958 18.4571Z" fill="#028001"/>
<path d="M10.2858 4.07648C10.2592 4.08351 10.2542 4.08846 10.2305 4.0951C9.04386 4.30765 7.94559 5.24446 7.43439 6.26964C6.50632 8.13091 7.11723 10.5822 9.22111 11.6704C9.15528 11.7647 9.09093 11.8599 9.0287 11.955C8.72619 11.6735 8.38276 11.6333 8.02151 11.7841C7.7212 11.311 6.99442 11.2116 6.41652 11.8208C6.10106 11.3085 5.47134 11.4163 5.00585 11.7682C4.63366 12.0492 3.18707 14.3258 2.9386 14.7225C2.65604 15.1732 2.35153 15.7546 2.27458 16.4517C1.77031 16.2941 1.26599 16.57 1.24035 17.0804C0.73352 17.4695 0.345911 17.8962 0.065402 18.228C-0.156618 18.4897 0.239909 18.8252 0.461286 18.5631C0.688489 18.2949 0.992495 17.9615 1.36995 17.6445C1.47403 17.7541 1.59999 18.6584 3.93845 20.1152C4.09545 20.213 4.23466 20.2902 4.35952 20.3513C4.01559 20.715 3.41156 21.2861 3.17539 21.5751C2.95674 21.8427 3.36393 22.1646 3.57735 21.9034C3.81725 21.6098 4.60948 20.8688 4.91084 20.5152C5.31764 20.5448 5.61284 20.2742 5.55939 19.7829C10.6629 18.4676 10.7554 18.4876 11.211 18.1879C11.4662 18.0185 11.7054 17.8231 11.817 17.5395C11.9209 17.4129 11.9773 17.2717 11.9919 17.1599C12.0162 17.0207 12.0044 16.8667 11.9554 16.688C11.6916 15.7399 10.5502 15.9219 9.86792 16.0314C9.49836 16.0903 9.05059 16.1379 8.59853 16.3455C9.38943 14.6605 9.95969 14.2636 11.1938 12.1543C13.216 12.1283 15.1643 10.6921 15.2975 7.85765C15.2975 7.8563 15.2975 7.85495 15.2975 7.85359C15.2581 5.31015 12.8176 3.39492 10.2858 4.07648ZM8.21582 15.9385C8.00237 16.4001 7.99722 16.3843 7.98545 16.4452C7.90683 16.8623 8.17284 17.0617 8.50429 16.9816C8.63503 16.9492 8.79721 16.7049 9.76186 16.5728C10.3334 16.4965 11.2985 16.2632 11.4552 16.8265C11.4832 16.9272 11.4917 17.0093 11.4808 17.0707C11.4808 17.0721 11.4805 17.0734 11.4802 17.0748C11.4481 17.1146 11.539 17.2637 10.9012 17.497C8.901 18.2188 6.08221 18.8791 4.9366 19.0194C4.62492 19.0564 4.63554 19.5156 4.95227 19.5339C5.01621 19.631 5.07283 19.8902 5.0528 19.9578C4.82511 20.2463 3.12504 18.9265 2.84504 18.6887C2.38058 18.2952 2.04415 17.8737 1.84452 17.4355C1.76379 17.2589 1.73879 17.1288 1.76885 17.0386C1.79999 16.95 1.98166 16.8537 2.26405 17.0113C2.29665 17.4302 2.81221 17.3302 2.78221 17.0055C2.67333 15.8233 3.33756 14.9936 4.97477 12.5974C5.0805 12.4411 5.18994 12.2793 5.31864 12.1823C5.50003 12.0448 5.73816 11.96 5.86314 11.9955C5.96212 12.0215 6.04217 12.1803 6.01886 12.3046C6.01492 12.3257 6.01857 12.3458 6.01973 12.3663C5.91711 12.535 5.82785 12.7001 5.71351 12.921C5.55577 13.226 6.0173 13.4642 6.17424 13.1595C6.43599 12.6542 6.85618 11.814 7.38284 11.9236C7.48907 11.9456 7.57783 12.027 7.60569 12.1142C7.43931 12.3473 7.19894 12.7865 6.8309 13.3666C6.64637 13.6563 7.08484 13.9345 7.26867 13.6449C7.77506 12.8465 7.83939 12.6781 8.03139 12.41C8.23403 12.1271 8.6036 12.1679 8.73998 12.4153C8.5074 12.7998 8.34507 13.0909 8.04557 13.6247C7.87776 13.9246 8.33092 14.1777 8.49821 13.8787C8.86543 13.2237 10.4599 10.2967 11.0269 10.8227C11.186 10.968 11.1126 11.1964 11.0174 11.397C10.5896 12.4277 8.74396 14.7271 8.21582 15.9385ZM11.59 11.3554C11.6913 11.0152 11.6388 10.6787 11.3782 10.441C10.8514 9.95059 10.1952 10.4178 9.7399 10.9798C7.50182 9.82867 7.19415 6.69064 9.25721 5.14354C11.505 3.4723 14.7336 5.0471 14.7786 7.85967C14.7642 7.89426 14.7427 11.1162 11.59 11.3554Z" fill="#028001"/>
<path d="M13.5403 6H9.4375C9.19578 6 9 6.19699 9 6.4375V9.0625C9 9.30444 9.19722 9.5 9.4375 9.5H13.5403C13.78 9.5 13.9778 9.30526 13.9778 9.0625V6.4375C13.9778 6.19742 13.7828 6 13.5403 6ZM13.479 6.29167C13.3896 6.38058 11.8514 7.91074 11.7983 7.96357C11.7156 8.04621 11.6058 8.09171 11.4889 8.09171C11.372 8.09171 11.2622 8.0462 11.1793 7.9633C11.1435 7.92776 9.62225 6.4145 9.49877 6.29167H13.479ZM9.29167 9.00314V6.49705L10.552 7.75078L9.29167 9.00314ZM9.49895 9.20833L10.7588 7.95647L10.9733 8.16981C11.111 8.30753 11.2941 8.38337 11.4889 8.38337C11.6837 8.38337 11.8668 8.30753 12.0042 8.17008L12.219 7.95647L13.4788 9.20833H9.49895ZM13.6861 9.00314L12.4257 7.75078L13.6861 6.49705V9.00314Z" fill="#028001"/>
<path d="M22.35 3.58255C22.35 1.60718 20.7428 0 18.7674 0C16.7389 0 15.0224 1.5623 14.9259 3.58254C14.8196 5.80748 16.5981 7.49914 18.6421 7.49097C20.5285 7.48338 22.35 6.02871 22.35 3.58255ZM21.8311 3.58255C21.8311 5.27181 20.4567 6.64626 18.7674 6.64626C17.0782 6.64626 15.7037 5.27181 15.7037 3.58255C15.7037 1.89329 17.0782 0.518838 18.7674 0.518838C20.4567 0.518838 21.8311 1.89329 21.8311 3.58255Z" fill="#028001"/>
<path d="M17.875 5.5C17.8566 5.5 17.8381 5.49587 17.8207 5.48762C17.7776 5.46675 17.75 5.42312 17.75 5.375V4.75H17.375C17.1682 4.75 17 4.58175 17 4.375V2.375C17 2.16825 17.1682 2 17.375 2H20.375C20.5818 2 20.75 2.16825 20.75 2.375V4.375C20.75 4.58175 20.5818 4.75 20.375 4.75H18.8564L17.9531 5.47263C17.9305 5.49075 17.9029 5.5 17.875 5.5ZM17.375 2.25C17.306 2.25 17.25 2.30613 17.25 2.375V4.375C17.25 4.44387 17.306 4.5 17.375 4.5H17.875C17.9441 4.5 18 4.55588 18 4.625V5.115L18.7344 4.52737C18.7566 4.50962 18.784 4.5 18.8125 4.5H20.375C20.444 4.5 20.5 4.44387 20.5 4.375V2.375C20.5 2.30613 20.444 2.25 20.375 2.25H17.375Z" fill="#028001"/>
<path d="M19.875 3.25049H17.875C17.8059 3.25049 17.75 3.19449 17.75 3.12549C17.75 3.05649 17.8059 3.00049 17.875 3.00049H19.875C19.9441 3.00049 20 3.05649 20 3.12549C20 3.19449 19.9441 3.25049 19.875 3.25049Z" fill="#028001"/>
<path d="M18.875 3.75H17.875C17.8059 3.75 17.75 3.694 17.75 3.625C17.75 3.556 17.8059 3.5 17.875 3.5H18.875C18.9441 3.5 19 3.556 19 3.625C19 3.694 18.9441 3.75 18.875 3.75Z" fill="#028001"/>
<path d="M3.91631 7.44748C5.90236 7.43949 7.66739 5.7896 7.66739 3.58255C7.66739 1.60718 6.06055 0 4.08518 0C3.83315 0 3.58737 0.0268539 3.34988 0.0765928C1.31874 0.22311 0.246645 1.96841 0.237365 3.72376C0.227526 5.58501 1.41261 7.45757 3.91631 7.44748ZM7.14855 3.58255C7.14855 5.27181 5.77444 6.64626 4.08518 6.64626C2.39592 6.64626 1.02147 5.27181 1.02147 3.58255C1.02147 1.89329 2.39592 0.518838 4.08518 0.518838C5.77444 0.518838 7.14855 1.89329 7.14855 3.58255Z" fill="#028001"/>
<path d="M5.16313 4.16832C5.08111 4.09371 4.98219 4.05382 4.87735 4.05382C4.77335 4.05382 4.67358 4.09297 4.58818 4.16758L4.321 4.40027C4.29902 4.38993 4.27704 4.38032 4.2559 4.37072C4.22546 4.35742 4.19672 4.34486 4.1722 4.33157C3.92193 4.19269 3.69449 4.01171 3.47635 3.77754C3.37066 3.66083 3.29964 3.56258 3.24806 3.46286C3.31739 3.40746 3.38165 3.34984 3.44422 3.29443C3.46789 3.27375 3.49157 3.25233 3.51524 3.23164C3.6928 3.07652 3.6928 2.87559 3.51524 2.72046L3.28442 2.5188C3.25821 2.4959 3.23115 2.47226 3.20579 2.44862C3.15506 2.40282 3.10179 2.35555 3.04683 2.31123C2.96482 2.24031 2.86674 2.20264 2.76359 2.20264C2.66044 2.20264 2.56067 2.24031 2.47612 2.31123C2.47527 2.31196 2.47527 2.31196 2.47442 2.3127L2.18695 2.56608C2.07873 2.66063 2.01701 2.77587 2.00348 2.90957C1.98319 3.12527 2.0559 3.3262 2.1117 3.45769C2.24868 3.7805 2.45329 4.07967 2.75851 4.40027C3.12884 4.78661 3.57443 5.09169 4.08342 5.30665C4.27788 5.38717 4.53745 5.48246 4.82746 5.49871C4.84522 5.49945 4.86382 5.50019 4.88073 5.50019C5.07604 5.50019 5.24007 5.43888 5.36858 5.31699C5.36943 5.31552 5.37112 5.31478 5.37197 5.3133C5.41593 5.26676 5.46666 5.22466 5.51993 5.17959C5.55629 5.14931 5.59349 5.11754 5.62984 5.0843C5.71355 5.00822 5.75752 4.91957 5.75752 4.82871C5.75752 4.73711 5.7127 4.64921 5.62731 4.57534L5.16313 4.16832ZM5.46582 4.94617C5.46497 4.9469 5.46497 4.94617 5.46582 4.94617C5.43284 4.97719 5.39902 5.00526 5.36267 5.03629C5.30771 5.08209 5.2519 5.1301 5.19948 5.18403C5.11409 5.26381 5.01347 5.30148 4.88157 5.30148C4.86889 5.30148 4.85536 5.30148 4.84268 5.30074C4.59157 5.28671 4.35821 5.20102 4.18319 5.12789C3.70463 4.92548 3.28442 4.63813 2.93522 4.27395C2.64691 3.97034 2.45413 3.68964 2.32646 3.38825C2.24783 3.20431 2.21908 3.06101 2.23177 2.92582C2.24022 2.8394 2.27827 2.76774 2.34844 2.70643L2.63676 2.45453C2.67819 2.42055 2.72216 2.40209 2.76528 2.40209C2.81854 2.40209 2.86167 2.43016 2.88872 2.45379C2.88957 2.45453 2.89041 2.45527 2.89126 2.45601C2.94283 2.49812 2.99187 2.5417 3.04345 2.58824C3.06966 2.61188 3.09672 2.63551 3.12377 2.65989L3.35459 2.86156C3.44422 2.93986 3.44422 3.01225 3.35459 3.09055C3.33007 3.11198 3.3064 3.1334 3.28188 3.15408C3.21086 3.21761 3.14322 3.27671 3.06966 3.33432C3.06797 3.3358 3.06628 3.33654 3.06543 3.33802C2.99272 3.40155 3.00625 3.4636 3.02147 3.5057C3.02231 3.50792 3.02316 3.51013 3.024 3.51235C3.08403 3.63941 3.16858 3.75908 3.2971 3.90164L3.29795 3.90238C3.5313 4.15354 3.77735 4.3493 4.04875 4.49925C4.08342 4.51846 4.11893 4.53397 4.15275 4.54875C4.18319 4.56204 4.21193 4.5746 4.23645 4.5879C4.23984 4.58937 4.24322 4.59159 4.2466 4.59307C4.27535 4.60563 4.3024 4.61153 4.33031 4.61153C4.40048 4.61153 4.44445 4.57312 4.45882 4.56056L4.74798 4.30793C4.77673 4.28281 4.82239 4.25253 4.87566 4.25253C4.92808 4.25253 4.9712 4.28134 4.99741 4.30645C4.99825 4.30719 4.99825 4.30719 4.9991 4.30793L5.46497 4.71495C5.55206 4.7903 5.55206 4.86786 5.46582 4.94617Z" fill="#028001"/>
<path d="M4.16183 2.83259C4.38335 2.8651 4.58458 2.9567 4.74522 3.09705C4.90587 3.2374 5.00987 3.41321 5.04791 3.60675C5.05721 3.65551 5.10541 3.68949 5.16037 3.68949C5.16713 3.68949 5.17305 3.68875 5.17981 3.68801C5.24238 3.67914 5.28381 3.62744 5.27366 3.57277C5.22801 3.3386 5.10118 3.12512 4.90756 2.95596C4.71394 2.7868 4.46959 2.67599 4.20156 2.6361C4.139 2.62724 4.08066 2.66343 4.06967 2.71736C4.05867 2.77128 4.09926 2.82373 4.16183 2.83259Z" fill="#028001"/>
<path d="M5.99809 3.54392C5.92284 3.15832 5.71485 2.80744 5.39525 2.52821C5.07565 2.24898 4.67403 2.06726 4.23268 2.00152C4.17096 1.99192 4.11262 2.02885 4.10162 2.08278C4.09148 2.13744 4.13291 2.18841 4.19548 2.19801C4.58948 2.25637 4.94882 2.41962 5.2346 2.66857C5.52038 2.91825 5.70639 3.23219 5.77319 3.57643C5.78249 3.62518 5.83068 3.65916 5.88564 3.65916C5.8924 3.65916 5.89832 3.65842 5.90508 3.65768C5.96681 3.64956 6.00908 3.59785 5.99809 3.54392Z" fill="#028001"/>
<path d="M10.2384 2.87276C10.3047 3.20886 10.8144 3.10873 10.7471 2.77143C10.6687 2.3769 10.5623 2.00466 10.4306 1.66451C10.3068 1.3442 9.82303 1.53194 9.94686 1.85164C10.0678 2.16409 10.1657 2.50728 10.2384 2.87276Z" fill="#028001"/>
<path d="M12.1354 2.77196C12.245 2.29459 12.3536 1.66258 12.4793 1.22119C12.5735 0.892496 12.0756 0.746441 11.9807 1.07865C11.8471 1.54622 11.7377 2.18642 11.6294 2.65576C11.553 2.99132 12.0583 3.10573 12.1354 2.77196Z" fill="#028001"/>
<path d="M13.4523 3.22902L14.1032 2.44671C14.3235 2.18263 13.9222 1.85064 13.7046 2.11501L13.0533 2.89732C12.8318 3.16382 13.2388 3.4877 13.4523 3.22902Z" fill="#028001"/>
</svg>
