<svg width="88" height="88" viewBox="0 0 88 88" fill="none" xmlns="http://www.w3.org/2000/svg">
<path d="M79.42 38.2799L75.8267 53.6065C72.7467 66.8432 66.66 72.1965 55.22 71.0965C53.3867 70.9499 51.4067 70.6199 49.28 70.1065L43.12 68.6399C27.83 65.0099 23.1 57.4565 26.6933 42.1299L30.2867 26.7665C31.02 23.6499 31.9 20.9365 33 18.6999C37.29 9.82653 44.5867 7.4432 56.8333 10.3399L62.9567 11.7699C78.32 15.3632 83.0133 22.9532 79.42 38.2799Z" stroke="#464B70" stroke-width="2.5" stroke-linecap="round" stroke-linejoin="round"/>
<path d="M55.22 71.0959C52.9467 72.6359 50.0867 73.9192 46.6033 75.0559L40.81 76.9626C26.2533 81.6559 18.59 77.7326 13.86 63.1759L9.16667 48.6926C4.47333 34.1359 8.36 26.4359 22.9167 21.7426L28.71 19.8359C30.2133 19.3592 31.6433 18.9559 33 18.6992C31.9 20.9359 31.02 23.6492 30.2867 26.7659L26.6933 42.1292C23.1 57.4559 27.83 65.0092 43.12 68.6392L49.28 70.1059C51.4067 70.6192 53.3867 70.9492 55.22 71.0959Z" stroke="#464B70" stroke-width="2.5" stroke-linecap="round" stroke-linejoin="round"/>
<path d="M46.3467 31.2773L64.13 35.7873" stroke="#464B70" stroke-width="2.5" stroke-linecap="round" stroke-linejoin="round"/>
<path d="M42.7533 45.4668L53.3867 48.1801" stroke="#464B70" stroke-width="2.5" stroke-linecap="round" stroke-linejoin="round"/>
</svg>
