<svg width="24" height="24" viewBox="0 0 24 24" fill="none" xmlns="http://www.w3.org/2000/svg">
<g clip-path="url(#clip0_2670_11492)">
<path d="M11.7299 0.840436C12.1256 1.10421 12.7732 1.10421 13.1684 0.840436L14.2134 0.142472C14.609 -0.121662 15.1405 -0.0076733 15.3949 0.395475L16.0671 1.46111C16.3214 1.86403 16.9126 2.12862 17.3807 2.04902L18.618 1.83828C19.0862 1.75859 19.5262 2.07957 19.5952 2.55177L19.7787 3.79768C19.8483 4.26998 20.2809 4.75422 20.741 4.87332L21.9551 5.18809C22.4153 5.30765 22.6869 5.78166 22.5591 6.24137L22.2228 7.45263C22.0952 7.91229 22.2949 8.53147 22.667 8.82828L23.6526 9.61417C24.0246 9.91098 24.081 10.4544 23.7783 10.8224L22.9781 11.7933C22.6755 12.161 22.6079 12.8081 22.8276 13.2312L23.4087 14.3478C23.6286 14.7711 23.461 15.291 23.0356 15.5032L21.9116 16.064C21.4862 16.2764 21.1628 16.8401 21.1925 17.3164L21.2701 18.5742C21.3002 19.0503 20.9359 19.457 20.4612 19.4774L19.2082 19.5307C18.7339 19.5511 18.2103 19.9338 18.0445 20.3815L17.6086 21.5618C17.4428 22.0095 16.9461 22.2322 16.5045 22.0566L15.3372 21.5928C14.896 21.417 14.2627 21.5522 13.9303 21.8934L13.0536 22.7935C12.7211 23.1344 12.1776 23.1344 11.8448 22.7939L10.9667 21.8932C10.6342 21.5524 10.0009 21.4172 9.55935 21.5929L8.39262 22.0567C7.95113 22.2324 7.4544 22.0098 7.28891 21.5619L6.85201 20.3816C6.68639 19.9341 6.16283 19.5512 5.68825 19.5308L4.43576 19.4775C3.96105 19.4571 3.59721 19.0503 3.62684 18.5742L3.70521 17.3165C3.7347 16.8403 3.41088 16.2765 2.9856 16.0641L1.86195 15.5033C1.43671 15.2911 1.26857 14.7713 1.48857 14.3479L2.06966 13.2313C2.28953 12.8082 2.22191 12.1611 1.91881 11.7938L1.11861 10.8216C0.815732 10.4542 0.872454 9.91075 1.24435 9.61394L2.23015 8.82805C2.60205 8.53125 2.80202 7.91243 2.67443 7.45254L2.33734 6.24078C2.20967 5.78112 2.4814 5.30742 2.94112 5.18859L4.15616 4.87314C4.61588 4.75417 5.04909 4.26993 5.11846 3.79764L5.30182 2.55172C5.37133 2.07952 5.81111 1.75855 6.27921 1.83824L7.51661 2.04897C7.98485 2.12857 8.57598 1.86399 8.82997 1.46106L9.50186 0.39543C9.75586 -0.00771853 10.2877 -0.121708 10.6836 0.142427L11.7299 0.840436Z" fill="#A5E79B"/>
<path d="M20.1447 11.455C20.1447 15.7435 16.6679 19.2199 12.3798 19.2199C8.092 19.2199 4.61523 15.7435 4.61523 11.455C4.61523 7.16789 8.09186 3.69141 12.3798 3.69141C16.6679 3.69141 20.1447 7.16789 20.1447 11.455Z" fill="#21C607"/>
<path d="M11.2259 14.7224C11.0567 14.8912 10.7829 14.8912 10.6137 14.7224L7.97491 12.0892C7.64917 11.7641 7.64911 11.2364 7.97479 10.9112C8.29957 10.587 8.82553 10.5869 9.15041 10.9111L10.6137 12.3709C10.7829 12.5397 11.0567 12.5397 11.2259 12.3709L15.634 7.97165C15.959 7.64736 16.4851 7.64745 16.81 7.97186C17.1356 8.29703 17.1355 8.82473 16.8098 9.1498L11.2259 14.7224Z" fill="white"/>
</g>
<defs>
<clipPath id="clip0_2670_11492">
<rect width="24" height="24" fill="white"/>
</clipPath>
</defs>
</svg>
