<svg width="27" height="27" viewBox="0 0 27 27" fill="none" xmlns="http://www.w3.org/2000/svg">
<path d="M13.1949 0.94549C13.6401 1.24223 14.3687 1.24223 14.8132 0.94549L15.9889 0.160281C16.4339 -0.13687 17.0318 -0.00863246 17.318 0.444909L18.0742 1.64375C18.3604 2.09703 19.0255 2.3947 19.5521 2.30515L20.944 2.06807C21.4708 1.97842 21.9658 2.33951 22.0433 2.87074L22.2498 4.2724C22.3281 4.80372 22.8148 5.34849 23.3324 5.48248L24.6983 5.8366C25.216 5.9711 25.5216 6.50437 25.3778 7.02154L24.9995 8.3842C24.8558 8.90133 25.0805 9.59791 25.4991 9.93182L26.6079 10.8159C27.0264 11.1498 27.0899 11.7612 26.7493 12.1752L25.8492 13.2675C25.5087 13.6811 25.4326 14.4091 25.6799 14.8851L26.3336 16.1413C26.581 16.6175 26.3924 17.2024 25.9138 17.4411L24.6493 18.072C24.1707 18.3109 23.807 18.9451 23.8403 19.481L23.9277 20.8959C23.9615 21.4316 23.5517 21.8891 23.0176 21.9121L21.608 21.972C21.0744 21.995 20.4854 22.4256 20.2988 22.9291L19.8085 24.257C19.6219 24.7607 19.0631 25.0112 18.5664 24.8137L17.2532 24.2919C16.7567 24.0941 16.0443 24.2462 15.6704 24.63L14.6841 25.6427C14.3101 26.0262 13.6985 26.0262 13.3242 25.6432L12.3364 24.6299C11.9622 24.2465 11.2498 24.0944 10.753 24.292L9.44048 24.8138C8.9438 25.0115 8.38498 24.761 8.19881 24.2571L7.7073 22.9293C7.52097 22.4258 6.93197 21.9951 6.39807 21.9721L4.98901 21.9122C4.45496 21.8892 4.04564 21.4316 4.07897 20.896L4.16714 19.4811C4.20031 18.9453 3.83602 18.311 3.35758 18.0721L2.09347 17.4412C1.61508 17.2025 1.42592 16.6177 1.67342 16.1414L2.32715 14.8852C2.5745 14.4092 2.49843 13.6813 2.15744 13.268L1.25722 12.1743C0.916477 11.7609 0.98029 11.1496 1.39867 10.8157L2.5077 9.93156C2.92608 9.59765 3.15105 8.90148 3.00752 8.3841L2.62829 7.02088C2.48466 6.50375 2.79035 5.97085 3.30754 5.83716L4.67446 5.48228C5.19165 5.34844 5.679 4.80367 5.75705 4.27234L5.96333 2.87069C6.04152 2.33946 6.53628 1.97837 7.06289 2.06802L8.45497 2.3051C8.98173 2.39464 9.64676 2.09698 9.9325 1.6437L10.6884 0.444858C10.9741 -0.00868334 11.5725 -0.136921 12.0178 0.16023L13.1949 0.94549Z" fill="#A5E79B"/>
<path d="M22.664 12.8874C22.664 17.7119 18.7526 21.6228 13.9285 21.6228C9.10472 21.6228 5.19336 17.7119 5.19336 12.8874C5.19336 8.06436 9.10456 4.15332 13.9285 4.15332C18.7526 4.15332 22.664 8.06436 22.664 12.8874Z" fill="#21C607"/>
<path d="M12.5906 16.6006C12.4215 16.7694 12.1476 16.7694 11.9784 16.6006L8.97153 13.6001C8.60507 13.2344 8.60501 12.6407 8.9714 12.2749C9.33677 11.9102 9.92847 11.9101 10.294 12.2747L11.9784 13.9552C12.1476 14.124 12.4215 14.124 12.5906 13.9552L17.588 8.96787C17.9536 8.60304 18.5455 8.60314 18.911 8.96809C19.2773 9.33391 19.2772 9.92758 18.9107 10.2933L12.5906 16.6006Z" fill="white"/>
</svg>
