<svg width="110" height="110" viewBox="0 0 110 110" fill="none" xmlns="http://www.w3.org/2000/svg">
<path d="M95.5786 23.5881L72.662 0.671385C72.2322 0.241699 71.6503 0 71.0417 0H22.9165C17.861 0 13.75 4.11103 13.75 9.16674V100.833C13.75 105.889 17.861 110 22.9167 110H87.0833C92.1389 110 96.25 105.889 96.25 100.833V25.2083C96.25 24.5996 96.0084 24.0178 95.5786 23.5881ZM73.3333 7.82397L88.4261 22.9167H77.9167C75.39 22.9167 73.3333 20.86 73.3333 18.3335V7.82397ZM91.6667 100.833C91.6667 103.36 89.61 105.417 87.0833 105.417H22.9167C20.3902 105.417 18.3335 103.36 18.3335 100.833V9.16674C18.3335 6.64019 20.3902 4.58348 22.9167 4.58348H68.75V18.3335C68.75 23.389 72.8611 27.5 77.9167 27.5H91.6667V100.833Z" fill="#CCD5DF"/>
<path d="M66.6842 67.2746C64.5627 65.6052 62.5464 63.8888 61.2036 62.5457C59.4579 60.8004 57.9025 59.1082 56.551 57.4971C58.6593 50.9825 59.5833 47.6231 59.5833 45.8327C59.5833 38.2258 56.8352 36.666 52.7083 36.666C49.573 36.666 45.8333 38.2951 45.8333 46.0519C45.8333 49.4718 47.7066 53.6233 51.4195 58.4482C50.5109 61.221 49.4432 64.419 48.2438 68.0244C47.6663 69.7544 47.0397 71.3567 46.3771 72.8381C45.8381 73.0779 45.3141 73.3217 44.8085 73.5743C42.9869 74.4855 41.257 75.3043 39.6521 76.0655C32.334 79.5297 27.5 81.8214 27.5 86.3464C27.5 89.6318 31.0696 91.666 34.375 91.666C38.636 91.666 45.0703 85.975 49.7699 76.3874C54.6484 74.4627 60.7134 73.0371 65.5006 72.1443C69.3363 75.0938 73.5728 77.916 75.625 77.916C81.3072 77.916 82.5 74.6307 82.5 71.8756C82.5 66.4577 76.3096 66.4577 73.3333 66.4577C72.409 66.4577 69.9296 66.7308 66.6842 67.2746ZM34.375 87.0827C33.0657 87.0827 32.1795 86.4652 32.0833 86.3464C32.0833 84.7217 36.9285 82.4256 41.6148 80.2055C41.9122 80.0647 42.2147 79.9235 42.5212 79.7779C39.0793 84.769 35.6752 87.0827 34.375 87.0827ZM50.4167 46.0519C50.4167 41.2493 51.9072 41.2493 52.7083 41.2493C54.329 41.2493 55.0004 41.2493 55.0004 45.8327C55.0004 46.7996 54.3558 49.2166 53.1762 52.99C51.3766 50.2191 50.4167 47.8449 50.4167 46.0519ZM52.1734 70.6831C52.3167 70.2846 52.4557 69.882 52.5899 69.4746C53.4402 66.9233 54.2058 64.6317 54.8882 62.5681C55.8393 63.6156 56.8645 64.6878 57.9634 65.7863C58.3931 66.2161 59.4583 67.183 60.8773 68.3933C58.0525 69.009 55.0469 69.772 52.1734 70.6831ZM77.9167 71.8759C77.9167 72.9055 77.9167 73.3327 75.7907 73.3463C75.1663 73.2121 73.7227 72.3617 71.9415 71.1488C72.5879 71.0769 73.0646 71.0414 73.3333 71.0414C76.7195 71.0414 77.6794 71.3725 77.9167 71.8759Z" fill="#CCD5DF"/>
</svg>
