<svg width="128" height="128" viewBox="0 0 128 128" fill="none" xmlns="http://www.w3.org/2000/svg">
<g filter="url(#filter0_d_2665_12151)">
<path d="M59 107C86.6142 107 109 84.6142 109 57C109 29.3858 86.6142 7 59 7C31.3858 7 9 29.3858 9 57C9 84.6142 31.3858 107 59 107Z" fill="white"/>
<path d="M56 48H62C63.0963 48 64 48.9231 64 50.0769V81.9231C64 83.0615 63.1111 84 62 84H56C54.9037 84 54 83.0769 54 81.9231V50.0769C54 48.9385 54.8889 48 56 48Z" fill="#FE6C5F"/>
<path d="M59 42C62.3137 42 65 39.3137 65 36C65 32.6863 62.3137 30 59 30C55.6863 30 53 32.6863 53 36C53 39.3137 55.6863 42 59 42Z" fill="#FE6C5F"/>
</g>
<defs>
<filter id="filter0_d_2665_12151" x="0" y="0" width="128" height="128" filterUnits="userSpaceOnUse" color-interpolation-filters="sRGB">
<feFlood flood-opacity="0" result="BackgroundImageFix"/>
<feColorMatrix in="SourceAlpha" type="matrix" values="0 0 0 0 0 0 0 0 0 0 0 0 0 0 0 0 0 0 127 0" result="hardAlpha"/>
<feOffset dx="5" dy="7"/>
<feGaussianBlur stdDeviation="7"/>
<feComposite in2="hardAlpha" operator="out"/>
<feColorMatrix type="matrix" values="0 0 0 0 0.916667 0 0 0 0 0.840278 0 0 0 0 0.859375 0 0 0 0.54 0"/>
<feBlend mode="normal" in2="BackgroundImageFix" result="effect1_dropShadow_2665_12151"/>
<feBlend mode="normal" in="SourceGraphic" in2="effect1_dropShadow_2665_12151" result="shape"/>
</filter>
</defs>
</svg>
