<svg width="18" height="18" viewBox="0 0 18 18" fill="none" xmlns="http://www.w3.org/2000/svg">
<g clip-path="url(#clip0_653_9803)">
<path d="M15.0945 14.7558C15.0476 14.282 14.7937 13.8587 14.3977 13.5945L11.7131 11.8049C11.0864 11.3873 10.2485 11.4717 9.7165 12.0027L8.85854 12.8678C8.66336 12.9358 7.76061 12.5532 6.59828 11.3904C5.43545 10.227 5.05798 9.33197 5.10741 9.1538L5.98751 8.2737C6.51897 7.74224 6.60239 6.90229 6.18526 6.2771L4.3957 3.5925C4.1315 3.19647 3.70819 2.9426 3.23442 2.89574C2.7596 2.84835 2.29716 3.0152 1.96085 3.35151L0.633212 4.67915C-1.18623 6.49859 1.18323 10.4969 4.33801 13.6522C6.48275 15.797 11.1762 19.4944 13.3111 17.357L14.6387 16.0294C14.975 15.6936 15.1413 15.229 15.0945 14.7558Z" fill="url(#paint0_linear_653_9803)"/>
<path d="M10.0898 0C9.79836 0 9.5625 0.235863 9.5625 0.527344C9.5625 0.818824 9.79836 1.05469 10.0898 1.05469C13.8698 1.05469 16.9453 4.13016 16.9453 7.91016C16.9453 8.20164 17.1812 8.4375 17.4727 8.4375C17.7641 8.4375 18 8.20164 18 7.91016C18 3.54825 14.4517 0 10.0898 0ZM10.0898 2.10938C9.79836 2.10938 9.5625 2.34524 9.5625 2.63672C9.5625 2.9282 9.79836 3.16406 10.0898 3.16406C12.707 3.16406 14.8359 5.29302 14.8359 7.91016C14.8359 8.20164 15.0718 8.4375 15.3633 8.4375C15.6548 8.4375 15.8906 8.20164 15.8906 7.91016C15.8906 4.71161 13.2884 2.10938 10.0898 2.10938ZM10.0898 4.21875C9.79836 4.21875 9.5625 4.45461 9.5625 4.74609C9.5625 5.03757 9.79836 5.27344 10.0898 5.27344C11.5437 5.27344 12.7266 6.45634 12.7266 7.91016C12.7266 8.20164 12.9624 8.4375 13.2539 8.4375C13.5454 8.4375 13.7812 8.20164 13.7812 7.91016C13.7812 5.87493 12.1251 4.21875 10.0898 4.21875ZM10.0898 6.32812C9.79836 6.32812 9.5625 6.56399 9.5625 6.85547C9.5625 7.14695 9.79836 7.38281 10.0898 7.38281C10.3808 7.38281 10.6172 7.6192 10.6172 7.91016C10.6172 8.20164 10.8531 8.4375 11.1445 8.4375C11.436 8.4375 11.6719 8.20164 11.6719 7.91016C11.6719 7.03779 10.9622 6.32812 10.0898 6.32812Z" fill="url(#paint1_linear_653_9803)"/>
</g>
<defs>
<linearGradient id="paint0_linear_653_9803" x1="7.55112" y1="18" x2="7.55112" y2="2.88776" gradientUnits="userSpaceOnUse">
<stop stop-color="#5558FF"/>
<stop offset="1" stop-color="#00C0FF"/>
</linearGradient>
<linearGradient id="paint1_linear_653_9803" x1="13.7812" y1="8.4375" x2="13.7812" y2="0" gradientUnits="userSpaceOnUse">
<stop stop-color="#ADDCFF"/>
<stop offset="0.5028" stop-color="#EAF6FF"/>
<stop offset="1" stop-color="#EAF6FF"/>
</linearGradient>
<clipPath id="clip0_653_9803">
<rect width="18" height="18" fill="white"/>
</clipPath>
</defs>
</svg>
