<svg width="17" height="17" viewBox="0 0 17 17" fill="none" xmlns="http://www.w3.org/2000/svg">
<path d="M10.1145 3.71464C10.8376 3.85571 11.5021 4.20935 12.0231 4.73029C12.544 5.25122 12.8977 5.91576 13.0387 6.63884M10.1145 0.753418C11.6168 0.920309 13.0177 1.59305 14.0872 2.66119C15.1567 3.72932 15.8312 5.12937 16 6.63144M15.2596 12.5391V14.76C15.2605 14.9662 15.2182 15.1702 15.1357 15.3591C15.0531 15.5481 14.9319 15.7176 14.78 15.857C14.6281 15.9964 14.4487 16.1025 14.2534 16.1686C14.0581 16.2346 13.8511 16.2592 13.6458 16.2406C11.3677 15.9931 9.17952 15.2146 7.25695 13.9679C5.46825 12.8312 3.95174 11.3147 2.81512 9.52603C1.56399 7.59473 0.785386 5.39587 0.542386 3.10759C0.523886 2.90287 0.548216 2.69654 0.613826 2.50174C0.679435 2.30694 0.784888 2.12793 0.92347 1.97612C1.06205 1.82431 1.23072 1.70301 1.41875 1.61996C1.60678 1.53691 1.81004 1.49392 2.01559 1.49372H4.23651C4.59578 1.49019 4.94408 1.61741 5.21649 1.85168C5.4889 2.08596 5.66683 2.41129 5.71712 2.76705C5.81086 3.47779 5.9847 4.17564 6.23533 4.8473C6.33493 5.11228 6.35649 5.40025 6.29745 5.6771C6.2384 5.95394 6.10123 6.20807 5.90219 6.40935L4.96201 7.34953C6.01587 9.20292 7.55045 10.7375 9.40383 11.7914L10.344 10.8512C10.5453 10.6521 10.7994 10.515 11.0763 10.4559C11.3531 10.3969 11.6411 10.4184 11.9061 10.518C12.5777 10.7687 13.2756 10.9425 13.9863 11.0363C14.3459 11.087 14.6744 11.2681 14.9091 11.5452C15.1439 11.8223 15.2687 12.176 15.2596 12.5391Z" stroke="#464B70" strokeLinecap="round" strokeLinejoin="round"/>
</svg>
