<svg width="14" height="14" viewBox="0 0 14 14" fill="none" xmlns="http://www.w3.org/2000/svg">
<g clip-path="url(#clip0_518_7478)">
<path d="M13.6886 7.54552C13.8611 7.20381 13.8611 6.79583 13.6886 6.45412L13.51 6.10027C13.471 6.02313 13.4574 5.93723 13.4706 5.85181L13.5311 5.46008C13.5896 5.0818 13.4636 4.69377 13.1939 4.42211L12.9147 4.14078C12.8538 4.07944 12.8143 4.00193 12.8004 3.91662L12.737 3.52534C12.6764 3.15169 12.4412 2.82477 12.1068 2.6483L11.7632 2.44569C11.7566 2.44177 11.7498 2.43804 11.743 2.43453C11.6661 2.39502 11.6046 2.33352 11.5651 2.25665L11.3838 1.90416C11.2129 1.57174 10.8644 1.32592 10.4743 1.26263L10.083 1.19919C9.9977 1.18534 9.92019 1.14586 9.85884 1.085L9.57752 0.805725C9.30586 0.536065 8.91791 0.410078 8.53958 0.468464L8.14785 0.529007C8.06237 0.542218 7.9765 0.528607 7.89936 0.489666L7.54551 0.31102C7.20382 0.138527 6.79585 0.138501 6.45416 0.31102L6.10028 0.489666C6.02317 0.528581 5.9373 0.542165 5.85182 0.529034L5.46009 0.468491C5.08173 0.409972 4.69378 0.536092 4.42212 0.805752L4.14077 1.08497C4.07946 1.14586 4.00195 1.18534 3.91663 1.19919L3.52533 1.26263C3.13522 1.32592 2.78669 1.57171 2.61577 1.90416L2.43452 2.25665C2.39499 2.3335 2.33349 2.39502 2.25662 2.43453L1.90409 2.61581C1.57168 2.78673 1.32586 3.13526 1.2626 3.52536L1.19912 3.91667C1.1853 4.00198 1.1458 4.07947 1.08491 4.14081L0.805715 4.42214C0.536055 4.69379 0.409989 5.0818 0.468454 5.46008L0.529023 5.85183C0.542235 5.93723 0.528624 6.02313 0.489656 6.10027L0.31101 6.45412C0.138517 6.7958 0.138517 7.20378 0.31101 7.54549L0.489656 7.89935C0.528597 7.97648 0.542208 8.06238 0.529023 8.14781L0.468454 8.53956C0.409989 8.91784 0.536082 9.30585 0.805715 9.5775L1.08496 9.85886C1.14585 9.9202 1.18535 9.99768 1.19918 10.083L1.26265 10.4743C1.32591 10.8644 1.57173 11.2129 1.90415 11.3839L2.25664 11.5651C2.33351 11.6046 2.39501 11.6661 2.43454 11.743L2.6158 12.0955C2.78675 12.428 3.13527 12.6738 3.52538 12.737L3.91666 12.8005C4.00197 12.8144 4.07948 12.8538 4.1408 12.9147L4.42215 13.194C4.69386 13.4636 5.08184 13.5896 5.46009 13.5312L5.85185 13.4706C5.93722 13.4574 6.02317 13.4711 6.10028 13.51L6.45416 13.6886C6.625 13.7749 6.81241 13.818 6.99982 13.818C7.18726 13.818 7.37467 13.7749 7.54551 13.6886L7.89936 13.51C7.9765 13.4711 8.06245 13.4575 8.14782 13.4706L8.53955 13.5312C8.91783 13.5896 9.30583 13.4636 9.57752 13.1939L9.85884 12.9147C9.92016 12.8538 9.99767 12.8143 10.083 12.8005L10.4743 12.737C10.8479 12.6764 11.1749 12.4412 11.3513 12.1068L11.5539 11.7632C11.5579 11.7566 11.5616 11.7498 11.5651 11.743C11.6046 11.6661 11.6661 11.6046 11.743 11.5651L12.0955 11.3838C12.4359 11.2088 12.6757 10.8787 12.737 10.5009L12.8004 10.1096C12.8143 10.0243 12.8538 9.94681 12.9147 9.88547C12.9189 9.8812 13.2009 9.57042 13.2009 9.57042C13.4657 9.29911 13.5891 8.91454 13.5311 8.53956L13.4706 8.14783C13.4574 8.06241 13.471 7.97648 13.5099 7.89935L13.6886 7.54552Z" fill="url(#paint0_linear_518_7478)"/>
<path d="M7.00075 2.1792C4.35393 2.1792 2.17969 4.35403 2.17969 7.00026C2.17969 9.64708 4.35452 11.8213 7.00075 11.8213C9.64757 11.8213 11.8218 9.64649 11.8218 7.00026C11.8218 4.35345 9.64696 2.1792 7.00075 2.1792ZM9.78557 5.89856L8.9865 9.09484C8.94204 9.27269 8.78223 9.39748 8.59889 9.39748H5.40261C5.21927 9.39748 5.05946 9.27269 5.01501 9.09484L4.21593 5.89856C4.16887 5.71027 4.26393 5.51538 4.4413 5.43653C4.61864 5.35772 4.82701 5.41778 4.93523 5.5789C5.04457 5.73962 5.44008 6.20119 5.80214 6.20119C5.86831 6.20119 6.0733 6.04718 6.28446 5.5711C6.47392 5.14399 6.60122 4.59442 6.60122 4.20351C6.60122 3.98286 6.7801 3.80398 7.00075 3.80398C7.2214 3.80398 7.40029 3.98286 7.40029 4.20351C7.40029 4.59442 7.52758 5.14399 7.71704 5.5711C7.92823 6.04718 8.13319 6.20119 8.19936 6.20119C8.57218 6.20119 8.978 5.71035 9.06627 5.5789C9.17449 5.41781 9.38289 5.35774 9.5602 5.43653C9.73757 5.51538 9.83263 5.71027 9.78557 5.89856Z" fill="url(#paint1_linear_518_7478)"/>
</g>
<defs>
<linearGradient id="paint0_linear_518_7478" x1="6.99982" y1="13.818" x2="6.99982" y2="0.18165" gradientUnits="userSpaceOnUse">
<stop stop-color="#FD5900"/>
<stop offset="1" stop-color="#FFDE00"/>
</linearGradient>
<linearGradient id="paint1_linear_518_7478" x1="7.00075" y1="11.8213" x2="7.00075" y2="2.1792" gradientUnits="userSpaceOnUse">
<stop stop-color="#FFE59A"/>
<stop offset="1" stop-color="#FFFFD5"/>
</linearGradient>
<clipPath id="clip0_518_7478">
<rect width="13.6364" height="13.6364" fill="white" transform="translate(0.181641 0.181641)"/>
</clipPath>
</defs>
</svg>
