<svg width="48" height="48" viewBox="0 0 48 48" fill="none" xmlns="http://www.w3.org/2000/svg">
<g clipPath="url(#clip0_653_9835)">
<path fill-rule="evenodd" clip-rule="evenodd" d="M22.4998 5.85864L7.21289 16.9652V36.5592C7.21289 39.1463 9.32958 41.263 11.9166 41.263H33.083C35.67 41.263 37.7866 39.1463 37.7866 36.5592V16.9652L22.4998 5.85864Z" fill="white"/>
<path fill-rule="evenodd" clip-rule="evenodd" d="M22.5 41.263H33.0832C35.6701 41.263 37.7868 39.1463 37.7868 36.5592V16.9652L22.5 5.85864V41.263Z" fill="#FAFAFA"/>
<path fill-rule="evenodd" clip-rule="evenodd" d="M5.21991 19.9104C3.74888 20.9765 1.6921 20.6481 0.626067 19.1769C-0.439964 17.7059 -0.111558 15.6491 1.35957 14.5831L20.5698 0.625972C21.7712 -0.24459 23.3632 -0.185059 24.4871 0.66741L43.6404 14.5831C45.1115 15.6491 45.4399 17.7058 44.3739 19.1769C43.308 20.648 41.2512 20.9764 39.7801 19.9104L22.5 7.35563L5.21991 19.9104Z" fill="#FE646F"/>
<path fill-rule="evenodd" clip-rule="evenodd" d="M22.5 0.00012207C23.2083 0.00077832 23.9095 0.229341 24.4871 0.667435L43.6404 14.5831C45.1115 15.6491 45.4399 17.7059 44.3739 19.177C43.308 20.648 41.2512 20.9764 39.7801 19.9105L22.5 7.35565V0.00012207Z" fill="#FD4755"/>
<path fill-rule="evenodd" clip-rule="evenodd" d="M24.8465 23.2712H20.153C18.9361 23.2712 17.9404 24.2669 17.9404 25.4838V41.2629H27.059V25.4838C27.0591 24.2668 26.0634 23.2712 24.8465 23.2712Z" fill="#F1BA84"/>
<path fill-rule="evenodd" clip-rule="evenodd" d="M24.8468 23.2712H22.5V41.2629H27.0593V25.4838C27.0593 24.2668 26.0636 23.2712 24.8468 23.2712Z" fill="#DE9252"/>
<path d="M44.3298 44.3375C49.2106 39.4567 49.2106 31.5433 44.3298 26.6625C39.449 21.7817 31.5357 21.7817 26.6549 26.6625C21.7741 31.5433 21.7741 39.4567 26.6549 44.3375C31.5357 49.2183 39.449 49.2183 44.3298 44.3375Z" fill="#FFE177"/>
<path fill-rule="evenodd" clip-rule="evenodd" d="M35.5 22.9999C42.4036 22.9999 48 28.5963 48 35.4999C48 42.4035 42.4036 48 35.5 48V22.9999Z" fill="#FFD064"/>
<path fill-rule="evenodd" clip-rule="evenodd" d="M34.837 30.2242C36.261 29.9376 37.7256 30.535 38.3053 31.9165C38.5623 32.5287 39.2888 32.826 39.9011 32.5691C40.5133 32.3122 40.8106 31.5856 40.5536 30.9733C39.8912 29.3952 38.6156 28.3143 36.9587 27.8957L36.7191 27.8351V27.0531C36.7191 26.3796 36.173 25.8337 35.4997 25.8337C34.8264 25.8337 34.2803 26.3796 34.2803 27.0531V27.8537L34.0429 27.9155C32.9206 28.2075 31.8771 28.8371 31.1992 29.7914C30.6499 30.5646 30.402 31.4725 30.4479 32.4175C30.5147 33.7948 31.1582 34.8476 32.3065 35.5971C33.1959 36.1777 34.2766 36.4817 35.3164 36.6523C36.6138 36.8653 38.5271 37.319 38.5661 38.9599C38.5956 40.1962 37.1281 40.684 36.1291 40.8052C34.6214 40.9882 32.8066 40.4469 32.3987 38.7999C32.3205 38.4841 32.122 38.2153 31.843 38.0478C31.5667 37.8817 31.2398 37.8322 30.9266 37.9092C30.6099 37.9871 30.3403 38.1864 30.1728 38.4662C30.0074 38.7423 29.9584 39.0688 30.0359 39.3813C30.338 40.5981 31.054 41.593 32.0958 42.2869C32.6833 42.6782 33.347 42.9489 34.0339 43.1067L34.2802 43.1633V43.9469C34.2802 44.6202 34.8263 45.1662 35.4996 45.1662C36.173 45.1662 36.719 44.6202 36.719 43.9468V43.1863L36.9738 43.1351C37.8446 42.9602 38.7175 42.619 39.4285 42.0796C40.5849 41.2021 41.1439 39.9266 40.9683 38.4816C40.7965 37.0678 40.0663 36.0193 38.855 35.288C37.9089 34.7167 36.7893 34.429 35.707 34.2514C34.6161 34.0723 32.9438 33.6744 32.8772 32.303C32.8211 31.1417 33.7997 30.4331 34.837 30.2242Z" fill="white"/>
<path fill-rule="evenodd" clip-rule="evenodd" d="M35.5001 30.1543C36.6947 30.1421 37.8156 30.7496 38.3053 31.9165C38.5623 32.5287 39.2887 32.826 39.9011 32.5691C40.5133 32.3122 40.8106 31.5856 40.5536 30.9733C39.8912 29.3952 38.6156 28.3143 36.9587 27.8957L36.719 27.8351V27.0531C36.719 26.3798 36.1732 25.834 35.5001 25.8337V30.1543ZM35.5001 36.6835C36.7867 36.9098 38.529 37.3948 38.5661 38.9599C38.5955 40.1962 37.1281 40.684 36.1291 40.8052C35.9237 40.8302 35.7125 40.8415 35.5 40.8386V45.1662C36.1732 45.1659 36.7189 44.6201 36.7189 43.9468V43.1863L36.9738 43.1351C37.8446 42.9602 38.7175 42.619 39.4284 42.0796C40.5848 41.2021 41.1438 39.9266 40.9683 38.4816C40.7965 37.0678 40.0663 36.0193 38.8549 35.288C37.9088 34.7167 36.7893 34.429 35.707 34.2514C35.6401 34.2404 35.5708 34.2286 35.5 34.2157V36.6835H35.5001Z" fill="#FAFAFA"/>
</g>
<defs>
<clipPath id="clip0_653_9835">
<rect width="48" height="48" fill="white"/>
</clipPath>
</defs>
</svg>
