<svg width="38" height="32" viewBox="0 0 38 32" fill="none" xmlns="http://www.w3.org/2000/svg">
<path d="M14.4 1.23168C15.7201 0.469514 17.3465 0.469514 18.6667 1.23168L28.2564 6.76832C29.5765 7.53049 30.3897 8.93903 30.3897 10.4634V21.5366C30.3897 23.061 29.5765 24.4695 28.2564 25.2317L18.6667 30.7683C17.3465 31.5305 15.7201 31.5305 14.4 30.7683L4.81025 25.2317C3.49014 24.4695 2.67692 23.061 2.67692 21.5366V10.4634C2.67692 8.93903 3.49014 7.53049 4.81025 6.76832L14.4 1.23168Z" fill="#6DD157" fill-opacity="0.14"/>
<g filter="url(#filter0_d_2744_11953)">
<path opacity="0.4" d="M22.5777 14.7129H20.5226C18.8373 14.7129 17.4649 13.3405 17.4649 11.6551V9.60003C17.4649 9.20892 17.1449 8.88892 16.7537 8.88892H13.7386C11.5484 8.88892 9.77774 10.3111 9.77774 12.8498V19.1502C9.77774 21.6889 11.5484 23.1111 13.7386 23.1111H19.328C21.5182 23.1111 23.2889 21.6889 23.2889 19.1502V15.424C23.2889 15.0329 22.9689 14.7129 22.5777 14.7129Z" fill="#19B300"/>
<path d="M19.2356 9.03847C18.9441 8.74691 18.4392 8.94602 18.4392 9.35136V11.8331C18.4392 12.8714 19.321 13.7318 20.3947 13.7318C21.0703 13.7389 22.009 13.7389 22.8125 13.7389C23.2178 13.7389 23.4312 13.2625 23.1467 12.978C22.1227 11.9469 20.2881 10.0909 19.2356 9.03847Z" fill="#19B300"/>
<path d="M15.9644 17.4579L14.2577 16.8605C14.0871 16.8037 14.0515 16.7894 14.0515 16.5405C14.0515 16.3557 14.1795 16.2063 14.3431 16.2063H15.4097C15.6373 16.2063 15.8222 16.4125 15.8222 16.6685C15.8222 16.9601 16.0639 17.2019 16.3555 17.2019C16.6471 17.2019 16.8888 16.9601 16.8888 16.6685C16.8888 15.8508 16.2559 15.1823 15.4666 15.1468V15.1112C15.4666 14.8197 15.2248 14.5779 14.9333 14.5779C14.6417 14.5779 14.3999 14.8125 14.3999 15.1112V15.1468H14.3359C13.5893 15.1468 12.9777 15.7725 12.9777 16.5477C12.9777 17.2232 13.2764 17.657 13.8951 17.8703L15.6088 18.4677C15.7795 18.5245 15.8151 18.5388 15.8151 18.7877C15.8151 18.9725 15.6871 19.1219 15.5235 19.1219H14.4568C14.2293 19.1219 14.0444 18.9157 14.0444 18.6597C14.0444 18.3681 13.8026 18.1263 13.5111 18.1263C13.2195 18.1263 12.9777 18.3681 12.9777 18.6597C12.9777 19.4774 13.6106 20.1459 14.3999 20.1814V20.2241C14.3999 20.5157 14.6417 20.7574 14.9333 20.7574C15.2248 20.7574 15.4666 20.5157 15.4666 20.2241V20.1885H15.5306C16.2773 20.1885 16.8888 19.5628 16.8888 18.7877C16.8888 18.1121 16.5831 17.6783 15.9644 17.4579Z" fill="#19B300"/>
</g>
<path d="M28.8334 3.98022C29.1094 3.74422 29.5614 3.74422 29.8414 3.98022L30.4734 4.52422C30.5934 4.62822 30.8174 4.71222 30.9774 4.71222H31.6574C32.0814 4.71222 32.4294 5.06022 32.4294 5.48422V6.16422C32.4294 6.32022 32.5134 6.54822 32.6174 6.66822L33.1614 7.30022C33.3974 7.57622 33.3974 8.02822 33.1614 8.30822L32.6174 8.94022C32.5134 9.06022 32.4294 9.28422 32.4294 9.44422V10.1242C32.4294 10.5482 32.0814 10.8962 31.6574 10.8962H30.9774C30.8214 10.8962 30.5934 10.9802 30.4734 11.0842L29.8414 11.6282C29.5654 11.8642 29.1134 11.8642 28.8334 11.6282L28.2014 11.0842C28.0814 10.9802 27.8574 10.8962 27.6974 10.8962H27.0054C26.5814 10.8962 26.2334 10.5482 26.2334 10.1242V9.44022C26.2334 9.28422 26.1494 9.06022 26.0494 8.94022L25.5094 8.30422C25.2774 8.02822 25.2774 7.58022 25.5094 7.30422L26.0494 6.66822C26.1494 6.54822 26.2334 6.32422 26.2334 6.16822V5.48022C26.2334 5.05622 26.5814 4.70822 27.0054 4.70822H27.6974C27.8534 4.70822 28.0814 4.62422 28.2014 4.52022L28.8334 3.98022Z" fill="#13A8FF"/>
<g filter="url(#filter1_d_2744_11953)">
<path d="M27.8853 7.80003L28.8493 8.76803L30.7813 6.83203" stroke="white" stroke-width="0.746667" stroke-linecap="round" stroke-linejoin="round" shape-rendering="crispEdges"/>
</g>
<defs>
<filter id="filter0_d_2744_11953" x="5.51107" y="8.88892" width="22.0444" height="22.7555" filterUnits="userSpaceOnUse" color-interpolation-filters="sRGB">
<feFlood flood-opacity="0" result="BackgroundImageFix"/>
<feColorMatrix in="SourceAlpha" type="matrix" values="0 0 0 0 0 0 0 0 0 0 0 0 0 0 0 0 0 0 127 0" result="hardAlpha"/>
<feOffset dy="4.26667"/>
<feGaussianBlur stdDeviation="2.13333"/>
<feComposite in2="hardAlpha" operator="out"/>
<feColorMatrix type="matrix" values="0 0 0 0 0.105882 0 0 0 0 0.74902 0 0 0 0 0 0 0 0 0.22 0"/>
<feBlend mode="normal" in2="BackgroundImageFix" result="effect1_dropShadow_2744_11953"/>
<feBlend mode="normal" in="SourceGraphic" in2="effect1_dropShadow_2744_11953" result="shape"/>
</filter>
<filter id="filter1_d_2744_11953" x="21.112" y="2.19207" width="16.4427" height="15.4826" filterUnits="userSpaceOnUse" color-interpolation-filters="sRGB">
<feFlood flood-opacity="0" result="BackgroundImageFix"/>
<feColorMatrix in="SourceAlpha" type="matrix" values="0 0 0 0 0 0 0 0 0 0 0 0 0 0 0 0 0 0 127 0" result="hardAlpha"/>
<feOffset dy="2.13333"/>
<feGaussianBlur stdDeviation="3.2"/>
<feComposite in2="hardAlpha" operator="out"/>
<feColorMatrix type="matrix" values="0 0 0 0 0 0 0 0 0 0 0 0 0 0 0 0 0 0 0.35 0"/>
<feBlend mode="normal" in2="BackgroundImageFix" result="effect1_dropShadow_2744_11953"/>
<feBlend mode="normal" in="SourceGraphic" in2="effect1_dropShadow_2744_11953" result="shape"/>
</filter>
</defs>
</svg>
