<svg width="20" height="20" viewBox="0 0 20 20" fill="none" xmlns="http://www.w3.org/2000/svg">
<path d="M16.3203 10.0098L18.6336 18.7034C18.9974 20.0706 17.7972 19.8064 17.2424 19.5921C16.7793 19.4131 14.9298 18.6939 14.9298 18.6939C14.9298 18.6939 13.6838 19.3699 13.347 19.5488C12.6132 19.9387 11.865 19.8416 11.5429 18.9096C11.5344 18.8851 10.7438 16.2038 10 13.6808V10.0098H16.3203Z" fill="#0060FF"/>
<path d="M3.68522 10.0273L1.36834 18.7347C1.00398 20.104 2.20607 19.8394 2.76175 19.6247C3.22552 19.4455 5.07794 18.7252 5.07794 18.7252C5.07794 18.7252 6.32595 19.4022 6.66323 19.5814C7.39824 19.9719 8.14757 19.8746 8.47019 18.9412C8.47866 18.9167 9.27059 16.2311 10.0155 13.7042V10.0273H3.68522Z" fill="#0060FF"/>
<path d="M10.0156 10.0273V13.7042C10.5857 15.6381 10.9454 16.8563 11.1983 17.7121C11.9095 17.5718 12.5809 16.353 13.2611 16.1286C13.9821 15.8908 15.3604 16.5577 15.9726 16.1087C16.5849 15.6597 16.3632 14.1448 16.8068 13.5286C16.8965 13.4039 17.0302 13.2936 17.1876 13.1906L16.3459 10.0273H10.0156Z" fill="#0043E0"/>
<path d="M3.75801 10.0273C3.70888 10.1416 3.65181 10.2586 3.59204 10.3768L3.13867 12.0807C3.46843 12.7328 4.86625 12.994 5.29554 13.5794C5.74452 14.1917 5.53615 15.7084 6.15237 16.152C6.76858 16.5956 8.14088 15.9166 8.864 16.148C8.98727 16.1875 9.11055 16.2599 9.234 16.3521C9.52733 15.3578 9.63868 14.9819 10.0153 13.7042V10.0273H3.75801Z" fill="#0043E0"/>
<path d="M14.9316 15.3004C14.3203 15.7487 12.9442 15.0828 12.2243 15.3203C11.5044 15.5577 10.7944 16.9115 10.0364 16.9149C9.27831 16.9182 8.55641 15.5707 7.83443 15.3396C7.11244 15.1086 5.74231 15.7865 5.12707 15.3436C4.51183 14.9008 4.71983 13.3863 4.27155 12.775C3.82327 12.1637 2.31634 11.9068 2.0789 11.1869C1.84147 10.467 2.89992 9.364 2.89658 8.60595C2.89324 7.8479 1.82509 6.75432 2.05616 6.03233C2.28724 5.31035 3.79184 5.04018 4.23471 4.42493C4.67758 3.80969 4.45622 2.29713 5.06754 1.84885C5.67885 1.40057 7.0549 2.06639 7.77482 1.82895C8.49474 1.59152 9.20472 0.237724 9.96278 0.234381C10.7208 0.23103 11.4427 1.57852 12.1647 1.80959C12.8867 2.04066 14.2568 1.36273 14.8721 1.8056C15.4873 2.24847 15.2793 3.76292 15.7276 4.37424C16.1759 4.98555 17.6828 5.24243 17.9202 5.96235C18.1577 6.68227 17.0992 7.78523 17.1026 8.54328C17.1059 9.30134 18.174 10.3949 17.943 11.1169C17.7119 11.8389 16.2073 12.1091 15.7644 12.7243C15.3216 13.3395 15.5429 14.8521 14.9316 15.3004Z" fill="#52C7FF"/>
<path d="M14.9013 8.57467C14.9013 9.87497 14.3847 11.122 13.4653 12.0415C12.5458 12.9609 11.2988 13.4775 9.99849 13.4775C8.69819 13.4775 7.45115 12.9609 6.5317 12.0415C5.61225 11.122 5.0957 9.87497 5.0957 8.57467C5.0957 7.93082 5.22252 7.29328 5.46891 6.69845C5.71529 6.10361 6.07643 5.56313 6.5317 5.10787C6.98696 4.6526 7.52744 4.29146 8.12228 4.04508C8.71711 3.79869 9.35465 3.67187 9.99849 3.67188C11.2988 3.67188 12.5458 4.18842 13.4653 5.10787C14.3847 6.02732 14.9013 7.27437 14.9013 8.57467Z" fill="#009FFF"/>
<path d="M12.9407 7.94727C12.7229 8.36716 12.145 8.82124 12.0223 9.20695C11.8572 9.72554 12.2927 10.7425 11.8544 11.065C11.4161 11.3876 10.5782 10.646 10.034 10.6493C9.64521 10.6516 9.07135 11.0362 8.61398 11.1402C8.59309 11.486 8.61244 11.8781 8.81663 12.0246C9.25884 12.3418 10.166 11.5892 10.7102 11.5859C11.2544 11.5826 12.1705 12.3242 12.6088 12.0016C13.0472 11.6791 12.6117 10.5839 12.7767 10.0653C12.9418 9.54672 13.9301 8.90458 13.7588 8.38802C13.6773 8.14233 13.2897 8.03099 12.9407 7.94727Z" fill="#0082FF"/>
<path d="M11.9143 11.1255C11.4766 11.4475 10.562 10.7071 10.0186 10.7103C9.47526 10.7136 8.56962 11.4651 8.1281 11.1484C7.68659 10.8316 8.10813 9.73293 7.9371 9.21719C7.76607 8.70144 6.77154 8.07233 6.93632 7.55455C7.1011 7.03678 8.2763 7.09817 8.71395 6.77613C9.1516 6.4541 9.44259 5.31384 9.98595 5.31055C10.5293 5.30726 10.8341 6.44392 11.2756 6.76064C11.7171 7.07735 12.8915 7.00174 13.0625 7.51749C13.2335 8.03324 12.2467 8.67433 12.0819 9.19211C11.9171 9.70989 12.3519 10.8034 11.9143 11.1255Z" fill="#E7EDFB"/>
</svg>
