<svg width="21" height="7" viewBox="0 0 21 7" fill="none" xmlns="http://www.w3.org/2000/svg">
<path d="M19.25 0H1.75C1.28604 0.000544659 0.841235 0.185095 0.513165 0.513165C0.185094 0.841236 0.000544659 1.28604 0 1.75V5.25C0.000544659 5.71396 0.185094 6.15876 0.513165 6.48684C0.841235 6.81491 1.28604 6.99946 1.75 7H19.25C19.714 6.99946 20.1588 6.81491 20.4868 6.48684C20.8149 6.15876 20.9995 5.71396 21 5.25V1.75C20.9995 1.28604 20.8149 0.841236 20.4868 0.513165C20.1588 0.185095 19.714 0.000544659 19.25 0ZM20.3 5.25C20.2997 5.52838 20.189 5.79528 19.9921 5.99213C19.7953 6.18897 19.5284 6.2997 19.25 6.3H1.75C1.47162 6.2997 1.20472 6.18897 1.00787 5.99213C0.811026 5.79528 0.700304 5.52838 0.7 5.25V1.75C0.700304 1.47162 0.811026 1.20472 1.00787 1.00787C1.20472 0.811026 1.47162 0.700304 1.75 0.7H19.25C19.5284 0.700304 19.7953 0.811026 19.9921 1.00787C20.189 1.20472 20.2997 1.47162 20.3 1.75V5.25ZM9.78735 3.10317L9.10008 3.5L9.78735 3.89683C9.86771 3.94326 9.92634 4.01971 9.95034 4.10937C9.97435 4.19902 9.96177 4.29453 9.91537 4.37491C9.86898 4.45529 9.79256 4.51396 9.70292 4.53801C9.61328 4.56206 9.51776 4.54953 9.43735 4.50317L8.75 4.10631V4.9C8.75 4.99283 8.71313 5.08185 8.64749 5.14749C8.58185 5.21313 8.49283 5.25 8.4 5.25C8.30717 5.25 8.21815 5.21313 8.15251 5.14749C8.08687 5.08185 8.05 4.99283 8.05 4.9V4.10631L7.36265 4.50317C7.32283 4.52618 7.27887 4.54112 7.23328 4.54714C7.18769 4.55315 7.14136 4.55013 7.09694 4.53823C7.05252 4.52634 7.01088 4.50581 6.9744 4.47782C6.93792 4.44982 6.90731 4.41492 6.88432 4.37509C6.86133 4.33526 6.84641 4.2913 6.84042 4.24571C6.83443 4.20011 6.83748 4.15378 6.84939 4.10937C6.86131 4.06496 6.88186 4.02333 6.90987 3.98686C6.93788 3.95039 6.97281 3.9198 7.01265 3.89683L7.69992 3.5L7.01265 3.10317C6.97281 3.08021 6.93788 3.04961 6.90987 3.01314C6.88186 2.97667 6.86131 2.93504 6.84939 2.89063C6.83748 2.84622 6.83443 2.79989 6.84042 2.7543C6.84641 2.7087 6.86133 2.66474 6.88432 2.62491C6.90731 2.58508 6.93792 2.55018 6.9744 2.52218C7.01088 2.49419 7.05252 2.47366 7.09694 2.46177C7.14136 2.44987 7.18769 2.44685 7.23328 2.45286C7.27887 2.45888 7.32283 2.47382 7.36265 2.49683L8.05 2.8937V2.1C8.05 2.00717 8.08687 1.91815 8.15251 1.85251C8.21815 1.78687 8.30717 1.75 8.4 1.75C8.49283 1.75 8.58185 1.78687 8.64749 1.85251C8.71313 1.91815 8.75 2.00717 8.75 2.1V2.8937L9.43735 2.49683C9.51776 2.45047 9.61328 2.43794 9.70292 2.46199C9.79256 2.48604 9.86898 2.54471 9.91537 2.62509C9.96177 2.70547 9.97435 2.80098 9.95034 2.89064C9.92634 2.98029 9.86771 3.05674 9.78735 3.10317ZM5.58735 3.10317L4.90008 3.5L5.58735 3.89683C5.66771 3.94326 5.72634 4.01971 5.75034 4.10937C5.77435 4.19902 5.76177 4.29453 5.71537 4.37491C5.66898 4.45529 5.59256 4.51396 5.50292 4.53801C5.41328 4.56206 5.31776 4.54953 5.23735 4.50317L4.55 4.10631V4.9C4.55 4.99283 4.51312 5.08185 4.44749 5.14749C4.38185 5.21313 4.29283 5.25 4.2 5.25C4.10717 5.25 4.01815 5.21313 3.95251 5.14749C3.88687 5.08185 3.85 4.99283 3.85 4.9V4.10631L3.16265 4.50317C3.08224 4.54953 2.98672 4.56206 2.89708 4.53801C2.80744 4.51396 2.73102 4.45529 2.68463 4.37491C2.63823 4.29453 2.62565 4.19902 2.64966 4.10937C2.67366 4.01971 2.73229 3.94326 2.81265 3.89683L3.49992 3.5L2.81265 3.10317C2.77281 3.08021 2.73788 3.04961 2.70987 3.01314C2.68186 2.97667 2.66131 2.93504 2.64939 2.89063C2.63748 2.84622 2.63443 2.79989 2.64042 2.7543C2.64641 2.7087 2.66133 2.66474 2.68432 2.62491C2.70731 2.58508 2.73792 2.55018 2.7744 2.52218C2.81088 2.49419 2.85252 2.47366 2.89694 2.46177C2.94136 2.44987 2.98769 2.44685 3.03328 2.45286C3.07887 2.45888 3.12283 2.47382 3.16265 2.49683L3.85 2.8937V2.1C3.85 2.00717 3.88687 1.91815 3.95251 1.85251C4.01815 1.78687 4.10717 1.75 4.2 1.75C4.29283 1.75 4.38185 1.78687 4.44749 1.85251C4.51312 1.91815 4.55 2.00717 4.55 2.1V2.8937L5.23735 2.49683C5.31776 2.45047 5.41328 2.43794 5.50292 2.46199C5.59256 2.48604 5.66898 2.54471 5.71537 2.62509C5.76177 2.70547 5.77435 2.80098 5.75034 2.89064C5.72634 2.98029 5.66771 3.05674 5.58735 3.10317ZM13.9874 3.10317L13.3001 3.5L13.9874 3.89683C14.0677 3.94326 14.1263 4.01971 14.1503 4.10937C14.1743 4.19902 14.1618 4.29453 14.1154 4.37491C14.069 4.45529 13.9926 4.51396 13.9029 4.53801C13.8133 4.56206 13.7178 4.54953 13.6374 4.50317L12.95 4.10631V4.9C12.95 4.99283 12.9131 5.08185 12.8475 5.14749C12.7818 5.21313 12.6928 5.25 12.6 5.25C12.5072 5.25 12.4181 5.21313 12.3525 5.14749C12.2869 5.08185 12.25 4.99283 12.25 4.9V4.10631L11.5626 4.50317C11.4822 4.54953 11.3867 4.56206 11.2971 4.53801C11.2074 4.51396 11.131 4.45529 11.0846 4.37491C11.0382 4.29453 11.0257 4.19902 11.0497 4.10937C11.0737 4.01971 11.1323 3.94326 11.2126 3.89683L11.8999 3.5L11.2126 3.10317C11.1728 3.08021 11.1379 3.04961 11.1099 3.01314C11.0819 2.97667 11.0613 2.93504 11.0494 2.89063C11.0375 2.84622 11.0344 2.79989 11.0404 2.7543C11.0464 2.7087 11.0613 2.66474 11.0843 2.62491C11.1073 2.58508 11.1379 2.55018 11.1744 2.52218C11.2109 2.49419 11.2525 2.47366 11.2969 2.46177C11.3414 2.44987 11.3877 2.44685 11.4333 2.45286C11.4789 2.45888 11.5228 2.47382 11.5626 2.49683L12.25 2.8937V2.1C12.25 2.00717 12.2869 1.91815 12.3525 1.85251C12.4181 1.78687 12.5072 1.75 12.6 1.75C12.6928 1.75 12.7818 1.78687 12.8475 1.85251C12.9131 1.91815 12.95 2.00717 12.95 2.1V2.8937L13.6374 2.49683C13.6772 2.47382 13.7211 2.45888 13.7667 2.45286C13.8123 2.44685 13.8586 2.44987 13.9031 2.46177C13.9475 2.47366 13.9891 2.49419 14.0256 2.52218C14.0621 2.55018 14.0927 2.58508 14.1157 2.62491C14.1387 2.66474 14.1536 2.7087 14.1596 2.7543C14.1656 2.79989 14.1625 2.84622 14.1506 2.89063C14.1387 2.93504 14.1181 2.97667 14.0901 3.01314C14.0621 3.04961 14.0272 3.08021 13.9874 3.10317ZM18.1874 3.10317L17.5001 3.5L18.1874 3.89683C18.2677 3.94326 18.3263 4.01971 18.3503 4.10937C18.3743 4.19902 18.3618 4.29453 18.3154 4.37491C18.269 4.45529 18.1926 4.51396 18.1029 4.53801C18.0133 4.56206 17.9178 4.54953 17.8374 4.50317L17.15 4.10631V4.9C17.15 4.99283 17.1131 5.08185 17.0475 5.14749C16.9818 5.21313 16.8928 5.25 16.8 5.25C16.7072 5.25 16.6182 5.21313 16.5525 5.14749C16.4869 5.08185 16.45 4.99283 16.45 4.9V4.10631L15.7626 4.50317C15.6822 4.54953 15.5867 4.56206 15.4971 4.53801C15.4074 4.51396 15.331 4.45529 15.2846 4.37491C15.2382 4.29453 15.2257 4.19902 15.2497 4.10937C15.2737 4.01971 15.3323 3.94326 15.4126 3.89683L16.0999 3.5L15.4126 3.10317C15.3323 3.05674 15.2737 2.98029 15.2497 2.89064C15.2257 2.80098 15.2382 2.70547 15.2846 2.62509C15.331 2.54471 15.4074 2.48604 15.4971 2.46199C15.5867 2.43794 15.6822 2.45047 15.7626 2.49683L16.45 2.8937V2.1C16.45 2.00717 16.4869 1.91815 16.5525 1.85251C16.6182 1.78687 16.7072 1.75 16.8 1.75C16.8928 1.75 16.9818 1.78687 17.0475 1.85251C17.1131 1.91815 17.15 2.00717 17.15 2.1V2.8937L17.8374 2.49683C17.8772 2.47382 17.9211 2.45888 17.9667 2.45286C18.0123 2.44685 18.0586 2.44987 18.1031 2.46177C18.1475 2.47366 18.1891 2.49419 18.2256 2.52218C18.2621 2.55018 18.2927 2.58508 18.3157 2.62491C18.3387 2.66474 18.3536 2.7087 18.3596 2.7543C18.3656 2.79989 18.3625 2.84622 18.3506 2.89063C18.3387 2.93504 18.3181 2.97667 18.2901 3.01314C18.2621 3.04961 18.2272 3.08021 18.1874 3.10317Z" fill="black"/>
</svg>
