<svg width="26" height="26" viewBox="0 0 26 26" fill="none" xmlns="http://www.w3.org/2000/svg">
<g clip-path="url(#clip0_2365_14346)">
<path d="M11.2631 7.08516C11.1147 6.8374 10.839 6.69516 10.551 6.71705L4.36104 7.1952C3.73436 7.24365 3.17612 7.5721 2.82939 8.09646L0.231697 12.0255C-0.0311959 12.4231 -0.0730394 12.9207 0.119826 13.3566C0.312641 13.7925 0.708986 14.0963 1.17998 14.1692L6.19916 14.9466C6.23821 14.9527 6.27721 14.9557 6.3159 14.9557C6.57301 14.9556 6.81625 14.8253 6.95757 14.6042L11.2514 7.88674C11.407 7.64334 11.4115 7.33297 11.2631 7.08516Z" fill="#E45A6E"/>
<path d="M18.9154 14.7371C18.6676 14.5887 18.3572 14.5933 18.1138 14.7488L11.3964 19.0427C11.1421 19.2053 11.0077 19.5027 11.0539 19.8011L11.8313 24.8203C11.9042 25.2913 12.208 25.6876 12.644 25.8805C12.8252 25.9607 13.0172 26.0002 13.2082 26.0002C13.4764 26.0002 13.7429 25.9221 13.9751 25.7686L17.9041 23.1709C18.4285 22.8242 18.757 22.2659 18.8054 21.6392L19.2835 15.4493C19.3058 15.1613 19.1632 14.8856 18.9154 14.7371Z" fill="#D82E44"/>
<path d="M9.79394 20.9358C10.0971 21.239 10.5279 21.3808 10.9507 21.3101C17.1517 20.2733 22.0586 15.1391 23.9267 11.5274C26.001 7.51705 26.0778 3.27909 25.9694 1.29152C25.9322 0.610451 25.3894 0.0675525 24.7083 0.0303809C22.7207 -0.0779854 18.4828 -0.00115395 14.4724 2.07319C10.8607 3.94127 5.7266 8.84817 4.68976 15.0491C4.61907 15.472 4.76085 15.9028 5.06401 16.2059L9.79394 20.9358Z" fill="#F1F1FB"/>
<path d="M25.581 0.419922L7.42969 18.5713L9.79465 20.9363C10.0978 21.2394 10.5286 21.3812 10.9514 21.3105C17.1524 20.2737 22.0593 15.1395 23.9274 11.5279C26.0017 7.51751 26.0785 3.27954 25.9701 1.29198C25.9515 0.951445 25.8065 0.64544 25.581 0.419922Z" fill="#D7D6FB"/>
<path d="M17.8106 11.9964C16.8351 11.9964 15.8601 11.6252 15.1175 10.8827C14.3981 10.1633 14.002 9.20689 14.002 8.18959C14.002 7.1723 14.3981 6.21584 15.1175 5.49653C16.6024 4.0116 19.0186 4.01155 20.5036 5.49653C21.2229 6.21584 21.6191 7.1723 21.6191 8.18959C21.6191 9.20689 21.2229 10.1633 20.5036 10.8827C19.7612 11.6251 18.7857 11.9963 17.8106 11.9964Z" fill="#466288"/>
<path d="M4.68976 15.0491C4.61907 15.4719 4.76085 15.9027 5.06401 16.2059L9.79394 20.9358C10.0971 21.2389 10.5279 21.3807 10.9507 21.31C12.3 21.0844 13.5879 20.6647 14.7967 20.109L5.89082 11.2031C5.33513 12.4119 4.91537 13.6998 4.68976 15.0491Z" fill="#466288"/>
<path d="M0.777318 21.4264C0.972217 21.4264 1.16722 21.352 1.3159 21.2033L3.80281 18.7163C4.10029 18.4189 4.10029 17.9366 3.80281 17.6391C3.50539 17.3416 3.02312 17.3416 2.72559 17.6391L0.238732 20.126C-0.0587441 20.4235 -0.0587441 20.9058 0.238732 21.2033C0.387471 21.352 0.582369 21.4264 0.777318 21.4264Z" fill="#FDB43A"/>
<path d="M6.08159 19.9184C5.78416 19.621 5.30184 19.621 5.00437 19.9184L0.223107 24.6996C-0.0743691 24.9971 -0.0743691 25.4794 0.223107 25.7769C0.371846 25.9256 0.566795 25.9999 0.761744 25.9999C0.956693 25.9999 1.15164 25.9255 1.30033 25.7768L6.08159 20.9956C6.37906 20.6981 6.37906 20.2158 6.08159 19.9184Z" fill="#FDB43A"/>
<path d="M8.36141 22.1977C8.06398 21.9003 7.58166 21.9003 7.28419 22.1977L4.79733 24.6845C4.49985 24.982 4.49985 25.4643 4.79733 25.7618C4.94606 25.9105 5.14101 25.9849 5.33591 25.9849C5.53081 25.9849 5.72581 25.9105 5.8745 25.7618L8.36141 23.2749C8.65889 22.9774 8.65889 22.4951 8.36141 22.1977Z" fill="#F57A21"/>
<path d="M0.222656 25.7765C0.371395 25.9252 0.566344 25.9996 0.761293 25.9996C0.956242 25.9996 1.15119 25.9252 1.29988 25.7764L6.08114 20.9952C6.37861 20.6978 6.37861 20.2154 6.08114 19.918L0.222656 25.7765Z" fill="#F57A21"/>
<path d="M7.42969 18.571L9.79465 20.936C10.0978 21.2391 10.5286 21.3809 10.9514 21.3102C12.3007 21.0846 13.5886 20.6649 14.7974 20.1092L10.3445 15.6562L7.42969 18.571Z" fill="#354A67"/>
<path d="M15.1172 10.8822C15.8598 11.6248 16.8348 11.996 17.8102 11.9959C18.7854 11.9958 19.7609 11.6246 20.5033 10.8822C21.2226 10.1629 21.6188 9.20645 21.6188 8.18915C21.6188 7.17186 21.2226 6.2154 20.5033 5.49609L15.1172 10.8822Z" fill="#354A67"/>
<path d="M17.8105 5.90625C17.2254 5.90625 16.6402 6.12898 16.1947 6.57448C15.7631 7.00607 15.5254 7.5799 15.5254 8.19029C15.5254 8.80068 15.7631 9.37451 16.1947 9.8061C17.0857 10.6971 18.5355 10.6971 19.4265 9.8061C19.858 9.37446 20.0958 8.80063 20.0958 8.19024C20.0958 7.57985 19.858 7.00602 19.4265 6.57443C18.981 6.12898 18.3958 5.90625 17.8105 5.90625Z" fill="#4BBEFD"/>
<path d="M19.427 6.57422L16.1953 9.80589C17.0863 10.6968 18.5361 10.6969 19.427 9.80589C19.8586 9.37425 20.0963 8.80042 20.0963 8.19003C20.0963 7.57964 19.8586 7.00581 19.427 6.57422Z" fill="#0590FB"/>
</g>
<defs>
<clipPath id="clip0_2365_14346">
<rect width="26" height="26" fill="white"/>
</clipPath>
</defs>
</svg>
