<svg width="18" height="18" viewBox="0 0 18 18" fill="none" xmlns="http://www.w3.org/2000/svg">
<g clip-path="url(#clip0_76_208)">
<path d="M9.62203 4.21875H5.84766C5.77306 4.21875 5.70153 4.24838 5.64878 4.30113C5.59604 4.35387 5.56641 4.42541 5.56641 4.5C5.56641 4.57459 5.59604 4.64613 5.64878 4.69887C5.70153 4.75162 5.77306 4.78125 5.84766 4.78125H9.62203C9.69662 4.78125 9.76816 4.75162 9.8209 4.69887C9.87365 4.64613 9.90328 4.57459 9.90328 4.5C9.90328 4.42541 9.87365 4.35387 9.8209 4.30113C9.76816 4.24838 9.69662 4.21875 9.62203 4.21875Z" fill="#55597D"/>
<path d="M15.9159 14.7206C15.7921 14.5982 15.6335 14.5171 15.4618 14.4884C15.2901 14.4597 15.1137 14.4848 14.9569 14.5603L14.7206 14.3241C15.4116 13.5386 15.7848 12.5236 15.7671 11.4776C15.7494 10.4316 15.3422 9.42978 14.625 8.66812V3.09375C14.625 2.72079 14.4768 2.3631 14.2131 2.09938C13.9494 1.83566 13.5917 1.6875 13.2188 1.6875H12.0291V1.125C12.0291 1.05041 11.9994 0.978871 11.9467 0.926126C11.8939 0.873382 11.8224 0.84375 11.7478 0.84375C11.6732 0.84375 11.6017 0.873382 11.5489 0.926126C11.4962 0.978871 11.4666 1.05041 11.4666 1.125V1.6875H4.00219V1.125C4.00219 1.05041 3.97256 0.978871 3.91981 0.926126C3.86707 0.873382 3.79553 0.84375 3.72094 0.84375C3.64635 0.84375 3.57481 0.873382 3.52206 0.926126C3.46932 0.978871 3.43969 1.05041 3.43969 1.125V1.6875H2.25C1.87704 1.6875 1.51935 1.83566 1.25563 2.09938C0.991908 2.3631 0.84375 2.72079 0.84375 3.09375V12.0938C0.84375 12.2784 0.880124 12.4613 0.950794 12.6319C1.02147 12.8025 1.12505 12.9575 1.25563 13.0881C1.38621 13.2187 1.54124 13.3223 1.71185 13.393C1.88247 13.4636 2.06533 13.5 2.25 13.5H7.80469C8.00103 13.8777 8.2543 14.223 8.55563 14.5237C9.31319 15.2794 10.3296 15.7189 11.399 15.7534C12.4684 15.7878 13.511 15.4146 14.3156 14.7094L14.5519 14.9456C14.4764 15.1025 14.4513 15.2789 14.48 15.4506C14.5087 15.6223 14.5898 15.7809 14.7122 15.9047L15.7078 16.8975C15.8678 17.0465 16.0793 17.1277 16.2979 17.1238C16.5165 17.12 16.725 17.0314 16.8796 16.8768C17.0342 16.7222 17.1228 16.5137 17.1266 16.2951C17.1305 16.0765 17.0494 15.8649 16.9003 15.705L15.9159 14.7206ZM1.40625 3.09375C1.40625 2.86997 1.49514 2.65536 1.65338 2.49713C1.81161 2.33889 2.02622 2.25 2.25 2.25H3.43969V2.55094C3.27728 2.61626 3.14267 2.73606 3.05896 2.8898C2.97525 3.04354 2.94766 3.22162 2.98092 3.39348C3.01419 3.56535 3.10623 3.72027 3.24126 3.83167C3.37629 3.94307 3.54589 4.004 3.72094 4.004C3.89599 4.004 4.06558 3.94307 4.20061 3.83167C4.33564 3.72027 4.42769 3.56535 4.46095 3.39348C4.49422 3.22162 4.46663 3.04354 4.38292 2.8898C4.29921 2.73606 4.1646 2.61626 4.00219 2.55094V2.25H11.4666V2.55094C11.3042 2.61626 11.1695 2.73606 11.0858 2.8898C11.0021 3.04354 10.9745 3.22162 11.0078 3.39348C11.0411 3.56535 11.1331 3.72027 11.2681 3.83167C11.4032 3.94307 11.5728 4.004 11.7478 4.004C11.9229 4.004 12.0925 3.94307 12.2275 3.83167C12.3625 3.72027 12.4546 3.56535 12.4878 3.39348C12.5211 3.22162 12.4935 3.04354 12.4098 2.8898C12.3261 2.73606 12.1915 2.61626 12.0291 2.55094V2.25H13.2188C13.4425 2.25 13.6571 2.33889 13.8154 2.49713C13.9736 2.65536 14.0625 2.86997 14.0625 3.09375V5.625H1.40625V3.09375ZM3.91219 3.24844C3.91275 3.28638 3.902 3.32363 3.88133 3.35545C3.86066 3.38726 3.83099 3.41221 3.7961 3.42712C3.7612 3.44203 3.72266 3.44622 3.68538 3.43916C3.6481 3.4321 3.61376 3.41411 3.58673 3.38748C3.5597 3.36085 3.5412 3.32678 3.53359 3.28961C3.52598 3.25243 3.5296 3.21384 3.54399 3.17873C3.55838 3.14362 3.58289 3.11358 3.6144 3.09244C3.64591 3.0713 3.68299 3.06 3.72094 3.06C3.74592 3.05963 3.77073 3.06423 3.79391 3.07353C3.8171 3.08283 3.83821 3.09665 3.856 3.11419C3.8738 3.13172 3.88793 3.15262 3.89758 3.17567C3.90722 3.19872 3.91219 3.22345 3.91219 3.24844ZM11.9391 3.24844C11.9391 3.27355 11.9341 3.29842 11.9245 3.32163C11.9149 3.34483 11.9008 3.36591 11.883 3.38367C11.8653 3.40143 11.8442 3.41552 11.821 3.42513C11.7978 3.43474 11.7729 3.43969 11.7478 3.43969C11.7227 3.43969 11.6978 3.43474 11.6746 3.42513C11.6514 3.41552 11.6303 3.40143 11.6126 3.38367C11.5948 3.36591 11.5807 3.34483 11.5711 3.32163C11.5615 3.29842 11.5566 3.27355 11.5566 3.24844C11.5566 3.19771 11.5767 3.14907 11.6126 3.1132C11.6484 3.07734 11.6971 3.05719 11.7478 3.05719C11.7985 3.05719 11.8472 3.07734 11.883 3.1132C11.9189 3.14907 11.9391 3.19771 11.9391 3.24844ZM2.25 12.9375C2.02622 12.9375 1.81161 12.8486 1.65338 12.6904C1.49514 12.5321 1.40625 12.3175 1.40625 12.0938V6.1875H14.0625V8.15625C13.3377 7.61798 12.4593 7.32645 11.5564 7.3245C10.6536 7.32256 9.77392 7.6103 9.04677 8.14544C8.31961 8.68057 7.78332 9.43487 7.51671 10.2974C7.2501 11.16 7.26724 12.0854 7.56562 12.9375H2.25ZM11.5312 15.1875C10.6853 15.1878 9.86549 14.8948 9.21141 14.3584C8.55732 13.822 8.10947 13.0754 7.94415 12.2458C7.77884 11.4162 7.9063 10.5549 8.30482 9.80876C8.70333 9.06261 9.34824 8.47772 10.1297 8.15375C10.9111 7.82979 11.7807 7.78681 12.5902 8.03212C13.3998 8.27743 14.0992 8.79586 14.5694 9.49908C15.0395 10.2023 15.2513 11.0468 15.1686 11.8886C15.086 12.7305 14.7139 13.5176 14.1159 14.1159C13.7776 14.4569 13.3749 14.7272 12.9311 14.9111C12.4874 15.0951 12.0116 15.189 11.5312 15.1875ZM16.5038 16.5038C16.4776 16.5301 16.4465 16.551 16.4122 16.5653C16.378 16.5796 16.3412 16.5869 16.3041 16.5869C16.2669 16.5869 16.2302 16.5796 16.1959 16.5653C16.1616 16.551 16.1305 16.5301 16.1044 16.5038L15.1116 15.5081C15.0771 15.472 15.0528 15.4274 15.0412 15.3788C15.0903 15.3906 15.1415 15.3905 15.1905 15.3782C15.2395 15.366 15.2848 15.342 15.3225 15.3084C15.3587 15.2724 15.3843 15.2271 15.3967 15.1776C15.4091 15.128 15.4077 15.076 15.3928 15.0272C15.4414 15.0387 15.4861 15.063 15.5222 15.0975L16.5178 16.0903C16.5474 16.1171 16.5709 16.1499 16.5869 16.1865C16.6028 16.2231 16.6108 16.2626 16.6102 16.3025C16.6097 16.3424 16.6007 16.3818 16.5838 16.4179C16.5669 16.4541 16.5425 16.4862 16.5122 16.5122L16.5038 16.5038Z" fill="#55597D" stroke="#55597D" stroke-width="0.2"/>
</g>
<defs>
<clipPath id="clip0_76_208">
<rect width="18" height="18" fill="white"/>
</clipPath>
</defs>
</svg>
