<svg width="64" height="28" viewBox="0 0 64 28" fill="none" xmlns="http://www.w3.org/2000/svg">
<rect width="64" height="28" rx="14" fill="#1AC29E"/>
<rect x="39" y="3" width="22" height="22" rx="11" fill="white"/>
<path d="M53.6667 12L49.0833 16.5833L47 14.5" stroke="#0CBB9C" stroke-width="1.5" stroke-linecap="round" stroke-linejoin="round"/>
<path d="M12.33 18.1C11.95 18.1 11.5867 18.07 11.24 18.01C10.8933 17.95 10.5733 17.8633 10.28 17.75C9.99333 17.6367 9.74 17.5 9.52 17.34L9.93 16.29C10.15 16.4433 10.3867 16.5733 10.64 16.68C10.8933 16.78 11.16 16.8567 11.44 16.91C11.7267 16.9567 12.0233 16.98 12.33 16.98C12.8367 16.98 13.21 16.8967 13.45 16.73C13.6967 16.5567 13.82 16.3233 13.82 16.03C13.82 15.87 13.7833 15.74 13.71 15.64C13.6367 15.5333 13.5133 15.4433 13.34 15.37C13.1733 15.2967 12.9533 15.2333 12.68 15.18L11.55 14.96C10.9033 14.8333 10.4267 14.6067 10.12 14.28C9.81333 13.9467 9.66 13.52 9.66 13C9.66 12.5667 9.78 12.19 10.02 11.87C10.26 11.5433 10.59 11.2933 11.01 11.12C11.4367 10.94 11.9267 10.85 12.48 10.85C12.8067 10.85 13.12 10.88 13.42 10.94C13.72 11 13.9967 11.09 14.25 11.21C14.5033 11.33 14.7267 11.4733 14.92 11.64L14.5 12.66C14.22 12.42 13.91 12.2467 13.57 12.14C13.2367 12.0267 12.87 11.97 12.47 11.97C12.1633 11.97 11.8967 12.01 11.67 12.09C11.45 12.17 11.2767 12.2867 11.15 12.44C11.03 12.5867 10.97 12.7633 10.97 12.97C10.97 13.21 11.0467 13.3967 11.2 13.53C11.36 13.6633 11.6367 13.77 12.03 13.85L13.15 14.07C13.8167 14.2033 14.3133 14.4233 14.64 14.73C14.9667 15.0367 15.13 15.4433 15.13 15.95C15.13 16.3767 15.0133 16.7533 14.78 17.08C14.5533 17.4 14.23 17.65 13.81 17.83C13.39 18.01 12.8967 18.1 12.33 18.1ZM16.393 18V10.95H21.163V12.02H17.673V13.89H20.943V14.96H17.673V16.93H21.163V18H16.393ZM22.6234 18V10.95H23.6734L27.6134 16.11H27.4534V10.95H28.7034V18H27.6234L23.7234 12.86H23.8634V18H22.6234ZM32.1066 18V12.06H29.6966V10.95H35.8366V12.06H33.4266V18H32.1066Z" fill="white"/>
</svg>
