<svg version="1.2" xmlns="http://www.w3.org/2000/svg" viewBox="0 0 18 18" width="18" height="18">
	<title>setting-1-svg</title>
	<style>
		.s0 { fill: #55587d } 
	</style>
	<g>
		<path fill-rule="evenodd" class="s0" d="m9.8 18h-1.6q-0.2 0-0.4-0.1-0.2 0-0.4-0.2-0.1-0.1-0.2-0.3-0.1-0.2-0.2-0.4l-0.1-1.4q-0.2 0-0.3-0.1-0.1 0-0.3-0.1-0.1 0-0.2-0.1-0.1-0.1-0.3-0.1l-1.1 0.8q-0.1 0.2-0.3 0.2-0.2 0.1-0.4 0.1-0.3 0-0.4-0.1-0.2-0.1-0.4-0.2l-1.2-1.2q-0.1-0.2-0.2-0.4-0.1-0.1-0.1-0.4 0-0.2 0.1-0.4 0-0.2 0.2-0.3l0.8-1.1q0-0.2-0.1-0.3-0.1-0.1-0.1-0.2-0.1-0.2-0.1-0.3-0.1-0.1-0.1-0.3l-1.4-0.1q-0.2-0.1-0.4-0.2-0.2-0.1-0.3-0.2-0.2-0.2-0.2-0.4-0.1-0.2-0.1-0.4v-1.6c0-0.6 0.4-1.1 1-1.2l1.4-0.1q0-0.2 0.1-0.3 0-0.1 0.1-0.3 0-0.1 0.1-0.2 0.1-0.1 0.1-0.3l-0.8-1.1q-0.2-0.1-0.2-0.3-0.1-0.2-0.1-0.4 0-0.3 0.1-0.4 0.1-0.2 0.2-0.4l1.2-1.2q0.2-0.1 0.4-0.2 0.1-0.1 0.4-0.1 0.2 0 0.4 0.1 0.2 0 0.3 0.2l1.1 0.8q0.2 0 0.3-0.1 0.1-0.1 0.2-0.1 0.2-0.1 0.3-0.1 0.1-0.1 0.3-0.1l0.1-1.4c0.1-0.6 0.6-1 1.2-1h1.6c0.6 0 1.1 0.4 1.2 1l0.1 1.4q0.6 0.2 1.1 0.4l1.1-0.8q0.1-0.2 0.3-0.2 0.2-0.1 0.4-0.1 0.3 0 0.4 0.1 0.2 0.1 0.4 0.2l1.2 1.2c0.4 0.4 0.4 1.1 0 1.5l-0.8 1.1q0.2 0.5 0.4 1.1l1.4 0.1q0.2 0.1 0.4 0.2 0.2 0.1 0.3 0.2 0.2 0.2 0.2 0.4 0.1 0.2 0.1 0.4v1.6c0 0.6-0.4 1.1-1 1.2l-1.4 0.1q0 0.2-0.1 0.3 0 0.1-0.1 0.3 0 0.1-0.1 0.2-0.1 0.1-0.1 0.3l0.8 1.1q0.2 0.1 0.2 0.3 0.1 0.2 0.1 0.4 0 0.3-0.1 0.4-0.1 0.2-0.2 0.4l-1.2 1.2q-0.2 0.1-0.4 0.2-0.1 0.1-0.4 0.1-0.2 0-0.4-0.1-0.2 0-0.3-0.2l-1.1-0.8q-0.2 0-0.3 0.1-0.1 0.1-0.2 0.1-0.2 0.1-0.3 0.1-0.1 0.1-0.3 0.1l-0.1 1.4q-0.1 0.2-0.2 0.4-0.1 0.2-0.2 0.3-0.2 0.2-0.4 0.2-0.2 0.1-0.4 0.1zm-4-3.6q0.1 0 0.2 0 0.1 0.1 0.3 0.2 0.2 0 0.3 0.1 0.2 0.1 0.4 0.1 0.1 0.1 0.3 0.2 0.1 0 0.1 0 0.1 0 0.1 0.1 0 0 0.1 0.1 0 0 0 0.1l0.2 1.6c0 0.2 0.2 0.3 0.4 0.3h1.6q0.1 0 0.2 0 0 0 0.1 0 0-0.1 0.1-0.2 0 0 0-0.1l0.2-1.6q0-0.1 0-0.1 0.1-0.1 0.1-0.1 0-0.1 0.1-0.1 0 0 0.1 0 0.2-0.1 0.3-0.2 0.2 0 0.4-0.1 0.1-0.1 0.3-0.1 0.2-0.1 0.3-0.2 0.1 0 0.1 0 0.1 0 0.1 0 0.1 0 0.1 0 0.1 0 0.1 0l1.3 1.1q0.1 0 0.2 0 0 0 0.1 0 0.1 0 0.1 0 0.1 0 0.1-0.1l1.2-1.2q0.1 0 0.1-0.1 0 0 0-0.1 0-0.1 0-0.1 0-0.1 0-0.2l-1.1-1.3q0 0 0-0.1 0 0 0-0.1 0 0 0-0.1 0 0 0-0.1 0.1-0.1 0.2-0.3 0-0.2 0.1-0.3 0.1-0.2 0.1-0.4 0.1-0.1 0.2-0.3 0-0.1 0-0.1 0-0.1 0.1-0.1 0 0 0.1 0 0-0.1 0.1-0.1l1.6-0.2q0.1 0 0.1 0 0.1-0.1 0.2-0.1 0-0.1 0-0.1 0-0.1 0-0.2v-1.6q0-0.1 0-0.2 0 0 0-0.1-0.1 0-0.2-0.1 0 0-0.1 0l-1.6-0.2q-0.1 0-0.1 0-0.1-0.1-0.1-0.1-0.1 0-0.1-0.1 0 0 0-0.1-0.1-0.2-0.2-0.3 0-0.2-0.1-0.4-0.1-0.1-0.1-0.3-0.1-0.2-0.2-0.3 0-0.1 0-0.1 0-0.1 0-0.1 0-0.1 0-0.1 0-0.1 0-0.1l1.1-1.3q0-0.1 0-0.2 0 0 0-0.1 0-0.1 0-0.1 0-0.1-0.1-0.1l-1.2-1.2q0-0.1-0.1-0.1 0 0-0.1 0-0.1 0-0.1 0-0.1 0-0.2 0l-1.3 1.1q0 0-0.1 0 0 0-0.1 0 0 0-0.1 0 0 0-0.1 0-0.1-0.1-0.3-0.2-0.2 0-0.3-0.1-0.2-0.1-0.4-0.1-0.1-0.1-0.3-0.2-0.1 0-0.1 0-0.1 0-0.1-0.1 0 0 0-0.1-0.1 0-0.1-0.1l-0.2-1.6q0-0.1 0-0.1-0.1-0.1-0.1-0.2-0.1 0-0.1 0-0.1 0-0.2 0h-1.6q-0.1 0-0.2 0 0 0-0.1 0 0 0.1-0.1 0.2 0 0 0 0.1l-0.2 1.6q0 0.1 0 0.1-0.1 0.1-0.1 0.1 0 0.1-0.1 0.1 0 0-0.1 0-0.2 0.1-0.3 0.2-0.2 0-0.4 0.1-0.1 0.1-0.3 0.1-0.2 0.1-0.3 0.2-0.1 0-0.1 0-0.1 0-0.1 0-0.1 0-0.1 0-0.1 0-0.1 0l-1.3-1.1q-0.1 0-0.2 0 0 0-0.1 0-0.1 0-0.1 0-0.1 0-0.1 0.1l-1.2 1.2q-0.1 0-0.1 0.1 0 0 0 0.1 0 0.1 0 0.1 0 0.1 0 0.2l1.1 1.3q0 0 0 0.1 0 0 0 0.1 0 0 0 0.1 0 0 0 0.1-0.1 0.1-0.2 0.3 0 0.2-0.1 0.3-0.1 0.2-0.1 0.4-0.1 0.1-0.2 0.3 0 0.1 0 0.1 0 0.1-0.1 0.1 0 0-0.1 0.1 0 0-0.1 0l-1.6 0.2q-0.1 0-0.1 0-0.1 0.1-0.2 0.1 0 0.1 0 0.1 0 0.1-0.1 0.2v1.6c0 0.2 0.2 0.4 0.4 0.4l1.6 0.2q0.1 0 0.1 0 0.1 0.1 0.1 0.1 0.1 0 0.1 0.1 0 0 0 0.1 0.2 0.7 0.6 1.3 0 0.1 0 0.1 0 0.1 0 0.1 0 0.1 0 0.1 0 0.1 0 0.1l-1.1 1.3q0 0.1 0 0.2 0 0 0 0.1 0 0.1 0 0.1 0 0.1 0.1 0.1l1.2 1.2q0 0.1 0.1 0.1 0 0 0.1 0 0.1 0 0.1 0 0.1 0 0.2 0l1.3-1.1q0 0 0 0 0 0 0.1 0 0 0 0 0 0.1 0 0.1 0z"/>
		<path fill-rule="evenodd" class="s0" d="m9 12.8c-2.1-0.1-3.8-1.7-3.8-3.8 0-2.1 1.7-3.8 3.8-3.8 2.1 0 3.8 1.7 3.8 3.8 0 2.1-1.7 3.7-3.8 3.7zm3-3.7c0-1.7-1.3-3-3-3-1.7 0-3 1.3-3 3 0 1.7 1.3 3 3 3 1.7 0 3-1.3 3-3z"/>
	</g>
</svg>