<svg xmlns="http://www.w3.org/2000/svg" xmlns:xlink="http://www.w3.org/1999/xlink" viewBox="0,0,256,256" width="48px" height="48px" fill-rule="nonzero" fill="#0067ff"><g fill="#0067ff" fill-rule="nonzero" stroke="none" stroke-width="1" stroke-linecap="butt" stroke-linejoin="miter" stroke-miterlimit="10" stroke-dasharray="" stroke-dashoffset="0" font-family="none" font-weight="none" font-size="none" text-anchor="none" style="mix-blend-mode: normal"><g transform="scale(4,4)"><path d="M52.339,28.023c0.96,0.165 1.661,0.997 1.661,1.971v4.012c0,0.974 -0.701,1.806 -1.661,1.971l-3.464,0.596c-0.395,1.461 -0.969,2.846 -1.707,4.129l2.026,2.868c0.562,0.795 0.469,1.88 -0.219,2.568l-2.837,2.837c-0.689,0.689 -1.773,0.781 -2.568,0.219l-2.868,-2.025c-1.283,0.738 -2.668,1.311 -4.129,1.707l-0.596,3.464c-0.165,0.959 -0.997,1.66 -1.971,1.66h-4.012c-0.974,0 -1.806,-0.701 -1.971,-1.661l-0.596,-3.464c-1.461,-0.395 -2.846,-0.969 -4.129,-1.707l-2.868,2.025c-0.795,0.562 -1.88,0.469 -2.568,-0.219l-2.837,-2.837c-0.688,-0.689 -0.781,-1.773 -0.219,-2.568l2.026,-2.868c-0.738,-1.283 -1.312,-2.668 -1.707,-4.129l-3.464,-0.596c-0.96,-0.164 -1.661,-0.996 -1.661,-1.97v-4.012c0,-0.974 0.701,-1.806 1.661,-1.971l3.464,-0.596c0.395,-1.461 0.969,-2.846 1.707,-4.129l-2.026,-2.868c-0.562,-0.795 -0.469,-1.88 0.219,-2.568l2.837,-2.837c0.689,-0.688 1.773,-0.781 2.568,-0.219l2.868,2.026c1.283,-0.738 2.668,-1.311 4.129,-1.707l0.596,-3.464c0.165,-0.96 0.997,-1.661 1.971,-1.661h4.012c0.974,0 1.806,0.701 1.971,1.661l0.596,3.464c1.461,0.395 2.846,0.969 4.129,1.707l2.868,-2.026c0.795,-0.562 1.88,-0.469 2.568,0.219l2.837,2.837c0.688,0.688 0.781,1.773 0.219,2.568l-2.026,2.868c0.738,1.283 1.312,2.668 1.707,4.129zM32,40c4.418,0 8,-3.582 8,-8c0,-4.418 -3.582,-8 -8,-8c-4.418,0 -8,3.582 -8,8c0,4.418 3.582,8 8,8z"></path></g></g></svg>