<svg width="400" height="400" viewBox="0 0 400 400" fill="none" xmlns="http://www.w3.org/2000/svg">
<path d="M349 183.333C349.67 188.864 350.004 194.429 350 200C350 229.667 341.203 258.668 324.72 283.336C308.238 308.003 284.811 327.229 257.403 338.582C229.994 349.935 199.834 352.906 170.736 347.118C141.639 341.33 114.912 327.044 93.934 306.066C72.9561 285.088 58.67 258.361 52.8822 229.264C47.0944 200.166 50.0649 170.006 61.4181 142.597C72.7712 115.189 91.9971 91.7618 116.664 75.2796C141.332 58.7973 170.333 50 200 50C223.226 50.2168 246.071 55.928 266.667 66.6667" stroke="#18BD5B" stroke-width="25" stroke-linecap="round" stroke-linejoin="round"/>
<path d="M350 83.3333L200 233.333L133.333 166.667" stroke="#18BD5B" stroke-width="25" stroke-linecap="round" stroke-linejoin="round"/>
</svg>
