<svg width="605" height="450" viewBox="0 0 605 450" fill="none" xmlns="http://www.w3.org/2000/svg">
<g clip-path="url(#clip0_2_2)">
<path d="M-32 580.667H634.667V-86H-32V580.667Z" fill="white"/>
<path d="M111.285 426.349C111.285 426.349 38.4573 374.488 17.4917 286.212C-3.47454 197.936 28.5255 90.9013 89.2156 36.832C149.905 -17.236 259.147 19.1773 307.699 64.4186C356.249 109.66 356.249 109.66 356.249 109.66C356.249 109.66 402.595 135.039 463.285 132.832C523.975 130.625 578.043 213.384 592.388 278.488C606.732 343.591 572.525 429.659 572.525 429.659L111.285 426.349Z" fill="#D1EBFA"/>
<path d="M69.9052 434.18C54.9557 423.351 24.0817 395.856 14.1812 348.004C10.0724 328.145 12.764 308.815 18.5953 290.644C33.1803 346.625 68.3484 387.437 90.9287 408.971H69.9052V434.18ZM580.732 408.971H579.633C585.004 391.661 591.908 365.371 594.675 337.419C596.308 351.988 594.944 367.099 590.18 384.419C587.529 394.06 584.245 402.176 580.732 408.971ZM560.252 201.628C536.147 163.26 502.192 132.789 465.665 132.789C464.875 132.789 464.077 132.804 463.285 132.832C460.755 132.924 458.255 132.968 455.777 132.968C398.816 132.968 356.249 109.66 356.249 109.66C356.249 109.66 356.249 109.66 307.699 64.4186C305.067 61.9666 302.253 59.536 299.283 57.1493C326.492 43.0746 358.733 12.9639 405.695 12.9639C412.104 12.9639 418.785 13.5239 425.768 14.7639C494.18 26.9013 560.388 63.3146 563.699 142.764C564.823 169.759 562.636 187.836 560.252 201.628Z" fill="#D1EAF9"/>
<path d="M579.633 408.971H484.477C493.719 384.408 504.004 349.84 500.967 323.728C495.705 278.488 470.445 235.453 418.872 202.349C399.328 189.804 368.6 180.587 335.163 178.601C337.204 166.141 337.295 153.004 336.664 146.073C335.561 133.936 329.768 124.004 329.768 124.004C329.768 124.004 318.876 117.827 304.953 117.827C300.74 117.827 296.248 118.393 291.699 119.867C272.112 126.211 265.216 156.556 267.423 172.556C268.052 177.116 269.191 181.035 270.699 184.477C236.987 193.247 205.953 211.853 186.271 244.28C157.372 291.892 159.207 341.924 166.963 377.3V408.971H90.9287C68.3484 387.437 33.1803 346.625 18.5953 290.644C31.5568 250.257 60.0312 215.592 63.836 193.521C69.3536 161.521 57.2156 121.797 107.975 90.9013C158.732 60.004 249.216 71.0386 283.423 63.3146C288.559 62.1546 293.819 59.976 299.283 57.1493C302.253 59.536 305.067 61.9666 307.699 64.4186C356.249 109.66 356.249 109.66 356.249 109.66C356.249 109.66 398.816 132.968 455.777 132.968C458.255 132.968 460.755 132.924 463.285 132.832C464.077 132.804 464.875 132.789 465.665 132.789C502.192 132.789 536.147 163.26 560.252 201.628C555.621 228.425 550.253 239.041 567.008 267.453C582.429 293.601 592.147 314.86 594.675 337.419C591.908 365.371 585.004 391.661 579.633 408.971Z" fill="#B0D6F2"/>
<path d="M484.477 408.971H391.829C393.371 403.424 397.077 383.04 397.077 383.04C397.077 383.04 365.629 356.097 363.975 351.683C362.871 348.74 363.423 294.212 358.732 269.108C354.043 244.004 347.975 238.947 335.285 232.695C322.171 226.232 302.732 220.188 302.732 220.188C302.732 220.188 306.595 229.108 310.18 250.073C313.768 271.04 317.077 306.349 317.905 330.625C318.656 352.636 319.179 400.271 319.271 408.971H280.261C280.924 402.743 283.528 377.421 282.319 374.764C281.787 373.591 268.912 372.913 253.308 372.521V272.971C253.308 272.971 237.44 271.863 220.172 271.863C204.056 271.863 186.72 272.828 179.928 276.556C165.86 284.28 166.963 311.04 166.963 311.04V377.3C159.207 341.924 157.372 291.892 186.271 244.28C205.953 211.853 236.987 193.247 270.699 184.477C270.849 184.82 271.003 185.159 271.16 185.492C270.053 194.289 267.876 210.747 266.871 212.556C265.492 215.039 265.492 215.039 265.492 215.039L258.595 219.729C258.595 219.729 271.836 238.488 288.112 241.521C290.323 241.935 292.207 242.112 293.813 242.112C304.039 242.112 303.008 234.901 303.008 234.901L300.525 229.66L302.691 210.903C304.388 211.165 306.113 211.308 307.833 211.308C314.983 211.308 322.052 208.865 326.732 202.625C330.993 196.944 333.629 187.964 335.163 178.601C368.6 180.587 399.328 189.804 418.872 202.349C470.445 235.453 495.705 278.488 500.967 323.728C504.004 349.84 493.719 384.408 484.477 408.971Z" fill="#95C3EB"/>
<path d="M547.285 269.2H487.789C484.109 269.2 481.123 266.215 481.123 262.533V232.832C481.123 229.151 484.109 226.165 487.789 226.165H547.285C550.967 226.165 553.952 229.151 553.952 232.832V262.533C553.952 266.215 550.967 269.2 547.285 269.2Z" fill="#599FDC"/>
<path d="M517.537 286.028L526.965 263.683H508.109L517.537 286.028Z" fill="#599FDC"/>
<path d="M517.312 240.293H534.343V242.785L542.692 237.971L534.343 233.157V235.649H517.312V240.293Z" fill="#293D8A"/>
<path d="M542.692 250.087H525.661V247.595L517.312 252.408L525.661 257.221V254.729H542.692V250.087Z" fill="white"/>
<path d="M506.859 254.467L506.048 254.763C506.048 254.763 503.521 251.877 502.209 248.735C500.897 245.593 500.852 241.756 500.852 241.756L501.445 241.508L497.843 232.889C497.201 233.391 496.589 234.036 496.095 234.872C494.057 238.316 494.259 243.601 496.309 248.765C498.359 253.928 500.551 258.533 504.551 261.429C506.911 263.139 508.933 263.437 510.504 263.189L506.859 254.467Z" fill="#293D8A"/>
<path d="M509.445 253.452L508.325 253.859L512.011 262.683C512.428 262.547 512.801 262.379 513.125 262.201C514.077 261.68 514.496 260.535 514.095 259.527L512.169 254.675C511.741 253.599 510.535 253.055 509.445 253.452Z" fill="#293D8A"/>
<path d="M500.659 231.379C500.205 231.541 499.712 231.763 499.216 232.055L502.893 240.857L504.131 240.34C505.205 239.892 505.725 238.668 505.301 237.584L503.368 232.621C502.949 231.544 501.747 230.985 500.659 231.379Z" fill="#293D8A"/>
<path d="M166.963 410.349V311.04C166.963 311.04 165.86 284.28 179.928 276.556C193.997 268.832 253.308 272.971 253.308 272.971V410.349H166.963Z" fill="#3A76C4"/>
<path d="M271.836 180.004C271.836 180.004 268.251 210.073 266.871 212.556C265.492 215.039 265.492 215.039 265.492 215.039L258.595 219.729C258.595 219.729 271.836 238.488 288.112 241.521C304.388 244.556 303.008 234.901 303.008 234.901L300.525 229.66L303.837 200.969C303.837 200.969 274.319 187.453 271.836 180.004Z" fill="#F57C83"/>
<path d="M250.043 222.212L260.801 217.521C260.801 217.521 267.699 228.832 283.699 235.453C299.699 242.073 299.975 238.212 300.801 235.453C301.629 232.695 300.525 229.66 300.525 229.66L301.709 220.001L308.108 222.133L330.319 401.797L273.216 404.556L250.043 222.212Z" fill="white"/>
<path d="M302.732 220.188C302.732 220.188 306.595 229.108 310.18 250.073C313.768 271.04 317.077 306.349 317.905 330.625C318.732 354.901 319.285 410.349 319.285 410.349C319.285 410.349 390.456 410.349 391.285 410.349C392.112 410.349 397.077 383.04 397.077 383.04C397.077 383.04 365.629 356.097 363.975 351.683C362.871 348.74 363.423 294.212 358.732 269.108C354.043 244.004 347.975 238.947 335.285 232.695C322.171 226.232 302.732 220.188 302.732 220.188Z" fill="#293D8A"/>
<path d="M340.249 378.74C339.881 378.74 339.583 378.441 339.583 378.073C339.583 376.101 339.232 348.079 338.895 320.979C338.555 293.875 338.204 265.848 338.204 263.867C338.204 263.497 338.503 263.2 338.871 263.2C339.239 263.2 339.537 263.497 339.537 263.867C339.537 265.839 339.888 293.861 340.227 320.961C340.565 348.065 340.916 376.092 340.916 378.073C340.916 378.441 340.619 378.74 340.249 378.74Z" fill="#788CBD"/>
<path d="M196.801 372.004L196.251 410.349H280.112C280.112 410.349 283.699 377.797 282.319 374.764C280.94 371.728 196.801 372.004 196.801 372.004Z" fill="#293D8A"/>
<path d="M301.868 218.031C298.227 216.695 293.552 214.484 290.135 211.729C284.148 206.903 280.313 201.153 277.828 195.513C280.595 198.659 283.656 201.38 286.732 204.004C290.628 207.327 296.473 209.936 302.691 210.903L301.868 218.031Z" fill="#945168"/>
<path d="M329.768 124.004C329.768 124.004 335.561 133.936 336.664 146.073C337.768 158.212 336.664 189.384 326.732 202.625C316.801 215.867 296.112 212.004 286.732 204.004C278.125 196.663 269.629 188.556 267.423 172.556C265.216 156.556 272.112 126.211 291.699 119.867C311.284 113.521 329.768 124.004 329.768 124.004Z" fill="#F57C83"/>
<path d="M354.653 393.007C354.653 393.007 353.68 393.007 352.2 392.967C351.853 392.953 351.467 392.967 351.065 392.953C349.64 392.913 347.907 392.875 346.16 392.821C345.773 392.807 345.373 392.793 344.987 392.78C343.253 392.74 341.773 392.953 340.387 392.875H340.347C340.053 392.86 339.627 392.9 339.28 392.913C339.107 392.928 338.947 392.94 338.84 392.928C338.04 392.78 337.88 392.595 337.013 392.208C335.893 391.7 320.732 388.315 308.399 388.393C296.08 388.447 285.027 389.287 283.227 387.78C281.413 386.247 280.32 370.768 290.84 369.753L303.773 374.66C303.773 374.66 333.307 371.155 344.133 379.14C354.987 387.127 354.653 393.007 354.653 393.007Z" fill="#F57C83"/>
<path d="M340.347 392.875C340.053 392.86 339.627 392.9 339.28 392.913C339.013 392.488 338.452 391.713 338.147 391.393C334.813 387.993 326.76 385.793 323.84 385.087C323.573 385.02 323.399 384.753 323.467 384.488C323.52 384.22 323.8 384.06 324.08 384.113C328.333 385.14 337.36 387.768 339.92 392.073C340 392.193 340.213 392.607 340.347 392.875Z" fill="#293D8A"/>
<path d="M346.164 392.82C345.777 392.811 345.377 392.8 344.991 392.777C341.351 386.14 335.396 384.235 328.037 381.868L327.601 381.723C327.349 381.637 327.196 381.353 327.284 381.089C327.369 380.837 327.64 380.684 327.917 380.771L328.34 380.915C336.121 383.412 342.383 385.419 346.164 392.82Z" fill="#293D8A"/>
<path d="M352.201 392.967C351.855 392.957 351.468 392.961 351.067 392.952C348.86 388.311 341.555 380.544 331.889 378.733C331.611 378.687 331.429 378.429 331.476 378.151C331.536 377.884 331.793 377.705 332.06 377.752C342.016 379.621 350.048 387.753 352.201 392.967Z" fill="#293D8A"/>
<path d="M274.043 158.901C274.043 158.901 280.112 156.004 284.388 147.867C288.664 139.729 288.112 132.419 288.112 132.419C288.112 132.419 295.836 131.177 307.423 134.625C319.008 138.073 332.801 142.764 344.388 136.143C355.975 129.521 355.975 118.901 350.319 114.488C343.985 109.544 331.423 112.556 331.423 112.556C331.423 112.556 336.249 107.867 333.629 105.108C331.008 102.349 321.492 105.936 321.492 105.936C321.492 105.936 309.905 96.6946 287.975 97.7973C266.043 98.9013 255.56 114.212 254.319 131.315C253.077 148.419 259.285 165.521 259.285 165.521L274.043 158.901Z" fill="#293D8A"/>
<path d="M318.96 187.037C318.707 187.037 318.441 187.031 318.16 187.019C316.536 186.956 314.495 186.688 313.101 185.816C312.689 185.557 312.845 184.884 313.351 184.884C313.352 184.884 313.352 184.884 313.353 184.884C314.22 184.888 315.067 185.149 315.932 185.215C316.736 185.273 317.549 185.308 318.355 185.345C318.823 185.367 319.377 185.409 319.943 185.409C320.789 185.409 321.655 185.313 322.271 184.905C324.964 183.123 319.728 180.923 318.62 180.107C316.303 178.399 316.768 175.449 317.011 172.92C317.324 169.668 317.293 166.111 318.536 163.047C318.625 162.828 318.855 162.712 319.067 162.712C319.307 162.712 319.527 162.86 319.499 163.177C319.148 167.081 318.245 170.935 318 174.857C317.896 176.489 317.776 178.249 319.236 179.295C320.289 180.049 321.569 180.409 322.613 181.183C323.519 181.855 324.421 182.933 324.26 184.136C324.119 185.205 323.247 185.836 322.347 186.283C321.139 186.883 320.176 187.037 318.96 187.037Z" fill="#945168"/>
<path d="M329.812 172.22C329.4 174.545 327.709 176.189 326.033 175.893C324.359 175.597 323.335 173.471 323.745 171.147C324.157 168.821 325.848 167.176 327.524 167.472C329.199 167.768 330.224 169.895 329.812 172.22Z" fill="#293D8A"/>
<path d="M308.704 170.377C308.331 172.887 306.564 174.701 304.756 174.433C302.948 174.164 301.785 171.912 302.159 169.404C302.532 166.895 304.3 165.079 306.108 165.348C307.915 165.617 309.077 167.869 308.704 170.377Z" fill="#293D8A"/>
<path d="M324.897 162.635C326.187 162.852 327.488 162.629 328.788 162.721C329.101 162.743 329.409 162.789 329.723 162.82C329.944 162.84 329.308 162.753 329.617 162.804L329.816 162.837C329.979 162.867 330.141 162.9 330.301 162.939C330.579 163.007 330.847 163.111 331.124 163.172C331.376 163.227 331.656 163.285 331.909 163.273C332.052 163.255 332.192 163.236 332.335 163.216L332.067 163.265L332.595 163.208C333.335 163.035 333.791 162.179 333.584 161.464C333.524 161.259 333.433 161.072 333.303 160.903L333.133 160.688L333.289 160.867L333.119 160.64C333.045 160.517 332.948 160.419 332.824 160.345L332.512 160.108C332.171 159.871 331.721 159.732 331.316 159.628C330.547 159.429 329.739 159.328 328.947 159.324C328.157 159.32 327.379 159.403 326.599 159.511C325.911 159.605 325.145 159.84 324.587 160.255C324.156 160.576 323.891 160.988 323.965 161.552C324.028 162.019 324.396 162.549 324.897 162.635Z" fill="#293D8A"/>
<path d="M310.184 158.944C310.009 158.84 309.831 158.749 309.645 158.665C309.489 158.595 309.063 158.371 309.385 158.547L309.031 158.357C308.496 158.088 307.941 157.908 307.364 157.761C306.105 157.44 304.78 157.359 303.489 157.495C302.112 157.64 300.855 157.973 299.661 158.692C299.493 158.795 299.32 158.893 299.18 159.033C299.085 159.153 298.992 159.275 298.901 159.397L298.98 159.277C298.612 159.535 298.397 159.956 298.401 160.401C298.404 160.829 298.627 161.187 298.999 161.393C299.448 161.644 299.875 161.524 300.339 161.405C300.105 161.405 299.872 161.405 299.64 161.405C300.023 161.464 300.292 161.48 300.679 161.395C300.693 161.392 301.051 161.303 300.815 161.352C300.593 161.4 301.191 161.307 301.256 161.297C301.332 161.287 301.747 161.245 301.308 161.288L301.551 161.26C301.757 161.235 301.967 161.208 302.175 161.192C303.085 161.119 303.993 161.077 304.905 161.048C305.752 161.02 306.615 161.013 307.46 161.049C307.824 161.065 308.184 161.077 308.548 161.088C308.751 161.093 308.665 161.125 308.525 161.081L308.752 161.14C308.903 161.181 309.051 161.231 309.196 161.287C309.785 161.511 310.491 161.085 310.708 160.544C310.945 159.955 310.744 159.277 310.184 158.944Z" fill="#293D8A"/>
<path d="M316.733 197.292C318 194.747 320.303 192.881 322.965 191.681C320.655 191.447 309.741 190.436 306.988 192C303.903 193.751 307.559 200.784 313.937 201.137C314.608 201.175 315.217 201.12 315.797 201.029C315.849 199.745 316.145 198.475 316.733 197.292Z" fill="#293D8A"/>
<path d="M266.319 182.488C266.319 182.488 267.423 186.764 273.767 191.729C280.112 196.695 289.308 200.327 289.308 200.327L290.043 197.108C290.043 197.108 280.525 192.969 276.112 188.419C271.699 183.867 271.147 181.384 271.147 181.384L266.319 182.488Z" fill="#D6DCEB"/>
<path d="M291.147 194.727C296.253 194.489 299.103 198.527 299.459 201.139C299.815 203.752 297.361 206.681 291.621 204.108C284.492 200.912 286.041 194.964 291.147 194.727Z" fill="#293D8A"/>
<path d="M270.319 150.901C270.319 150.901 272.524 135.048 283.147 124.28C303.423 103.729 320.664 104.969 320.664 104.969C320.664 104.969 320.525 102.073 314.043 99.8666C307.956 97.7946 305.216 98.9013 305.216 98.9013C305.216 98.9013 288.525 100.28 274.457 115.867C260.388 131.453 258.871 151.315 258.871 151.315L270.319 150.901Z" fill="#D6DCEB"/>
<path d="M268.801 148.969C255.519 146.719 248.112 157.108 247.56 167.591C247.008 178.073 254.625 186.043 264.801 185.245C287.699 183.453 285.077 151.729 268.801 148.969Z" fill="white"/>
<path d="M262.188 175.059C258.681 175.059 255.717 173.296 254.024 170.193C252.209 166.869 252.361 162.777 254.412 159.768C254.568 159.543 254.877 159.483 255.107 159.637C255.335 159.793 255.395 160.104 255.239 160.332C253.397 163.033 253.265 166.716 254.901 169.713C256.455 172.559 259.196 174.171 262.443 174.055C265.477 173.973 268.049 172.585 269.685 170.145C271.552 167.36 271.981 163.515 270.779 160.349C269.585 157.208 266.313 155.067 263.339 155.456C263.069 155.491 262.813 155.3 262.777 155.025C262.74 154.752 262.932 154.501 263.207 154.464C266.687 154 270.341 156.379 271.713 159.993C273.028 163.453 272.557 167.656 270.516 170.701C268.695 173.419 265.837 174.964 262.469 175.055L262.188 175.059Z" fill="#7588BB"/>
<path d="M252.525 218.349C252.525 218.349 212.251 228.28 198.181 244.28C184.112 260.28 177.492 339.177 177.216 353.797C176.94 368.419 187.147 374.488 193.216 378.625C199.285 382.764 226.043 390.212 247.56 391.316C269.077 392.419 289.492 391.316 289.492 391.316C289.492 391.316 289.423 386.625 292.732 379.728C295.803 373.332 299.699 372.004 299.699 372.004L281.216 365.384C281.216 365.384 277.98 307.392 272.94 279.316C267.147 247.039 252.525 218.349 252.525 218.349Z" fill="#293D8A"/>
<path d="M319.285 356.119L319.015 356.061C318.677 355.912 318.525 355.519 318.675 355.183C322.449 346.668 326.359 329.953 328.561 318.227L328.741 317.279C329.408 313.829 330.237 309.54 328.583 306.579C327.739 305.068 325.833 301.791 324 298.64C322.097 295.369 320.3 292.279 319.801 291.357C318.831 289.556 321.889 284.745 326.317 278.147C327.512 276.363 328.547 274.823 329.149 273.78C330.728 271.049 329.676 268.548 328.46 265.652L328.047 264.655C326.944 261.947 325.689 259.235 324.479 256.612C323.984 255.541 323.488 254.468 323 253.389C322.352 251.964 321.703 250.513 321.044 249.047C317.145 240.356 313.115 231.371 307.952 222.689C307.764 222.373 307.868 221.964 308.184 221.776C308.501 221.589 308.909 221.692 309.099 222.009C314.299 230.755 318.345 239.776 322.26 248.5C322.917 249.967 323.567 251.415 324.213 252.84C324.701 253.915 325.195 254.985 325.688 256.053C326.907 258.689 328.167 261.416 329.281 264.152L329.689 265.136C330.931 268.089 332.213 271.144 330.303 274.447C329.677 275.529 328.633 277.087 327.424 278.888C325.116 282.329 320.311 289.492 320.975 290.723C321.463 291.627 323.255 294.708 325.152 297.969C326.989 301.128 328.9 304.413 329.747 305.928C331.64 309.315 330.759 313.871 330.052 317.532L329.871 318.472C329.068 322.743 324.82 344.608 319.895 355.721C319.784 355.972 319.54 356.119 319.285 356.119Z" fill="#788CBD"/>
<path d="M279.975 358.464C279.803 358.464 279.631 358.399 279.501 358.268C276.367 355.108 261.249 328.933 260.124 324.011C259.508 321.316 261.055 314.481 262.551 307.871C263.709 302.749 264.908 297.453 264.567 296.02C264.057 293.877 260.192 290.719 256.453 287.665C251.937 283.977 247.268 280.161 246.364 276.725C245.336 272.82 246.215 248.371 246.796 232.193C247.005 226.376 247.171 221.781 247.169 220.143C247.169 219.775 247.468 219.476 247.836 219.476C248.204 219.476 248.503 219.773 248.503 220.141C248.504 221.805 248.339 226.411 248.128 232.241C247.585 247.363 246.676 272.669 247.653 276.387C248.448 279.403 253.149 283.244 257.297 286.633C261.388 289.975 265.251 293.131 265.864 295.712C266.276 297.445 265.152 302.413 263.851 308.164C262.456 314.328 260.876 321.313 261.424 323.713C262.528 328.54 277.369 354.225 280.448 357.327C280.707 357.589 280.705 358.011 280.444 358.269C280.313 358.399 280.144 358.464 279.975 358.464Z" fill="#788CBD"/>
<path d="M225.768 347.016L225.675 347.009C225.309 346.957 225.056 346.62 225.107 346.256C225.596 342.788 233.249 273.721 233.6 268.432C233.625 268.063 233.943 267.775 234.311 267.811C234.677 267.835 234.955 268.153 234.931 268.52C234.579 273.819 226.917 342.971 226.427 346.443C226.38 346.775 226.095 347.016 225.768 347.016Z" fill="#788CBD"/>
<path d="M280.664 365.773L280.413 365.725C278.717 365.039 271.225 362.511 261.74 359.313C242.596 352.856 216.376 344.015 211.391 341.424C211.064 341.255 210.937 340.852 211.107 340.525C211.276 340.197 211.676 340.067 212.005 340.241C216.9 342.784 244.141 351.971 262.167 358.048C271.673 361.256 279.181 363.787 280.915 364.489C281.256 364.628 281.42 365.016 281.281 365.357C281.176 365.616 280.927 365.773 280.664 365.773Z" fill="#788CBD"/>
<path d="M271.457 393.275C254.609 393.275 221.945 390.237 197.132 381.461C196.784 381.337 196.603 380.957 196.725 380.609C196.847 380.264 197.232 380.081 197.576 380.204C228.923 391.292 272.773 393.185 280.932 391.353C281.291 391.276 281.647 391.5 281.728 391.859C281.809 392.217 281.583 392.575 281.224 392.656C279.457 393.051 276.043 393.275 271.457 393.275Z" fill="#788CBD"/>
<path d="M78.6131 227.652C83.8437 232.252 90.4683 235.201 95.0584 240.521C96.864 242.615 98.4864 244.843 100.164 247.037C101.384 248.635 104.641 251.284 105.169 253.292C105.403 254.176 105.353 252.979 105.119 252.092L105.08 251.981C104.621 247.916 104.293 243.835 104.151 239.745C104.008 235.667 104.263 231.572 104.007 227.5C103.647 221.755 101.853 216.192 97.1573 212.593C94.862 210.833 91.9125 209.763 89.8021 207.811C87.7995 205.957 88.6031 203.835 89.7807 201.768C90.8823 199.833 92.2183 197.933 92.6473 195.707C93.1355 193.176 92.1844 190.565 90.9005 188.411C88.1693 183.824 82.1104 178.711 76.3735 179.396C71.588 179.968 71.0459 185.488 71.114 189.333C71.1807 193.072 71.5505 196.799 71.586 200.54C71.6235 204.383 70.9697 208.153 70.9151 211.979C70.8224 218.487 73.8292 223.445 78.6131 227.652Z" fill="#60A6DF"/>
<path d="M127.212 287.361C128.668 283.888 130.339 280.641 132.393 277.483C135.212 273.149 138.339 268.927 140.231 264.073C142.164 259.119 141.88 253.82 142.071 248.601C142.209 244.768 143.349 240.944 143.041 237.1C142.895 235.256 141.832 232.273 139.447 232.579C137.591 232.816 136.488 235.117 135.775 236.585C134.529 239.148 133.667 241.881 132.741 244.569C132.381 245.621 132.036 246.692 131.58 247.707C131.315 248.297 130.471 249.737 129.675 249.541C128.319 249.207 129.549 243.672 129.751 242.692C130.763 237.769 132.287 233.195 132.499 228.129C132.805 220.785 132.235 212.043 125.052 208.027C123.173 206.977 120.795 206.352 119.011 207.923C117.251 209.471 116.753 212.156 116.492 214.365C115.691 221.148 117.287 227.571 119.46 233.952C121.255 239.221 123.393 244.659 123.549 250.293C123.7 255.717 120.877 260.524 119.553 265.648C117.443 273.813 117.879 278.143 117.869 280.787C117.855 284.1 117.976 287.377 118.217 290.68C118.441 293.716 118.704 296.753 119.075 299.775C119.151 300.387 119.22 301.025 119.301 301.664C118.135 298.855 117.727 295.637 116.76 292.815C115.044 287.796 113.049 282.881 111.401 277.839C110.04 273.672 108.755 269.477 106.956 265.472C105.271 261.713 103.235 257.741 100.09 254.984C98.1885 253.317 95.8839 252.343 93.3412 252.363C91.7151 252.375 90.2536 252.937 88.7005 253.348C86.7891 253.853 85.2855 253.679 83.7131 252.471C78.5651 248.513 76.9995 241.419 73.1885 236.408C70.3459 232.671 63.6016 226.3 58.6421 230.376C56.0115 232.537 55.286 236.715 55.424 239.917C55.5973 243.935 57.3531 247.609 59.4443 250.969C61.6683 254.541 64.5391 257.74 66.5828 261.413C67.7912 263.583 67.9803 265.661 67.788 268.109C67.6079 270.415 67.4063 272.648 68.1921 274.872C70.5521 281.551 77.9213 280.619 83.6527 280.793C87.6631 280.915 91.9656 281.512 95.7729 282.795C100.173 284.276 103.036 287.14 104.609 291.492C105.747 294.643 106.356 298.219 108.5 300.895C109.508 302.153 110.843 303.083 112.311 303.732C114.545 304.719 121.36 305.151 121.411 304.528C121.579 302.444 122.567 300.245 123.185 298.268C124.345 294.56 125.709 290.943 127.212 287.361Z" fill="#60A6DF"/>
<path d="M158.853 286.103C158.26 282.284 158.373 278.076 156.565 274.569C156.436 274.319 156.095 274.255 155.861 274.384C154.565 275.103 154.512 277.196 154.405 278.479C154.231 280.607 154.361 282.74 154.099 284.863C153.64 288.591 152.779 292.433 151.435 295.947C149.916 299.923 147.152 302.176 143.139 303.417C140.56 304.213 138.031 304.908 135.879 306.619C133.951 308.152 132.612 310.265 131.619 312.491C128.94 318.5 127.664 325.217 126.421 331.637C125.585 335.96 124.903 340.303 123.853 344.583C122.804 348.859 121.677 353.113 121.076 357.483C120.975 357.703 120.867 357.921 120.773 358.144C120.499 358.797 121.52 359.151 121.872 358.607C126.016 352.229 131.063 346.505 137.948 342.993C141.057 341.408 145.188 341.079 147.781 338.587C149.755 336.691 150.025 333.797 149.731 331.219C149.343 327.831 147.72 325.043 146.028 322.156C145.1 320.569 144.003 318.871 144.377 316.943C144.731 315.124 146.243 313.788 147.743 312.856C150.605 311.079 153.952 310.279 156.296 307.717C158.473 305.339 159.68 302.379 159.921 299.173C160.243 294.901 159.507 290.321 158.853 286.103Z" fill="#60A6DF"/>
<path d="M102.365 308.12C98.7099 303.411 94.2969 299.349 89.3328 296.052C86.6839 294.293 80.4344 290.823 79.1735 296.012C78.4339 299.053 81.4104 302.045 83.3693 303.952C86.3136 306.817 89.7188 309.289 92.2027 312.592C89.1271 313.572 85.9136 313.764 83.2412 315.889C80.0776 318.408 78.6584 323.269 81.7953 326.353C83.324 327.856 85.3511 328.779 87.2547 329.701C89.7292 330.899 92.2495 331.985 94.786 333.045C100.263 335.332 105.809 337.653 110.48 341.401C115.24 345.22 119.716 351.677 120.093 357.908C120.131 358.503 119.904 357.961 120.259 357.689C120.453 357.864 121.107 357.551 121.103 357.204C121.005 347.957 119.344 339.155 115.565 330.685C112.064 322.833 107.645 314.923 102.365 308.12Z" fill="#60A6DF"/>
<path d="M89.7385 222.048C91.7552 226.235 93.864 230.324 96.1031 234.405C98.2579 238.335 100.411 242.235 102.023 246.427C104.008 251.588 106.089 256.672 108.188 261.788C110.369 267.105 112.319 272.524 113.883 278.055C116.936 288.853 119.204 299.968 120.325 311.136C120.896 316.816 121.155 322.529 120.999 328.235C120.876 332.695 120.373 337.105 119.955 341.543C119.519 346.157 119.204 350.828 119.591 355.46C119.913 359.332 120.529 363.935 123.535 366.697C124.121 367.239 124.955 366.564 124.613 365.865C121.043 358.543 121.243 350.559 121.925 342.619C122.303 338.235 122.825 333.875 122.973 329.475C123.161 323.876 122.941 318.267 122.415 312.691C121.379 301.729 119.193 290.899 116.359 280.269C114.904 274.82 113.105 269.476 111.033 264.228C108.955 258.971 106.556 253.857 104.543 248.573C100.903 239.017 95.3536 230.544 90.4396 221.639C90.1844 221.176 89.514 221.583 89.7385 222.048Z" fill="#3E579E"/>
<path d="M120.489 300.188C121.067 293.229 121.683 286.528 124.029 279.889C125.123 276.793 126.449 273.783 127.505 270.675C128.377 268.105 129.683 264.583 129.011 261.852C128.936 261.547 128.492 261.563 128.408 261.852C127.959 263.412 128.008 265.123 127.685 266.721C127.369 268.277 126.949 269.808 126.465 271.32C125.436 274.536 124.091 277.617 122.925 280.783C120.675 286.897 119.519 293.671 120.011 300.188C120.033 300.496 120.464 300.496 120.489 300.188Z" fill="#3E579E"/>
<path d="M80.164 260.196C82.9265 266.869 91.2303 267.255 97.2781 268.749C101.597 269.816 104.785 272.697 107.075 276.437C109.581 280.529 111.276 285.333 112.669 289.9L112.751 289.879C111.059 281.88 108.635 272.249 100.39 268.528C93.7823 265.545 85.0755 267.044 80.8495 259.907C80.6417 259.556 79.9969 259.792 80.164 260.196Z" fill="#3E579E"/>
<path d="M116.123 299.132C116.452 299.576 116.753 300.04 117.092 300.475C117.26 300.691 117.431 300.893 117.643 301.067C117.86 301.244 118.113 301.464 118.411 301.459C118.535 301.456 118.621 301.319 118.555 301.208C118.419 300.985 118.172 300.851 117.98 300.681C117.781 300.507 117.58 300.335 117.388 300.155C117.001 299.789 116.648 299.392 116.271 299.019L116.123 299.132Z" fill="#3E579E"/>
<path d="M98.8495 320.301C103.615 324.212 108.011 328.84 111.503 333.911C113.172 336.335 114.713 338.9 116.111 341.489C117.637 344.319 118.639 347.308 119.835 350.275C119.925 350.5 120.337 350.505 120.305 350.212C119.644 343.936 115.669 338.556 112.485 333.335C110.832 330.623 108.776 328.436 106.565 326.175C104.283 323.839 101.956 321.629 99.2797 319.745C98.9541 319.516 98.5385 320.045 98.8495 320.301Z" fill="#3E579E"/>
<path d="M136.791 312.913C134.496 314.213 134.421 317.839 134.376 320.153C134.289 324.6 135.391 328.776 133.439 333.013C131.676 336.841 128.86 340.037 126.647 343.592C124.573 346.919 122.529 351.172 122.575 355.177C122.577 355.408 122.932 355.54 123.04 355.304C123.875 353.485 124.175 351.42 124.773 349.515C125.445 347.372 126.384 345.427 127.6 343.543C129.731 340.241 132.345 337.236 134.075 333.685C135.896 329.943 135.629 326.236 135.508 322.181C135.432 319.596 135.173 315.441 137.257 313.519C137.585 313.217 137.167 312.701 136.791 312.913Z" fill="#3E579E"/>
<path d="M121.447 355.591C112.203 355.463 94.5948 355.361 94.5948 355.361L98.9521 387.711C99.9317 394.988 106.144 400.419 113.487 400.419H121.079H121.813H129.404C136.748 400.419 142.96 394.988 143.94 387.711L148.297 355.361C148.297 355.361 130.689 355.463 121.447 355.591Z" fill="white"/>
<path d="M568.251 296.143L515.513 400.601L361.768 401.707L409.216 294.671L568.251 296.143Z" fill="#F5F6F9"/>
<path d="M259.728 401.055L259.757 392.695H359.285L405.077 292.28H564.249L568.251 296.143H412.756L365.169 400.971C365.169 400.971 259.728 400.78 259.728 401.055Z" fill="#D1D8E8"/>
<path d="M488.413 353.785C486.676 358.996 477.249 363.02 467.357 362.772C457.465 362.525 450.855 358.101 452.591 352.889C454.328 347.68 463.755 343.656 473.647 343.904C483.539 344.152 490.151 348.576 488.413 353.785Z" fill="#D1D8E8"/>
<path d="M365.171 401.637L364.895 401.577C364.56 401.425 364.411 401.031 364.563 400.695L412.327 295.476H568.251C568.62 295.476 568.917 295.773 568.917 296.143C568.917 296.511 568.62 296.809 568.251 296.809H413.185L365.777 401.247C365.667 401.491 365.423 401.637 365.171 401.637Z" fill="white"/>
<path d="M69.9052 449.521H252.801V408.971H69.9052V449.521Z" fill="#4F68A9"/>
<path d="M251.756 449.521H580.823V408.971H251.756V449.521Z" fill="#6F83B8"/>
<path d="M69.9052 416.419H251.756V408.971H69.9052V416.419Z" fill="#3D5192"/>
<path d="M580.823 416.419H251.756V408.971H580.823V416.419Z" fill="#5165A1"/>
<path d="M260.801 410.901H61.0776V400.971H260.801V410.901Z" fill="#647AB4"/>
<path d="M588.823 410.901H259.757V400.971H588.823V410.901Z" fill="#8E9EC7"/>
<path d="M206.625 188.209H142.06C138.064 188.209 134.825 184.971 134.825 180.975V148.741C134.825 144.747 138.064 141.507 142.06 141.507H206.625C210.62 141.507 213.86 144.747 213.86 148.741V180.975C213.86 184.971 210.62 188.209 206.625 188.209Z" fill="white"/>
<path d="M232.26 164.859L208.011 154.627V175.091L232.26 164.859Z" fill="white"/>
<path d="M163.492 164.859C163.492 167.325 161.492 169.324 159.025 169.324C156.559 169.324 154.559 167.325 154.559 164.859C154.559 162.391 156.559 160.392 159.025 160.392C161.492 160.392 163.492 162.391 163.492 164.859Z" fill="#293D8A"/>
<path d="M178.809 164.859C178.809 167.325 176.809 169.324 174.343 169.324C171.876 169.324 169.876 167.325 169.876 164.859C169.876 162.391 171.876 160.392 174.343 160.392C176.809 160.392 178.809 162.391 178.809 164.859Z" fill="#293D8A"/>
<path d="M194.127 164.859C194.127 167.325 192.127 169.324 189.66 169.324C187.193 169.324 185.193 167.325 185.193 164.859C185.193 162.391 187.193 160.392 189.66 160.392C192.127 160.392 194.127 162.391 194.127 164.859Z" fill="#293D8A"/>
<path d="M535.331 42.3493H386.273C376.7 42.3493 368.94 50.1093 368.94 59.6826V130.396C368.94 139.968 376.7 147.729 386.273 147.729H399.633C400.009 154.139 399.091 163.675 393.737 175.867C410.959 167.923 420.876 155.995 426.056 147.729H535.331C544.903 147.729 552.664 139.968 552.664 130.396V59.6826C552.664 50.1093 544.903 42.3493 535.331 42.3493Z" fill="#599FDC"/>
<path d="M471.744 76.0506H397.813C395.783 76.0506 394.135 74.404 394.135 72.3733C394.135 70.3413 395.783 68.6946 397.813 68.6946H471.744C473.776 68.6946 475.423 70.3413 475.423 72.3733C475.423 74.404 473.776 76.0506 471.744 76.0506Z" fill="white"/>
<path d="M524.756 97.476H396.388C395.144 97.476 394.135 96.4679 394.135 95.2239C394.135 93.9799 395.144 92.9706 396.388 92.9706H524.756C526 92.9706 527.009 93.9799 527.009 95.2239C527.009 96.4679 526 97.476 524.756 97.476Z" fill="#C3E4F7"/>
<path d="M524.756 109.983H396.388C395.144 109.983 394.135 108.973 394.135 107.729C394.135 106.485 395.144 105.476 396.388 105.476H524.756C526 105.476 527.009 106.485 527.009 107.729C527.009 108.973 526 109.983 524.756 109.983Z" fill="#C3E4F7"/>
<path d="M496.753 123.316H396.388C395.144 123.316 394.135 122.307 394.135 121.063C394.135 119.819 395.144 118.809 396.388 118.809H496.753C497.999 118.809 499.008 119.819 499.008 121.063C499.008 122.307 497.999 123.316 496.753 123.316Z" fill="#C3E4F7"/>
<path d="M523.748 76.0506H488.48C486.449 76.0506 484.801 74.404 484.801 72.3733C484.801 70.3413 486.449 68.6946 488.48 68.6946H523.748C525.78 68.6946 527.425 70.3413 527.425 72.3733C527.425 74.404 525.78 76.0506 523.748 76.0506Z" fill="white"/>
<path d="M434.859 238.672H394.813C393.34 238.672 392.147 237.477 392.147 236.005V208.648C392.147 207.176 393.34 205.981 394.813 205.981H434.859C436.332 205.981 437.525 207.176 437.525 208.648V236.005C437.525 237.477 436.332 238.672 434.859 238.672Z" fill="white"/>
<path d="M415.113 227.212C414.888 227.212 414.661 227.135 414.476 226.983L392.681 208.981C392.256 208.629 392.196 208 392.548 207.573C392.901 207.148 393.532 207.089 393.955 207.44L415.096 224.9L435.697 206.973C436.113 206.612 436.745 206.656 437.108 207.072C437.471 207.489 437.427 208.12 437.009 208.483L415.769 226.965C415.581 227.129 415.347 227.212 415.113 227.212Z" fill="#647AB4"/>
<path d="M393.319 237.925C393.071 237.925 392.823 237.833 392.629 237.649C392.229 237.268 392.213 236.636 392.595 236.236L407.837 220.212C408.215 219.811 408.851 219.795 409.249 220.176C409.651 220.557 409.667 221.189 409.285 221.591L394.043 237.615C393.847 237.821 393.583 237.925 393.319 237.925Z" fill="#647AB4"/>
<path d="M436.353 237.339C436.097 237.339 435.841 237.241 435.645 237.045L420.464 221.823C420.075 221.432 420.075 220.797 420.467 220.408C420.859 220.017 421.492 220.019 421.881 220.409L437.063 235.632C437.452 236.024 437.452 236.657 437.06 237.047C436.864 237.241 436.609 237.339 436.353 237.339Z" fill="#647AB4"/>
<path d="M452.985 204.969C452.985 212.359 446.996 218.349 439.607 218.349C432.217 218.349 426.228 212.359 426.228 204.969C426.228 197.581 432.217 191.591 439.607 191.591C446.996 191.591 452.985 197.581 452.985 204.969Z" fill="#F1494A"/>
<path d="M436.379 204.936L436.347 204.568C436.752 204.749 437.104 204.984 437.403 205.272C437.701 205.56 437.931 205.875 438.091 206.216C438.251 206.557 438.331 206.909 438.331 207.272C438.331 207.88 438.16 208.44 437.819 208.952C437.488 209.453 437.04 209.859 436.475 210.168C435.909 210.467 435.28 210.616 434.587 210.616C433.893 210.616 433.264 210.467 432.699 210.168C432.133 209.859 431.68 209.453 431.339 208.952C431.008 208.44 430.843 207.88 430.843 207.272C430.843 206.781 430.944 206.36 431.147 206.008C431.36 205.645 431.621 205.341 431.931 205.096C432.251 204.851 432.565 204.648 432.875 204.488L432.747 204.936C432.48 204.829 432.219 204.68 431.963 204.488C431.717 204.285 431.515 204.029 431.355 203.72C431.195 203.411 431.115 203.048 431.115 202.632C431.115 202.035 431.269 201.496 431.579 201.016C431.888 200.525 432.304 200.136 432.827 199.848C433.36 199.56 433.947 199.416 434.587 199.416C435.237 199.416 435.819 199.56 436.331 199.848C436.853 200.136 437.269 200.525 437.579 201.016C437.888 201.496 438.043 202.035 438.043 202.632C438.043 203.091 437.952 203.475 437.771 203.784C437.589 204.093 437.371 204.339 437.115 204.52C436.859 204.701 436.613 204.84 436.379 204.936ZM433.035 202.664C433.035 202.952 433.099 203.208 433.227 203.432C433.365 203.656 433.552 203.837 433.787 203.976C434.021 204.104 434.288 204.168 434.587 204.168C434.885 204.168 435.147 204.104 435.371 203.976C435.605 203.837 435.787 203.656 435.915 203.432C436.053 203.208 436.123 202.952 436.123 202.664C436.123 202.237 435.973 201.885 435.675 201.608C435.387 201.32 435.024 201.176 434.587 201.176C434.139 201.176 433.765 201.32 433.467 201.608C433.179 201.885 433.035 202.237 433.035 202.664ZM434.587 208.856C435.099 208.856 435.531 208.701 435.883 208.392C436.235 208.072 436.411 207.688 436.411 207.24C436.411 206.931 436.331 206.653 436.171 206.408C436.011 206.163 435.792 205.971 435.515 205.832C435.237 205.683 434.928 205.608 434.587 205.608C434.245 205.608 433.936 205.683 433.659 205.832C433.381 205.971 433.163 206.163 433.003 206.408C432.843 206.653 432.763 206.931 432.763 207.24C432.763 207.688 432.939 208.072 433.291 208.392C433.643 208.701 434.075 208.856 434.587 208.856ZM442.824 210.776C442.43 210.776 442.008 210.717 441.56 210.6C441.112 210.472 440.744 210.291 440.456 210.056C440.318 209.939 440.206 209.789 440.12 209.608C440.046 209.416 440.008 209.235 440.008 209.064C440.008 208.883 440.083 208.712 440.232 208.552C440.392 208.392 440.616 208.312 440.904 208.312C441.096 208.312 441.336 208.413 441.624 208.616C441.795 208.723 441.982 208.819 442.184 208.904C442.387 208.989 442.595 209.032 442.808 209.032C443.32 209.032 443.763 208.941 444.136 208.76C444.51 208.568 444.798 208.307 445 207.976C445.203 207.645 445.304 207.256 445.304 206.808C445.304 206.403 445.208 206.056 445.016 205.768C444.835 205.48 444.59 205.256 444.28 205.096C443.982 204.936 443.656 204.856 443.304 204.856C442.974 204.856 442.686 204.909 442.44 205.016C442.195 205.123 441.971 205.235 441.768 205.352C441.566 205.459 441.363 205.512 441.16 205.512C440.808 205.512 440.547 205.437 440.376 205.288C440.206 205.128 440.099 204.941 440.056 204.728C440.014 204.515 440.003 204.323 440.024 204.152L440.52 200.264C440.563 200.04 440.67 199.859 440.84 199.72C441.022 199.571 441.235 199.496 441.48 199.496H446.104C446.36 199.496 446.574 199.581 446.744 199.752C446.915 199.923 447 200.136 447 200.392C447 200.637 446.915 200.845 446.744 201.016C446.574 201.176 446.36 201.256 446.104 201.256H441.976L442.152 201.112L441.72 204.36L441.512 203.752C441.576 203.645 441.715 203.544 441.928 203.448C442.142 203.352 442.387 203.272 442.664 203.208C442.942 203.133 443.214 203.096 443.48 203.096C444.195 203.096 444.835 203.261 445.4 203.592C445.966 203.912 446.408 204.355 446.728 204.92C447.059 205.475 447.224 206.104 447.224 206.808C447.224 207.608 447.043 208.307 446.68 208.904C446.318 209.501 445.806 209.965 445.144 210.296C444.494 210.616 443.72 210.776 442.824 210.776Z" fill="white"/>
<path d="M573.984 200.045H495.823C492.877 200.045 490.489 197.657 490.489 194.712V182.483C490.489 179.537 492.877 177.149 495.823 177.149H573.984C576.929 177.149 579.317 179.537 579.317 182.483V194.712C579.317 197.657 576.929 200.045 573.984 200.045Z" fill="#293D8A"/>
<path d="M501.465 194.601C501.115 194.601 500.833 194.477 500.62 194.227C500.407 193.977 500.313 193.664 500.34 193.289L500.676 190.324L500.64 190.175L500.452 190.212L498.012 191.975C497.712 192.2 497.399 192.283 497.073 192.219C496.749 192.157 496.487 191.963 496.287 191.637C496.061 191.237 496.017 190.887 496.155 190.587C496.291 190.287 496.524 190.075 496.848 189.949L499.588 188.711L499.701 188.599L499.588 188.485L496.848 187.247C496.499 187.097 496.273 186.86 496.175 186.535C496.073 186.209 496.112 185.884 496.287 185.559C496.487 185.233 496.749 185.04 497.073 184.976C497.399 184.915 497.712 184.984 498.012 185.184L500.452 186.985L500.64 187.021L500.676 186.872L500.34 183.907C500.313 183.532 500.413 183.219 500.64 182.969C500.865 182.719 501.165 182.595 501.54 182.595C501.891 182.595 502.177 182.719 502.403 182.969C502.628 183.219 502.716 183.532 502.665 183.907L502.328 186.872L502.365 187.021L502.555 186.985L504.993 185.221C505.292 184.995 505.612 184.915 505.951 184.976C506.287 185.04 506.543 185.233 506.719 185.559C506.944 185.959 506.988 186.309 506.848 186.609C506.712 186.909 506.48 187.123 506.155 187.247L503.416 188.485L503.304 188.599L503.416 188.711L506.155 189.949C506.507 190.099 506.737 190.337 506.848 190.661C506.961 190.988 506.919 191.313 506.719 191.637C506.543 191.963 506.287 192.157 505.951 192.219C505.612 192.283 505.292 192.212 504.993 192.013L502.555 190.212L502.365 190.175L502.328 190.324L502.665 193.289C502.716 193.664 502.621 193.977 502.385 194.227C502.145 194.477 501.84 194.601 501.465 194.601Z" fill="white"/>
<path d="M517.631 194.601C517.281 194.601 517 194.477 516.787 194.227C516.573 193.977 516.48 193.664 516.505 193.289L516.843 190.324L516.805 190.175L516.619 190.212L514.179 191.975C513.879 192.2 513.565 192.283 513.24 192.219C512.916 192.157 512.653 191.963 512.453 191.637C512.228 191.237 512.184 190.887 512.321 190.587C512.457 190.287 512.689 190.075 513.015 189.949L515.755 188.711L515.868 188.599L515.755 188.485L513.015 187.247C512.665 187.097 512.44 186.86 512.34 186.535C512.24 186.209 512.279 185.884 512.453 185.559C512.653 185.233 512.916 185.04 513.24 184.976C513.565 184.915 513.879 184.984 514.179 185.184L516.619 186.985L516.805 187.021L516.843 186.872L516.505 183.907C516.48 183.532 516.58 183.219 516.805 182.969C517.031 182.719 517.331 182.595 517.707 182.595C518.057 182.595 518.344 182.719 518.569 182.969C518.795 183.219 518.883 183.532 518.832 183.907L518.495 186.872L518.532 187.021L518.72 186.985L521.159 185.221C521.457 184.995 521.779 184.915 522.116 184.976C522.453 185.04 522.709 185.233 522.885 185.559C523.109 185.959 523.153 186.309 523.015 186.609C522.879 186.909 522.647 187.123 522.321 187.247L519.583 188.485L519.471 188.599L519.583 188.711L522.321 189.949C522.672 190.099 522.904 190.337 523.015 190.661C523.128 190.988 523.085 191.313 522.885 191.637C522.709 191.963 522.453 192.157 522.116 192.219C521.779 192.283 521.457 192.212 521.159 192.013L518.72 190.212L518.532 190.175L518.495 190.324L518.832 193.289C518.883 193.664 518.788 193.977 518.551 194.227C518.312 194.477 518.007 194.601 517.631 194.601Z" fill="white"/>
<path d="M533.797 194.601C533.448 194.601 533.165 194.477 532.953 194.227C532.739 193.977 532.645 193.664 532.672 193.289L533.009 190.324L532.972 190.175L532.785 190.212L530.344 191.975C530.044 192.2 529.731 192.283 529.407 192.219C529.081 192.157 528.819 191.963 528.62 191.637C528.393 191.237 528.349 190.887 528.488 190.587C528.624 190.287 528.856 190.075 529.181 189.949L531.921 188.711L532.033 188.599L531.921 188.485L529.181 187.247C528.832 187.097 528.605 186.86 528.507 186.535C528.407 186.209 528.445 185.884 528.62 185.559C528.819 185.233 529.081 185.04 529.407 184.976C529.731 184.915 530.044 184.984 530.344 185.184L532.785 186.985L532.972 187.021L533.009 186.872L532.672 183.907C532.645 183.532 532.747 183.219 532.972 182.969C533.197 182.719 533.497 182.595 533.873 182.595C534.224 182.595 534.509 182.719 534.735 182.969C534.961 183.219 535.049 183.532 534.997 183.907L534.661 186.872L534.699 187.021L534.887 186.985L537.325 185.221C537.624 184.995 537.944 184.915 538.283 184.976C538.62 185.04 538.876 185.233 539.052 185.559C539.276 185.959 539.32 186.309 539.181 186.609C539.045 186.909 538.812 187.123 538.488 187.247L535.749 188.485L535.636 188.599L535.749 188.711L538.488 189.949C538.839 190.099 539.069 190.337 539.181 190.661C539.293 190.988 539.251 191.313 539.052 191.637C538.876 191.963 538.62 192.157 538.283 192.219C537.944 192.283 537.624 192.212 537.325 192.013L534.887 190.212L534.699 190.175L534.661 190.324L534.997 193.289C535.049 193.664 534.953 193.977 534.717 194.227C534.479 194.477 534.172 194.601 533.797 194.601Z" fill="white"/>
<path d="M549.963 194.601C549.613 194.601 549.332 194.477 549.12 194.227C548.905 193.977 548.812 193.664 548.839 193.289L549.176 190.324L549.137 190.175L548.951 190.212L546.511 191.975C546.211 192.2 545.897 192.283 545.572 192.219C545.248 192.157 544.985 191.963 544.785 191.637C544.56 191.237 544.516 190.887 544.653 190.587C544.789 190.287 545.023 190.075 545.347 189.949L548.087 188.711L548.2 188.599L548.087 188.485L545.347 187.247C544.997 187.097 544.772 186.86 544.673 186.535C544.572 186.209 544.611 185.884 544.785 185.559C544.985 185.233 545.248 185.04 545.572 184.976C545.897 184.915 546.211 184.984 546.511 185.184L548.951 186.985L549.137 187.021L549.176 186.872L548.839 183.907C548.812 183.532 548.912 183.219 549.137 182.969C549.364 182.719 549.664 182.595 550.039 182.595C550.389 182.595 550.676 182.719 550.901 182.969C551.127 183.219 551.215 183.532 551.164 183.907L550.827 186.872L550.864 187.021L551.053 186.985L553.492 185.221C553.791 184.995 554.111 184.915 554.449 184.976C554.785 185.04 555.041 185.233 555.217 185.559C555.443 185.959 555.487 186.309 555.347 186.609C555.211 186.909 554.979 187.123 554.653 187.247L551.915 188.485L551.803 188.599L551.915 188.711L554.653 189.949C555.005 190.099 555.236 190.337 555.347 190.661C555.46 190.988 555.417 191.313 555.217 191.637C555.041 191.963 554.785 192.157 554.449 192.219C554.111 192.283 553.791 192.212 553.492 192.013L551.053 190.212L550.864 190.175L550.827 190.324L551.164 193.289C551.215 193.664 551.12 193.977 550.884 194.227C550.644 194.477 550.339 194.601 549.963 194.601Z" fill="white"/>
<path d="M566.129 194.601C565.78 194.601 565.499 194.477 565.287 194.227C565.072 193.977 564.979 193.664 565.004 193.289L565.343 190.324L565.304 190.175L565.117 190.212L562.677 191.975C562.377 192.2 562.064 192.283 561.739 192.219C561.415 192.157 561.152 191.963 560.952 191.637C560.727 191.237 560.683 190.887 560.82 190.587C560.956 190.287 561.188 190.075 561.513 189.949L564.253 188.711L564.367 188.599L564.253 188.485L561.513 187.247C561.164 187.097 560.939 186.86 560.839 186.535C560.739 186.209 560.777 185.884 560.952 185.559C561.152 185.233 561.415 185.04 561.739 184.976C562.064 184.915 562.377 184.984 562.677 185.184L565.117 186.985L565.304 187.021L565.343 186.872L565.004 183.907C564.979 183.532 565.079 183.219 565.304 182.969C565.529 182.719 565.829 182.595 566.205 182.595C566.556 182.595 566.843 182.719 567.068 182.969C567.293 183.219 567.381 183.532 567.331 183.907L566.993 186.872L567.031 187.021L567.219 186.985L569.657 185.221C569.956 184.995 570.277 184.915 570.615 184.976C570.952 185.04 571.208 185.233 571.384 185.559C571.608 185.959 571.652 186.309 571.513 186.609C571.377 186.909 571.145 187.123 570.82 187.247L568.081 188.485L567.968 188.599L568.081 188.711L570.82 189.949C571.171 190.099 571.403 190.337 571.513 190.661C571.627 190.988 571.584 191.313 571.384 191.637C571.208 191.963 570.952 192.157 570.615 192.219C570.277 192.283 569.956 192.212 569.657 192.013L567.219 190.212L567.031 190.175L566.993 190.324L567.331 193.289C567.381 193.664 567.287 193.977 567.049 194.227C566.811 194.477 566.505 194.601 566.129 194.601Z" fill="#5DA4DE"/>
</g>
<defs>
<clipPath id="clip0_2_2">
<rect width="605" height="450" fill="white"/>
</clipPath>
</defs>
</svg>
