<svg width="24" height="24" viewBox="0 0 24 24" fill="none" xmlns="http://www.w3.org/2000/svg">
<g clip-path="url(#clip0_254_1237)">
<path d="M16.1779 8.29145L11.9091 10.4925L7.64026 8.29145L11.9091 5.78894L16.1779 8.29145Z" fill="#3F53FE"/>
<path d="M11.3756 11.4572V16.9145L7.04749 14.3819V9.22607L11.3756 11.4572Z" fill="#3F53FE"/>
<path d="M16.7709 9.22607V14.3819L12.4427 16.9145V11.4572L16.7709 9.22607Z" fill="#3F53FE"/>
<path d="M4.40914 15.8593V9.67836C5.77279 9.43716 6.81036 8.23113 6.81036 6.78389C6.81036 6.51253 6.78071 6.24118 6.69178 5.99997C6.63249 5.78892 6.54355 5.57786 6.45462 5.39696C6.18782 4.91454 5.80244 4.49243 5.32812 4.22108C5.12061 4.10047 4.85381 3.97987 4.61665 3.91957C4.37949 3.85927 4.14234 3.82912 3.87553 3.82912C2.30437 3.79897 1 5.1256 1 6.75374C1 7.98992 1.77076 9.07535 2.83797 9.49746V16.7336L8.73726 20.3216C8.85584 19.7789 9.12264 19.2965 9.44873 18.9045L4.40914 15.8593ZM2.57117 6.75374C2.57117 5.99997 3.16406 5.39696 3.90518 5.39696C3.99411 5.39696 4.08305 5.39696 4.20162 5.42711C4.79452 5.54771 5.26883 6.12057 5.26883 6.75374C5.26883 6.81404 5.26883 6.84419 5.26883 6.90449C5.20954 7.59796 4.61665 8.11052 3.93482 8.11052C3.16406 8.14068 2.57117 7.50751 2.57117 6.75374Z" fill="#3F53FE"/>
<path d="M19.9132 3.799C19.3796 3.799 18.9053 3.94975 18.4902 4.19095L11.9091 0L5.9209 3.82915C6.36557 4.13065 6.7213 4.55276 6.98811 5.03518L11.9091 1.86935L17.3341 5.33668C17.0969 5.75879 16.9784 6.24121 16.9784 6.75377C16.9784 7.98995 17.7195 9.04523 18.7867 9.49749C18.9942 9.58794 19.2017 9.64824 19.4092 9.67839C19.5574 9.70854 19.7057 9.70854 19.8835 9.70854C20.2689 9.70854 20.6543 9.61809 20.9804 9.49749C21.2175 9.40704 21.4251 9.28643 21.6029 9.13568C22.3144 8.59296 22.7887 7.71859 22.7887 6.75377C22.8184 5.12563 21.514 3.799 19.9132 3.799ZM19.9132 8.1407C19.4685 8.1407 19.0535 7.8995 18.8163 7.56784C18.6681 7.35678 18.5792 7.08543 18.5792 6.78392C18.5792 6.03015 19.1721 5.42714 19.9132 5.42714C20.6543 5.42714 21.2472 6.03015 21.2472 6.78392C21.2472 7.05528 21.1583 7.32663 21.01 7.53769C20.7729 7.8995 20.3579 8.1407 19.9132 8.1407Z" fill="#3F53FE"/>
<path d="M21.01 10.1909C20.6543 10.3115 20.2986 10.3718 19.9132 10.3718C19.765 10.3718 19.5871 10.3718 19.4389 10.3417V15.8894L14.0139 19.1457C13.5099 18.6633 12.8281 18.3316 12.0574 18.3316C11.4941 18.3316 10.9309 18.5125 10.4862 18.814C10.3083 18.9346 10.1304 19.0854 9.98222 19.2361C9.62649 19.6281 9.38933 20.1105 9.3004 20.6834C9.27075 20.8341 9.27075 21.015 9.27075 21.1658C9.27075 21.2562 9.27075 21.3165 9.27075 21.407C9.38933 22.8542 10.5751 24 12.0574 24C13.5989 24 14.844 22.7336 14.844 21.1658C14.844 20.9246 14.8143 20.7135 14.755 20.5025L20.9804 16.7638V10.1909H21.01ZM12.0574 22.4321C11.4645 22.4321 10.9605 21.9799 10.8419 21.407C10.8123 21.3467 10.8123 21.2562 10.8123 21.1959C10.8123 20.6532 11.168 20.1708 11.672 20.0201C11.7905 19.9899 11.9091 19.9598 12.0574 19.9598C12.7392 19.9598 13.2728 20.5326 13.2728 21.1959C13.3024 21.8593 12.7392 22.4321 12.0574 22.4321Z" fill="#3F53FE"/>
</g>
<defs>
<clipPath id="clip0_254_1237">
<rect width="24" height="24" fill="white"/>
</clipPath>
</defs>
</svg>
