<svg width="32" height="32" viewBox="0 0 32 32" fill="none" xmlns="http://www.w3.org/2000/svg">
<path d="M13.8667 1.23168C15.1868 0.469514 16.8132 0.469514 18.1333 1.23168L27.7231 6.76832C29.0432 7.53049 29.8564 8.93903 29.8564 10.4634V21.5366C29.8564 23.061 29.0432 24.4695 27.7231 25.2317L18.1333 30.7683C16.8132 31.5305 15.1868 31.5305 13.8667 30.7683L4.27693 25.2317C2.95682 24.4695 2.14359 23.061 2.14359 21.5366V10.4634C2.14359 8.93903 2.95682 7.53049 4.27693 6.76832L13.8667 1.23168Z" fill="#BF57FF" fill-opacity="0.14"/>
<g filter="url(#filter0_d_2751_12202)">
<path opacity="0.4" d="M9.8833 17.1063V13.3687C9.8833 11.6437 11.2833 10.25 13.0083 10.25H19.2583C20.9833 10.25 22.3833 11.6437 22.3833 13.3687V17.7313C22.3833 19.45 20.9833 20.8438 19.2583 20.8438H18.3208C18.1271 20.8438 17.9396 20.9375 17.8208 21.0938L16.8833 22.3375C16.4708 22.8875 15.7958 22.8875 15.3833 22.3375L14.4458 21.0938C14.3458 20.9563 14.1208 20.8438 13.9458 20.8438H13.0083C11.2833 20.8438 9.8833 19.45 9.8833 17.7313V17.1063Z" fill="#7400E8"/>
<path d="M16.1333 16.5C15.7833 16.5 15.5083 16.2188 15.5083 15.875C15.5083 15.5312 15.7896 15.25 16.1333 15.25C16.4771 15.25 16.7583 15.5312 16.7583 15.875C16.7583 16.2188 16.4833 16.5 16.1333 16.5Z" fill="#7400E8"/>
<path d="M18.6334 16.5C18.2834 16.5 18.0084 16.2188 18.0084 15.875C18.0084 15.5312 18.2896 15.25 18.6334 15.25C18.9771 15.25 19.2584 15.5312 19.2584 15.875C19.2584 16.2188 18.9834 16.5 18.6334 16.5Z" fill="#7400E8"/>
<path d="M13.6334 16.5C13.2834 16.5 13.0084 16.2188 13.0084 15.875C13.0084 15.5312 13.2897 15.25 13.6334 15.25C13.9772 15.25 14.2584 15.5312 14.2584 15.875C14.2584 16.2188 13.9834 16.5 13.6334 16.5Z" fill="#7400E8"/>
</g>
<defs>
<filter id="filter0_d_2751_12202" x="5.8833" y="10.25" width="20.5" height="20.5" filterUnits="userSpaceOnUse" color-interpolation-filters="sRGB">
<feFlood flood-opacity="0" result="BackgroundImageFix"/>
<feColorMatrix in="SourceAlpha" type="matrix" values="0 0 0 0 0 0 0 0 0 0 0 0 0 0 0 0 0 0 127 0" result="hardAlpha"/>
<feOffset dy="4"/>
<feGaussianBlur stdDeviation="2"/>
<feComposite in2="hardAlpha" operator="out"/>
<feColorMatrix type="matrix" values="0 0 0 0 0.588235 0 0 0 0 0.235294 0 0 0 0 0.933333 0 0 0 0.22 0"/>
<feBlend mode="normal" in2="BackgroundImageFix" result="effect1_dropShadow_2751_12202"/>
<feBlend mode="normal" in="SourceGraphic" in2="effect1_dropShadow_2751_12202" result="shape"/>
</filter>
</defs>
</svg>
