<svg width="24" height="22" viewBox="0 0 24 22" fill="none" xmlns="http://www.w3.org/2000/svg">
<path d="M5.5 22C5.3845 22 5.26821 21.9741 5.159 21.9222C4.88793 21.791 4.71429 21.5168 4.71429 21.2143V17.2857H2.35714C1.05757 17.2857 0 16.2281 0 14.9286V2.35714C0 1.05757 1.05757 0 2.35714 0H21.2143C22.5139 0 23.5714 1.05757 23.5714 2.35714V14.9286C23.5714 16.2281 22.5139 17.2857 21.2143 17.2857H11.6686L5.99107 21.8279C5.84886 21.9419 5.67521 22 5.5 22ZM2.35714 1.57143C1.92343 1.57143 1.57143 1.92421 1.57143 2.35714V14.9286C1.57143 15.3615 1.92343 15.7143 2.35714 15.7143H5.5C5.9345 15.7143 6.28571 16.0655 6.28571 16.5V19.58L10.9018 15.8864C11.0416 15.7748 11.2137 15.7143 11.3929 15.7143H21.2143C21.648 15.7143 22 15.3615 22 14.9286V2.35714C22 1.92421 21.648 1.57143 21.2143 1.57143H2.35714Z" fill="#028001"/>
<path d="M18.0715 7.85707H5.50007C5.06557 7.85707 4.71436 7.50507 4.71436 7.07136C4.71436 6.63764 5.06557 6.28564 5.50007 6.28564H18.0715C18.506 6.28564 18.8572 6.63764 18.8572 7.07136C18.8572 7.50507 18.506 7.85707 18.0715 7.85707Z" fill="#028001"/>
<path d="M11.7858 11.0001H5.50007C5.06557 11.0001 4.71436 10.6481 4.71436 10.2144C4.71436 9.78071 5.06557 9.42871 5.50007 9.42871H11.7858C12.2203 9.42871 12.5715 9.78071 12.5715 10.2144C12.5715 10.6481 12.2203 11.0001 11.7858 11.0001Z" fill="#028001"/>
</svg>
