<svg width="38" height="38" viewBox="0 0 38 38" fill="none" xmlns="http://www.w3.org/2000/svg">
<circle cx="19" cy="19" r="19" fill="#F5F7F9"/>
<g clip-path="url(#clip0_2785_12342)">
<path d="M13.5833 28.3333C13.4871 28.3333 13.3902 28.3118 13.2992 28.2685C13.0733 28.1592 12.9286 27.9307 12.9286 27.6786V24.4048H10.9643C9.88131 24.4048 9 23.5234 9 22.4405V11.9643C9 10.8813 9.88131 10 10.9643 10H26.6786C27.7616 10 28.6428 10.8813 28.6428 11.9643V22.4405C28.6428 23.5234 27.7616 24.4048 26.6786 24.4048H18.7238L13.9926 28.1899C13.8741 28.2849 13.7293 28.3333 13.5833 28.3333ZM10.9643 11.3095C10.6029 11.3095 10.3095 11.6035 10.3095 11.9643V22.4405C10.3095 22.8013 10.6029 23.0953 10.9643 23.0953H13.5833C13.9454 23.0953 14.2381 23.3879 14.2381 23.75V26.3167L18.0848 23.2387C18.2013 23.1457 18.3448 23.0953 18.4941 23.0953H26.6786C27.04 23.0953 27.3333 22.8013 27.3333 22.4405V11.9643C27.3333 11.6035 27.04 11.3095 26.6786 11.3095H10.9643Z" fill="#028001"/>
<path d="M24.0595 16.5476H13.5833C13.2213 16.5476 12.9286 16.2542 12.9286 15.8928C12.9286 15.5314 13.2213 15.238 13.5833 15.238H24.0595C24.4216 15.238 24.7143 15.5314 24.7143 15.8928C24.7143 16.2542 24.4216 16.5476 24.0595 16.5476Z" fill="#028001"/>
<path d="M18.8215 19.1667H13.5833C13.2213 19.1667 12.9286 18.8733 12.9286 18.5119C12.9286 18.1505 13.2213 17.8572 13.5833 17.8572H18.8215C19.1835 17.8572 19.4762 18.1505 19.4762 18.5119C19.4762 18.8733 19.1835 19.1667 18.8215 19.1667Z" fill="#028001"/>
</g>
<defs>
<clipPath id="clip0_2785_12342">
<rect width="20" height="18.3333" fill="white" transform="translate(9 10)"/>
</clipPath>
</defs>
</svg>
