<svg width="44" height="44" viewBox="0 0 44 44" fill="none" xmlns="http://www.w3.org/2000/svg">
<path d="M19.5001 1.44337C21.0471 0.550208 22.9531 0.550209 24.5001 1.44337L38.5527 9.55663C40.0997 10.4498 41.0527 12.1004 41.0527 13.8868V30.1132C41.0527 31.8996 40.0997 33.5502 38.5527 34.4434L24.5001 42.5566C22.9531 43.4498 21.0471 43.4498 19.5001 42.5566L5.44745 34.4434C3.90045 33.5502 2.94745 31.8996 2.94745 30.1132V13.8868C2.94745 12.1004 3.90045 10.4498 5.44746 9.55663L19.5001 1.44337Z" fill="#F5F7F9"/>
<g filter="url(#filter0_d_34_16162)">
<path d="M29.7285 26.8607C29.7285 29.4223 26.2687 31.5 22 31.5C17.7313 31.5 14.2715 29.4223 14.2715 26.8607C14.2715 24.2973 17.7313 22.2196 22 22.2196C26.2687 22.2196 29.7285 24.2973 29.7285 26.8607Z" fill="url(#paint0_linear_34_16162)"/>
<path d="M17.6361 16.8639C17.6361 14.4532 19.5894 12.5 22 12.5C24.4106 12.5 26.3639 14.4532 26.3639 16.8639C26.3639 19.2745 24.4106 21.23 22 21.23C19.5894 21.23 17.6361 19.2745 17.6361 16.8639Z" fill="url(#paint1_linear_34_16162)"/>
</g>
<defs>
<filter id="filter0_d_34_16162" x="10.2715" y="12.5" width="23.457" height="27" filterUnits="userSpaceOnUse" color-interpolation-filters="sRGB">
<feFlood flood-opacity="0" result="BackgroundImageFix"/>
<feColorMatrix in="SourceAlpha" type="matrix" values="0 0 0 0 0 0 0 0 0 0 0 0 0 0 0 0 0 0 127 0" result="hardAlpha"/>
<feOffset dy="4"/>
<feGaussianBlur stdDeviation="2"/>
<feComposite in2="hardAlpha" operator="out"/>
<feColorMatrix type="matrix" values="0 0 0 0 0.00756944 0 0 0 0 0.404724 0 0 0 0 0.908333 0 0 0 0.31 0"/>
<feBlend mode="normal" in2="BackgroundImageFix" result="effect1_dropShadow_34_16162"/>
<feBlend mode="normal" in="SourceGraphic" in2="effect1_dropShadow_34_16162" result="shape"/>
</filter>
<linearGradient id="paint0_linear_34_16162" x1="9.56981" y1="-5.88808" x2="41.054" y2="10.9648" gradientUnits="userSpaceOnUse">
<stop stop-color="#97E0FF"/>
<stop offset="1" stop-color="#1075FF"/>
</linearGradient>
<linearGradient id="paint1_linear_34_16162" x1="14.5474" y1="8.6966" x2="32.9508" y2="28.8646" gradientUnits="userSpaceOnUse">
<stop stop-color="#97E0FF"/>
<stop offset="1" stop-color="#1075FF"/>
</linearGradient>
</defs>
</svg>
