<svg width="1200" height="675" viewBox="0 0 1200 675" fill="none" xmlns="http://www.w3.org/2000/svg">
<g clip-path="url(#clip0_574_74)">
<mask id="mask0_574_74" style="mask-type:luminance" maskUnits="userSpaceOnUse" x="100" y="235" width="1000" height="205">
<path d="M1100 235H100V439.545H1100V235Z" fill="white"/>
</mask>
<g mask="url(#mask0_574_74)">
<path d="M372.081 319.027C378.68 314.402 382.487 306.95 382.487 297.956C382.487 281.767 370.558 270.975 353.046 270.975H320.812L303.3 371.962H349.492C370.558 371.962 385.279 359.114 385.279 341.64C385.025 331.876 380.457 323.91 372.081 319.027ZM337.309 288.705H350C357.615 288.705 362.183 292.817 362.183 299.498C362.183 307.207 356.853 312.089 348.224 312.089H333.503L337.309 288.705ZM349.238 354.232H325.888L330.203 329.049H351.776C360.153 329.049 364.975 333.674 364.975 341.127C364.975 349.606 358.883 354.232 349.238 354.232Z" fill="#121639"/>
<path d="M456.599 296.414L448.731 342.411C447.462 350.12 441.625 355.26 434.011 355.26C426.396 355.26 420.812 350.12 420.812 342.925C420.812 341.126 421.066 340.098 421.066 339.328L428.427 296.157H408.122L401.269 336.501C400.762 339.328 400.508 341.897 400.508 343.953C400.508 361.683 413.706 373.761 432.741 373.761C452.031 373.761 465.482 361.941 468.782 342.668L476.904 296.414H456.599Z" fill="#121639"/>
<path d="M544.162 296.415L536.548 338.814C535.279 347.037 528.426 351.919 521.066 351.919C513.451 351.919 508.375 347.294 508.375 340.099C508.375 338.3 508.629 337.015 508.883 335.73L515.736 296.157H495.431L488.578 335.987C488.071 339.584 487.563 342.154 487.563 344.21C487.563 351.662 490.101 357.573 494.67 362.455C499.492 367.337 505.837 369.393 513.197 369.393C520.05 369.393 526.396 367.337 531.979 363.226L531.218 367.594C529.441 377.616 523.35 382.498 513.705 382.498C505.329 382.498 498.73 378.9 490.355 370.421L478.172 384.04C486.548 394.833 499.746 401.257 513.705 401.257C533.502 401.257 547.969 388.665 551.268 368.108L563.959 295.9H544.162V296.415Z" fill="#121639"/>
<path d="M624.874 294.616C616.499 294.616 609.392 297.186 603.808 302.325L611.93 257.099H591.625L571.828 371.963H592.133L593.909 362.712C598.732 369.907 607.108 373.762 617.767 373.762C639.595 374.275 658.376 354.746 657.869 330.848C657.615 310.034 643.656 294.616 624.874 294.616ZM615.991 355.517C605.585 355.517 597.971 347.808 597.971 336.758C597.971 323.396 607.108 313.117 618.783 313.117C629.442 313.117 636.549 320.826 636.549 332.904C636.549 345.495 627.412 355.517 615.991 355.517Z" fill="#121639"/>
<path d="M710.659 294.617C687.818 294.102 667.767 313.375 668.273 335.988C668.273 357.573 684.517 374.019 706.347 374.019C729.444 374.533 749.495 355.261 748.983 332.648C749.239 311.063 732.489 294.617 710.659 294.617ZM707.364 355.261C696.699 355.261 689.341 347.552 689.341 335.731C689.341 323.14 698.478 313.118 709.898 313.118C720.813 313.118 728.426 321.341 728.426 332.905C728.426 345.496 719.29 355.261 707.364 355.261Z" fill="#121639"/>
<path d="M770.051 272.002H750.762L803.046 371.962H823.352L770.051 272.002ZM746.193 371.962H770.307L783.25 355.774L774.364 339.071L746.193 371.962ZM811.421 296.414L801.523 309.006L810.404 325.965L835.534 296.414H811.421Z" fill="#121639"/>
<path d="M925.887 319.027C932.489 314.402 936.296 306.95 936.296 297.956C936.296 281.767 924.62 270.975 906.853 270.975H874.62L857.108 371.962H903.302C924.364 371.962 939.086 359.114 939.086 341.64C938.83 331.876 934.262 323.91 925.887 319.027ZM891.12 288.705H903.807C911.421 288.705 915.989 292.817 915.989 299.498C915.989 307.207 910.659 312.089 902.029 312.089H887.307L891.12 288.705ZM902.79 354.232H879.444L883.756 329.049H905.33C913.705 329.049 918.529 333.674 918.529 341.127C918.529 349.606 912.688 354.232 902.79 354.232Z" fill="#121639"/>
<path d="M993.654 294.617C970.813 294.102 950.761 313.375 951.267 335.988C951.267 357.573 967.512 374.019 989.341 374.019C1012.44 374.533 1032.49 355.261 1031.98 332.648C1031.98 311.063 1015.23 294.617 993.654 294.617ZM990.102 355.261C979.443 355.261 972.08 347.552 972.08 335.731C972.08 323.14 981.222 313.118 992.642 313.118C1003.55 313.118 1011.17 321.341 1011.17 332.905C1011.17 345.496 1002.03 355.261 990.102 355.261Z" fill="#121639"/>
<path d="M1075.38 313.63H1096.95L1099.74 296.414H1078.17L1081.73 277.398H1061.42L1058.12 296.414H1046.45L1043.65 313.63H1055.33L1050.26 342.925C1049.74 346.008 1049.49 348.321 1049.49 350.377C1049.49 365.795 1061.16 374.018 1079.95 374.018C1082.74 374.018 1085.78 373.761 1089.09 373.247L1092.13 356.03C1090.86 356.287 1088.58 356.287 1085.78 356.287C1075.38 356.287 1070.31 353.717 1070.31 346.779C1070.31 345.495 1070.56 344.21 1070.56 343.182L1075.38 313.63Z" fill="#121639"/>
<path d="M229.949 305.666L193.401 324.424L156.853 305.666L193.401 284.337L229.949 305.666Z" fill="#3F53FE"/>
<path d="M188.833 332.647V379.158L151.777 357.573V313.631L188.833 332.647Z" fill="#3F53FE"/>
<path d="M235.025 313.631V357.573L197.97 379.158V332.647L235.025 313.631Z" fill="#3F53FE"/>
<path d="M129.188 370.164V317.486C140.863 315.43 149.746 305.152 149.746 292.817C149.746 290.505 149.492 288.192 148.731 286.136C148.223 284.337 147.462 282.539 146.701 280.997C144.416 276.885 141.117 273.288 137.056 270.975C135.279 269.947 132.995 268.919 130.964 268.406C128.934 267.892 126.904 267.635 124.619 267.635C111.167 267.378 100 278.684 100 292.56C100 303.096 106.599 312.347 115.736 315.944V377.617L166.244 408.196C167.259 403.57 169.543 399.459 172.335 396.118L129.188 370.164ZM113.452 292.56C113.452 286.136 118.528 280.997 124.873 280.997C125.635 280.997 126.396 280.997 127.411 281.254C132.487 282.282 136.548 287.164 136.548 292.56C136.548 293.075 136.548 293.331 136.548 293.845C136.041 299.755 130.964 304.124 125.127 304.124C118.528 304.381 113.452 298.985 113.452 292.56Z" fill="#3F53FE"/>
<path d="M261.929 267.378C257.36 267.378 253.3 268.663 249.746 270.718L193.401 235L142.132 267.635C145.939 270.204 148.985 273.802 151.269 277.913L193.401 250.932L239.848 280.483C237.817 284.081 236.802 288.192 236.802 292.561C236.802 303.096 243.147 312.09 252.284 315.944C254.061 316.715 255.838 317.23 257.614 317.486C258.883 317.743 260.152 317.743 261.675 317.743C264.975 317.743 268.274 316.972 271.066 315.944C273.096 315.174 274.873 314.145 276.396 312.861C282.487 308.235 286.548 300.784 286.548 292.561C286.802 278.684 275.634 267.378 261.929 267.378ZM261.929 304.381C258.122 304.381 254.568 302.325 252.538 299.499C251.269 297.7 250.508 295.387 250.508 292.818C250.508 286.393 255.584 281.254 261.929 281.254C268.274 281.254 273.35 286.393 273.35 292.818C273.35 295.13 272.589 297.443 271.319 299.241C269.289 302.325 265.736 304.381 261.929 304.381Z" fill="#3F53FE"/>
<path d="M271.319 321.854C268.273 322.882 265.227 323.396 261.928 323.396C260.659 323.396 259.137 323.396 257.867 323.139V370.421L211.421 398.173C207.106 394.062 201.268 391.235 194.669 391.235C189.847 391.235 185.025 392.777 181.218 395.347C179.694 396.375 178.172 397.66 176.903 398.944C173.857 402.285 171.827 406.397 171.065 411.279C170.812 412.564 170.812 414.106 170.812 415.39C170.812 416.161 170.812 416.675 170.812 417.446C171.827 429.781 181.979 439.545 194.669 439.545C207.867 439.545 218.527 428.752 218.527 415.39C218.527 413.335 218.273 411.536 217.766 409.737L271.065 377.873V321.854H271.319ZM194.669 426.183C189.593 426.183 185.279 422.328 184.263 417.446C184.009 416.932 184.009 416.161 184.009 415.647C184.009 411.022 187.055 406.91 191.37 405.626C192.385 405.369 193.4 405.111 194.669 405.111C200.507 405.111 205.075 409.994 205.075 415.647C205.329 421.301 200.507 426.183 194.669 426.183Z" fill="#3F53FE"/>
</g>
</g>
<defs>
<clipPath id="clip0_574_74">
<rect width="1000" height="204.545" fill="white" transform="translate(100 235)"/>
</clipPath>
</defs>
</svg>
