<svg width="50" height="50" viewBox="0 0 50 50" fill="none" xmlns="http://www.w3.org/2000/svg">
<g clip-path="url(#clip0_571_47)">
<path d="M46.0526 0H3.94737C1.7673 0 0 1.7673 0 3.94737V46.0526C0 48.2327 1.7673 50 3.94737 50H46.0526C48.2327 50 50 48.2327 50 46.0526V3.94737C50 1.7673 48.2327 0 46.0526 0Z" fill="#03A9F4"/>
<path d="M41.1937 14.9574C39.9756 15.4893 38.6871 15.8428 37.3681 16.0067C38.7586 15.1821 39.798 13.8758 40.2891 12.3356C38.9877 13.1081 37.5636 13.6522 36.0786 13.9442C35.1686 12.971 33.9868 12.2942 32.6869 12.0017C31.3871 11.7093 30.0293 11.8148 28.7902 12.3044C27.5511 12.7941 26.488 13.6453 25.7392 14.7474C24.9904 15.8494 24.5906 17.1513 24.5917 18.4837C24.5871 18.9922 24.6389 19.4997 24.7464 19.9968C22.1048 19.8671 19.5204 19.1815 17.1618 17.985C14.8033 16.7884 12.7237 15.1077 11.0589 13.0528C10.2031 14.5146 9.93801 16.2481 10.3177 17.8989C10.6974 19.5497 11.6932 20.9932 13.1016 21.9343C12.0504 21.906 11.0214 21.6251 10.1016 21.1153V21.1876C10.1046 22.7199 10.635 24.2045 11.6036 25.3919C12.5723 26.5792 13.9202 27.3968 15.4207 27.7074C14.8528 27.8566 14.2677 27.9296 13.6806 27.9245C13.2578 27.9323 12.8355 27.8948 12.4207 27.8126C12.8506 29.1305 13.6782 30.2827 14.7898 31.1109C15.9013 31.9392 17.2422 32.4026 18.6279 32.4376C16.2797 34.2731 13.3848 35.2701 10.4042 35.2699C9.87318 35.2744 9.34241 35.2436 8.81543 35.1778C11.8545 37.1372 15.3969 38.1725 19.0128 38.158C31.2332 38.158 37.9141 28.0363 37.9141 19.2633C37.9141 18.9705 37.9141 18.6876 37.8911 18.4047C39.1922 17.4657 40.3113 16.2975 41.1937 14.9574Z" fill="white"/>
</g>
<defs>
<clipPath id="clip0_571_47">
<rect width="50" height="50" fill="white"/>
</clipPath>
</defs>
</svg>
