<svg width="32" height="32" viewBox="0 0 32 32" fill="none" xmlns="http://www.w3.org/2000/svg">
<path d="M13.8667 1.23168C15.1868 0.469514 16.8132 0.469514 18.1333 1.23168L27.7231 6.76832C29.0432 7.53049 29.8564 8.93903 29.8564 10.4634V21.5366C29.8564 23.061 29.0432 24.4695 27.7231 25.2317L18.1333 30.7683C16.8132 31.5305 15.1868 31.5305 13.8667 30.7683L4.27693 25.2317C2.95682 24.4695 2.14359 23.061 2.14359 21.5366V10.4634C2.14359 8.93903 2.95682 7.53049 4.27693 6.76832L13.8667 1.23168Z" fill="#EAF6FF"/>
<path opacity="0.4" d="M22.5778 13.9733C20.9352 11.392 18.5316 9.90576 16.0001 9.90576C14.7343 9.90576 13.5041 10.2755 12.3805 10.9653C11.2569 11.6622 10.2472 12.6791 9.42228 13.9733C8.71117 15.0898 8.71117 16.9031 9.42228 18.0195C11.0649 20.608 13.4685 22.0871 16.0001 22.0871C17.2658 22.0871 18.4961 21.7173 19.6196 21.0275C20.7432 20.3307 21.7529 19.3138 22.5778 18.0195C23.2889 16.9102 23.2889 15.0898 22.5778 13.9733ZM16.0001 18.8729C14.4072 18.8729 13.1272 17.5858 13.1272 16C13.1272 14.4142 14.4072 13.1271 16.0001 13.1271C17.5929 13.1271 18.8729 14.4142 18.8729 16C18.8729 17.5858 17.5929 18.8729 16.0001 18.8729Z" fill="#063151"/>
<path d="M16 13.9663C14.8835 13.9663 13.9733 14.8765 13.9733 16.0001C13.9733 17.1165 14.8835 18.0268 16 18.0268C17.1164 18.0268 18.0337 17.1165 18.0337 16.0001C18.0337 14.8836 17.1164 13.9663 16 13.9663Z" fill="#063151"/>
</svg>
