<svg width="15" height="14" viewBox="0 0 15 14" fill="none" xmlns="http://www.w3.org/2000/svg">
<path d="M14 1.59773C14 1.2673 13.7373 1.00002 13.4151 1.00002H11.0404C10.7182 1.00002 10.4555 1.2673 10.4555 1.59773V8.0737C10.4555 8.40623 10.7182 8.67352 11.0404 8.67352H13.4151C13.7373 8.67352 14 8.40623 14 8.0737V1.59773Z" fill="#0091E4"/>
<g style="mix-blend-mode:multiply" opacity="0.4">
<path d="M14 4.82861V1.59799C14 1.26757 13.7373 1.00028 13.4151 1.00028H11.0404C10.7182 1.00028 10.4555 1.26757 10.4555 1.59799V4.82861H14Z" fill="#0091E4"/>
</g>
<path d="M1 6.92499V7.09968C1 7.68056 1.45974 8.152 2.02621 8.152H4.41932C4.37212 8.34562 4.2305 8.8339 3.94932 9.16222C3.59015 9.58105 3.15093 10.7491 3.39517 11.7678C3.63941 12.7885 4.25718 13.2052 4.61636 12.9043C4.97553 12.6033 4.95911 11.1006 5.74108 10.3492C6.52305 9.59788 7.38506 8.07623 7.76066 7.85945H9.536V1.8465H8.0521C8.0521 1.8465 7.69498 1.42979 6.45737 1.42979C6.43069 1.42979 6.5251 1.43399 2.68914 1.43399C1.7676 1.43399 1.45564 2.63785 1.97284 2.99774C1.46795 3.30291 1.26066 4.03533 1.75734 4.41416C0.841963 4.99504 1.05952 5.91477 1.49258 6.13786C1.22782 6.26624 1 6.6114 1 6.92499ZM14 1.59816C14 1.26773 13.7373 1.00044 13.4151 1.00044H11.0404C10.7182 1.00044 10.4555 1.26773 10.4555 1.59816V8.07413C10.4555 8.40666 10.7182 8.67395 11.0404 8.67395H13.4151C13.7373 8.67395 14 8.40666 14 8.07413V1.59816Z" stroke="#003D74" strokeWidth="0.614931"/>
<path d="M11.0593 2.59128C11.0593 2.31017 11.2872 2.08443 11.5662 2.08443C11.8473 2.08443 12.0752 2.31017 12.0752 2.59128C12.0752 2.8724 11.8473 3.09814 11.5662 3.09814C11.2872 3.09814 11.0593 2.8724 11.0593 2.59128Z" fill="#ECEFF0"/>
</svg>
