<svg width="15" height="14" viewBox="0 0 15 14" fill="none" xmlns="http://www.w3.org/2000/svg">
<g clip-path="url(#clip0_2183_11357)">
<path d="M14 1.59771C14 1.26731 13.7373 1.00001 13.4151 1.00001H11.0404C10.7182 1.00001 10.4555 1.26731 10.4555 1.59771V8.0737C10.4555 8.40623 10.7182 8.67352 11.0404 8.67352H13.4151C13.7373 8.67352 14 8.40623 14 8.0737V1.59771Z" fill="#0091E4"/>
<path d="M1 6.92499V7.09968C1 7.68056 1.4597 8.152 2.0262 8.152H4.4193C4.3721 8.34562 4.2305 8.8339 3.9493 9.16222C3.5901 9.58105 3.1509 10.7491 3.3952 11.7678C3.6394 12.7885 4.2572 13.2052 4.6164 12.9043C4.9755 12.6033 4.9591 11.1006 5.74108 10.3492C6.52305 9.59788 7.38506 8.07623 7.76066 7.85945H9.536V1.8465H8.0521C8.0521 1.8465 7.69498 1.4298 6.45737 1.4298C6.43069 1.4298 6.5251 1.434 2.6891 1.434C1.7676 1.434 1.4556 2.6378 1.9728 2.9977C1.4679 3.3029 1.2607 4.03533 1.7573 4.41416C0.842 4.99504 1.0595 5.91477 1.4926 6.13786C1.2278 6.26624 1 6.6114 1 6.92499ZM14 1.5982C14 1.2677 13.7373 1.0004 13.4151 1.0004H11.0404C10.7182 1.0004 10.4555 1.2677 10.4555 1.5982V8.07413C10.4555 8.40666 10.7182 8.67395 11.0404 8.67395H13.4151C13.7373 8.67395 14 8.40666 14 8.07413V1.5982Z" fill="#0091E4" stroke="#003D74" stroke-width="0.614931"/>
<g style="mix-blend-mode:multiply" opacity="0.4">
<path d="M14 4.82861V1.59801C14 1.26761 13.7373 1.00031 13.4151 1.00031H11.0404C10.7182 1.00031 10.4555 1.26761 10.4555 1.59801V4.82861H14Z" fill="#0091E4"/>
</g>
<path d="M11.1655 2.7141C11.1655 2.4362 11.3851 2.2132 11.654 2.2132C11.9249 2.2132 12.1445 2.4362 12.1445 2.7141C12.1445 2.9919 11.9249 3.215 11.654 3.215C11.3851 3.215 11.1655 2.9919 11.1655 2.7141Z" fill="#ECEFF0"/>
</g>
<defs>
<clipPath id="clip0_2183_11357">
<rect width="15" height="14" fill="white" transform="matrix(-1 0 0 -1 15 14)"/>
</clipPath>
</defs>
</svg>
