<svg width="74" height="75" viewBox="0 0 74 75" fill="none" xmlns="http://www.w3.org/2000/svg">
<path fill-rule="evenodd" clip-rule="evenodd" d="M7.0766 55.8731H7.08437L23.6938 65.4637C24.9298 66.1774 25.3566 67.7681 24.6427 69.0043L22.7213 72.3318C22.3759 72.9301 21.8143 73.3572 21.1471 73.5358C20.4817 73.7138 19.7781 73.6246 19.1813 73.28L2.66787 63.7449C2.07002 63.3996 1.64153 62.8385 1.46257 62.1719C1.28391 61.5062 1.37431 60.8027 1.71896 60.2058L3.64041 56.8783C4.10488 56.074 4.96171 55.5821 5.8876 55.5821C6.30451 55.5821 6.71212 55.6835 7.0766 55.8731ZM33.1329 33.0034C32.1458 32.3291 31.6668 31.2343 31.84 30.0515C32.804 23.4717 38.5367 18.4342 45.1863 18.3273L45.1936 18.3271L45.2009 18.3273C51.85 18.4342 57.584 23.4718 58.548 30.0515C58.7213 31.2346 58.2417 32.3291 57.2542 33.0034C53.7842 35.3732 49.3576 36.4163 45.1936 36.4163C41.031 36.4163 36.6014 35.373 33.1329 33.0034Z" fill="#3F53FE"/>
<path fill-rule="evenodd" clip-rule="evenodd" d="M32.2926 30.118C33.2246 23.7584 38.7697 18.8881 45.1938 18.7847C51.6171 18.8879 57.163 23.7584 58.0957 30.118C58.2434 31.1332 57.844 32.0466 56.9967 32.626C53.7423 34.8479 49.4699 35.9591 45.1938 35.9591C40.9198 35.9591 36.6446 34.8479 33.3909 32.626C32.5443 32.0466 32.1441 31.1332 32.2926 30.118ZM32.3592 34.1366C35.7963 36.4839 40.3549 37.7767 45.1938 37.7767C50.0334 37.7767 54.5911 36.4841 58.0283 34.1366C59.4538 33.1622 60.155 31.562 59.9054 29.8527C59.3914 26.3517 57.634 23.1168 54.9569 20.7479C52.2561 18.3561 48.7923 17.0088 45.2075 16.9558C45.1982 16.9558 45.1889 16.9558 45.1804 16.9558C41.5948 17.0088 38.1325 18.3561 35.4309 20.7479C32.7537 23.1168 30.9964 26.3517 30.4824 29.8527C30.232 31.562 30.9339 33.1622 32.3592 34.1366ZM45.1938 1.82907C48.2853 1.82907 50.8018 4.34501 50.8018 7.43578C50.8018 10.5275 48.2853 13.0425 45.1938 13.0425C42.1022 13.0425 39.5871 10.5273 39.5871 7.43578C39.5871 4.34485 42.1022 1.82907 45.1938 1.82907ZM45.1938 14.8716C49.2941 14.8716 52.6309 11.5361 52.6309 7.43578C52.6309 3.33543 49.2941 0 45.1938 0C41.0934 0 37.7572 3.33543 37.7572 7.43578C37.7574 11.5361 41.0934 14.8716 45.1938 14.8716ZM72.0223 40.5736C71.9399 40.9622 71.7025 41.287 71.3512 41.4884L48.2259 54.8414C43.2257 57.7273 39.4422 57.7029 34.2082 57.6692C33.6275 57.6663 33.031 57.662 32.415 57.662C29.0559 57.662 26.1665 59.3312 24.4875 62.2392L23.5791 63.8137L8.66745 55.2043L12.7643 48.1085C17.2582 40.3242 23.7003 41.2707 28.811 42.9656C28.9041 42.9958 29.0009 43.0115 29.0992 43.0115H42.2112C43.9786 43.0115 45.4162 44.4505 45.4162 46.2171C45.4162 47.0689 45.0807 47.8725 44.4741 48.4806C43.8661 49.0871 43.0624 49.4226 42.2114 49.4226H32.3357C31.831 49.4226 31.421 49.8327 31.421 50.3375C31.421 50.8416 31.831 51.2517 32.3357 51.2517H42.2114C43.552 51.2517 44.8147 50.7276 45.7669 49.7732C46.5814 48.9595 47.0811 47.9199 47.2109 46.7992L63.0015 38.9061C67.0804 36.867 70.0366 37.0542 71.783 39.4654C72.0208 39.7913 72.1048 40.1851 72.0223 40.5736ZM24.2466 68.7758C24.8353 67.7555 24.4839 66.4478 23.4651 65.8598L6.96185 56.3305C6.96109 56.3305 6.96109 56.3305 6.96048 56.3305H6.95972L6.95179 56.3263C6.61628 56.1327 6.24983 56.0395 5.88779 56.0395C5.15001 56.0395 4.43097 56.4223 4.03662 57.107L2.11518 60.4345C1.83135 60.9263 1.75589 61.5014 1.90436 62.0534C2.05207 62.6047 2.40481 63.0657 2.89671 63.3489L19.41 72.884C19.9018 73.1673 20.4769 73.2418 21.0289 73.0941C21.581 72.9464 22.0412 72.5944 22.3252 72.1033L24.2466 68.7758ZM73.2648 38.3904C71.9399 36.5664 68.7399 33.9933 62.1839 37.2705L47.05 44.8346C46.4477 42.7295 44.5077 41.1817 42.2111 41.1817H29.2453C23.9324 39.4445 16.3468 38.245 11.1797 47.1942L7.0306 54.3812C5.30915 53.86 3.38908 54.569 2.45191 56.1923L0.531075 59.5198C0.00258303 60.4347 -0.1372 61.5029 0.137488 62.5275C0.411414 63.5498 1.06673 64.4053 1.98149 64.9344L18.4948 74.468C19.1035 74.82 19.7803 75 20.4665 75C20.8115 75 21.1592 74.9541 21.5019 74.8624C22.5264 74.5884 23.3811 73.9325 23.9094 73.0183L25.8303 69.6908C26.7673 68.0668 26.4211 66.0507 25.1105 64.819L26.0713 63.1541C27.4156 60.8261 29.7271 59.4911 32.415 59.4911C33.0273 59.4911 33.6195 59.4954 34.196 59.499C39.5131 59.5341 43.7103 59.5614 49.14 56.4253L72.2661 43.0739C73.059 42.6164 73.6226 41.8436 73.8119 40.9552C74.0011 40.066 73.8011 39.1317 73.2648 38.3904Z" fill="#0A2540"/>
</svg>
