<svg width="38" height="32" viewBox="0 0 38 32" fill="none" xmlns="http://www.w3.org/2000/svg">
<g clip-path="url(#clip0_1_34)">
<path d="M13.7231 1.57162C15.0432 0.809458 16.6696 0.809458 17.9897 1.57162L27.5795 7.10826C28.8996 7.87043 29.7128 9.27897 29.7128 10.8033V21.8765C29.7128 23.4009 28.8996 24.8094 27.5795 25.5716L17.9897 31.1082C16.6696 31.8704 15.0432 31.8704 13.7231 31.1082L4.13334 25.5716C2.81323 24.8094 2 23.4009 2 21.8765V10.8033C2 9.27897 2.81323 7.87043 4.13334 7.10826L13.7231 1.57162Z" fill="#E1EFDE"/>
<path d="M28.3001 3.98022C28.5761 3.74422 29.0281 3.74422 29.3081 3.98022L29.9401 4.52422C30.0601 4.62822 30.2841 4.71222 30.4441 4.71222H31.1241C31.5481 4.71222 31.8961 5.06022 31.8961 5.48422V6.16422C31.8961 6.32022 31.9801 6.54822 32.0841 6.66822L32.6281 7.30022C32.8641 7.57622 32.8641 8.02822 32.6281 8.30822L32.0841 8.94022C31.9801 9.06022 31.8961 9.28422 31.8961 9.44422V10.1242C31.8961 10.5482 31.5481 10.8962 31.1241 10.8962H30.4441C30.2881 10.8962 30.0601 10.9802 29.9401 11.0842L29.3081 11.6282C29.0321 11.8642 28.5801 11.8642 28.3001 11.6282L27.6681 11.0842C27.5481 10.9802 27.3241 10.8962 27.1641 10.8962H26.4721C26.0481 10.8962 25.7001 10.5482 25.7001 10.1242V9.44022C25.7001 9.28422 25.6161 9.06022 25.5161 8.94022L24.9761 8.30422C24.7441 8.02822 24.7441 7.58022 24.9761 7.30422L25.5161 6.66822C25.6161 6.54822 25.7001 6.32422 25.7001 6.16822V5.48022C25.7001 5.05622 26.0481 4.70822 26.4721 4.70822H27.1641C27.3201 4.70822 27.5481 4.62422 27.6681 4.52022L28.3001 3.98022Z" fill="#13A8FF"/>
<g filter="url(#filter0_d_1_34)">
<path d="M27.3521 7.80003L28.3161 8.76803L30.2481 6.83203" stroke="white" stroke-width="0.746667" stroke-linecap="round" stroke-linejoin="round"/>
</g>
<g filter="url(#filter1_d_1_34)">
<g filter="url(#filter2_d_1_34)">
<path d="M18.334 16.1577C18.077 16.1577 17.8739 15.9514 17.8739 15.7038C17.8739 15.4857 17.6528 15.0318 17.2823 14.6369C16.9178 14.2537 16.5174 14.0297 16.1828 14.0297C15.9258 14.0297 15.7226 13.8234 15.7226 13.5758C15.7226 13.3283 15.9318 13.1219 16.1828 13.1219C16.7803 13.1219 17.4078 13.4403 17.9575 14.012C18.4714 14.5485 18.8001 15.2146 18.8001 15.6979C18.8001 15.9514 18.5909 16.1577 18.334 16.1577Z" fill="#1BBF00"/>
<path d="M20.4913 16.158C20.2343 16.158 20.0311 15.9517 20.0311 15.7041C20.0311 13.6114 18.3041 11.9137 16.1887 11.9137C15.9318 11.9137 15.7286 11.7074 15.7286 11.4598C15.7286 11.2122 15.9318 11 16.1828 11C18.812 11 20.9514 13.1103 20.9514 15.7041C20.9514 15.9517 20.7422 16.158 20.4913 16.158Z" fill="#1BBF00"/>
<path opacity="0.4" d="M14.8502 18.1976L12.8962 20.1251C12.6811 19.9365 12.4718 19.742 12.2687 19.5416C11.6532 18.9285 11.0974 18.286 10.6015 17.614C10.1115 16.942 9.71707 16.27 9.43024 15.6039C9.14341 14.9319 9 14.2893 9 13.6762C9 13.2754 9.07171 12.8922 9.21512 12.5385C9.35854 12.1789 9.58561 11.8488 9.90232 11.5541C10.2848 11.1827 10.703 11 11.1452 11C11.3126 11 11.4799 11.0354 11.6293 11.1061C11.7846 11.1768 11.9221 11.2829 12.0296 11.4362L13.4161 13.3638C13.5236 13.5112 13.6013 13.6467 13.6551 13.7764C13.7089 13.9002 13.7387 14.024 13.7387 14.136C13.7387 14.2775 13.6969 14.4189 13.6133 14.5546C13.5356 14.6902 13.422 14.8317 13.2786 14.9731L12.8245 15.4388C12.7587 15.5037 12.7289 15.5803 12.7289 15.6746C12.7289 15.7218 12.7348 15.763 12.7468 15.8102C12.7647 15.8573 12.7826 15.8927 12.7946 15.9281C12.9022 16.1226 13.0874 16.3761 13.3503 16.6826C13.6192 16.9891 13.9061 17.3016 14.2168 17.614C14.4319 17.8203 14.6411 18.0207 14.8502 18.1976Z" fill="#1BBF00"/>
<path d="M20.9335 20.6261C20.9335 20.7912 20.9036 20.9621 20.8438 21.1272C20.8259 21.1743 20.808 21.2215 20.7841 21.2686C20.6825 21.4808 20.551 21.6813 20.3777 21.8699C20.0849 22.1882 19.7622 22.4181 19.3977 22.5655C19.3918 22.5655 19.3858 22.5714 19.3798 22.5714C19.0272 22.7128 18.6447 22.7895 18.2324 22.7895C17.6229 22.7895 16.9715 22.648 16.2844 22.3592C15.5972 22.0703 14.91 21.6813 14.2287 21.192C13.9957 21.0211 13.7626 20.8501 13.5415 20.6674L15.4956 18.7398C15.6629 18.8636 15.8123 18.9579 15.9378 19.0227C15.9676 19.0345 16.0035 19.0522 16.0453 19.0699C16.0931 19.0876 16.1409 19.0935 16.1947 19.0935C16.2963 19.0935 16.374 19.0581 16.4397 18.9933L16.8939 18.5512C17.0433 18.4038 17.1867 18.2918 17.3241 18.2211C17.4615 18.1385 17.599 18.0973 17.7484 18.0973C17.8619 18.0973 17.9814 18.1208 18.1129 18.1739C18.2444 18.2269 18.3818 18.3036 18.5312 18.4038L20.5092 19.7891C20.6646 19.8952 20.7721 20.0189 20.8379 20.1663C20.8976 20.3137 20.9335 20.4611 20.9335 20.6261Z" fill="#1BBF00"/>
</g>
</g>
</g>
<defs>
<filter id="filter0_d_1_34" x="20.5788" y="2.19203" width="16.4427" height="15.4827" filterUnits="userSpaceOnUse" color-interpolation-filters="sRGB">
<feFlood flood-opacity="0" result="BackgroundImageFix"/>
<feColorMatrix in="SourceAlpha" type="matrix" values="0 0 0 0 0 0 0 0 0 0 0 0 0 0 0 0 0 0 127 0" result="hardAlpha"/>
<feOffset dy="2.13333"/>
<feGaussianBlur stdDeviation="3.2"/>
<feComposite in2="hardAlpha" operator="out"/>
<feColorMatrix type="matrix" values="0 0 0 0 0 0 0 0 0 0 0 0 0 0 0 0 0 0 0.35 0"/>
<feBlend mode="normal" in2="BackgroundImageFix" result="effect1_dropShadow_1_34"/>
<feBlend mode="normal" in="SourceGraphic" in2="effect1_dropShadow_1_34" result="shape"/>
</filter>
<filter id="filter1_d_1_34" x="4.73334" y="11" width="20.4847" height="20.3228" filterUnits="userSpaceOnUse" color-interpolation-filters="sRGB">
<feFlood flood-opacity="0" result="BackgroundImageFix"/>
<feColorMatrix in="SourceAlpha" type="matrix" values="0 0 0 0 0 0 0 0 0 0 0 0 0 0 0 0 0 0 127 0" result="hardAlpha"/>
<feOffset dy="4.26667"/>
<feGaussianBlur stdDeviation="2.13333"/>
<feComposite in2="hardAlpha" operator="out"/>
<feColorMatrix type="matrix" values="0 0 0 0 0.105882 0 0 0 0 0.74902 0 0 0 0 0 0 0 0 0.22 0"/>
<feBlend mode="normal" in2="BackgroundImageFix" result="effect1_dropShadow_1_34"/>
<feBlend mode="normal" in="SourceGraphic" in2="effect1_dropShadow_1_34" result="shape"/>
</filter>
<filter id="filter2_d_1_34" x="4" y="11" width="21.9514" height="21.7895" filterUnits="userSpaceOnUse" color-interpolation-filters="sRGB">
<feFlood flood-opacity="0" result="BackgroundImageFix"/>
<feColorMatrix in="SourceAlpha" type="matrix" values="0 0 0 0 0 0 0 0 0 0 0 0 0 0 0 0 0 0 127 0" result="hardAlpha"/>
<feOffset dy="5"/>
<feGaussianBlur stdDeviation="2.5"/>
<feComposite in2="hardAlpha" operator="out"/>
<feColorMatrix type="matrix" values="0 0 0 0 0.105882 0 0 0 0 0.74902 0 0 0 0 0 0 0 0 0.22 0"/>
<feBlend mode="normal" in2="BackgroundImageFix" result="effect1_dropShadow_1_34"/>
<feBlend mode="normal" in="SourceGraphic" in2="effect1_dropShadow_1_34" result="shape"/>
</filter>
<clipPath id="clip0_1_34">
<rect width="38" height="32" fill="white"/>
</clipPath>
</defs>
</svg>
