<svg width="20" height="17" viewBox="0 0 20 17" fill="none" xmlns="http://www.w3.org/2000/svg">
<path d="M14.4866 0H4.02509C2.21954 0 0.755859 1.46368 0.755859 3.26923V13.7308C0.755859 15.5363 2.21954 17 4.02509 17H14.4866C16.2922 17 17.7559 15.5363 17.7559 13.7308V3.26923C17.7559 1.46368 16.2922 0 14.4866 0Z" fill="#7B7AF1"/>
<path d="M17.9739 4.79468H14.0508C13.0682 4.79468 12.1258 5.18504 11.4309 5.87988C10.7361 6.57473 10.3457 7.51715 10.3457 8.49981C10.3457 9.48247 10.7361 10.4249 11.4309 11.1197C12.1258 11.8146 13.0682 12.2049 14.0508 12.2049H17.9739C18.3784 12.2045 18.7662 12.0436 19.0522 11.7576C19.3382 11.4716 19.4991 11.0838 19.4996 10.6793V6.32032C19.4991 5.91584 19.3382 5.52805 19.0522 5.24204C18.7662 4.95602 18.3784 4.79514 17.9739 4.79468Z" fill="#C9CAFA"/>
<path d="M14.4854 9.80752C15.2076 9.80752 15.7931 9.22205 15.7931 8.49983C15.7931 7.77761 15.2076 7.19214 14.4854 7.19214C13.7632 7.19214 13.1777 7.77761 13.1777 8.49983C13.1777 9.22205 13.7632 9.80752 14.4854 9.80752Z" fill="#A4A7F4"/>
</svg>
