<svg width="26" height="26" viewBox="0 0 26 26" fill="none" xmlns="http://www.w3.org/2000/svg">
<path d="M18.417 2.4375H5.41699C3.17334 2.4375 1.35449 4.25634 1.35449 6.5V19.5C1.35449 21.7437 3.17334 23.5625 5.41699 23.5625H18.417C20.6607 23.5625 22.4795 21.7437 22.4795 19.5V6.5C22.4795 4.25634 20.6607 2.4375 18.417 2.4375Z" fill="#7B7AF1"/>
<path d="M22.7507 8.39584H17.8757C16.6546 8.39584 15.4835 8.88092 14.62 9.74437C13.7566 10.6078 13.2715 11.7789 13.2715 13C13.2715 14.2211 13.7566 15.3922 14.62 16.2556C15.4835 17.1191 16.6546 17.6042 17.8757 17.6042H22.7507C23.2533 17.6036 23.7352 17.4037 24.0906 17.0483C24.446 16.6929 24.6459 16.211 24.6465 15.7083V10.2917C24.6459 9.78905 24.446 9.30717 24.0906 8.95175C23.7352 8.59634 23.2533 8.39642 22.7507 8.39584Z" fill="#C9CAFA"/>
<path d="M18.417 14.625C19.3145 14.625 20.042 13.8975 20.042 13C20.042 12.1025 19.3145 11.375 18.417 11.375C17.5195 11.375 16.792 12.1025 16.792 13C16.792 13.8975 17.5195 14.625 18.417 14.625Z" fill="#A4A7F4"/>
</svg>
