<svg width="36" height="36" viewBox="0 0 36 36" fill="none" xmlns="http://www.w3.org/2000/svg">
<path d="M15.5 1.44338C17.047 0.550211 18.953 0.550212 20.5 1.44338L31.0885 7.55662C32.6355 8.44979 33.5885 10.1004 33.5885 11.8868V24.1132C33.5885 25.8996 32.6355 27.5502 31.0885 28.4434L20.5 34.5566C18.953 35.4498 17.047 35.4498 15.5 34.5566L4.91154 28.4434C3.36454 27.5502 2.41154 25.8996 2.41154 24.1132V11.8868C2.41154 10.1004 3.36454 8.44979 4.91154 7.55662L15.5 1.44338Z" fill="#73EBA7" fill-opacity="0.18"/>
<g filter="url(#filter0_d_3413_12866)">
<path d="M12.0637 26C11.2447 26 10.5781 25.3142 10.5781 24.4716V15.5212C10.5781 15.3755 10.639 15.2364 10.745 15.1396L17.6778 8.82221C17.7714 8.73662 17.8888 8.69434 18.0062 8.69434C18.1235 8.69434 18.2409 8.73713 18.3345 8.82221L25.2673 15.1396C25.3733 15.2364 25.4342 15.375 25.4342 15.5212V24.4716C25.4342 25.3142 24.7676 26 23.9486 26H12.0637Z" fill="white"/>
<path d="M26.9843 18.4501H26.9608C26.7141 18.4501 26.4757 18.3576 26.2904 18.1895L17.9881 10.6554L9.68582 18.1895C9.50055 18.3576 9.26212 18.4501 9.01547 18.4501C8.08806 18.4501 7.64793 17.2746 8.33526 16.6344L17.3084 8.27004C17.6943 7.91017 18.2819 7.91017 18.6683 8.26891L27.664 16.6333C28.3524 17.2735 27.9123 18.4501 26.9843 18.4501Z" fill="url(#paint0_linear_3413_12866)"/>
<path d="M17.9986 24.2004C20.509 24.2004 22.544 22.1856 22.544 19.7003C22.544 17.215 20.509 15.2002 17.9986 15.2002C15.4882 15.2002 13.4531 17.215 13.4531 19.7003C13.4531 22.1856 15.4882 24.2004 17.9986 24.2004Z" fill="url(#paint1_linear_3413_12866)"/>
<path d="M18.6981 20.7716C18.6981 20.589 18.6465 20.4441 18.544 20.3362C18.4415 20.2283 18.2672 20.1287 18.0211 20.0375C17.775 19.9462 17.563 19.8559 17.3848 19.7656C17.2065 19.6753 17.0535 19.5723 16.9262 19.4551C16.7985 19.3385 16.6994 19.2008 16.6286 19.0431C16.5573 18.8855 16.5221 18.6975 16.5221 18.4793C16.5221 18.1035 16.644 17.7955 16.8876 17.5553C17.1312 17.3152 17.4551 17.1751 17.8592 17.135V16.4209H18.4009V17.1448C18.8001 17.2004 19.113 17.3645 19.3383 17.6368C19.5642 17.9092 19.6771 18.2626 19.6771 18.6961H18.699C18.699 18.4291 18.6431 18.2294 18.5317 18.0971C18.4197 17.9649 18.2707 17.8985 18.083 17.8985C17.8953 17.8985 17.7547 17.9502 17.6532 18.0537C17.5517 18.1572 17.5007 18.3002 17.5007 18.4823C17.5007 18.6512 17.5502 18.7869 17.6497 18.8894C17.7487 18.9919 17.9335 19.0963 18.2028 19.2028C18.4722 19.3097 18.6941 19.4102 18.8679 19.5049C19.0417 19.5996 19.1883 19.706 19.3081 19.8251C19.4275 19.9442 19.5191 20.0799 19.5825 20.2322C19.6454 20.3845 19.6771 20.5622 19.6771 20.7643C19.6771 21.1426 19.5572 21.4496 19.318 21.6849C19.0789 21.9207 18.7496 22.0598 18.3296 22.1018V22.7656H17.7913V22.1052C17.3288 22.0564 16.9708 21.8943 16.7167 21.6195C16.4627 21.3447 16.3359 20.9796 16.3359 20.5236H17.314C17.314 20.7882 17.3778 20.9913 17.5051 21.1323C17.6324 21.2734 17.8161 21.3442 18.0553 21.3442C18.2539 21.3442 18.4108 21.2924 18.5257 21.189C18.6406 21.0855 18.6985 20.9459 18.6985 20.7701L18.6981 20.7716Z" fill="white"/>
</g>
<defs>
<filter id="filter0_d_3413_12866" x="4" y="6" width="32" height="30" filterUnits="userSpaceOnUse" color-interpolation-filters="sRGB">
<feFlood flood-opacity="0" result="BackgroundImageFix"/>
<feColorMatrix in="SourceAlpha" type="matrix" values="0 0 0 0 0 0 0 0 0 0 0 0 0 0 0 0 0 0 127 0" result="hardAlpha"/>
<feOffset dx="2" dy="4"/>
<feGaussianBlur stdDeviation="3"/>
<feComposite in2="hardAlpha" operator="out"/>
<feColorMatrix type="matrix" values="0 0 0 0 0.00454861 0 0 0 0 0.545833 0 0 0 0 0.356754 0 0 0 0.36 0"/>
<feBlend mode="normal" in2="BackgroundImageFix" result="effect1_dropShadow_3413_12866"/>
<feBlend mode="normal" in="SourceGraphic" in2="effect1_dropShadow_3413_12866" result="shape"/>
</filter>
<linearGradient id="paint0_linear_3413_12866" x1="18" y1="8" x2="18" y2="18.4501" gradientUnits="userSpaceOnUse">
<stop stop-color="#07B89C"/>
<stop offset="1" stop-color="#8FF9AA"/>
</linearGradient>
<linearGradient id="paint1_linear_3413_12866" x1="17.9986" y1="17.0002" x2="17.9986" y2="26.0004" gradientUnits="userSpaceOnUse">
<stop stop-color="#07B89C"/>
<stop offset="1" stop-color="#93FAAB"/>
</linearGradient>
</defs>
</svg>
