<svg width="800" height="800" viewBox="0 0 800 800" fill="none" xmlns="http://www.w3.org/2000/svg">
<g clip-path="url(#clip0_575_96)">
<mask id="mask0_575_96" style="mask-type:luminance" maskUnits="userSpaceOnUse" x="50" y="328" width="700" height="144">
<path d="M750 328H50V471.182H750V328Z" fill="white"/>
</mask>
<g mask="url(#mask0_575_96)">
<path d="M240.456 386.819C245.076 383.581 247.741 378.365 247.741 372.069C247.741 360.737 239.391 353.182 227.132 353.182H204.568L192.31 423.874H224.644C239.391 423.874 249.695 414.88 249.695 402.648C249.517 395.813 246.32 390.237 240.456 386.819ZM216.116 365.594H225C230.33 365.594 233.528 368.472 233.528 373.148C233.528 378.545 229.797 381.962 223.756 381.962H213.452L216.116 365.594ZM224.467 411.462H208.122L211.142 393.834H226.243C232.107 393.834 235.482 397.072 235.482 402.289C235.482 408.224 231.218 411.462 224.467 411.462Z" fill="#121639"/>
<path d="M299.62 370.99L294.112 403.188C293.224 408.584 289.137 412.182 283.807 412.182C278.478 412.182 274.569 408.584 274.569 403.547C274.569 402.288 274.746 401.569 274.746 401.029L279.899 370.81H265.685L260.888 399.051C260.533 401.029 260.355 402.828 260.355 404.267C260.355 416.678 269.594 425.133 282.919 425.133C296.421 425.133 305.838 416.859 308.147 403.368L313.833 370.99H299.62Z" fill="#121639"/>
<path d="M360.914 370.99L355.584 400.67C354.695 406.426 349.898 409.843 344.746 409.843C339.416 409.843 335.863 406.606 335.863 401.569C335.863 400.31 336.041 399.411 336.218 398.511L341.015 370.81H326.802L322.005 398.691C321.65 401.209 321.294 403.008 321.294 404.447C321.294 409.664 323.071 413.801 326.269 417.219C329.645 420.636 334.086 422.075 339.239 422.075C344.036 422.075 348.477 420.636 352.386 417.758L351.853 420.816C350.609 427.831 346.345 431.249 339.594 431.249C333.731 431.249 329.112 428.73 323.249 422.795L314.721 432.328C320.584 439.883 329.822 444.38 339.594 444.38C353.452 444.38 363.579 435.566 365.888 421.176L374.772 370.63H360.914V370.99Z" fill="#121639"/>
<path d="M417.412 369.731C411.549 369.731 406.574 371.53 402.665 375.128L408.35 343.469H394.137L380.279 423.874H394.493L395.736 417.398C399.112 422.435 404.975 425.133 412.437 425.133C427.716 425.493 440.863 411.822 440.508 395.094C440.33 380.524 430.559 369.731 417.412 369.731ZM411.193 412.362C403.909 412.362 398.579 406.966 398.579 399.231C398.579 389.877 404.975 382.682 413.147 382.682C420.609 382.682 425.584 388.079 425.584 396.533C425.584 405.347 419.188 412.362 411.193 412.362Z" fill="#121639"/>
<path d="M477.461 369.732C461.473 369.372 447.437 382.863 447.791 398.692C447.791 413.801 459.162 425.314 474.442 425.314C490.61 425.673 504.646 412.183 504.288 396.354C504.467 381.244 492.742 369.732 477.461 369.732ZM475.154 412.183C467.689 412.183 462.538 406.786 462.538 398.512C462.538 389.698 468.934 382.683 476.928 382.683C484.569 382.683 489.898 388.439 489.898 396.533C489.898 405.347 483.503 412.183 475.154 412.183Z" fill="#121639"/>
<path d="M519.036 353.902H505.533L542.132 423.874H556.346L519.036 353.902ZM502.335 423.874H519.214L528.275 412.542L522.054 400.85L502.335 423.874ZM547.994 370.99L541.066 379.804L547.282 391.676L564.874 370.99H547.994Z" fill="#121639"/>
<path d="M628.12 386.819C632.742 383.581 635.407 378.365 635.407 372.069C635.407 360.737 627.233 353.182 614.797 353.182H592.233L579.976 423.874H612.311C627.055 423.874 637.36 414.88 637.36 402.648C637.181 395.813 633.983 390.237 628.12 386.819ZM603.784 365.594H612.665C617.994 365.594 621.192 368.472 621.192 373.148C621.192 378.545 617.461 381.962 611.42 381.962H601.115L603.784 365.594ZM611.953 411.462H595.61L598.629 393.834H613.731C619.593 393.834 622.97 397.072 622.97 402.289C622.97 408.224 618.881 411.462 611.953 411.462Z" fill="#121639"/>
<path d="M675.558 369.732C659.569 369.372 645.533 382.863 645.887 398.692C645.887 413.801 657.258 425.314 672.539 425.314C688.707 425.673 702.743 412.183 702.389 396.354C702.389 381.244 690.66 369.732 675.558 369.732ZM673.072 412.183C665.611 412.183 660.456 406.786 660.456 398.512C660.456 389.698 666.856 382.683 674.85 382.683C682.486 382.683 687.82 388.439 687.82 396.533C687.82 405.347 681.42 412.183 673.072 412.183Z" fill="#121639"/>
<path d="M732.767 383.042H747.868L749.821 370.99H734.72L737.209 357.679H722.995L720.684 370.99H712.514L710.558 383.042H718.731L715.179 403.548C714.821 405.706 714.646 407.325 714.646 408.764C714.646 419.557 722.816 425.313 735.964 425.313C737.917 425.313 740.049 425.133 742.36 424.773L744.492 412.722C743.605 412.901 742.006 412.901 740.049 412.901C732.767 412.901 729.215 411.102 729.215 406.246C729.215 405.347 729.39 404.447 729.39 403.727L732.767 383.042Z" fill="#121639"/>
<path d="M140.964 377.466L115.381 390.597L89.7969 377.466L115.381 362.536L140.964 377.466Z" fill="#3F53FE"/>
<path d="M112.183 396.353V428.911L86.2441 413.801V383.042L112.183 396.353Z" fill="#3F53FE"/>
<path d="M144.518 383.042V413.801L118.579 428.911V396.353L144.518 383.042Z" fill="#3F53FE"/>
<path d="M70.4315 422.615V385.74C78.6041 384.301 84.8223 377.106 84.8223 368.472C84.8223 366.853 84.6447 365.234 84.1117 363.795C83.7563 362.536 83.2233 361.277 82.6904 360.198C81.0914 357.32 78.7817 354.802 75.9391 353.183C74.6954 352.463 73.0965 351.744 71.6751 351.384C70.2538 351.024 68.8325 350.844 67.2335 350.844C57.8172 350.664 50 358.579 50 368.292C50 375.667 54.6193 382.143 61.0152 384.661V427.832L96.3706 449.237C97.0814 445.999 98.6802 443.121 100.635 440.782L70.4315 422.615ZM59.4162 368.292C59.4162 363.795 62.9695 360.198 67.4112 360.198C67.9442 360.198 68.4772 360.198 69.1878 360.378C72.7411 361.097 75.5838 364.515 75.5838 368.292C75.5838 368.652 75.5838 368.832 75.5838 369.192C75.2284 373.329 71.6751 376.387 67.5888 376.387C62.9695 376.567 59.4162 372.789 59.4162 368.292Z" fill="#3F53FE"/>
<path d="M163.35 350.664C160.152 350.664 157.31 351.564 154.822 353.003L115.38 328L79.4922 350.844C82.1572 352.643 84.2891 355.161 85.8882 358.039L115.38 339.152L147.893 359.838C146.472 362.356 145.761 365.234 145.761 368.293C145.761 375.667 150.203 381.963 156.599 384.661C157.843 385.201 159.086 385.561 160.33 385.74C161.218 385.92 162.107 385.92 163.173 385.92C165.482 385.92 167.792 385.381 169.746 384.661C171.167 384.122 172.411 383.402 173.477 382.503C177.741 379.265 180.583 374.048 180.583 368.293C180.761 358.579 172.944 350.664 163.35 350.664ZM163.35 376.567C160.685 376.567 158.198 375.127 156.777 373.149C155.888 371.89 155.355 370.271 155.355 368.472C155.355 363.975 158.908 360.378 163.35 360.378C167.792 360.378 171.345 363.975 171.345 368.472C171.345 370.091 170.812 371.71 169.924 372.969C168.502 375.127 166.015 376.567 163.35 376.567Z" fill="#3F53FE"/>
<path d="M169.924 388.798C167.792 389.518 165.659 389.877 163.35 389.877C162.462 389.877 161.396 389.877 160.507 389.698V422.795L127.995 442.221C124.974 439.344 120.888 437.365 116.269 437.365C112.893 437.365 109.518 438.444 106.853 440.243C105.786 440.963 104.721 441.862 103.832 442.761C101.7 445.1 100.279 447.978 99.7461 451.395C99.5684 452.295 99.5684 453.374 99.5684 454.273C99.5684 454.813 99.5684 455.173 99.5684 455.712C100.279 464.347 107.386 471.182 116.269 471.182C125.507 471.182 132.969 463.627 132.969 454.273C132.969 452.834 132.792 451.575 132.437 450.316L169.746 428.011V388.798H169.924ZM116.269 461.828C112.716 461.828 109.695 459.13 108.985 455.712C108.807 455.352 108.807 454.813 108.807 454.453C108.807 451.215 110.939 448.337 113.959 447.438C114.67 447.258 115.38 447.078 116.269 447.078C120.355 447.078 123.553 450.496 123.553 454.453C123.731 458.411 120.355 461.828 116.269 461.828Z" fill="#3F53FE"/>
</g>
</g>
<defs>
<clipPath id="clip0_575_96">
<rect width="700" height="143.182" fill="white" transform="translate(50 328)"/>
</clipPath>
</defs>
</svg>
