<svg width="50" height="50" viewBox="0 0 50 50" fill="none" xmlns="http://www.w3.org/2000/svg">
<g clip-path="url(#clip0_571_40)">
<path d="M43.1818 0H6.81818C3.0526 0 0 3.0526 0 6.81818V43.1818C0 46.9474 3.0526 50 6.81818 50H43.1818C46.9474 50 50 46.9474 50 43.1818V6.81818C50 3.0526 46.9474 0 43.1818 0Z" fill="#29A71A"/>
<path d="M36.0222 13.9771C33.4212 11.3501 29.967 9.73905 26.2828 9.43454C22.5985 9.13003 18.9267 10.1521 15.9297 12.3164C12.9326 14.4807 10.8076 17.6448 9.93799 21.2379C9.06836 24.8309 9.51134 28.6165 11.187 31.9118L9.54213 39.8975C9.52506 39.977 9.52458 40.0592 9.54071 40.1389C9.55684 40.2185 9.58924 40.294 9.63588 40.3606C9.7042 40.4617 9.80173 40.5395 9.91544 40.5836C10.0291 40.6278 10.1536 40.6362 10.2722 40.6078L18.0989 38.7527C21.3849 40.3859 25.1438 40.8004 28.7067 39.9224C32.2696 39.0444 35.4054 36.9308 37.5562 33.9577C39.707 30.9846 40.7333 27.3449 40.4524 23.6862C40.1715 20.0274 38.6017 16.587 36.0222 13.9771ZM33.5819 33.4544C31.7822 35.249 29.4648 36.4336 26.9562 36.8413C24.4476 37.2491 21.8743 36.8594 19.5989 35.7271L18.508 35.1873L13.7097 36.3237L13.7239 36.264L14.7183 31.4345L14.1842 30.3805C13.0216 28.0972 12.6114 25.5045 13.0125 22.9738C13.4137 20.4431 14.6054 18.1043 16.4171 16.2924C18.6936 14.0167 21.7806 12.7383 24.9995 12.7383C28.2184 12.7383 31.3055 14.0167 33.5819 16.2924C33.6013 16.3147 33.6222 16.3355 33.6444 16.3549C35.8926 18.6365 37.1477 21.7144 37.136 24.9175C37.1243 28.1207 35.8467 31.1893 33.5819 33.4544Z" fill="white"/>
<path d="M33.1554 29.9116C32.5674 30.8377 31.6384 31.9712 30.4708 32.2525C28.4253 32.7468 25.2861 32.2695 21.3799 28.6275L21.3316 28.5849C17.8969 25.4002 17.0049 22.7496 17.2208 20.6474C17.3401 19.4542 18.3344 18.3746 19.1725 17.6701C19.305 17.557 19.4621 17.4765 19.6313 17.435C19.8004 17.3935 19.977 17.3921 20.1468 17.4311C20.3166 17.47 20.4749 17.5481 20.6091 17.6592C20.7433 17.7702 20.8496 17.9111 20.9196 18.0706L22.1838 20.9116C22.266 21.0958 22.2964 21.2989 22.2719 21.4991C22.2474 21.6992 22.1688 21.889 22.0446 22.0479L21.4054 22.8775C21.2683 23.0488 21.1855 23.2572 21.1678 23.4759C21.1501 23.6946 21.1982 23.9136 21.306 24.1047C21.664 24.7326 22.5219 25.6559 23.4736 26.511C24.5418 27.4769 25.7265 28.3604 26.4765 28.6616C26.6771 28.7435 26.8978 28.7636 27.1099 28.719C27.3221 28.6744 27.516 28.5674 27.6668 28.4116L28.4083 27.6644C28.5513 27.5233 28.7293 27.4227 28.9239 27.3728C29.1185 27.3229 29.3229 27.3255 29.5162 27.3803L32.5191 28.2326C32.6847 28.2834 32.8365 28.3714 32.9629 28.4899C33.0894 28.6084 33.187 28.7542 33.2484 28.9162C33.3098 29.0782 33.3334 29.2522 33.3172 29.4247C33.3011 29.5972 33.2458 29.7637 33.1554 29.9116Z" fill="white"/>
</g>
<defs>
<clipPath id="clip0_571_40">
<rect width="50" height="50" fill="white"/>
</clipPath>
</defs>
</svg>
