<svg width="30" height="30" viewBox="0 0 30 30" fill="none" xmlns="http://www.w3.org/2000/svg">
<path d="M24.4795 15.0156L27.9494 28.0561C28.4951 30.1068 26.6948 29.7106 25.8626 29.3891C25.168 29.1207 22.3937 28.0419 22.3937 28.0419C22.3937 28.0419 20.5247 29.0558 20.0195 29.3242C18.9188 29.909 17.7965 29.7633 17.3134 28.3654C17.3007 28.3287 16.1147 24.3067 14.999 20.5222V15.0156H24.4795Z" fill="#0060FF"/>
<path d="M5.52783 15.0391L2.05251 28.1C1.50598 30.154 3.3091 29.7572 4.14263 29.4351C4.83827 29.1663 7.61691 28.0858 7.61691 28.0858C7.61691 28.0858 9.48893 29.1013 9.99484 29.3701C11.0974 29.9559 12.2214 29.81 12.7053 28.4099C12.718 28.3731 13.9059 24.3447 15.0233 20.5543V15.0391H5.52783Z" fill="#0060FF"/>
<path d="M15.0234 15.0391V20.5543C15.8786 23.4551 16.4181 25.2824 16.7974 26.5662C17.8643 26.3558 18.8713 24.5275 19.8916 24.191C20.9732 23.8343 23.0405 24.8345 23.959 24.1611C24.8774 23.4876 24.5448 21.2152 25.2102 20.2909C25.3448 20.1039 25.5453 19.9384 25.7814 19.7839L24.5189 15.0391H15.0234Z" fill="#0043E0"/>
<path d="M5.63701 15.0391C5.56332 15.2105 5.47771 15.386 5.38806 15.5632L4.70801 18.1192C5.20265 19.0972 7.29938 19.489 7.9433 20.3671C8.61678 21.2855 8.30423 23.5607 9.22855 24.2261C10.1529 24.8914 12.2113 23.873 13.296 24.2201C13.4809 24.2793 13.6658 24.388 13.851 24.5263C14.291 23.0348 14.458 22.4708 15.023 20.5543V15.0391H5.63701Z" fill="#0043E0"/>
<path d="M22.3974 22.9506C21.4804 23.623 19.4164 22.6243 18.3365 22.9804C17.2566 23.3366 16.1916 25.3673 15.0545 25.3723C13.9175 25.3773 12.8346 23.3561 11.7516 23.0095C10.6687 22.6629 8.61347 23.6798 7.6906 23.0154C6.76774 22.3511 7.07974 20.0795 6.40732 19.1625C5.73491 18.2455 3.4745 17.8602 3.11836 16.7803C2.76221 15.7004 4.34989 14.046 4.34487 12.9089C4.33985 11.7718 2.73764 10.1315 3.08425 9.0485C3.43085 7.96552 5.68777 7.56026 6.35207 6.6374C7.01637 5.71453 6.68434 3.44569 7.6013 2.77327C8.51827 2.10086 10.5824 3.09958 11.6622 2.74343C12.7421 2.38728 13.8071 0.356586 14.9442 0.351572C16.0812 0.346545 17.1641 2.36777 18.2471 2.71438C19.33 3.06099 21.3852 2.04409 22.3081 2.7084C23.231 3.3727 22.919 5.64438 23.5914 6.56135C24.2638 7.47832 26.5242 7.86365 26.8804 8.94353C27.2365 10.0234 25.6488 11.6778 25.6538 12.8149C25.6588 13.952 27.2611 15.5924 26.9145 16.6754C26.5679 17.7583 24.3109 18.1636 23.6466 19.0865C22.9823 20.0093 23.3144 22.2782 22.3974 22.9506Z" fill="#52C7FF"/>
<path d="M22.3539 12.862C22.3539 14.8125 21.5791 16.683 20.1999 18.0622C18.8207 19.4414 16.9501 20.2162 14.9997 20.2162C13.0492 20.2162 11.1787 19.4414 9.7995 18.0622C8.42032 16.683 7.64551 14.8125 7.64551 12.862C7.64551 11.8962 7.83573 10.9399 8.20531 10.0477C8.57489 9.15542 9.1166 8.3447 9.7995 7.6618C10.4824 6.9789 11.2931 6.4372 12.1854 6.06761C13.0776 5.69803 14.0339 5.50781 14.9997 5.50781C16.9501 5.50781 18.8207 6.28263 20.1999 7.6618C21.5791 9.04098 22.3539 10.9115 22.3539 12.862Z" fill="#009FFF"/>
<path d="M19.411 11.9199C19.0844 12.5498 18.2175 13.2309 18.0334 13.8095C17.7859 14.5873 18.4391 16.1128 17.7816 16.5966C17.1241 17.0804 15.8673 15.968 15.051 15.9729C14.4678 15.9765 13.607 16.5533 12.921 16.7093C12.8896 17.2281 12.9187 17.8162 13.2249 18.0359C13.8883 18.5117 15.2489 17.3828 16.0653 17.3778C16.8816 17.3729 18.2557 18.4853 18.9132 18.0015C19.5708 17.5177 18.9175 15.8749 19.1651 15.097C19.4126 14.3191 20.8951 13.3559 20.6382 12.5811C20.516 12.2125 19.9346 12.0455 19.411 11.9199Z" fill="#0082FF"/>
<path d="M17.8705 16.6892C17.214 17.1722 15.842 16.0616 15.0269 16.0665C14.2119 16.0714 12.8535 17.1986 12.1912 16.7235C11.5289 16.2484 12.1612 14.6004 11.9047 13.8268C11.6481 13.0531 10.1563 12.1095 10.4035 11.3328C10.6507 10.5561 12.4135 10.6482 13.0699 10.1652C13.7264 9.68212 14.1629 7.97174 14.9779 7.96681C15.793 7.96187 16.2501 9.66685 16.9124 10.1419C17.5747 10.617 19.3362 10.5036 19.5928 11.2772C19.8493 12.0508 18.3691 13.0125 18.1219 13.7891C17.8747 14.5658 18.5269 16.2061 17.8705 16.6892Z" fill="#E7EDFB"/>
</svg>
