<svg width="30" height="30" viewBox="0 0 30 30" fill="none" xmlns="http://www.w3.org/2000/svg">
<g clip-path="url(#clip0_2384_12427)">
<path d="M28.9975 11.9941C27.9633 10.6078 27.2707 8.95957 26.9936 7.22871C26.823 6.16465 26.3291 5.19844 25.565 4.43437C24.8016 3.6709 23.8354 3.17695 22.7713 3.00645C21.0404 2.7293 19.3922 2.03672 18.0059 1.00254C17.1264 0.346875 16.0869 0 15 0C13.9131 0 12.8736 0.346875 11.9941 1.00254C10.6078 2.03672 8.95957 2.7293 7.22871 3.00645C6.16465 3.17695 5.19844 3.6709 4.43437 4.43496C3.6709 5.19844 3.17695 6.16465 3.00645 7.22871C2.7293 8.95957 2.03672 10.6078 1.00254 11.9941C0.346875 12.8736 0 13.9131 0 15C0 16.0869 0.346875 17.1264 1.00254 18.0059C2.03672 19.3922 2.7293 21.0404 3.00645 22.7713C3.17695 23.8354 3.6709 24.801 4.43496 25.5656C5.19902 26.3291 6.16465 26.823 7.22871 26.9936C8.95957 27.2707 10.6078 27.9633 11.9941 28.9975C12.8736 29.6531 13.9131 30 15 30C16.0869 30 17.1264 29.6531 18.0059 28.9975C19.3922 27.9633 21.0404 27.2707 22.7713 26.9936C23.8354 26.823 24.8016 26.3291 25.5656 25.565C26.3291 24.8016 26.823 23.8354 26.9936 22.7713C27.1324 21.9059 27.3744 21.0609 27.7113 20.2594C28.0488 19.4578 28.4801 18.699 28.9975 18.0059C29.6531 17.1264 30 16.0869 30 15C30 13.9131 29.6531 12.8736 28.9975 11.9941Z" fill="#FFF239"/>
<path d="M30 15C30 16.0869 29.6531 17.1264 28.9975 18.0059C28.4801 18.699 28.0488 19.4578 27.7113 20.2594C27.3744 21.0609 27.1324 21.9059 26.9936 22.7713C26.823 23.8354 26.3291 24.8016 25.5656 25.565C24.8016 26.3291 23.8354 26.823 22.7713 26.9936C21.0404 27.2707 19.3922 27.9633 18.0059 28.9975C17.1264 29.6531 16.0869 30 15 30V0C16.0869 0 17.1264 0.346875 18.0059 1.00254C19.3922 2.03672 21.0404 2.7293 22.7713 3.00645C23.8354 3.17695 24.8016 3.6709 25.565 4.43437C26.3291 5.19844 26.823 6.16465 26.9936 7.22871C27.2707 8.95957 27.9633 10.6078 28.9975 11.9941C29.6531 12.8736 30 13.9131 30 15Z" fill="#FFD600"/>
<path d="M15 4.27734C9.0873 4.27734 4.27734 9.0873 4.27734 15C4.27734 20.9127 9.0873 25.7227 15 25.7227C20.9127 25.7227 25.7227 20.9127 25.7227 15C25.7227 9.0873 20.9127 4.27734 15 4.27734Z" fill="#FFD600"/>
<path d="M25.7227 15C25.7227 20.9127 20.9127 25.7227 15 25.7227V4.27734C20.9127 4.27734 25.7227 9.0873 25.7227 15Z" fill="#FFB229"/>
<path d="M20.9844 12.8297C20.8596 12.4799 20.5279 12.2461 20.1565 12.2461H16.9795L15.8264 9.07441C15.6998 8.72754 15.3699 8.49609 15.0002 8.49609C14.6305 8.49609 14.3006 8.72754 14.174 9.07441L13.0209 12.2461H9.84395C9.47247 12.2461 9.14083 12.4799 9.01602 12.8297C8.89122 13.1795 8.99962 13.5697 9.28731 13.8053L11.7277 15.8021L10.424 19.3869C10.2963 19.7396 10.4059 20.1346 10.6971 20.3707C10.9889 20.6068 11.3979 20.6314 11.716 20.4328L15.0002 18.3803L18.2844 20.4328C18.4274 20.5225 18.5891 20.5664 18.7502 20.5664C18.9471 20.5664 19.1428 20.5002 19.3033 20.3707C19.5945 20.1346 19.7041 19.7396 19.5764 19.3869L18.2727 15.8021L20.7131 13.8053C21.0008 13.5697 21.1092 13.1795 20.9844 12.8297Z" fill="#FFF239"/>
<path d="M20.7129 13.8053L18.2725 15.8021L19.5762 19.3869C19.7039 19.7396 19.5943 20.1346 19.3031 20.3707C19.1426 20.5002 18.9469 20.5664 18.75 20.5664C18.5889 20.5664 18.4271 20.5225 18.2842 20.4328L15 18.3803V8.49609C15.3697 8.49609 15.6996 8.72754 15.8262 9.07441L16.9793 12.2461H20.1562C20.5277 12.2461 20.8594 12.4799 20.9842 12.8297C21.109 13.1795 21.0006 13.5697 20.7129 13.8053Z" fill="#FFD600"/>
</g>
<defs>
<clipPath id="clip0_2384_12427">
<rect width="30" height="30" fill="white"/>
</clipPath>
</defs>
</svg>
