<svg width="30" height="30" viewBox="0 0 30 30" fill="none" xmlns="http://www.w3.org/2000/svg">
<g clip-path="url(#clip0_2384_12455)">
<path d="M10.5381 19.1855V29.5533C10.5381 29.7996 10.738 29.9995 10.9842 29.9995C11.1168 29.9995 11.2421 29.9406 11.3269 29.8389L14.3161 26.2544C14.6316 25.8761 15.1946 25.8248 15.573 26.1407C15.6145 26.175 15.6524 26.2134 15.6867 26.2544L18.676 29.8389C18.8361 30.0263 19.1177 30.0481 19.3051 29.8879C19.4032 29.8041 19.4599 29.6823 19.4612 29.5533V19.1855H10.5381Z" fill="#EF204D"/>
<path d="M19.4612 29.1081V29.5542C19.4617 29.8005 19.2622 30.0008 19.016 30.0013C18.883 30.0017 18.7563 29.9424 18.6715 29.8398L15.6867 26.2527C15.3695 25.873 14.8047 25.8226 14.4254 26.1398C14.3844 26.1741 14.3469 26.2116 14.3126 26.2527L11.3278 29.8398C11.1707 30.0294 10.8892 30.0557 10.6996 29.8987C10.597 29.8139 10.5376 29.6872 10.5381 29.5542V19.1855H10.9842V28.6619C10.9838 28.9082 11.1832 29.1085 11.4295 29.109C11.5625 29.1094 11.6892 29.0501 11.7739 28.9474L14.7587 25.3604C15.0759 24.9807 15.6408 24.9303 16.02 25.2475C16.0611 25.2818 16.0985 25.3193 16.1329 25.3604L19.1177 28.9474C19.202 29.0501 19.3283 29.109 19.4612 29.1081Z" fill="#FF5A85"/>
<path d="M19.4612 19.1855V21.0594C16.3743 21.8964 13.0731 21.2428 10.5381 19.2926V19.1855H19.4612Z" fill="#B3183A"/>
<path d="M14.9999 20.5232C20.6672 20.5232 25.2615 15.9289 25.2615 10.2616C25.2615 4.59427 20.6672 0 14.9999 0C9.33255 0 4.73828 4.59427 4.73828 10.2616C4.73828 15.9289 9.33255 20.5232 14.9999 20.5232Z" fill="#FFDE76"/>
<path d="M25.2619 10.2618C25.2646 15.9262 20.675 20.5208 15.0102 20.5234C13.1046 20.5243 11.2366 19.9943 9.61523 18.9931C10.8453 19.4179 12.1378 19.6334 13.4388 19.6311C19.4744 19.6316 24.5409 15.0843 25.1906 9.08398C25.2392 9.47482 25.2628 9.86833 25.2619 10.2618Z" fill="#FFBA55"/>
<path d="M19.1358 0.874479C18.1547 0.588493 17.1374 0.444384 16.1153 0.446169C10.0783 0.446169 5.18445 5.34006 5.18445 11.377C5.18267 12.3991 5.32677 13.4164 5.61276 14.3975C5.0341 13.0956 4.73606 11.6862 4.73829 10.2616C4.73829 4.59408 9.33237 1.24311e-05 14.9999 1.24311e-05C16.4245 -0.00221835 17.8339 0.295814 19.1358 0.874479Z" fill="#FFE8A9"/>
<path d="M14.9996 18.2921C19.4349 18.2921 23.0304 14.6966 23.0304 10.2613C23.0304 5.82599 19.4349 2.23047 14.9996 2.23047C10.5643 2.23047 6.96875 5.82599 6.96875 10.2613C6.96875 14.6966 10.5643 18.2921 14.9996 18.2921Z" fill="#FFCF48"/>
<path d="M15.9123 6.56721L16.8212 8.40849C16.951 8.67172 17.2026 8.8542 17.4931 8.89659L19.5253 9.19194C19.7694 9.22719 19.938 9.45384 19.9028 9.69744C19.8885 9.7947 19.843 9.88438 19.7725 9.95309L18.3002 11.3866C18.09 11.5914 17.9941 11.8867 18.0436 12.1763L18.3907 14.2005C18.4322 14.4432 18.2694 14.6739 18.0262 14.7158C17.9294 14.7323 17.8299 14.7167 17.7434 14.6707L15.9257 13.7151C15.6656 13.5781 15.3551 13.5781 15.095 13.7151L13.2773 14.6707C13.0592 14.7854 12.7897 14.7015 12.675 14.4834C12.6295 14.3964 12.6135 14.2969 12.63 14.2005L12.9771 12.1763C13.0266 11.8867 12.9307 11.5914 12.7205 11.3866L11.2482 9.95309C11.0715 9.78132 11.068 9.4989 11.2397 9.32222C11.3085 9.25173 11.3981 9.20622 11.4954 9.19194L13.5276 8.89659C13.8181 8.8542 14.0697 8.67172 14.1996 8.40849L15.1084 6.56721C15.2154 6.34502 15.4818 6.25177 15.704 6.35885C15.795 6.40257 15.8686 6.47619 15.9123 6.56721Z" fill="#FFBA55"/>
<path d="M8.23692 11.1097C8.23424 13.5256 9.32331 15.8135 11.1998 17.3353C7.29107 15.2424 5.8192 10.3766 7.91257 6.46831C10.0059 2.55998 14.8713 1.08767 18.7796 3.18103C19.2356 3.42508 19.667 3.71285 20.0676 4.03988C16.1647 1.93849 11.2976 3.39876 9.19616 7.30173C8.56618 8.472 8.23647 9.78058 8.23692 11.1097Z" fill="#FFBA55"/>
<path d="M15.4019 6.30843L16.3107 8.15017C16.4405 8.41295 16.6912 8.59543 16.9813 8.63826L19.0157 8.93362C19.2598 8.96886 19.4284 9.19551 19.3932 9.43911C19.3789 9.53637 19.3334 9.62605 19.2629 9.69476L17.7906 11.1283C17.5804 11.333 17.4845 11.6284 17.534 11.918L17.8811 13.9422C17.9222 14.1853 17.7589 14.4155 17.5157 14.4566C17.4194 14.4731 17.3199 14.457 17.2333 14.4115L15.4157 13.4567C15.1556 13.3198 14.8451 13.3198 14.5849 13.4567L12.7695 14.4115C12.5514 14.5262 12.2819 14.4423 12.1672 14.2241C12.1217 14.1371 12.1057 14.0376 12.1222 13.9413L12.4693 11.9171C12.5188 11.6275 12.4229 11.3322 12.2127 11.1274L10.7404 9.69387C10.5637 9.5221 10.5602 9.23968 10.7319 9.063C10.8006 8.99251 10.8903 8.947 10.9876 8.93272L13.0198 8.63737C13.3103 8.59498 13.5619 8.41251 13.6917 8.14927L14.5988 6.30843C14.7063 6.08669 14.9731 5.99389 15.1948 6.10142C15.285 6.14514 15.3581 6.21786 15.4019 6.30843Z" fill="#FFDE76"/>
<path d="M15.3742 6.26792C15.2577 6.30227 15.1618 6.38526 15.111 6.49546L14.2008 8.33808C14.071 8.59998 13.8207 8.78156 13.5316 8.82439L11.4971 9.11886C11.253 9.1541 11.0844 9.38075 11.1196 9.62435C11.1339 9.72251 11.1803 9.81308 11.2517 9.88179L12.7196 11.3139C12.9319 11.5178 13.0287 11.8136 12.9783 12.1036L12.6303 14.1292C12.6107 14.2376 12.633 14.3491 12.6928 14.4415C12.4581 14.5165 12.2069 14.3871 12.132 14.1519C12.1101 14.0841 12.1052 14.0119 12.1173 13.9418L12.4653 11.9163C12.5157 11.6271 12.4202 11.3318 12.2109 11.1266L10.7386 9.6944C10.5615 9.52308 10.5566 9.24066 10.7279 9.06353C10.7975 8.9917 10.8894 8.94486 10.9885 8.93147L13.0185 8.63701C13.3094 8.59507 13.561 8.41348 13.6922 8.1507L14.5979 6.30807C14.7076 6.08767 14.9753 5.99755 15.1962 6.1073C15.2689 6.14344 15.3305 6.19921 15.3742 6.26792Z" fill="#FFE8A9"/>
</g>
<defs>
<clipPath id="clip0_2384_12455">
<rect width="30" height="30" fill="white"/>
</clipPath>
</defs>
</svg>
