<svg width="30" height="30" viewBox="0 0 30 30" fill="none" xmlns="http://www.w3.org/2000/svg">
<g clip-path="url(#clip0_2384_12508)">
<path d="M9.42244 27.0465C9.23494 27.4215 8.76619 27.5622 8.39119 27.3278C-0.468184 21.8434 -0.374435 8.53092 8.62557 3.18717C8.85994 3.04654 9.18807 3.14029 9.32869 3.37467C9.46932 3.60904 9.37557 3.89029 9.14119 4.03092C0.750566 9.04654 0.844315 21.0465 9.14119 26.109C9.46932 26.2965 9.56307 26.7184 9.42244 27.0465Z" fill="#4CB274"/>
<path d="M9.09375 6.28188C8.4375 6.7975 7.73438 7.07875 7.03125 7.21938C6.32812 7.36 5.67188 7.26625 5.15625 6.89125C6.32812 5.34438 8.34375 5.20375 9.09375 6.28188Z" fill="#79DCA0"/>
<path d="M6.23503 2.53125C5.29753 3.28125 4.68816 4.21875 4.54753 5.01562C4.36003 5.85938 4.59441 6.51562 5.11003 6.9375C6.23503 5.4375 6.98503 3.60938 6.23503 2.53125Z" fill="#79DCA0"/>
<path d="M6.84375 8.53048C6.375 9.13986 5.8125 9.65548 5.20313 9.93673C4.59375 10.218 3.89062 10.3586 3.32812 10.1242C3.98438 8.29611 5.8125 7.73361 6.84375 8.53048Z" fill="#79DCA0"/>
<path d="M3.04688 5.71875C2.39063 6.60938 2.10937 7.64063 2.20312 8.4375C2.29688 9.23438 2.67188 9.84375 3.28125 10.0781C3.9375 8.4375 4.07813 6.5625 3.04688 5.71875Z" fill="#79DCA0"/>
<path d="M5.39062 11.2027C5.10938 11.9058 4.6875 12.5152 4.17187 12.937C3.65625 13.3589 3.04688 13.687 2.39062 13.5933C2.625 11.7183 4.17188 10.687 5.39062 11.2027Z" fill="#79DCA0"/>
<path d="M0.984658 9.51562C0.609658 10.5469 0.609658 11.5781 0.890908 12.3281C1.17216 13.0781 1.73466 13.5469 2.39091 13.5938C2.57841 11.8125 2.20341 10.0312 0.984658 9.51562Z" fill="#79DCA0"/>
<path d="M4.68804 14.1086C4.59429 14.8586 4.35991 15.5617 3.98491 16.1242C3.60991 16.6867 3.09429 17.1086 2.43804 17.2023C2.15679 15.3273 3.42241 13.9211 4.68804 14.1086Z" fill="#79DCA0"/>
<path d="M0.000384536 13.6406C-0.0933655 14.7188 0.187885 15.7031 0.656635 16.3594C1.12538 17.0156 1.78163 17.2969 2.43788 17.2031C2.15663 15.4219 1.31288 13.8281 0.000384536 13.6406Z" fill="#79DCA0"/>
<path d="M4.78141 17.1094C4.92203 17.8594 4.82828 18.6094 4.64078 19.2188C4.40641 19.875 4.03141 20.4375 3.42203 20.7188C2.67203 18.9375 3.51578 17.25 4.78141 17.1094Z" fill="#79DCA0"/>
<path d="M0.1875 17.8599C0.375 18.9381 0.890625 19.8287 1.54687 20.2974C2.20312 20.8131 2.90625 20.9068 3.46875 20.6724C2.71875 19.0318 1.45312 17.7193 0.1875 17.8599Z" fill="#79DCA0"/>
<path d="M5.6724 19.9688C6.00053 20.6719 6.14115 21.375 6.09428 22.0781C6.0474 22.7812 5.8599 23.4375 5.34428 23.8594C4.12553 22.3125 4.50053 20.4375 5.6724 19.9688Z" fill="#79DCA0"/>
<path d="M1.40625 21.9381C1.875 22.9225 2.625 23.6725 3.375 24.0006C4.125 24.3287 4.875 24.2818 5.34375 23.86C4.17187 22.4068 2.625 21.4693 1.40625 21.9381Z" fill="#79DCA0"/>
<path d="M7.35995 22.5C7.87558 23.1094 8.25058 23.7656 8.43808 24.4688C8.62558 25.1719 8.62558 25.875 8.29745 26.3906C6.5162 25.2656 6.3287 23.2969 7.35995 22.5Z" fill="#79DCA0"/>
<path d="M3.79688 25.5944C4.54687 26.4382 5.53125 26.9538 6.375 27.0944C7.21875 27.235 7.92188 26.9538 8.29688 26.4382C6.60938 25.3132 4.82812 24.7975 3.79688 25.5944Z" fill="#79DCA0"/>
<path d="M20.5783 27.0465C20.7658 27.4215 21.2345 27.5622 21.6095 27.3278C30.4689 21.8434 30.3752 8.53092 21.3752 3.18717C21.1408 3.04654 20.8127 3.14029 20.672 3.37467C20.5314 3.60904 20.6252 3.89029 20.8595 4.03092C29.2502 9.04654 29.1095 20.9997 20.8127 26.109C20.5314 26.2965 20.4377 26.7184 20.5783 27.0465Z" fill="#4CB274"/>
<path d="M20.9062 6.28188C21.5625 6.7975 22.2656 7.07875 22.9688 7.21938C23.6719 7.36 24.3281 7.26625 24.8438 6.89125C23.6719 5.34438 21.6562 5.20375 20.9062 6.28188Z" fill="#79DCA0"/>
<path d="M23.7658 2.53125C24.7033 3.28125 25.3126 4.21875 25.4533 5.01562C25.6408 5.85938 25.4064 6.51562 24.8908 6.9375C23.7658 5.4375 23.0158 3.60938 23.7658 2.53125Z" fill="#79DCA0"/>
<path d="M23.1562 8.53048C23.625 9.13986 24.1875 9.65548 24.7969 9.93673C25.4062 10.218 26.1094 10.3586 26.6719 10.1242C26.0156 8.29611 24.1875 7.73361 23.1562 8.53048Z" fill="#79DCA0"/>
<path d="M26.9536 5.71875C27.6099 6.60938 27.8911 7.64063 27.7974 8.4375C27.7036 9.23438 27.3286 9.84375 26.7192 10.0781C26.063 8.4375 25.9224 6.5625 26.9536 5.71875Z" fill="#79DCA0"/>
<path d="M24.6094 11.2027C24.8906 11.9058 25.3125 12.5152 25.8281 12.937C26.3437 13.3589 26.9531 13.687 27.6094 13.5933C27.375 11.7183 25.8281 10.687 24.6094 11.2027Z" fill="#79DCA0"/>
<path d="M29.0164 9.51562C29.3914 10.5469 29.3913 11.5781 29.1101 12.3281C28.8288 13.0781 28.2664 13.5469 27.6101 13.5938C27.4226 11.8125 27.7976 10.0312 29.0164 9.51562Z" fill="#79DCA0"/>
<path d="M25.3125 14.1086C25.4062 14.8586 25.6406 15.5617 26.0156 16.1242C26.3906 16.6867 26.9062 17.1086 27.5625 17.2023C27.8437 15.3273 26.5781 13.9211 25.3125 14.1086Z" fill="#79DCA0"/>
<path d="M30 13.6406C30.0938 14.7188 29.8125 15.7031 29.3437 16.3594C28.875 17.0156 28.2188 17.2969 27.5625 17.2031C27.8438 15.4219 28.6875 13.8281 30 13.6406Z" fill="#79DCA0"/>
<path d="M25.2191 17.1094C25.0785 17.8594 25.1722 18.6094 25.3597 19.2188C25.5941 19.875 25.9691 20.4375 26.5785 20.7188C27.3285 18.9375 26.4847 17.25 25.2191 17.1094Z" fill="#79DCA0"/>
<path d="M29.8125 17.8599C29.625 18.9381 29.1094 19.8287 28.4531 20.2974C27.7969 20.8131 27.0938 20.9068 26.5312 20.6724C27.2812 19.0318 28.5469 17.7193 29.8125 17.8599Z" fill="#79DCA0"/>
<path d="M24.3281 19.9688C24 20.6719 23.8594 21.375 23.9062 22.0781C23.9531 22.7812 24.1406 23.4375 24.6562 23.8594C25.875 22.3125 25.5 20.4375 24.3281 19.9688Z" fill="#79DCA0"/>
<path d="M28.5938 21.9381C28.125 22.9225 27.375 23.6725 26.625 24.0006C25.875 24.3287 25.125 24.2818 24.6562 23.86C25.8281 22.4068 27.375 21.4693 28.5938 21.9381Z" fill="#79DCA0"/>
<path d="M22.6413 22.5C22.1257 23.1094 21.7507 23.7656 21.5632 24.4688C21.3757 25.1719 21.3757 25.875 21.7038 26.3906C23.4851 25.2656 23.6726 23.2969 22.6413 22.5Z" fill="#79DCA0"/>
<path d="M26.2031 25.5944C25.4531 26.4382 24.4688 26.9538 23.625 27.0944C22.7813 27.235 22.0781 26.9538 21.7031 26.4382C23.3906 25.3132 25.1719 24.7975 26.2031 25.5944Z" fill="#79DCA0"/>
<path d="M19.3125 17.25L20.2969 23.1563L15 20.3906L9.70313 23.1563L10.6875 17.25L6.42188 13.0781L12.3281 12.1875L15 6.84375L17.6719 12.1875L23.5781 13.0781L19.3125 17.25Z" fill="#F7CA3C"/>
<path d="M15 6.84375V15.1406L17.6719 12.1875L15 6.84375Z" fill="#F2BD27"/>
<path d="M23.5781 13.0781L19.3125 17.25L15 15.1406L23.5781 13.0781Z" fill="#F2BD27"/>
<path d="M6.42188 13.0781L10.6875 17.25L15 15.1406L6.42188 13.0781Z" fill="#F2BD27"/>
<path d="M15 15.1406V20.3906L20.2969 23.1563L15 15.1406Z" fill="#F2BD27"/>
<path d="M15 15.1406V20.3906L9.70312 23.1563L15 15.1406Z" fill="#F2BD27"/>
</g>
<defs>
<clipPath id="clip0_2384_12508">
<rect width="30" height="30" fill="white"/>
</clipPath>
</defs>
</svg>
