<svg width="30" height="30" viewBox="0 0 30 30" fill="none" xmlns="http://www.w3.org/2000/svg">
<g clip-path="url(#clip0_2365_14611)">
<path d="M29.7153 16.2005C30.0949 15.4488 30.0949 14.5512 29.7153 13.7995L29.3223 13.021C29.2366 12.8513 29.2067 12.6623 29.2357 12.4744L29.3689 11.6126C29.4976 10.7803 29.2202 9.92668 28.6269 9.32903L28.0126 8.71011C27.8787 8.57516 27.7918 8.40464 27.7614 8.21695L27.6218 7.35613C27.4884 6.53411 26.971 5.81487 26.2353 5.42666L25.4795 4.9809C25.4649 4.97229 25.4501 4.96408 25.4349 4.95635C25.2659 4.86944 25.1306 4.73414 25.0437 4.56503L24.6449 3.78953C24.2688 3.05822 23.5021 2.51742 22.6438 2.37819L21.783 2.2386C21.5953 2.20813 21.4248 2.12129 21.2898 1.98739L20.6709 1.37299C20.0733 0.779734 19.2198 0.502563 18.3875 0.631011L17.5257 0.764206C17.3376 0.793271 17.1487 0.763327 16.979 0.677656L16.2005 0.284635C15.4488 -0.0948491 14.5513 -0.0949077 13.7995 0.284635L13.021 0.677656C12.8514 0.763268 12.6624 0.793153 12.4744 0.764264L11.6126 0.63107C10.7802 0.502329 9.92671 0.779793 9.32907 1.37304L8.71009 1.98733C8.5752 2.12129 8.40467 2.20813 8.21698 2.2386L7.35611 2.37819C6.49788 2.51742 5.73111 3.05816 5.35509 3.78953L4.95632 4.56503C4.86936 4.73408 4.73406 4.86944 4.56494 4.95635L3.78939 5.35517C3.05808 5.7312 2.51728 6.49796 2.3781 7.35619L2.23846 8.21706C2.20805 8.40475 2.12115 8.57522 1.98719 8.71017L1.37296 9.32909C0.779712 9.92674 0.502365 10.7803 0.630989 11.6126L0.764242 12.4744C0.793307 12.6623 0.763363 12.8513 0.677634 13.021L0.284613 13.7995C-0.0948711 14.5512 -0.0948711 15.4487 0.284613 16.2005L0.677634 16.979C0.763305 17.1487 0.793249 17.3376 0.764242 17.5256L0.630989 18.3874C0.502365 19.2196 0.779771 20.0733 1.37296 20.6709L1.98731 21.2899C2.12127 21.4248 2.20817 21.5953 2.23858 21.783L2.37822 22.6438C2.51739 23.5021 3.0582 24.2689 3.78951 24.6449L4.565 25.0436C4.73412 25.1306 4.86942 25.2659 4.95638 25.435L5.35515 26.2106C5.73123 26.9419 6.49799 27.4827 7.35623 27.6219L8.21704 27.7615C8.40473 27.792 8.57525 27.8788 8.71015 28.0127L9.32912 28.6271C9.92689 29.2204 10.7804 29.4975 11.6126 29.369L12.4745 29.2358C12.6623 29.2067 12.8514 29.2367 13.021 29.3224L13.7995 29.7154C14.1754 29.9052 14.5877 30 15 30C15.4124 30 15.8247 29.9052 16.2005 29.7154L16.979 29.3224C17.1487 29.2367 17.3378 29.2068 17.5256 29.2358L18.3874 29.369C19.2196 29.4975 20.0732 29.2203 20.6709 28.627L21.2898 28.0127C21.4247 27.8787 21.5953 27.7919 21.783 27.7614L22.6438 27.6217C23.4658 27.4884 24.1851 26.9711 24.5733 26.2353L25.0191 25.4795C25.0277 25.4648 25.0359 25.45 25.0436 25.4349C25.1305 25.2658 25.2659 25.1305 25.4349 25.0436L26.2104 24.6448C26.9593 24.2598 27.4869 23.5336 27.6218 22.7023L27.7614 21.8416C27.7918 21.6539 27.8787 21.4834 28.0126 21.3484C28.0219 21.339 28.6423 20.6553 28.6423 20.6553C29.225 20.0584 29.4965 19.2124 29.3689 18.3874L29.2357 17.5256C29.2066 17.3377 29.2366 17.1487 29.3222 16.979L29.7153 16.2005Z" fill="url(#paint0_linear_2365_14611)"/>
<path d="M15.0009 4.39453C9.17787 4.39453 4.39453 9.17916 4.39453 15.0009C4.39453 20.8239 9.17916 25.6072 15.0009 25.6072C20.8239 25.6072 25.6072 20.8226 25.6072 15.0009C25.6072 9.17787 20.8225 4.39453 15.0009 4.39453ZM21.1275 12.5771L19.3695 19.6089C19.2717 20.0002 18.9201 20.2747 18.5168 20.2747H11.485C11.0816 20.2747 10.73 20.0002 10.6322 19.6089L8.87427 12.5771C8.77073 12.1629 8.97987 11.7341 9.37008 11.5607C9.76023 11.3873 10.2186 11.5194 10.4567 11.8739C10.6973 12.2275 11.5674 13.2429 12.3639 13.2429C12.5095 13.2429 12.9605 12.9041 13.425 11.8567C13.8418 10.9171 14.1219 9.70801 14.1219 8.84802C14.1219 8.36259 14.5154 7.96904 15.0009 7.96904C15.4863 7.96904 15.8798 8.36259 15.8798 8.84802C15.8798 9.70801 16.1599 10.9171 16.5767 11.8567C17.0413 12.9041 17.4922 13.2429 17.6378 13.2429C18.458 13.2429 19.3508 12.1631 19.545 11.8739C19.7831 11.5195 20.2416 11.3873 20.6317 11.5607C21.0219 11.7341 21.231 12.1629 21.1275 12.5771Z" fill="url(#paint1_linear_2365_14611)"/>
</g>
<defs>
<linearGradient id="paint0_linear_2365_14611" x1="15" y1="30" x2="15" y2="2.14577e-05" gradientUnits="userSpaceOnUse">
<stop stop-color="#FD5900"/>
<stop offset="1" stop-color="#FFDE00"/>
</linearGradient>
<linearGradient id="paint1_linear_2365_14611" x1="15.0009" y1="25.6072" x2="15.0009" y2="4.39453" gradientUnits="userSpaceOnUse">
<stop stop-color="#FFE59A"/>
<stop offset="1" stop-color="#FFFFD5"/>
</linearGradient>
<clipPath id="clip0_2365_14611">
<rect width="30" height="30" fill="white"/>
</clipPath>
</defs>
</svg>
