<svg width="20" height="19" viewBox="0 0 20 19" fill="none" xmlns="http://www.w3.org/2000/svg">
<path d="M15.7282 8.7085H4.64486C3.77041 8.7085 3.06152 9.41738 3.06152 10.2918V15.8335C3.06152 16.7079 3.77041 17.4168 4.64486 17.4168H15.7282C16.6026 17.4168 17.3115 16.7079 17.3115 15.8335V10.2918C17.3115 9.41738 16.6026 8.7085 15.7282 8.7085Z" stroke="#464B70" stroke-linecap="round" stroke-linejoin="round"/>
<path d="M6.22821 8.7085V5.54183C6.22821 4.49201 6.64525 3.4852 7.38758 2.74287C8.12991 2.00053 9.13673 1.5835 10.1865 1.5835C11.2364 1.5835 12.2432 2.00053 12.9855 2.74287C13.7278 3.4852 14.1449 4.49201 14.1449 5.54183V8.7085" stroke="#464B70" stroke-linecap="round" stroke-linejoin="round"/>
</svg>
