<svg width="19" height="19" viewBox="0 0 19 19" fill="none" xmlns="http://www.w3.org/2000/svg">
<path d="M11.2427 4.16667C12.0159 4.31753 12.7266 4.6957 13.2836 5.25278C13.8407 5.80986 14.2189 6.5205 14.3698 7.29375M11.2427 1C12.8492 1.17847 14.3473 1.89789 15.491 3.04013C16.6346 4.18237 17.3559 5.67955 17.5364 7.28583M16.7448 13.6033V15.9783C16.7457 16.1988 16.7005 16.417 16.6122 16.6191C16.5238 16.8211 16.3943 17.0024 16.2318 17.1515C16.0694 17.3005 15.8775 17.414 15.6687 17.4846C15.4598 17.5553 15.2385 17.5815 15.0189 17.5617C12.5828 17.297 10.2428 16.4645 8.18684 15.1312C6.27404 13.9158 4.65232 12.2941 3.43684 10.3812C2.09891 8.31595 1.26628 5.96454 1.00643 3.5175C0.986642 3.29858 1.01266 3.07794 1.08282 2.86962C1.15298 2.6613 1.26575 2.46988 1.41395 2.30753C1.56214 2.14519 1.74252 2.01548 1.94359 1.92666C2.14467 1.83785 2.36203 1.79187 2.58184 1.79167H4.95684C5.34104 1.78789 5.71351 1.92394 6.00482 2.17446C6.29613 2.42499 6.4864 2.7729 6.54018 3.15333C6.64042 3.91339 6.82632 4.65966 7.09434 5.37792C7.20086 5.66127 7.22391 5.96922 7.16077 6.26528C7.09763 6.56134 6.95094 6.83309 6.73809 7.04833L5.73268 8.05375C6.85966 10.0357 8.5007 11.6768 10.4827 12.8037L11.4881 11.7983C11.7033 11.5855 11.9751 11.4388 12.2711 11.3757C12.5672 11.3125 12.8752 11.3356 13.1585 11.4421C13.8768 11.7101 14.623 11.896 15.3831 11.9962C15.7677 12.0505 16.1189 12.2442 16.3699 12.5405C16.621 12.8368 16.7544 13.2151 16.7448 13.6033Z" stroke="#464B70" stroke-linecap="round" stroke-linejoin="round"/>
</svg>
