<svg width="18" height="18" viewBox="0 0 18 18" fill="none" xmlns="http://www.w3.org/2000/svg">
<path d="M3.65332 1.81915C3.65332 1.81915 5.10514 2.99675 7.48564 2.46603C9.74268 1.96456 11.847 1.39503 15.3823 2.6719V10.2316C15.3823 10.2316 12.1308 8.6811 9.16893 9.3727C6.20708 10.0643 4.53251 9.79879 3.65332 8.9196" fill="#E21B1B"/>
<path d="M3.75293 1.31921H3.19043V18H3.75293V1.31921Z" fill="#999999"/>
<path d="M3.47092 1.70747C3.94243 1.70747 4.32466 1.32524 4.32466 0.853736C4.32466 0.382231 3.94243 0 3.47092 0C2.99942 0 2.61719 0.382231 2.61719 0.853736C2.61719 1.32524 2.99942 1.70747 3.47092 1.70747Z" fill="#666666"/>
</svg>
